<svg width="28" height="26" viewBox="0 0 28 26" fill="none" xmlns="http://www.w3.org/2000/svg">
<mask id="path-1-inside-1_2440_15506" fill="white">
<path d="M5.98784 6.28744C5.77592 6.23267 5.62454 6.06834 5.71537 5.87662C5.74564 5.79446 5.95756 5.68491 6.04839 5.7123C6.23004 5.76707 6.35114 5.9314 6.47224 6.01356C6.38141 6.28744 6.19976 6.34222 5.98784 6.28744Z"/>
</mask>
<path d="M5.98784 6.28744C5.77592 6.23267 5.62454 6.06834 5.71537 5.87662C5.74564 5.79446 5.95756 5.68491 6.04839 5.7123C6.23004 5.76707 6.35114 5.9314 6.47224 6.01356C6.38141 6.28744 6.19976 6.34222 5.98784 6.28744Z" fill="black"/>
<path d="M5.71537 5.87662L6.0191 6.02052L6.02553 6.00693L6.03073 5.99283L5.71537 5.87662ZM6.47224 6.01356L6.79124 6.11935L6.87124 5.87813L6.66093 5.73545L6.47224 6.01356ZM6.07194 5.96205C6.04838 5.95596 6.0305 5.94778 6.01877 5.94058C6.0067 5.93318 6.00528 5.92945 6.00863 5.934C6.01272 5.93955 6.02141 5.95449 6.02392 5.97743C6.02653 6.00133 6.02062 6.0173 6.0191 6.02052L5.41164 5.73273C5.31045 5.94632 5.3451 6.16667 5.46751 6.33277C5.57803 6.48274 5.74464 6.57172 5.90373 6.61284L6.07194 5.96205ZM6.03073 5.99283C6.01758 6.02851 6.00083 6.05029 5.99442 6.05809C5.98703 6.06709 5.98233 6.07082 5.98321 6.07008C5.98535 6.06829 5.99477 6.06138 6.01009 6.05368C6.01704 6.05019 6.0236 6.04735 6.02921 6.04524C6.03195 6.04421 6.03419 6.04346 6.03587 6.04294C6.0367 6.04269 6.03734 6.04251 6.03779 6.04238C6.03825 6.04226 6.03846 6.04221 6.03844 6.04221C6.03843 6.04222 6.03812 6.04229 6.03752 6.0424C6.03693 6.04252 6.03598 6.04268 6.03469 6.04287C6.03222 6.04323 6.02778 6.04376 6.0216 6.04399C6.01098 6.04438 5.98523 6.04429 5.95136 6.03408L6.14542 5.39052C6.03984 5.35868 5.94135 5.37467 5.88615 5.38751C5.82212 5.40241 5.761 5.42657 5.70825 5.45308C5.65545 5.47962 5.60054 5.51378 5.55159 5.55479C5.51105 5.58875 5.43806 5.65714 5.4 5.76042L6.03073 5.99283ZM5.95136 6.03408C5.97463 6.04109 6.0075 6.05932 6.0647 6.10819C6.09577 6.13473 6.1178 6.15564 6.15689 6.19047C6.19005 6.22001 6.23399 6.25806 6.28354 6.29168L6.66093 5.73545C6.64994 5.72798 6.63332 5.71468 6.60404 5.68859C6.58069 5.66779 6.53838 5.62879 6.50134 5.59713C6.4223 5.52961 6.3038 5.43828 6.14542 5.39052L5.95136 6.03408ZM6.15323 5.90777C6.13979 5.9483 6.12737 5.96727 6.12223 5.97393C6.11812 5.97924 6.11938 5.97598 6.12673 5.97235C6.1419 5.96487 6.13386 5.97805 6.07194 5.96205L5.90373 6.61284C6.05375 6.65161 6.24248 6.66479 6.42417 6.57514C6.61148 6.48272 6.72696 6.3132 6.79124 6.11935L6.15323 5.90777Z" fill="black" mask="url(#path-1-inside-1_2440_15506)"/>
<path d="M8.13156 8.40037C8.10517 8.3884 8.05797 8.3493 8.01266 8.27825C7.96566 8.20455 7.94441 8.13338 7.94441 8.09473C7.94441 7.99371 7.97 7.90915 8.01354 7.85852C8.04842 7.81794 8.11525 7.77481 8.26582 7.7953C8.39633 7.81717 8.45344 7.86541 8.48199 7.9106C8.51365 7.96073 8.52997 8.03842 8.51823 8.15233C8.49396 8.27733 8.44042 8.34529 8.38477 8.37945C8.32875 8.41384 8.24535 8.42945 8.13156 8.40037Z" fill="black" stroke="black" stroke-width="0.33609"/>
<path d="M8.21708 4.29156L8.21714 4.29135L8.20882 4.2893C8.06749 4.25443 8.00708 4.20394 7.97762 4.1573C7.94597 4.1072 7.92871 4.02824 7.94219 3.89411L7.94233 3.89272C7.95231 3.78432 8.00243 3.72611 8.06357 3.69477C8.13 3.66071 8.22484 3.65163 8.32482 3.68006C8.42423 3.72166 8.48262 3.78168 8.51024 3.84512C8.53672 3.90591 8.54346 3.98938 8.50404 4.09764C8.49356 4.11221 8.48347 4.12659 8.47405 4.14002C8.47303 4.14147 8.47201 4.14292 8.47101 4.14435C8.4563 4.1653 8.44314 4.18396 8.42999 4.20152C8.40329 4.23717 8.38181 4.26113 8.3618 4.27733C8.34355 4.2921 8.32808 4.29915 8.31169 4.30217C8.29454 4.30533 8.26526 4.30609 8.21708 4.29156Z" fill="black" stroke="black" stroke-width="0.33609"/>
<path d="M10.5901 10.2382L10.581 10.2347L10.5714 10.2322C10.491 10.2114 10.4431 10.1746 10.4241 10.1455C10.4158 10.1328 10.4123 10.121 10.4122 10.1082C10.4121 10.0948 10.4156 10.0718 10.4343 10.038L10.437 10.033C10.439 10.0312 10.4419 10.0288 10.4457 10.0259C10.4622 10.0133 10.4865 9.99856 10.5146 9.98518C10.5398 9.97319 10.5631 9.96459 10.5806 9.95978C10.6795 10.0104 10.7539 10.0792 10.8384 10.159C10.8039 10.2144 10.772 10.2389 10.7491 10.2498C10.718 10.2645 10.6705 10.2694 10.5901 10.2382Z" fill="black" stroke="black" stroke-width="0.33609"/>
<path d="M10.5448 5.76533L10.5523 5.76742L10.56 5.7688C10.5643 5.76959 10.5829 5.77548 10.6135 5.79714C10.6422 5.81745 10.6732 5.84573 10.7018 5.87844C10.7305 5.9112 10.7535 5.94471 10.7686 5.97362C10.7831 6.00162 10.7849 6.01512 10.7851 6.01509C10.7851 6.01509 10.7851 6.01486 10.7851 6.01442V6.02352L10.7861 6.03272C10.7986 6.14534 10.7761 6.2378 10.7349 6.28925C10.7042 6.32759 10.6381 6.37476 10.4705 6.34227L10.4705 6.34212L10.4635 6.34108C10.4019 6.33178 10.3316 6.30184 10.2613 6.26369C10.2401 6.25219 10.2201 6.24061 10.2011 6.22934C10.2165 6.14862 10.2322 6.07694 10.2495 6.01391C10.275 5.92132 10.3015 5.85762 10.3292 5.81556C10.3548 5.77653 10.3773 5.76198 10.3981 5.75531C10.4219 5.74767 10.4658 5.74335 10.5448 5.76533Z" fill="black" stroke="black" stroke-width="0.33609"/>
<path d="M12.8316 8.53274L12.8315 8.53222L12.8186 8.5354C12.5674 8.5974 12.3842 8.47695 12.3221 8.28962L12.3222 8.28959L12.3203 8.28441C12.2614 8.12478 12.2913 8.02552 12.3454 7.9596C12.4076 7.88395 12.5278 7.82089 12.7004 7.79687L12.7004 7.79692L12.7045 7.79625C12.8249 7.77645 12.9098 7.80584 12.9755 7.86319C13.0438 7.92275 13.1041 8.02423 13.1446 8.17131C13.1415 8.26024 13.1176 8.33876 13.0747 8.398C13.0311 8.45827 12.9584 8.51189 12.8316 8.53274Z" fill="black" stroke="black" stroke-width="0.33609"/>
<path d="M12.7861 4.26361L12.7786 4.26152L12.771 4.26014C12.7666 4.25935 12.7481 4.25346 12.7175 4.2318C12.6887 4.21149 12.6577 4.18321 12.6291 4.1505C12.6004 4.11774 12.5774 4.08423 12.5624 4.05532C12.5478 4.02732 12.5461 4.01382 12.5458 4.01385C12.5458 4.01385 12.5458 4.01408 12.5458 4.01453V4.00542L12.5448 3.99622C12.5333 3.892 12.5586 3.80626 12.603 3.75514C12.6415 3.71085 12.7164 3.66687 12.8693 3.68814L12.8693 3.68815L12.8709 3.68836C12.9375 3.69696 12.9817 3.72396 13.0108 3.76685C13.0418 3.81241 13.0698 3.89675 13.0589 4.04448C13.0423 4.1189 13.0254 4.18833 12.988 4.23526C12.9723 4.25496 12.9553 4.26723 12.9324 4.27374C12.908 4.28073 12.8629 4.28497 12.7861 4.26361Z" fill="black" stroke="black" stroke-width="0.33609"/>
<path d="M15.08 10.4482L15.0801 10.4478H15.0684C14.9876 10.4478 14.9315 10.4214 14.8929 10.3846C14.8546 10.3481 14.8247 10.2929 14.8126 10.2202C14.8139 10.0858 14.8366 9.99907 14.8736 9.94982C14.9013 9.9129 14.9584 9.86863 15.1173 9.87968L15.1172 9.88009H15.1289C15.2097 9.88009 15.2658 9.90649 15.3044 9.94329C15.3413 9.97836 15.3703 10.0308 15.3832 10.0993C15.368 10.2271 15.3474 10.3165 15.3082 10.3736C15.2907 10.3992 15.2697 10.4174 15.2402 10.4299C15.209 10.4432 15.1592 10.4537 15.08 10.4482Z" fill="black" stroke="black" stroke-width="0.33609"/>
<path d="M15.3468 6.15634L15.3467 6.15632L15.3451 6.15984C15.309 6.23593 15.2594 6.29612 15.2068 6.3292C15.1604 6.35846 15.1073 6.37021 15.0377 6.34703C14.9145 6.30209 14.8425 6.23675 14.8107 6.17346C14.7816 6.11556 14.7737 6.03513 14.8297 5.9238L14.8297 5.92382L14.8314 5.9203C14.8872 5.8024 14.9895 5.73119 15.144 5.73889C15.2684 5.81001 15.3371 5.8739 15.3677 5.93104C15.393 5.97833 15.4039 6.04263 15.3468 6.15634Z" fill="black" stroke="black" stroke-width="0.33609"/>
<path d="M17.3253 8.53078L17.3254 8.53022H17.3116C17.1752 8.53022 17.0509 8.49057 16.9652 8.43052C16.8805 8.37118 16.8438 8.30129 16.8438 8.23267C16.8438 8.09448 16.8827 7.96821 16.953 7.88867C17.015 7.81857 17.12 7.76318 17.3128 7.79566C17.5335 7.83592 17.6853 7.98476 17.7165 8.22205C17.6903 8.32324 17.6456 8.4023 17.5886 8.45382C17.5309 8.50604 17.449 8.54095 17.3253 8.53078Z" fill="black" stroke="black" stroke-width="0.33609"/>
<path d="M16.8453 4.08587L16.8454 4.08449C16.8583 3.94499 16.9088 3.81754 16.9877 3.74164C17.0563 3.67553 17.1663 3.62855 17.359 3.68302L17.3607 3.68349C17.4837 3.71688 17.5723 3.77519 17.6299 3.84624C17.6828 3.91155 17.7161 3.99551 17.7205 4.09969C17.6814 4.21875 17.63 4.29912 17.5681 4.34893C17.5058 4.39904 17.4145 4.43297 17.2665 4.42191C17.1258 4.41025 17.0105 4.36457 16.9375 4.30329C16.8691 4.24583 16.8363 4.17504 16.8453 4.08587Z" fill="black" stroke="black" stroke-width="0.33609"/>
<path d="M19.4168 10.2037V10.1945L19.4158 10.1853C19.4011 10.0518 19.4078 9.96047 19.4386 9.90297C19.4597 9.86343 19.5098 9.80749 19.6835 9.79627L19.6835 9.79629L19.6864 9.79605C19.8165 9.78535 19.9084 9.81771 19.9723 9.86908C20.0314 9.91667 20.0793 9.99091 20.1058 10.0941C20.0779 10.2135 20.0465 10.3097 19.999 10.3799C19.9539 10.4464 19.8928 10.4926 19.78 10.5018C19.6542 10.5122 19.5654 10.4758 19.5091 10.4249C19.4522 10.3733 19.4168 10.2966 19.4168 10.2037Z" fill="black" stroke="black" stroke-width="0.33609"/>
<path d="M21.9243 8.39254L21.9244 8.39213H21.9127C21.8319 8.39213 21.7758 8.36573 21.7372 8.32893C21.6975 8.29115 21.6669 8.23326 21.6557 8.15672C21.6434 8.02933 21.6665 7.94243 21.7027 7.89415C21.7319 7.85522 21.7906 7.81342 21.9303 7.82395L21.9303 7.82442H21.943C22.0319 7.82442 22.087 7.84895 22.1216 7.88028C22.1555 7.9109 22.1863 7.96301 22.1987 8.05055C22.1978 8.17791 22.1812 8.2678 22.1463 8.32159C22.1231 8.35735 22.0762 8.40311 21.9243 8.39254Z" fill="black" stroke="black" stroke-width="0.33609"/>
<path d="M21.8828 4.42258C21.5943 4.42258 21.4454 4.26425 21.4454 4.12504C21.4454 3.97067 21.4854 3.84679 21.553 3.77257C21.6124 3.70734 21.7164 3.65467 21.9144 3.68803C22.1217 3.72587 22.2568 3.86441 22.3137 4.08723C22.2755 4.18682 22.2253 4.2665 22.1637 4.32222C22.0969 4.38259 22.0087 4.42258 21.8828 4.42258Z" fill="black" stroke="black" stroke-width="0.33609"/>
<path d="M24.1871 10.448L24.1871 10.448L24.1851 10.4476C24.1825 10.4472 24.167 10.4426 24.1396 10.4221C24.1137 10.4027 24.0852 10.3749 24.0574 10.3414C24.0024 10.275 23.9681 10.2082 23.9578 10.1732C23.9491 10.0738 23.9742 9.99204 24.0171 9.94264C24.0556 9.89835 24.1305 9.85437 24.2833 9.87564L24.2833 9.87569L24.2876 9.87618C24.3717 9.88569 24.4216 9.91621 24.455 9.95528C24.4866 9.99233 24.5131 10.0487 24.5277 10.1307C24.5208 10.1509 24.5143 10.1707 24.5082 10.1894L24.5069 10.1933C24.4969 10.2241 24.4878 10.2519 24.4781 10.2787C24.4577 10.3355 24.4389 10.3749 24.4181 10.4026C24.3997 10.427 24.3808 10.4413 24.3549 10.4496C24.3259 10.4589 24.2749 10.465 24.1871 10.448Z" fill="black" stroke="black" stroke-width="0.33609"/>
<path d="M24.2513 6.34073L24.2513 6.34072L24.2497 6.34095C24.0989 6.36194 24.0424 6.31954 24.0112 6.28001C23.9668 6.2238 23.9399 6.12843 23.9252 5.99595L23.9253 5.99594L23.9246 5.99141C23.9173 5.93813 23.9339 5.89368 23.9716 5.85594C24.0121 5.81541 24.0805 5.78076 24.1706 5.77057L24.1706 5.77059L24.1733 5.77025C24.2631 5.75865 24.3129 5.76721 24.3411 5.77849C24.3654 5.7882 24.3868 5.80492 24.4097 5.84217C24.4351 5.88348 24.4585 5.94405 24.4838 6.03425C24.5006 6.09381 24.5163 6.15866 24.534 6.23251C24.5169 6.2423 24.4987 6.25232 24.4795 6.26226C24.4081 6.29916 24.3297 6.33061 24.2513 6.34073Z" fill="black" stroke="black" stroke-width="0.33609"/>
<path d="M20.0561 6.47575C20.0238 6.52445 19.9571 6.57494 19.8132 6.58589C19.4734 6.60939 19.2275 6.47074 19.1373 6.20815C19.0916 6.06185 19.1192 5.958 19.1738 5.88879C19.232 5.81519 19.3414 5.75486 19.5035 5.74349C19.6618 5.73337 19.7674 5.78665 19.8545 5.87313C19.9453 5.96318 20.0154 6.08864 20.0883 6.23259C20.1072 6.34515 20.0896 6.42533 20.0561 6.47575Z" fill="black" stroke="black" stroke-width="0.33609"/>
<path d="M19.8409 6.58593C19.5014 6.60923 19.2558 6.47059 19.1656 6.20815C19.1199 6.06184 19.1475 5.95799 19.2022 5.88879C19.2603 5.81518 19.3697 5.75486 19.5319 5.74349C19.6898 5.73338 19.7946 5.78643 19.8812 5.87483C19.9707 5.96631 20.0409 6.09608 20.1125 6.24944C20.1198 6.36204 20.0983 6.43782 20.0648 6.48498C20.0323 6.5307 19.9704 6.57508 19.8409 6.58593Z" fill="black" stroke="black" stroke-width="0.33609"/>
<path d="M7.94441 8.09535C7.94441 7.97737 7.97141 7.89609 8.01147 7.85123C8.04318 7.8157 8.10872 7.77449 8.26581 7.79592C8.39601 7.81773 8.452 7.86551 8.48059 7.9124C8.51317 7.96581 8.53029 8.05084 8.51809 8.18107C8.49411 8.30355 8.44267 8.36174 8.39179 8.38969C8.3371 8.41973 8.25169 8.432 8.13162 8.40102C8.10524 8.38908 8.058 8.34997 8.01266 8.27887C7.96566 8.20517 7.94441 8.134 7.94441 8.09535Z" fill="black" stroke="black" stroke-width="0.33609"/>
<path d="M7.94149 3.92827C7.96513 3.79564 8.02123 3.73886 8.07331 3.71287C8.13302 3.68307 8.22224 3.67661 8.33197 3.7097C8.42877 3.73889 8.48379 3.79138 8.51024 3.85213C8.53626 3.91188 8.54434 4.00235 8.50274 4.1268C8.49581 4.13629 8.48925 4.14531 8.483 4.15391C8.4342 4.22107 8.40441 4.26205 8.36569 4.29155C8.33615 4.31406 8.29615 4.33354 8.20519 4.31595C8.0725 4.28252 8.01059 4.2286 7.97901 4.17682C7.94537 4.12167 7.92962 4.04187 7.94149 3.92827Z" fill="black" stroke="black" stroke-width="0.33609"/>
<path d="M12.3221 8.28971L12.3223 8.28962L12.3189 8.28089C12.2633 8.14021 12.2893 8.04035 12.3469 7.96816C12.4105 7.88851 12.5308 7.8214 12.6963 7.79754C12.8948 7.78127 13.0678 7.89631 13.1446 8.14626C13.1415 8.24807 13.1169 8.32614 13.0747 8.3844C13.0307 8.44519 12.9549 8.50188 12.8186 8.53549L12.8186 8.53545L12.8149 8.53647C12.5945 8.59629 12.3836 8.47525 12.3221 8.28971Z" fill="black" stroke="black" stroke-width="0.33609"/>
<path d="M10.7851 6.01326V6.02338L10.7864 6.03359C10.7979 6.12769 10.7776 6.22259 10.7332 6.28C10.6993 6.32379 10.6318 6.37238 10.4705 6.34111L10.4705 6.34097L10.4635 6.33992C10.3994 6.33025 10.3201 6.29874 10.247 6.26095C10.2296 6.25196 10.2138 6.2433 10.1999 6.2353C10.2391 6.03116 10.2769 5.90209 10.328 5.82644C10.353 5.78935 10.3764 5.77312 10.4009 5.76477C10.4286 5.75535 10.4754 5.75006 10.5555 5.76678L10.5555 5.76684L10.56 5.76764C10.5643 5.76844 10.5829 5.77433 10.6135 5.79598C10.6422 5.81629 10.6732 5.84458 10.7018 5.87728C10.7305 5.91004 10.7535 5.94355 10.7686 5.97247C10.7831 6.00046 10.7849 6.01396 10.7851 6.01394C10.7851 6.01393 10.7851 6.01371 10.7851 6.01326Z" fill="black" stroke="black" stroke-width="0.33609"/>
<path d="M12.5424 3.98423L12.5425 3.98421L12.5412 3.9784C12.5192 3.87858 12.54 3.79856 12.5784 3.7522C12.612 3.71173 12.6842 3.66668 12.8384 3.68814L12.8384 3.68815L12.84 3.68836C12.9094 3.69733 12.9641 3.72685 13.0006 3.77446C13.0362 3.82108 13.0684 3.90349 13.0582 4.04481C13.0557 4.05638 13.0534 4.06751 13.0512 4.07824C13.0368 4.14706 13.0259 4.19898 12.9959 4.23894C12.9834 4.25564 12.9689 4.26696 12.9455 4.27347C12.9192 4.28081 12.8693 4.28523 12.7825 4.2628L12.7826 4.26235L12.7704 4.26014C12.7506 4.25657 12.6991 4.22922 12.6405 4.1615C12.5846 4.09687 12.5504 4.02759 12.5424 3.98423Z" fill="black" stroke="black" stroke-width="0.33609"/>
<path d="M10.718 10.2585C10.6796 10.2766 10.6273 10.2824 10.5499 10.2639C10.4717 10.2319 10.427 10.1917 10.4076 10.1594C10.3943 10.1375 10.3879 10.1128 10.4002 10.0769C10.4062 10.0714 10.4142 10.0649 10.4242 10.0576C10.4454 10.0421 10.4715 10.0263 10.4981 10.0129C10.5171 10.0033 10.5339 9.99627 10.5474 9.99155C10.6316 10.043 10.7176 10.1131 10.8007 10.186C10.7707 10.2262 10.742 10.2472 10.718 10.2585Z" fill="black" stroke="black" stroke-width="0.33609"/>
<path d="M5.30867 10.067C5.30867 9.90264 5.37121 9.82806 5.44823 9.78852C5.54029 9.74125 5.68537 9.72881 5.86283 9.7658C6.0857 9.8133 6.22104 9.90987 6.30283 10.0221C6.38321 10.1324 6.4227 10.273 6.4256 10.4314C6.40922 10.4951 6.38397 10.5395 6.3436 10.5836H5.6065C5.41214 10.4729 5.30867 10.2919 5.30867 10.067Z" fill="black" stroke="black" stroke-width="0.33609"/>
<path d="M5.85693 6.00778C5.85576 5.99683 5.85652 5.97764 5.8678 5.948C5.86954 5.9463 5.872 5.94403 5.87531 5.94126C5.88915 5.92966 5.90994 5.91594 5.93463 5.90353C5.95935 5.89111 5.98271 5.88265 6.00037 5.87854C6.00325 5.87787 6.00571 5.87738 6.00778 5.87702C6.05141 5.89641 6.10316 5.93247 6.16594 5.98328C6.18314 5.9972 6.20221 6.01318 6.22227 6.02999C6.23579 6.04132 6.24976 6.05302 6.2639 6.06472C6.24134 6.09772 6.21903 6.1142 6.20109 6.12305C6.16705 6.13985 6.11383 6.14644 6.02989 6.12474C5.94236 6.10212 5.89206 6.06807 5.87098 6.04082C5.86199 6.02921 5.8581 6.01887 5.85693 6.00778Z" fill="black" stroke="black" stroke-width="0.33609"/>
<path d="M21.9615 7.82402L21.9615 7.82442H21.9732C22.0611 7.82442 22.1205 7.84859 22.1622 7.88255C22.2001 7.91338 22.2334 7.96051 22.2566 8.02875C22.2414 8.16464 22.2203 8.25776 22.1813 8.31666C22.1635 8.3435 22.1426 8.3618 22.1138 8.37422C22.0831 8.38745 22.0338 8.39806 21.9545 8.39254L21.9546 8.39213H21.9429C21.7773 8.39213 21.6871 8.2876 21.6871 8.17675V8.16833L21.6862 8.15995C21.6725 8.02277 21.6916 7.93647 21.7241 7.89066C21.7473 7.85813 21.8011 7.81286 21.9615 7.82402Z" fill="black" stroke="black" stroke-width="0.33609"/>
<path d="M21.4454 4.12504C21.4454 3.96436 21.4806 3.8421 21.5437 3.7703C21.597 3.70952 21.6981 3.65391 21.9151 3.68817C22.1222 3.72625 22.2571 3.86489 22.3138 4.08771C22.2752 4.19204 22.23 4.27048 22.1726 4.32445C22.1128 4.38073 22.0269 4.42258 21.8828 4.42258C21.7414 4.42258 21.6272 4.38736 21.5532 4.33427C21.4843 4.28488 21.4454 4.21783 21.4454 4.12504Z" fill="black" stroke="black" stroke-width="0.33609"/>
<path d="M19.6572 9.79622L19.6572 9.79623L19.6593 9.79606C19.7903 9.78529 19.882 9.8182 19.9417 9.86591C19.998 9.91096 20.0381 9.9791 20.0516 10.0687C20.0366 10.2037 20.0097 10.3094 19.9645 10.382C19.9242 10.4468 19.8659 10.4925 19.7529 10.5018L19.7528 10.5013L19.7394 10.5035C19.6169 10.5236 19.5433 10.4924 19.4959 10.4477C19.4444 10.3992 19.4032 10.3149 19.3897 10.195C19.3902 10.0603 19.4004 9.96621 19.4342 9.90298C19.4581 9.85823 19.5052 9.80679 19.6572 9.79622Z" fill="black" stroke="black" stroke-width="0.33609"/>
<path d="M24.2501 9.87564L24.2501 9.87569L24.2544 9.87618C24.3396 9.88581 24.3868 9.91653 24.4148 9.95143C24.4428 9.98626 24.4654 10.0424 24.4682 10.1286C24.4642 10.1456 24.4605 10.1616 24.457 10.177C24.4479 10.2164 24.4398 10.2515 24.4289 10.2886C24.4131 10.343 24.3967 10.3805 24.3785 10.4061C24.3627 10.4283 24.3457 10.4417 24.3208 10.4497C24.2927 10.4588 24.2418 10.4651 24.1539 10.448L24.1539 10.448L24.1518 10.4476C24.1321 10.4441 24.0805 10.4167 24.022 10.349C23.9683 10.2869 23.9346 10.2206 23.925 10.177C23.9152 10.0758 23.9405 9.99266 23.9839 9.94264C24.0224 9.89835 24.0973 9.85437 24.2501 9.87564Z" fill="black" stroke="black" stroke-width="0.33609"/>
<path d="M15.08 10.4481L15.0801 10.4477H15.0684C14.9776 10.4477 14.9136 10.4221 14.8752 10.389C14.8398 10.3586 14.8126 10.3109 14.8126 10.2323C14.8126 10.1082 14.8343 10.0226 14.8736 9.97023C14.9055 9.92771 14.9695 9.87996 15.1289 9.87996C15.2179 9.87996 15.2751 9.90463 15.311 9.93537C15.3437 9.96344 15.371 10.007 15.3833 10.0727C15.368 10.2149 15.3469 10.3116 15.3068 10.3722C15.289 10.399 15.2681 10.4173 15.2393 10.4297C15.2086 10.443 15.1593 10.4536 15.08 10.4481Z" fill="black" stroke="black" stroke-width="0.33609"/>
<path d="M14.8615 5.91103L14.862 5.91121L14.8658 5.89897C14.8929 5.81333 14.9971 5.7311 15.1661 5.73866C15.2739 5.80759 15.3388 5.87083 15.371 5.93104C15.4003 5.98582 15.4118 6.05505 15.369 6.16439C15.3331 6.23833 15.2844 6.29679 15.2329 6.3292C15.1864 6.35846 15.1334 6.37021 15.0638 6.34704C14.9442 6.30338 14.8796 6.24025 14.8502 6.17755C14.8211 6.11568 14.8143 6.02844 14.8615 5.91103Z" fill="black" stroke="black" stroke-width="0.33609"/>
<path d="M16.8761 8.23148C16.8761 8.07712 16.9161 7.95324 16.9836 7.87901C17.0423 7.81457 17.1446 7.76239 17.3379 7.7933C17.4609 7.82789 17.5495 7.88142 17.6134 7.95121C17.6747 8.01827 17.7219 8.10983 17.7488 8.23691C17.7344 8.32875 17.6979 8.3951 17.6461 8.44011C17.5895 8.48925 17.496 8.52903 17.3438 8.52903C17.2021 8.52903 17.078 8.49365 16.9947 8.43772C16.9158 8.38481 16.8761 8.3171 16.8761 8.23148Z" fill="black" stroke="black" stroke-width="0.33609"/>
<path d="M16.8453 4.08605L16.8454 4.08466C16.8581 3.94665 16.9079 3.8266 16.9858 3.75386C17.0555 3.68873 17.1691 3.64136 17.3641 3.68461C17.4853 3.71814 17.5728 3.77602 17.6299 3.84641C17.6828 3.91172 17.7161 3.99568 17.7205 4.09986C17.6814 4.21893 17.63 4.2993 17.5681 4.34911C17.5058 4.39921 17.4145 4.43314 17.2665 4.42209C17.1258 4.41042 17.0105 4.36475 16.9375 4.30346C16.8691 4.246 16.8363 4.17522 16.8453 4.08605Z" fill="black" stroke="black" stroke-width="0.33609"/>
<path d="M24.1712 5.74175L24.1712 5.74177L24.1739 5.74143C24.2614 5.73012 24.3098 5.73979 24.3373 5.7517C24.3621 5.76242 24.385 5.78129 24.4092 5.82187C24.4355 5.86586 24.4592 5.92829 24.4846 6.01756C24.5006 6.07354 24.5152 6.13202 24.5315 6.19741C24.5321 6.19974 24.5327 6.20208 24.5333 6.20443C24.5165 6.21399 24.4989 6.22375 24.4801 6.23343C24.4087 6.27033 24.3303 6.30179 24.2519 6.31191L24.2519 6.31158L24.2415 6.3136C24.1541 6.33053 24.1009 6.32461 24.0695 6.31462C24.041 6.30552 24.0215 6.29031 24.0046 6.26703C23.9634 6.21015 23.9425 6.11395 23.9269 5.97721C23.9287 5.91191 23.9515 5.861 23.9867 5.82387C24.024 5.78459 24.0839 5.75163 24.1712 5.74175Z" fill="black" stroke="black" stroke-width="0.33609"/>
<path d="M8.05678 20.8004C7.93328 20.7888 7.85323 20.7394 7.8079 20.6808C7.7619 20.6213 7.73836 20.5355 7.76027 20.4264C7.78401 20.3083 7.834 20.2305 7.89867 20.1807C7.96343 20.1308 8.05861 20.0969 8.19422 20.0958C8.34222 20.1088 8.45684 20.1448 8.53069 20.1978C8.5957 20.2444 8.63679 20.3086 8.63842 20.4142C8.62604 20.5489 8.56465 20.6374 8.4724 20.6977C8.37353 20.7623 8.22993 20.7994 8.05678 20.8004Z" fill="black" stroke="black" stroke-width="0.33609"/>
<path d="M8.1719 16.7741C7.88339 16.7741 7.73445 16.6158 7.73445 16.4766C7.73445 16.3222 7.77448 16.1984 7.84205 16.1241C7.90142 16.0589 8.0055 16.0062 8.20343 16.0396C8.42412 16.0798 8.5759 16.2287 8.60714 16.4659C8.58155 16.5635 8.53833 16.6348 8.48047 16.6831C8.41858 16.7348 8.32323 16.7741 8.1719 16.7741Z" fill="black" stroke="black" stroke-width="0.33609"/>
<path d="M17.2052 20.0947L17.2052 20.0948L17.2116 20.0941C17.4105 20.0701 17.5419 20.1093 17.6204 20.1718C17.6959 20.2317 17.75 20.3349 17.75 20.5024C17.75 20.5823 17.7162 20.636 17.6372 20.6843C17.5526 20.7362 17.428 20.7724 17.2757 20.7987C17.1342 20.7848 17.0226 20.7493 16.9497 20.6993C16.8813 20.6524 16.8448 20.5926 16.8448 20.5024C16.8448 20.2979 16.9762 20.1136 17.2052 20.0947Z" fill="black" stroke="black" stroke-width="0.33609"/>
<path d="M23.9894 22.5398L23.9894 22.5398L23.9892 22.5381C23.9745 22.4051 23.9807 22.3111 24.0104 22.2516C24.0301 22.2121 24.073 22.1611 24.2216 22.1495C24.3526 22.1506 24.4469 22.1885 24.5092 22.2405C24.5718 22.2928 24.6132 22.3683 24.624 22.4655C24.6359 22.574 24.6165 22.6711 24.5726 22.7417C24.5315 22.8078 24.4616 22.8635 24.341 22.8836C24.2052 22.9038 24.1352 22.8672 24.0921 22.8214C24.0407 22.7668 24.0027 22.6719 23.9894 22.5398Z" fill="black" stroke="black" stroke-width="0.33609"/>
<path d="M24.2704 18.1216L24.2704 18.1216L24.2748 18.1224C24.2792 18.1232 24.2977 18.1291 24.3283 18.1508C24.357 18.1711 24.388 18.1993 24.4167 18.232C24.4453 18.2648 24.4684 18.2983 24.4834 18.3272C24.498 18.3552 24.4997 18.3687 24.4999 18.3687C24.5 18.3687 24.5 18.3684 24.5 18.3679C24.5 18.478 24.4784 18.5803 24.4357 18.6412C24.4169 18.6682 24.3952 18.6853 24.3682 18.6951C24.3405 18.7051 24.2949 18.7118 24.2221 18.6972C24.1625 18.6808 24.1069 18.6394 24.0483 18.5775C24.0207 18.5484 23.9957 18.5184 23.9693 18.4867C23.9674 18.4844 23.9655 18.4822 23.9636 18.4799L23.9632 18.4794C23.9545 18.4689 23.9451 18.4576 23.9351 18.446C23.9526 18.3149 23.9842 18.2247 24.0265 18.1724C24.0483 18.1456 24.073 18.1286 24.105 18.1192C24.1391 18.1092 24.1914 18.1051 24.2704 18.1216Z" fill="black" stroke="black" stroke-width="0.33609"/>
<path d="M24.1088 13.9053L24.1088 13.9054L24.1155 13.9058C24.3023 13.9171 24.408 13.9815 24.4768 14.0644C24.5479 14.1502 24.5933 14.2724 24.6219 14.4281C24.6067 14.5494 24.5701 14.6346 24.5239 14.6819C24.4853 14.7213 24.4201 14.7553 24.2837 14.7245L24.2837 14.7244L24.281 14.7239C23.9717 14.6593 23.7984 14.4271 23.7463 14.1207L23.7465 14.1207L23.7447 14.1126C23.7269 14.0322 23.7361 13.9914 23.7437 13.9734C23.7503 13.9581 23.7621 13.9439 23.7899 13.9305C23.858 13.8977 23.9754 13.8919 24.1088 13.9053Z" fill="black" stroke="black" stroke-width="0.33609"/>
<path d="M21.9011 11.9337L21.9011 11.9337L21.9038 11.9333C21.9935 11.9217 22.0433 11.9303 22.0716 11.9416C22.0959 11.9513 22.1173 11.968 22.1402 12.0053C22.1655 12.0466 22.1889 12.1071 22.2143 12.1973C22.2311 12.2569 22.2467 12.3217 22.2645 12.3956C22.2473 12.4054 22.2292 12.4154 22.21 12.4253C22.1386 12.4622 22.0601 12.4937 21.9818 12.5038L21.9818 12.5038L21.9802 12.504C21.8294 12.525 21.7729 12.4826 21.7416 12.4431C21.6973 12.3869 21.6703 12.2915 21.6557 12.159L21.6557 12.159L21.6554 12.157C21.6464 12.0837 21.6678 12.0415 21.6991 12.0116C21.7364 11.9761 21.8035 11.9447 21.9011 11.9337Z" fill="black" stroke="black" stroke-width="0.33609"/>
<path d="M21.8225 16.0421C21.9868 16.0421 22.0868 16.0973 22.1657 16.181C22.2489 16.2692 22.3119 16.392 22.384 16.5472C22.39 16.653 22.365 16.7275 22.3264 16.7764C22.2861 16.8275 22.213 16.8732 22.0823 16.8841C21.7379 16.9078 21.5048 16.7666 21.4408 16.5186C21.4048 16.3652 21.4333 16.2493 21.4904 16.1749C21.5467 16.1016 21.6512 16.0421 21.8225 16.0421Z" fill="black" stroke="black" stroke-width="0.33609"/>
<path d="M21.9818 20.7467L21.9818 20.7467L21.9802 20.7469C21.8294 20.7679 21.7729 20.7255 21.7416 20.686C21.6973 20.6298 21.6703 20.5344 21.6557 20.4019L21.6557 20.4019L21.6551 20.3974C21.6478 20.3441 21.6643 20.2996 21.7021 20.2619C21.7426 20.2214 21.811 20.1867 21.9011 20.1765L21.9012 20.177L21.9142 20.1745C22.0028 20.1573 22.0497 20.1646 22.0743 20.1739C22.095 20.1818 22.1156 20.1968 22.1391 20.2361C22.1649 20.2793 22.1885 20.3426 22.2141 20.4354C22.2308 20.4961 22.2462 20.5612 22.2637 20.6346C22.264 20.6358 22.2643 20.6371 22.2646 20.6384C22.2474 20.6482 22.2292 20.6582 22.21 20.6682C22.1386 20.7051 22.0601 20.7366 21.9818 20.7467Z" fill="black" stroke="black" stroke-width="0.33609"/>
<path d="M19.3852 22.4554L19.3852 22.4554L19.3846 22.4509C19.3772 22.3976 19.3938 22.3531 19.4316 22.3154C19.4721 22.2749 19.5405 22.2402 19.6306 22.23L19.6306 22.2301L19.6333 22.2297C19.7208 22.2184 19.7691 22.2281 19.7967 22.24C19.8215 22.2507 19.8444 22.2696 19.8686 22.3101C19.8949 22.3541 19.9185 22.4166 19.944 22.5058C19.9597 22.5609 19.9741 22.6185 19.9901 22.6826C19.9855 22.6851 19.9811 22.6875 19.9766 22.6899C19.9585 22.6997 19.9407 22.7094 19.9168 22.7217C19.8403 22.7612 19.7704 22.7911 19.7087 22.8005C19.5586 22.8212 19.5023 22.7789 19.4711 22.7395C19.4268 22.6833 19.3998 22.5879 19.3852 22.4554Z" fill="black" stroke="black" stroke-width="0.33609"/>
<path d="M19.692 13.9891L19.6919 13.9895H19.7036C19.7938 13.9895 19.8462 14.0146 19.8752 14.0422C19.903 14.0688 19.9292 14.1167 19.9292 14.2048C19.9292 14.3379 19.9125 14.4313 19.8767 14.4866C19.8535 14.5224 19.8066 14.5681 19.6547 14.5576L19.6548 14.5572H19.6431C19.5612 14.5572 19.5075 14.5302 19.4746 14.4971C19.4412 14.4636 19.4175 14.412 19.4175 14.3418V14.3334L19.4167 14.325C19.4029 14.1878 19.422 14.1015 19.4546 14.0557C19.4777 14.0232 19.5316 13.9779 19.692 13.9891Z" fill="black" stroke="black" stroke-width="0.33609"/>
<path d="M19.6991 18.1216L19.6991 18.1216L19.7035 18.1224C19.7079 18.1232 19.7264 18.1291 19.757 18.1508C19.7857 18.1711 19.8168 18.1993 19.8454 18.232C19.874 18.2648 19.8971 18.2983 19.9121 18.3272C19.9267 18.3552 19.9284 18.3687 19.9286 18.3687C19.9287 18.3687 19.9287 18.3684 19.9287 18.3679C19.9287 18.478 19.9071 18.5803 19.8644 18.6412C19.8456 18.6682 19.824 18.6853 19.7969 18.6951C19.7687 18.7053 19.7219 18.7121 19.6467 18.6964L19.6467 18.6963L19.6422 18.6955C19.6289 18.6931 19.5948 18.6746 19.5294 18.6016C19.5088 18.5786 19.4897 18.5556 19.4688 18.5306C19.4591 18.519 19.4491 18.507 19.4384 18.4943C19.4245 18.4779 19.4096 18.4606 19.3939 18.4433C19.4103 18.3082 19.4369 18.2182 19.4751 18.1663C19.4936 18.1413 19.5137 18.1268 19.5404 18.1186C19.5699 18.1096 19.6193 18.1049 19.6991 18.1216Z" fill="black" stroke="black" stroke-width="0.33609"/>
<path d="M17.1725 11.943C17.2282 11.8843 17.3102 11.8395 17.4298 11.8257C17.5543 11.8499 17.6399 11.901 17.6944 11.9609C17.7512 12.0235 17.7832 12.1056 17.7832 12.204C17.7832 12.3983 17.6338 12.5837 17.4063 12.5837C17.2925 12.5837 17.2186 12.5398 17.1659 12.4748C17.1117 12.4079 17.0753 12.3116 17.0608 12.2033C17.0751 12.0901 17.1154 12.0033 17.1725 11.943Z" fill="black" stroke="black" stroke-width="0.33609"/>
<path d="M16.9043 16.6072C16.847 16.5446 16.8205 16.4685 16.8388 16.3753C16.8638 16.2634 16.9107 16.1754 16.9763 16.1161C17.0379 16.0603 17.1284 16.0184 17.2664 16.0158C17.4102 16.0411 17.5267 16.0875 17.6042 16.1479C17.6789 16.2062 17.7173 16.2761 17.7173 16.368C17.7173 16.5196 17.6646 16.6239 17.5878 16.685C17.5103 16.7466 17.3816 16.7853 17.1887 16.7504C17.066 16.7282 16.9656 16.6742 16.9043 16.6072Z" fill="black" stroke="black" stroke-width="0.33609"/>
<path d="M15.0845 22.2312L15.0845 22.2313L15.0896 22.2307C15.1874 22.2209 15.2477 22.246 15.2846 22.276C15.3235 22.3077 15.3512 22.3571 15.3609 22.4184L15.3608 22.4184L15.3622 22.4253C15.3884 22.5561 15.3747 22.6357 15.3429 22.6864C15.3132 22.7338 15.2462 22.7901 15.0864 22.8264C15.0075 22.8235 14.953 22.8003 14.914 22.7686C14.872 22.7344 14.8358 22.6803 14.8125 22.5996C14.7877 22.4715 14.8019 22.3872 14.833 22.3376C14.8596 22.2951 14.9214 22.2425 15.0845 22.2312Z" fill="black" stroke="black" stroke-width="0.33609"/>
<path d="M15.0613 13.9872L15.0613 13.9878L15.0744 13.9852C15.1611 13.9684 15.2043 13.977 15.2263 13.9862C15.2466 13.9946 15.2691 14.0117 15.2974 14.0568C15.3278 14.1052 15.3557 14.1707 15.393 14.2639C15.3969 14.2737 15.4008 14.2837 15.4049 14.2939C15.4215 14.3356 15.4396 14.3811 15.4599 14.4292C15.4384 14.4424 15.4179 14.4555 15.3991 14.4677C15.3833 14.4778 15.3686 14.4873 15.3553 14.4954C15.2768 14.5439 15.2111 14.5758 15.1419 14.5848L15.1419 14.5848L15.1403 14.585C14.9895 14.606 14.933 14.5636 14.9018 14.5241C14.8574 14.4679 14.8305 14.3725 14.8158 14.24L14.8158 14.24L14.8156 14.238C14.8065 14.1639 14.8284 14.1116 14.865 14.0732C14.9046 14.0317 14.9713 13.9974 15.0613 13.9872Z" fill="black" stroke="black" stroke-width="0.33609"/>
<path d="M15.3455 18.5104L15.3455 18.5104L15.3438 18.5139C15.3077 18.59 15.2582 18.6502 15.2056 18.6833C15.1591 18.7126 15.106 18.7243 15.0365 18.7011C14.9169 18.6575 14.8522 18.5943 14.8228 18.5317C14.7942 18.4706 14.7872 18.3849 14.8323 18.2699C14.8656 18.2014 14.9093 18.1541 14.9638 18.1276C15.016 18.1021 15.097 18.0866 15.2236 18.1145C15.2967 18.1558 15.3474 18.209 15.3714 18.2651C15.3947 18.3196 15.4021 18.3977 15.3455 18.5104Z" fill="black" stroke="black" stroke-width="0.33609"/>
<path d="M12.3022 20.593L12.3024 20.593L12.3008 20.5833C12.277 20.4436 12.3093 20.3259 12.3727 20.2515C12.4322 20.1818 12.5392 20.1266 12.7205 20.1484L12.7205 20.1485L12.7269 20.1491C12.8569 20.1598 12.9469 20.206 13.0108 20.2708C13.0722 20.3331 13.1187 20.4218 13.1455 20.5366C13.1307 20.6366 13.0966 20.713 13.0459 20.7668C12.993 20.823 12.9066 20.871 12.7583 20.8821C12.6084 20.8934 12.4981 20.8587 12.4261 20.8071C12.3555 20.7564 12.3121 20.6831 12.3022 20.593Z" fill="black" stroke="black" stroke-width="0.33609"/>
<path d="M12.8218 12.5064L12.8218 12.5062L12.8136 12.5087C12.7273 12.5347 12.6802 12.5155 12.6468 12.4882C12.6043 12.4533 12.5648 12.3874 12.5396 12.2962L12.5399 12.2961L12.5372 12.288C12.5011 12.1792 12.5119 12.1182 12.5448 12.0722C12.5854 12.0152 12.6872 11.9408 12.9257 11.8761C12.9275 11.8761 12.9297 11.8766 12.9329 11.878C12.9399 11.8811 12.9526 11.8889 12.9693 11.907C13.0039 11.9445 13.0391 12.0084 13.0648 12.0892C13.1004 12.2081 13.0887 12.2957 13.0556 12.3555C13.023 12.4145 12.9548 12.4736 12.8218 12.5064Z" fill="black" stroke="black" stroke-width="0.33609"/>
<path d="M13.1514 16.4045L13.1513 16.4045L13.1509 16.4098C13.1391 16.5587 13.0774 16.6578 12.9919 16.7137C12.9043 16.7709 12.7657 16.7996 12.5707 16.7526L12.5708 16.7523L12.5612 16.7506C12.4471 16.73 12.3688 16.6759 12.326 16.6129C12.2854 16.5529 12.2671 16.4706 12.2973 16.3665C12.3406 16.25 12.3893 16.155 12.4548 16.0957C12.5097 16.046 12.589 16.0095 12.7344 16.0387C12.8669 16.0754 12.9823 16.1332 13.0581 16.2018C13.1322 16.2689 13.159 16.3355 13.1514 16.4045Z" fill="black" stroke="black" stroke-width="0.33609"/>
<path d="M10.0602 22.6552L10.0603 22.6552L10.0596 22.6524C10.0248 22.5161 10.0513 22.4079 10.1081 22.3359C10.1646 22.2644 10.2701 22.2047 10.4417 22.2047V22.205L10.4525 22.2043C10.6049 22.1945 10.7006 22.2491 10.7817 22.3401C10.8632 22.4317 10.9234 22.5523 10.993 22.6917C10.9964 22.6986 10.9998 22.7055 11.0033 22.7124C11.0088 22.8186 10.9835 22.8995 10.9438 22.9515C10.9042 23.0035 10.8357 23.0463 10.7141 23.0463C10.5343 23.0463 10.3848 23.0146 10.2753 22.952C10.1714 22.8927 10.0948 22.8012 10.0602 22.6552Z" fill="black" stroke="black" stroke-width="0.33609"/>
<path d="M10.5 18.0957V18.0961L10.5117 18.0953C10.591 18.0898 10.6402 18.1004 10.6709 18.1136C10.6997 18.1261 10.7206 18.1444 10.7384 18.1712C10.7786 18.2318 10.7997 18.3285 10.815 18.4708C10.8022 18.5397 10.773 18.5924 10.7361 18.6276C10.6974 18.6644 10.6414 18.6908 10.5606 18.6908C10.4014 18.6908 10.3387 18.6433 10.3069 18.5994C10.2667 18.544 10.2442 18.4514 10.2442 18.3111C10.2442 18.2325 10.2715 18.1848 10.3068 18.1544C10.3453 18.1213 10.4092 18.0957 10.5 18.0957Z" fill="black" stroke="black" stroke-width="0.33609"/>
<path d="M10.0023 14.3865L10.0024 14.3865L10.0026 14.3835C10.0154 14.2455 10.0651 14.1254 10.143 14.0527C10.2128 13.9876 10.3263 13.9402 10.5213 13.9834C10.6426 14.017 10.73 14.0749 10.7871 14.1452C10.84 14.2105 10.8733 14.2945 10.8777 14.3987C10.8386 14.5178 10.7872 14.5981 10.7253 14.6479C10.663 14.698 10.5717 14.732 10.4237 14.7209C10.2883 14.7097 10.1725 14.6598 10.0972 14.5941C10.0233 14.5296 9.9945 14.4574 10.0023 14.3865Z" fill="black" stroke="black" stroke-width="0.33609"/>
<path d="M7.67299 12.2535C7.67683 12.0841 7.86082 11.8227 8.41976 11.7697C8.55481 11.774 8.74143 11.9073 8.79224 12.2039C8.81824 12.3696 8.79478 12.4948 8.74084 12.5791C8.69038 12.658 8.5976 12.7255 8.42779 12.7487C8.21739 12.7595 8.0302 12.7106 7.89674 12.6221C7.76699 12.536 7.68579 12.4122 7.67299 12.2535Z" fill="black" stroke="black" stroke-width="0.33609"/>
<path d="M5.94755 14.5623L5.94761 14.5621L5.93929 14.56C5.79796 14.5252 5.73755 14.4747 5.70808 14.428C5.67712 14.379 5.65994 14.3024 5.67183 14.1735C5.69351 14.0755 5.74461 14.0198 5.80378 13.9903C5.86852 13.958 5.95948 13.9492 6.06244 13.9803C6.1541 14.0079 6.21231 14.0643 6.24071 14.1295C6.26785 14.1919 6.27272 14.274 6.23613 14.3661C6.22507 14.3814 6.21443 14.3966 6.20452 14.4107C6.20349 14.4122 6.20248 14.4136 6.20148 14.4151C6.18677 14.436 6.17361 14.4547 6.16046 14.4722C6.13376 14.5079 6.11228 14.5319 6.09227 14.5481C6.07402 14.5628 6.05855 14.5699 6.04216 14.5729C6.02501 14.5761 5.99573 14.5768 5.94755 14.5623Z" fill="black" stroke="black" stroke-width="0.33609"/>
<path d="M6.03257 18.4766L6.03259 18.4765L6.02759 18.4754C5.92275 18.4517 5.86636 18.4157 5.84363 18.3883C5.83423 18.3769 5.83074 18.3675 5.82961 18.3579C5.82841 18.3476 5.82896 18.3279 5.8417 18.2961C5.84422 18.2929 5.84864 18.288 5.85545 18.2815C5.8714 18.2662 5.8937 18.2488 5.91824 18.2332C5.93438 18.2229 5.94907 18.2149 5.96108 18.2092C6.02261 18.2409 6.08237 18.2805 6.14177 18.3235C6.16661 18.3415 6.19456 18.3626 6.22303 18.384C6.23188 18.3907 6.24077 18.3974 6.24964 18.404C6.22891 18.4495 6.20645 18.4676 6.19224 18.4756C6.16637 18.4901 6.1183 18.4988 6.03257 18.4766Z" fill="black" stroke="black" stroke-width="0.33609"/>
<path d="M5.43024 22.6033L5.42982 22.5981C5.41771 22.4446 5.46072 22.3325 5.53221 22.2614C5.60349 22.1905 5.72562 22.1379 5.9164 22.149C6.05823 22.1609 6.15742 22.2005 6.22536 22.2574C6.28486 22.3072 6.33264 22.3806 6.35972 22.4908C6.3102 22.6192 6.2308 22.7019 6.13307 22.754C6.02386 22.8123 5.88019 22.8382 5.7093 22.8278C5.67377 22.8184 5.60039 22.7802 5.52742 22.717C5.49131 22.6858 5.46308 22.655 5.44531 22.6293C5.4354 22.6151 5.43156 22.6065 5.43024 22.6033Z" fill="black" stroke="black" stroke-width="0.33609"/>
<path d="M3.40198 20.3845L3.403 20.3753V20.3661C3.403 20.2633 3.48599 20.1705 3.65006 20.1493L3.65006 20.1493L3.65169 20.1491C3.73091 20.1381 3.78039 20.1454 3.81149 20.1563C3.84092 20.1666 3.86351 20.1833 3.88451 20.2089C3.90729 20.2368 3.9282 20.2752 3.95006 20.328C3.96505 20.3643 3.97747 20.3993 3.99137 20.4385C3.99252 20.4417 3.99367 20.445 3.99484 20.4482C3.99367 20.4515 3.99252 20.4548 3.99137 20.458C3.97747 20.4972 3.96505 20.5322 3.95006 20.5685C3.9282 20.6213 3.90729 20.6597 3.88451 20.6876C3.86351 20.7132 3.84092 20.7299 3.81149 20.7402C3.78039 20.7511 3.73091 20.7584 3.65169 20.7474L3.65173 20.7471L3.6423 20.7464C3.52023 20.7363 3.46712 20.6911 3.43897 20.6449C3.40527 20.5896 3.389 20.502 3.40198 20.3845Z" fill="black" stroke="black" stroke-width="0.33609"/>
<path d="M3.5698 11.9319L3.57842 11.9303L3.58759 11.9275C3.68418 11.8984 3.77268 11.9102 3.83902 11.9474C3.90229 11.9829 3.9562 12.0475 3.97835 12.1488C3.98972 12.2616 3.97362 12.3461 3.93783 12.4032C3.90517 12.4554 3.84059 12.5096 3.69662 12.5315C3.55195 12.5514 3.49678 12.5068 3.46704 12.4658C3.42571 12.4087 3.40437 12.3142 3.40437 12.2049C3.40437 12.1821 3.42384 12.1115 3.47262 12.035C3.49494 12 3.51853 11.9718 3.53981 11.9528C3.55943 11.9353 3.56984 11.932 3.5698 11.9319Z" fill="black" stroke="black" stroke-width="0.33609"/>
<path d="M3.18284 16.3665C3.22615 16.25 3.27488 16.155 3.34039 16.0957C3.39529 16.046 3.47462 16.0095 3.61996 16.0387C3.75198 16.0752 3.86889 16.1333 3.94974 16.2038C4.02796 16.2721 4.06426 16.3435 4.06617 16.4168C4.05303 16.5619 3.99188 16.6587 3.90775 16.7137C3.82026 16.7708 3.68175 16.7996 3.48698 16.7527C3.34482 16.7176 3.25659 16.6583 3.21156 16.5972C3.17146 16.5427 3.15276 16.4701 3.18284 16.3665Z" fill="black" stroke="black" stroke-width="0.33609"/>
<path d="M7.69999 12.2473L7.70003 12.2473L7.69968 12.2435C7.69037 12.1425 7.72854 12.045 7.83697 11.9595C7.94934 11.8708 8.1385 11.7961 8.41693 11.7697C8.55199 11.774 8.73862 11.9073 8.78942 12.2039C8.81543 12.3697 8.79206 12.5027 8.73697 12.591C8.68628 12.6723 8.59548 12.7377 8.4301 12.7485C8.02661 12.7727 7.72136 12.5567 7.69999 12.2473Z" fill="black" stroke="black" stroke-width="0.33609"/>
<path d="M6.24444 14.1503C6.26961 14.2063 6.27712 14.2885 6.23758 14.3973C6.23013 14.4075 6.2231 14.4171 6.21643 14.4263C6.16762 14.4935 6.13784 14.5345 6.09912 14.564C6.06978 14.5863 6.03013 14.6057 5.94051 14.5887C5.82429 14.5561 5.75717 14.5021 5.71985 14.4465C5.68216 14.3904 5.66464 14.3173 5.67476 14.2289C5.69831 14.0957 5.75454 14.0387 5.80674 14.0127C5.86644 13.9829 5.95566 13.9764 6.0654 14.0095C6.16272 14.0389 6.21826 14.092 6.24444 14.1503Z" fill="black" stroke="black" stroke-width="0.33609"/>
<path d="M5.83289 18.3519C5.83151 18.3438 5.8309 18.3282 5.84064 18.3021C5.84247 18.3003 5.8451 18.2978 5.84869 18.2947C5.86272 18.2828 5.88333 18.2688 5.907 18.2562C5.9278 18.2452 5.94643 18.2375 5.95985 18.2334C6.02122 18.2545 6.08258 18.2893 6.1462 18.3325C6.17966 18.3552 6.21197 18.379 6.24496 18.4034C6.22723 18.4338 6.20816 18.4489 6.1925 18.4577C6.15957 18.4761 6.10641 18.4861 6.02275 18.4765C5.93856 18.4533 5.88008 18.4188 5.85176 18.3868C5.83887 18.3722 5.83441 18.3608 5.83289 18.3519Z" fill="black" stroke="black" stroke-width="0.33609"/>
<path d="M15.1425 14.5566L15.1425 14.5561L15.1297 14.5588C15.0523 14.575 15.0041 14.5693 14.9749 14.5596C14.9475 14.5505 14.9257 14.5342 14.9058 14.5072C14.8603 14.4455 14.8327 14.3389 14.8176 14.1953C14.8192 14.1296 14.842 14.0785 14.8774 14.0412C14.9146 14.0019 14.9745 13.969 15.0619 13.9591L15.0619 13.9591L15.0645 13.9588C15.1499 13.9477 15.1947 13.9585 15.2199 13.9703C15.2444 13.9818 15.269 14.0029 15.298 14.0492C15.329 14.0986 15.357 14.1631 15.3944 14.2533C15.3969 14.2592 15.3993 14.2651 15.4019 14.2712C15.4198 14.3146 15.4395 14.362 15.4618 14.4122C15.4265 14.4348 15.394 14.4556 15.3603 14.475C15.2864 14.5175 15.2176 14.5469 15.1425 14.5566Z" fill="black" stroke="black" stroke-width="0.33609"/>
<path d="M10.5 18.0958C10.6789 18.0958 10.7366 18.1459 10.7626 18.1837C10.7981 18.2354 10.8154 18.3219 10.8163 18.4632C10.8043 18.5359 10.7744 18.5912 10.7361 18.6277C10.6974 18.6645 10.6414 18.6909 10.5606 18.6909C10.4014 18.6909 10.3387 18.6434 10.3069 18.5994C10.2667 18.544 10.2442 18.4514 10.2442 18.3112C10.2442 18.2325 10.2715 18.1848 10.3068 18.1545C10.3453 18.1214 10.4092 18.0958 10.5 18.0958Z" fill="black" stroke="black" stroke-width="0.33609"/>
<path d="M5.43047 22.5849H5.43087L5.42982 22.5717C5.41771 22.4182 5.46072 22.3062 5.53221 22.235C5.60349 22.1641 5.72562 22.1115 5.9164 22.1226C6.05981 22.1347 6.16728 22.175 6.23903 22.2329C6.30117 22.2831 6.34658 22.3544 6.36266 22.4593C6.31216 22.6073 6.22953 22.6979 6.13043 22.7531C6.02252 22.8131 5.88026 22.8392 5.70933 22.8289C5.67435 22.8195 5.60155 22.7816 5.53019 22.7171C5.49481 22.6851 5.467 22.6528 5.44921 22.6247C5.43394 22.6006 5.43103 22.5875 5.43047 22.5849Z" fill="black" stroke="black" stroke-width="0.33609"/>
<path d="M10.0023 14.3865L10.0024 14.3865L10.0026 14.3835C10.0154 14.2455 10.0651 14.1254 10.143 14.0527C10.2128 13.9876 10.3263 13.9402 10.5213 13.9834C10.6426 14.017 10.73 14.0749 10.7871 14.1452C10.84 14.2105 10.8733 14.2945 10.8777 14.3987C10.8386 14.5178 10.7872 14.5981 10.7253 14.6479C10.663 14.698 10.5717 14.732 10.4237 14.7209C10.2883 14.7097 10.1725 14.6598 10.0972 14.5941C10.0233 14.5296 9.9945 14.4574 10.0023 14.3865Z" fill="black" stroke="black" stroke-width="0.33609"/>
<path d="M10.7122 23.0463V23.0459L10.7005 23.0467C10.5293 23.0586 10.3828 23.028 10.2705 22.9628C10.1617 22.8997 10.0749 22.7988 10.0262 22.6479C9.9932 22.5141 10.0197 22.4153 10.0744 22.348C10.1316 22.2776 10.241 22.216 10.4199 22.2044C10.5922 22.1941 10.6945 22.2529 10.7721 22.3401C10.8564 22.4348 10.914 22.5656 10.974 22.714C10.9931 22.8239 10.9718 22.9049 10.9356 22.9548C10.9008 23.003 10.8348 23.0463 10.7122 23.0463Z" fill="black" stroke="black" stroke-width="0.33609"/>
<path d="M12.5995 16.7523L12.5996 16.7518L12.5874 16.7498C12.454 16.7279 12.3719 16.6712 12.3322 16.6125C12.2955 16.5585 12.28 16.4814 12.3225 16.3758L12.3225 16.3758L12.3242 16.3712C12.367 16.2553 12.4155 16.1649 12.4812 16.1078C12.5373 16.059 12.6207 16.0216 12.7688 16.04C12.899 16.0767 13.0122 16.1339 13.0869 16.2015C13.161 16.2685 13.1879 16.3351 13.1802 16.4042L13.1802 16.4042L13.1797 16.4094C13.168 16.5584 13.1062 16.6575 13.0207 16.7133C12.9332 16.7705 12.7945 16.7993 12.5995 16.7523Z" fill="black" stroke="black" stroke-width="0.33609"/>
<path d="M12.3033 20.5927L12.3036 20.5926L12.3019 20.583C12.2771 20.4374 12.3059 20.3284 12.363 20.2609C12.4173 20.1966 12.5248 20.1377 12.7301 20.1489C12.9753 20.1698 13.1198 20.3186 13.1477 20.5281C13.1337 20.6256 13.0952 20.7057 13.0381 20.7638C12.9787 20.8244 12.8892 20.8711 12.7582 20.8819C12.489 20.904 12.3208 20.7515 12.3033 20.5927Z" fill="black" stroke="black" stroke-width="0.33609"/>
<path d="M15.3455 18.5104L15.3455 18.5104L15.3438 18.5139C15.3077 18.59 15.2582 18.6502 15.2056 18.6833C15.1591 18.7126 15.106 18.7243 15.0365 18.7011C14.9169 18.6575 14.8522 18.5943 14.8228 18.5317C14.7942 18.4706 14.7872 18.3849 14.8323 18.2699C14.8656 18.2014 14.9093 18.1541 14.9638 18.1276C15.016 18.1021 15.097 18.0866 15.2236 18.1145C15.2967 18.1558 15.3474 18.209 15.3714 18.2651C15.3947 18.3196 15.4021 18.3977 15.3455 18.5104Z" fill="black" stroke="black" stroke-width="0.33609"/>
<path d="M12.8218 12.5064L12.8218 12.5062L12.8136 12.5087C12.7272 12.5347 12.6781 12.5158 12.6434 12.4889C12.6004 12.4556 12.5625 12.395 12.5382 12.3187C12.5005 12.1928 12.5114 12.1152 12.5476 12.0613C12.5869 12.0025 12.6846 11.9284 12.9185 11.8773C12.9244 11.8798 12.9389 11.8877 12.9617 11.9109C13.0018 11.9517 13.0417 12.0166 13.0648 12.0892C13.1004 12.2081 13.0887 12.2957 13.0556 12.3555C13.023 12.4145 12.9548 12.4736 12.8218 12.5064Z" fill="black" stroke="black" stroke-width="0.33609"/>
<path d="M21.9824 12.5025L21.9824 12.5025L21.9808 12.5028C21.83 12.5237 21.7735 12.4813 21.7422 12.4418C21.699 12.387 21.6723 12.295 21.6574 12.1677C21.6592 12.1025 21.682 12.0516 21.7172 12.0145C21.7544 11.9752 21.8143 11.9423 21.9017 11.9324L21.9018 11.9329L21.9148 11.9304C22.0035 11.9132 22.0503 11.9205 22.0749 11.9298C22.0956 11.9377 22.1163 11.9527 22.1397 11.992C22.1655 12.0351 22.1891 12.0984 22.2147 12.1913C22.2314 12.252 22.2468 12.317 22.2643 12.3904C22.2646 12.3917 22.2649 12.393 22.2652 12.3943C22.248 12.4041 22.2298 12.4141 22.2106 12.4241C22.1392 12.461 22.0607 12.4924 21.9824 12.5025Z" fill="black" stroke="black" stroke-width="0.33609"/>
<path d="M24.1873 18.6666L24.1873 18.6664L24.1803 18.6654C24.1484 18.6606 24.106 18.6357 24.0426 18.5688C24.0179 18.5426 23.9945 18.5153 23.9687 18.4851C23.9629 18.4782 23.9569 18.4712 23.9507 18.4641C23.9387 18.4501 23.9259 18.4353 23.9124 18.4203C23.9394 18.2853 23.9698 18.1947 24.0119 18.1401C24.0328 18.1132 24.0548 18.0978 24.0826 18.0894C24.1129 18.0802 24.1624 18.0756 24.242 18.0923L24.242 18.0923L24.2465 18.0931C24.2509 18.0939 24.2694 18.0998 24.3 18.1215C24.3287 18.1418 24.3597 18.1701 24.3883 18.2028C24.417 18.2355 24.4401 18.269 24.4551 18.2979C24.4696 18.3259 24.4714 18.3394 24.4716 18.3394C24.4716 18.3394 24.4716 18.3392 24.4716 18.3387V18.3478L24.4727 18.357C24.486 18.4775 24.4675 18.5705 24.4317 18.62C24.4092 18.651 24.3559 18.6993 24.1873 18.6666Z" fill="black" stroke="black" stroke-width="0.33609"/>
<path d="M24.4827 14.0492C24.5507 14.1368 24.5906 14.2642 24.6198 14.4272C24.6048 14.5463 24.5689 14.6244 24.5241 14.6685C24.484 14.7079 24.4139 14.7425 24.273 14.7219C24.0995 14.6876 23.9828 14.6112 23.8985 14.5139C23.813 14.4153 23.7546 14.2876 23.7131 14.1411C23.7033 14.066 23.7132 14.0248 23.7229 14.0033C23.732 13.9833 23.747 13.9669 23.7762 13.9519C23.8482 13.915 23.9663 13.9053 24.1234 13.9053C24.3216 13.9053 24.4206 13.9693 24.4827 14.0492Z" fill="black" stroke="black" stroke-width="0.33609"/>
<path d="M24.5726 22.7417C24.5322 22.8067 24.464 22.8616 24.347 22.8825C24.2078 22.8915 24.1339 22.8538 24.0899 22.8088C24.0398 22.7576 24.0025 22.6703 23.9894 22.5398L23.9894 22.5398L23.9892 22.5381C23.9745 22.4047 23.981 22.3189 24.0094 22.2639C24.0293 22.2253 24.0752 22.173 24.2274 22.1496C24.3612 22.1514 24.4531 22.1854 24.5119 22.2325C24.5698 22.2788 24.6124 22.3511 24.6238 22.4638L24.6238 22.4638L24.624 22.4655C24.6359 22.574 24.6165 22.6711 24.5726 22.7417Z" fill="black" stroke="black" stroke-width="0.33609"/>
<path d="M22.1641 16.1895C22.2489 16.2821 22.3113 16.4047 22.3842 16.5499C22.3896 16.6542 22.3647 16.7279 22.3264 16.7764C22.2867 16.8267 22.2151 16.8718 22.088 16.8836C21.7632 16.8816 21.5032 16.7358 21.4404 16.4898C21.4057 16.3535 21.4321 16.2453 21.4889 16.1733C21.5454 16.1018 21.651 16.0421 21.8225 16.0421C21.9821 16.0421 22.0825 16.1004 22.1641 16.1895Z" fill="black" stroke="black" stroke-width="0.33609"/>
<path d="M17.8105 12.204C17.8105 12.3983 17.6611 12.5837 17.4336 12.5837C17.3195 12.5837 17.2485 12.5398 17.201 12.4764C17.1491 12.4071 17.1173 12.3019 17.1173 12.1766C17.1173 12.0531 17.148 11.9767 17.193 11.9285C17.2361 11.8825 17.3133 11.8398 17.4547 11.8257C17.6831 11.8748 17.8105 12.034 17.8105 12.204Z" fill="black" stroke="black" stroke-width="0.33609"/>
<path d="M17.7173 16.3944C17.7173 16.546 17.6646 16.6502 17.5878 16.7113C17.5113 16.7722 17.3848 16.8107 17.1959 16.7781C17.0705 16.7429 16.9676 16.6822 16.9043 16.613C16.843 16.546 16.8222 16.4768 16.8385 16.4033C16.8634 16.2906 16.9104 16.2021 16.9763 16.1424C17.0379 16.0867 17.1284 16.0448 17.2664 16.0422C17.4102 16.0675 17.5267 16.1138 17.6042 16.1743C17.6789 16.2326 17.7173 16.3025 17.7173 16.3944Z" fill="black" stroke="black" stroke-width="0.33609"/>
<path d="M21.9017 20.149L21.9017 20.149L21.9044 20.1487C21.9919 20.1373 22.0403 20.147 22.0678 20.1589C22.0926 20.1696 22.1155 20.1885 22.1397 20.2291C22.166 20.2731 22.1896 20.3355 22.2151 20.4248C22.2311 20.4808 22.2457 20.5392 22.262 20.6046C22.2626 20.607 22.2632 20.6093 22.2638 20.6117C22.247 20.6212 22.2293 20.631 22.2106 20.6407C22.1392 20.6776 22.0607 20.709 21.9824 20.7191L21.9823 20.7188L21.9719 20.7208C21.8846 20.7378 21.8314 20.7318 21.8 20.7218C21.7715 20.7128 21.752 20.6975 21.7351 20.6743C21.6939 20.6174 21.673 20.5212 21.6574 20.3844C21.6592 20.3191 21.682 20.2682 21.7172 20.2311C21.7544 20.1918 21.8143 20.1589 21.9017 20.149Z" fill="black" stroke="black" stroke-width="0.33609"/>
<path d="M15.3604 22.442L15.3599 22.4421L15.3628 22.4553C15.3877 22.568 15.3753 22.6478 15.3429 22.6996C15.3137 22.7462 15.2481 22.802 15.0918 22.826C15.0098 22.824 14.9518 22.8004 14.9103 22.7685C14.8679 22.7359 14.8337 22.6875 14.8119 22.6232C14.7879 22.4969 14.8022 22.4136 14.833 22.3645C14.8596 22.3219 14.9214 22.2694 15.0845 22.258L15.0845 22.2581L15.0896 22.2576C15.1953 22.247 15.2551 22.27 15.2882 22.2955C15.3212 22.3208 15.3499 22.3655 15.3604 22.442Z" fill="black" stroke="black" stroke-width="0.33609"/>
<path d="M19.6547 14.5576L19.6548 14.5572H19.6431C19.5612 14.5572 19.5075 14.5302 19.4746 14.4971C19.4412 14.4636 19.4175 14.412 19.4175 14.3418V14.3334L19.4167 14.325C19.4029 14.1878 19.422 14.1015 19.4546 14.0557C19.4777 14.0232 19.5316 13.9779 19.692 13.9891L19.6919 13.9895H19.7036C19.7742 13.9895 19.8305 14.0122 19.8671 14.0453C19.9015 14.0764 19.9292 14.1258 19.9292 14.2048C19.9292 14.3379 19.9125 14.4313 19.8767 14.4866C19.8535 14.5224 19.8066 14.5681 19.6547 14.5576Z" fill="black" stroke="black" stroke-width="0.33609"/>
<path d="M19.6312 22.2322L19.6313 22.2327L19.6443 22.2302C19.7329 22.213 19.7798 22.2203 19.8044 22.2296C19.8251 22.2375 19.8457 22.2525 19.8692 22.2918C19.895 22.3349 19.9186 22.3982 19.9442 22.4911C19.9609 22.5518 19.9763 22.6168 19.9938 22.6902C19.9941 22.6915 19.9944 22.6928 19.9947 22.6941C19.9775 22.7039 19.9593 22.7139 19.9401 22.7239C19.8687 22.7608 19.7902 22.7922 19.7119 22.8023C19.5401 22.8246 19.4879 22.7782 19.4629 22.7449C19.4231 22.6919 19.4024 22.6031 19.3869 22.4676C19.3887 22.4023 19.4115 22.3514 19.4467 22.3143C19.4839 22.275 19.5438 22.2421 19.6312 22.2322Z" fill="black" stroke="black" stroke-width="0.33609"/>
<path d="M19.9004 18.368V18.3771L19.9014 18.3863C19.9138 18.4989 19.8915 18.5935 19.8515 18.646C19.8237 18.6824 19.769 18.7242 19.6324 18.6991C19.6026 18.6848 19.562 18.6491 19.5011 18.581C19.4916 18.5705 19.481 18.5584 19.4699 18.5457C19.4486 18.5215 19.4255 18.4951 19.4046 18.4728C19.3929 18.4602 19.3803 18.4471 19.3668 18.434C19.3832 18.304 19.4095 18.217 19.4468 18.1663C19.4653 18.1413 19.4853 18.1268 19.5121 18.1186C19.5416 18.1096 19.5909 18.1049 19.6708 18.1216L19.6707 18.1216L19.6752 18.1224C19.6796 18.1232 19.6981 18.1291 19.7287 18.1508C19.7574 18.1711 19.7884 18.1993 19.8171 18.232C19.8457 18.2648 19.8688 18.2983 19.8838 18.3272C19.8983 18.3552 19.9001 18.3687 19.9003 18.3687C19.9003 18.3687 19.9004 18.3685 19.9004 18.368Z" fill="black" stroke="black" stroke-width="0.33609"/>
<path d="M3.5698 11.9306L3.57842 11.9291L3.58759 11.9263C3.69065 11.8952 3.7797 11.9045 3.84256 11.9378C3.899 11.9678 3.95258 12.0265 3.97643 12.1374C3.9748 12.2666 3.95334 12.3532 3.91651 12.4101C3.88347 12.4611 3.82462 12.5088 3.69551 12.5304C3.55166 12.55 3.49671 12.5055 3.46704 12.4645C3.42571 12.4074 3.40437 12.313 3.40437 12.2036C3.40437 12.1808 3.42384 12.1103 3.47262 12.0338C3.49494 11.9988 3.51853 11.9705 3.53981 11.9515C3.55943 11.934 3.56984 11.9307 3.5698 11.9306Z" fill="black" stroke="black" stroke-width="0.33609"/>
<path d="M3.65006 20.1767L3.65006 20.1767L3.65169 20.1764C3.73091 20.1654 3.78039 20.1727 3.81149 20.1836C3.84092 20.1939 3.86351 20.2106 3.88451 20.2363C3.90729 20.2641 3.9282 20.3025 3.95006 20.3554C3.96505 20.3916 3.97747 20.4266 3.99137 20.4658C3.99252 20.469 3.99367 20.4723 3.99484 20.4756C3.99367 20.4789 3.99252 20.4822 3.99137 20.4854C3.97747 20.5246 3.96505 20.5596 3.95006 20.5958C3.9282 20.6487 3.90729 20.6871 3.88451 20.7149C3.86351 20.7405 3.84092 20.7573 3.81149 20.7676C3.78066 20.7784 3.73178 20.7856 3.65376 20.775C3.52948 20.7541 3.47018 20.7029 3.43897 20.6517C3.40416 20.5946 3.38958 20.5129 3.40174 20.4139L3.403 20.4037V20.3934C3.403 20.3169 3.42874 20.2753 3.46162 20.2471C3.50024 20.214 3.56342 20.1879 3.65006 20.1767Z" fill="black" stroke="black" stroke-width="0.33609"/>
<path d="M4.06726 16.4045L4.06718 16.4045L4.06677 16.4098C4.05501 16.5587 3.99325 16.6578 3.90775 16.7137C3.82026 16.7708 3.68175 16.7996 3.48698 16.7527C3.34482 16.7176 3.25659 16.6583 3.21156 16.5972C3.17146 16.5427 3.15276 16.4701 3.18284 16.3665C3.22615 16.25 3.27488 16.155 3.34039 16.0957C3.39529 16.046 3.47462 16.0095 3.61998 16.0387C3.7543 16.0758 3.879 16.1347 3.96331 16.2057C4.0475 16.2766 4.07411 16.3426 4.06726 16.4045Z" fill="black" stroke="black" stroke-width="0.33609"/>
<path d="M7.76027 20.4001L7.7619 20.392L7.76272 20.3838C7.77402 20.2714 7.81617 20.2004 7.87596 20.1543C7.93853 20.1061 8.03976 20.0705 8.19417 20.0694C8.34205 20.0824 8.45842 20.1184 8.53356 20.17C8.60195 20.2169 8.63847 20.2767 8.63847 20.367C8.63847 20.5322 8.57383 20.629 8.48309 20.6889C8.38388 20.7544 8.23565 20.7864 8.06239 20.7745C7.9357 20.7639 7.85391 20.7139 7.8079 20.6544C7.7619 20.595 7.73836 20.5091 7.76027 20.4001Z" fill="black" stroke="black" stroke-width="0.33609"/>
<path d="M8.1719 16.7741V16.7736L8.15813 16.7747C7.89499 16.7964 7.73445 16.6262 7.73445 16.4766C7.73445 16.3159 7.76969 16.1937 7.83272 16.1219C7.88619 16.061 7.98762 16.0052 8.20556 16.0399C8.34024 16.0622 8.43272 16.1151 8.49447 16.1826C8.55236 16.2459 8.5921 16.3317 8.60719 16.4408C8.58123 16.5481 8.53217 16.6269 8.46892 16.6799C8.40142 16.7364 8.30515 16.7741 8.1719 16.7741Z" fill="black" stroke="black" stroke-width="0.33609"/>
<path d="M17.2052 20.0677L17.2052 20.0678L17.2116 20.067C17.406 20.0436 17.5479 20.0869 17.6337 20.1531C17.7158 20.2164 17.761 20.3109 17.7506 20.4337L17.75 20.4408V20.448C17.75 20.5413 17.7087 20.6023 17.6249 20.6545C17.5354 20.7102 17.4087 20.7464 17.2675 20.7728C17.1274 20.7708 17.019 20.7404 16.9497 20.6928C16.8866 20.6495 16.8448 20.5855 16.8448 20.4753C16.8448 20.2709 16.9762 20.0865 17.2052 20.0677Z" fill="black" stroke="black" stroke-width="0.33609"/>
<path d="M25 3H3.17188V22.7467H25V3Z" stroke="black" stroke-width="4.87459" stroke-miterlimit="10"/>
<path d="M14.044 13.1343C15.2479 13.1343 16.2238 12.2514 16.2238 11.1624C16.2238 10.0733 15.2479 9.19043 14.044 9.19043C12.8402 9.19043 11.8643 10.0733 11.8643 11.1624C11.8643 12.2514 12.8402 13.1343 14.044 13.1343Z" fill="black" stroke="black" stroke-width="4.70526" stroke-miterlimit="10"/>
<path d="M9.1709 22.3362C9.1709 19.8987 11.3507 17.9268 14.0451 17.9268C16.7396 17.9268 18.9194 19.8987 18.9194 22.3362H9.1709Z" fill="black" stroke="black" stroke-width="4.70526" stroke-miterlimit="10"/>
</svg>
