<svg width="19" height="19" viewBox="0 0 19 19" fill="none" xmlns="http://www.w3.org/2000/svg">
<path fill-rule="evenodd" clip-rule="evenodd" d="M0.116244 10.2753C0.389471 11.2278 1.12359 11.9619 2.59186 13.4302L4.32998 15.1683C6.88446 17.7228 8.1617 19 9.74902 19C11.3361 19 12.6135 17.7228 15.1681 15.1683C17.7227 12.6138 18.9998 11.3364 18.9998 9.74925C18.9998 8.16205 17.7225 6.88481 15.1681 4.33021L13.4299 2.59209C11.9617 1.12386 11.2275 0.389704 10.2751 0.116472C9.32258 -0.156597 8.31096 0.0767127 6.2878 0.543644L5.12093 0.812898C3.41872 1.20572 2.56772 1.40215 1.98502 1.98501C1.40216 2.56771 1.20571 3.41892 0.812902 5.12093L0.543647 6.28779C0.0766979 8.31091 -0.156593 9.32258 0.116476 10.2751L0.116244 10.2753ZM7.71674 5.00773C8.46502 5.75585 8.46502 6.96901 7.71674 7.71729C6.96862 8.46541 5.75546 8.46541 5.00734 7.71729C4.25906 6.96901 4.25906 5.75585 5.00734 5.00773C5.75546 4.25945 6.96862 4.25945 7.71674 5.00773ZM16.1983 9.54897L9.56841 16.1793C9.29009 16.4576 8.8389 16.4576 8.56074 16.1793C8.28242 15.9011 8.28242 15.4501 8.56074 15.1717L15.1906 8.54147C15.4688 8.26331 15.92 8.26331 16.1983 8.54147C16.4764 8.81978 16.4764 9.27098 16.1983 9.54914V9.54897Z" fill="url(#paint0_linear_1346_14320)"/>
<defs>
<linearGradient id="paint0_linear_1346_14320" x1="-8.31548e-08" y1="9.43262" x2="18.9998" y2="9.43262" gradientUnits="userSpaceOnUse">
<stop stop-color="#FAC213"/>
<stop offset="1" stop-color="#FF9B37"/>
</linearGradient>
</defs>
</svg>
