<svg xmlns="http://www.w3.org/2000/svg" width="20" height="20" fill="none"><path fill="#6F6F6F" d="M17.5 7.813a.625.625 0 0 1-.625.625.648.648 0 0 1-.445-.18L14.53 6.352l-2.844 2.843a.625.625 0 0 1-.437.18.648.648 0 0 1-.445-.18.625.625 0 0 1 0-.883l2.843-2.843-1.906-1.899a.656.656 0 0 1-.133-.687.625.625 0 0 1 .579-.383h4.687a.625.625 0 0 1 .625.625v4.688Zm-3.125 2.812a.625.625 0 0 0-.625.625v5h-10v-10h5a.625.625 0 0 0 0-1.25h-5A1.25 1.25 0 0 0 2.5 6.25v10a1.25 1.25 0 0 0 1.25 1.25h10A1.25 1.25 0 0 0 15 16.25v-5a.624.624 0 0 0-.625-.625Z"/></svg>