<svg xmlns="http://www.w3.org/2000/svg" fill="none" viewBox="0 0 41 18"><rect width="41" height="18" fill="url(#a)" rx="6"/><path fill="#000" d="M6.767 5.01v7.98h4.104c1.836 0 2.664-.948 2.664-2.16 0-1.236-.948-1.872-1.956-1.92v-.18c.852-.096 1.596-.708 1.596-1.788 0-1.14-.948-1.932-2.46-1.932H6.767Zm3.54 3.336H8.435v-2.04h1.872c.696 0 1.152.372 1.152 1.02s-.456 1.02-1.152 1.02Zm.228 3.348h-2.1V9.498h2.1c.804 0 1.248.42 1.248 1.104 0 .684-.468 1.092-1.248 1.092ZM16.175 11.646V9.57h3.732V8.298h-3.732V6.354h4.128V5.01h-5.796v7.98h5.856v-1.344h-4.188ZM27.485 5.01H20.74v1.344h2.544v6.636h1.668V6.354h2.532V5.01ZM32.505 12.99h1.728l-2.976-7.98h-2.064l-2.832 7.98h1.716l.696-1.956h3.012l.72 1.956ZM29.11 9.846l.768-2.256c.12-.396.204-.672.252-1.068h.192c.072.396.156.672.288 1.068l.816 2.256H29.11Z"/><defs><linearGradient id="a" x1="0" x2="41" y1="8.936" y2="8.936" gradientUnits="userSpaceOnUse"><stop stop-color="#FAC213"/><stop offset="1" stop-color="#FF9B37"/></linearGradient></defs></svg>