<svg xmlns="http://www.w3.org/2000/svg" fill="none" viewBox="0 0 40 40"><path fill="#fff" fill-rule="evenodd" d="M16.969 8.03V6.363h7.122a1.667 1.667 0 0 1 1.388.744l2.233 3.348h4.562a4.393 4.393 0 0 1 4.393 4.393v15a4.394 4.394 0 0 1-4.393 4.395H7.727a4.393 4.393 0 0 1-4.393-4.395V18.94H6.667v10.908a1.06 1.06 0 0 0 1.06 1.062h24.547a1.06 1.06 0 0 0 1.06-1.062v-15a1.06 1.06 0 0 0-1.06-1.06h-5.457a1.667 1.667 0 0 1-1.386-.741l-2.234-3.35H16.97V8.03Z" clip-rule="evenodd"/><path fill="#fff" fill-rule="evenodd" d="M20 17.878a3.789 3.789 0 1 0 0 7.577 3.789 3.789 0 0 0 0-7.577Zm-7.121 3.789a7.122 7.122 0 1 1 14.243 0 7.122 7.122 0 0 1-14.243 0Z" clip-rule="evenodd"/><path fill="#fff" d="M6.666 5h3.333v11.667H6.666z"/><path fill="#fff" d="M14.166 9.167V12.5H2.499V9.167z"/></svg>