<svg xmlns="http://www.w3.org/2000/svg" width="24" height="24" fill="none"><path fill="#000" stroke="#000" stroke-width=".909" d="M6.286 4.857v-.714A2.146 2.146 0 0 0 4.143 2H2v1.428h2.143c.394 0 .714.321.714.715v10.714c0 1.59 1.053 2.926 2.493 3.387-.217.37-.35.796-.35 1.256a2.5 2.5 0 1 0 5 0 2.47 2.47 0 0 0-.25-1.071h4.071c-.155.325-.25.686-.25 1.07a2.5 2.5 0 1 0 2.5-2.5H8.43a2.146 2.146 0 0 1-2.143-2.142V6.286H20.57v4.805a2.146 2.146 0 0 1-2.143 2.143H9.143v1.428h9.286A3.576 3.576 0 0 0 22 11.091V4.857H6.286ZM10.572 19.5a1.072 1.072 0 0 1-2.143 0 1.072 1.072 0 0 1 2.143 0Zm8.57 0a1.072 1.072 0 0 1-2.142 0 1.072 1.072 0 0 1 2.143 0Z"/></svg>