<svg xmlns="http://www.w3.org/2000/svg" width="16" height="16" fill="none"><circle cx="8" cy="8" r="8" fill="#4FAF53"/><path fill="#fff" d="M7.9 12.5a.231.231 0 0 1-.17-.07.231.231 0 0 1-.07-.17v-.7c-.493-.047-.91-.163-1.25-.35-.34-.193-.597-.423-.77-.69a1.716 1.716 0 0 1-.28-.85c0-.06.02-.11.06-.15.047-.04.1-.06.16-.06h.89c.08 0 .143.02.19.06a.348.348 0 0 1 .11.13c.047.127.123.253.23.38.113.12.27.22.47.3.2.08.45.12.75.12.48 0 .837-.08 1.07-.24a.75.75 0 0 0 .35-.65.586.586 0 0 0-.19-.46c-.12-.12-.313-.227-.58-.32a9.682 9.682 0 0 0-1.05-.31 6.18 6.18 0 0 1-1.25-.43c-.34-.173-.597-.39-.77-.65-.167-.26-.25-.59-.25-.99 0-.513.187-.95.56-1.31.373-.36.89-.58 1.55-.66v-.69c0-.067.023-.123.07-.17a.231.231 0 0 1 .17-.07h.61c.067 0 .123.023.17.07.047.047.07.103.07.17v.71c.453.067.833.2 1.14.4.307.2.54.43.7.69.16.253.243.5.25.74 0 .053-.02.103-.06.15-.033.04-.083.06-.15.06H9.7a.375.375 0 0 1-.17-.04.294.294 0 0 1-.13-.15c-.033-.207-.16-.383-.38-.53-.22-.147-.507-.22-.86-.22-.36 0-.65.067-.87.2-.213.133-.32.34-.32.62 0 .187.053.343.16.47.107.12.28.227.52.32.247.093.573.193.98.3.567.127 1.027.273 1.38.44.36.167.623.38.79.64.173.253.26.577.26.97 0 .387-.097.727-.29 1.02-.187.287-.453.52-.8.7a3.636 3.636 0 0 1-1.22.34v.69a.231.231 0 0 1-.07.17.231.231 0 0 1-.17.07H7.9Z"/></svg>