<svg xmlns="http://www.w3.org/2000/svg" fill="none" viewBox="0 0 56 35"><path fill="#F9D54C" d="M19.882 16.307H12.8c-3.742 0-6.788-2.654-6.788-5.915 0-3.262 3.046-5.916 6.788-5.916h30.566c3.743 0 6.788 2.654 6.788 5.916 0 1.982-1.137 3.805-3.009 4.924a7.557 7.557 0 0 1-2.348.863l5.1 2.91c.037-.032.074-.032.11-.064 3.303-1.95 5.248-5.18 5.248-8.633C55.255 4.668 49.897 0 43.329 0H12.8C6.232 0 .875 4.668.875 10.392c0 5.723 5.357 10.392 11.925 10.392h7.082v-4.477Z"/><path fill="#F9D54C" d="M13.925 2.915c-.472.064-.581.353-.472.674.073.192.254.417.436.449.436.096.617-.257.617-.546 0-.288-.181-.577-.58-.577ZM16.578 1.793c.472-.032.799-.288.654-.77-.11-.32-.4-.48-.8-.448-.4.096-.581.384-.545.673 0 .32.327.577.69.545ZM16.614 5.384c-.473 0-.8.289-.69.738.072.32.363.513.762.48.4-.031.545-.32.654-.608-.145-.321-.363-.61-.726-.61ZM19.374 2.915c-.472.064-.58.353-.472.674.073.192.254.417.436.449.436.096.618-.257.618-.546 0-.288-.182-.577-.582-.577ZM19.447 7.757c-.327-.064-.472.128-.545.32-.109.322 0 .674.327.803.327.128.654-.065.727-.45.036-.32-.073-.577-.509-.673ZM8.368 2.947c-.255.033-.436.193-.436.45 0 .32 0 .64.436.673.436.032.544-.257.653-.577-.072-.321-.217-.61-.653-.546ZM8.474 7.95c-.11 0-.29.128-.327.224-.11.289.145.385.436.417.109 0 .254-.128.363-.192 0-.289-.182-.417-.472-.45ZM5.861 5.32c-.436-.032-.617.225-.545.545.037.193.255.385.582.321.254-.064.472-.16.436-.48-.037-.225-.218-.354-.473-.386ZM11.16 5.32c-.399-.032-.508.257-.508.577 0 .193.182.514.327.546.327.096.69-.065.727-.45.072-.32-.037-.576-.545-.673ZM11.236 1.633c.4-.064.508-.321.508-.674-.036-.384-.4-.513-.726-.449M26.785 1.152c-.036.288.182.577.581.609.509.032.8-.225.763-.641-.036-.321-.363-.481-.69-.546-.363.033-.617.257-.654.578ZM22.06 5.32c-.327 0-.472.257-.472.577 0 .193.181.514.363.578.363.096.69-.064.727-.45.072-.32-.073-.576-.618-.705ZM24.895 7.757c-.4-.032-.545.257-.545.578 0 .192.181.513.363.545.363.096.69-.065.726-.45.037-.32-.072-.576-.544-.673ZM21.916.574c-.4 0-.617.353-.617.642 0 .288.29.545.654.609.363-.032.69-.16.726-.513.073-.481-.254-.77-.763-.738ZM25.367 3.557c-.073-.128-.11-.289-.218-.353-.218-.128-.472-.064-.581.16-.037.097.072.289.181.353.255.128.473.064.618-.16ZM27.55 5.288c-.546 0-.836.32-.764.77.073.352.4.513.836.417.363-.097.654-.257.69-.61-.073-.385-.363-.577-.763-.577ZM30.49 3.108c-.146-.032-.364.064-.437.16-.145.224-.036.417.218.513.255.096.509.032.618-.16.073-.321-.11-.481-.4-.513ZM33.213.574c-.582-.192-.872.16-.945.546-.073.32.254.577.581.64.473.065.727-.127.836-.48.109-.32-.146-.577-.472-.706ZM33.213 5.416c-.582-.192-.872.16-.945.546-.073.32.254.577.581.64.473.065.727-.127.836-.48.109-.353-.146-.577-.472-.706ZM30.31 7.821c-.437-.032-.691.193-.727.546-.037.32.145.64.58.673.4.032.727-.128.764-.513.036-.385-.218-.61-.618-.706ZM38.627 5.352c-.472-.064-.617.225-.617.545 0 .193.181.481.363.546.363.096.654-.033.727-.417.036-.353-.073-.61-.473-.674ZM38.737.575c-.327-.097-.654 0-.727.416-.036.321.073.578.473.674.327.064.436-.128.581-.32.145-.386 0-.674-.327-.77ZM43.895 5.352c-.472.065-.8.385-.617.834.108.32.472.513.835.417.4-.096.545-.353.545-.673-.109-.385-.4-.61-.763-.578ZM41.825 3.46c0-.16-.254-.448-.436-.48-.472-.097-.58.224-.69.833.037.032.29.193.509.225.508.096.654-.289.617-.578ZM44.114.542c-.472-.064-.654.257-.617.578.036.192.254.449.436.48M40.99 8.11c-.11.224.036.417.29.513.255.064.473 0 .618-.32-.145-.129-.327-.29-.509-.385-.072-.032-.327.096-.4.192ZM14.54 8.463c-.073-.32-.254-.61-.618-.642-.545-.064-.799.257-.799.674 0 .32.327.513.654.545h.109c.363-.032.581-.289.654-.577ZM35.758 7.661c-.473-.096-.908.032-.908.545 0 .353.181.642.508.802h1.017a.617.617 0 0 0 .218-.353c0-.449-.218-.866-.835-.994ZM35.544 3.3c-.109.257.073.417.327.481s.472 0 .581-.32c-.145-.097-.327-.29-.508-.353-.11-.032-.364.096-.4.192ZM52.249 7.693c-.472.032-.509.353-.509.674.037.352.255.609.654.545M46.835 7.79c-.472 0-.581.288-.581.609 0 .288.218.448.509.448.472.033.544-.288.58-.64-.036-.257-.217-.418-.508-.418ZM49.49 5.352c-.58-.096-.799.289-.799.706 0 .352.364.545.763.545.436 0 .654-.225.69-.545-.036-.385-.254-.61-.653-.706ZM38.81 11.541c.508-.032.69-.417.617-.866-.073-.417-.364-.673-.654-.673-.727.064-1.09.385-1.054.77 0 .513.545.801 1.09.77ZM35.757 13.69c.327.064.436-.129.581-.321.145-.353 0-.642-.327-.738-.327-.096-.654 0-.726.417-.037.289.109.545.472.641ZM36.41 17.89c-.145-.096-.327-.256-.545-.32-.109-.033-.327.096-.363.224M46.871 13.657c.255-.032.436-.192.618-.288-.254-.481-.254-.866-.763-.802-.29.032-.472.224-.472.481 0 .353.145.706.617.61ZM41.861 18.05c0-.352-.072-.64-.58-.64-.291 0-.51.16-.51.448M41.17 13.85c.435.032.654-.193.762-.545 0-.353-.218-.61-.58-.706-.582-.128-.836.257-.873.642-.036.32.29.577.69.609ZM44.114 11.252c.4-.096.545-.384.437-.737-.073-.225-.255-.417-.4-.385-.618.128-.727.417-.618.77.073.224.255.449.581.352ZM49.599 11.349c.4 0 .654-.321.654-.642 0-.32-.255-.577-.618-.641-.436.032-.617.256-.617.61 0 .352.181.673.58.673ZM49.413 14.972c-.435 0-.653.257-.726.577-.073.353.218.61.581.674M52.325 12.6c-.473-.033-.582.256-.545.609a.46.46 0 0 0 .472.449M16.72 16.127c.4-.064.509-.353.472-.674-.036-.385-.4-.513-.726-.449-.146.032-.327.353-.327.545 0 .257.109.642.58.578ZM16.722 11.413c.4-.064.545-.32.545-.674-.109-.32-.363-.545-.726-.545-.4 0-.654.321-.654.61 0 .384.29.705.835.609ZM13.887 13.69c.473.064.545-.29.618-.578-.073-.32-.182-.609-.654-.577-.254.032-.472.193-.472.45.036.352.073.673.508.705ZM13.997 17.41c-.364-.097-.473.127-.545.352-.11.288.145.417.4.48M22.173 11.38c.4-.063.545-.32.581-.609-.109-.352-.363-.609-.69-.577-.473.032-.8.321-.654.77.073.32.363.48.763.417ZM21.843 16.19c.363.129.654-.063.835-.352.182-.353-.072-.577-.363-.737-.327-.193-.654-.065-.872.224-.254.417-.072.705.4.866ZM19.882 13.08c-.073-.224-.29-.353-.545-.32-.109.032-.254.288-.218.32.145.128.363.225.545.32.072-.095.145-.192.218-.32ZM5.569 14.972c-.364.064-.654.32-.69.61-.037.288.217.609.617.64M8.367 13.818c.363 0 .618-.257.69-.577-.072-.321-.218-.61-.617-.642-.545-.064-.8.289-.8.674 0 .32.364.545.727.545ZM8.73 17.377c-.362-.096-.69.032-.726.449-.036.32.037.61.473.705M5.64 11.413c.363 0 .653-.257.653-.61 0-.32-.254-.545-.545-.609-.508-.032-.763.193-.835.481-.11.481.29.706.726.738ZM11.016 11.252c.363.097.654-.064.726-.449.037-.32-.072-.577-.544-.673-.4-.032-.545.257-.509.577 0 .193.145.513.327.545ZM11.016 16.095c.363.096.654-.065.726-.45.037-.32-.072-.577-.544-.673-.4-.032-.545.257-.509.577 0 .193.145.513.327.546ZM33.144 11.285c.4-.065.508-.321.508-.674-.072-.385-.4-.513-.726-.417-.182.032-.364.353-.364.513 0 .29.11.642.582.578ZM28.493 10.9c.036-.513-.218-.93-.908-.866-.509.032-.727.353-.872.737M30.309 13.69c.472.064.617-.257.617-.546 0-.192-.181-.48-.363-.545M24.096 18.147c.072.32.363.513.763.48.4-.031.544-.32.617-.609M25.184 12.503c-.363 0-.69.096-.69.481 0 .257.182.417.509.417M33.72 15.646c.037-.321-.326-.546-.69-.642-.472-.096-.653.225-.762.513M38.555 15.004c-.617-.096-.8.289-.8.706 0 .32.328.577.727.545.4 0 .654-.225.727-.577-.036-.353-.254-.61-.654-.674Z"/><path stroke="#000" stroke-miterlimit="10" stroke-width="3.68" d="m42.5 21.924-15.752-9.058-.086 16.593 5.232-2.486 3.449 5.632 5.375-2.562-3.45-5.633 5.232-2.486Z"/></svg>