<svg xmlns="http://www.w3.org/2000/svg" width="684" height="1048" fill="none"><path fill="#fff" d="M393.64 0H273.667c-.73 0-1.385.45-1.646 1.131L.921 706.501a1.764 1.764 0 0 0 1.646 2.397h116.601c.728 0 1.38-.447 1.644-1.124L395.284 2.404A1.764 1.764 0 0 0 393.64 0Z"/><path fill="#fff" d="M474.793 90.7H354.82c-.73 0-1.385.45-1.646 1.132l-271.1 705.37a1.764 1.764 0 0 0 1.646 2.397h116.601c.728 0 1.38-.447 1.644-1.124l274.472-705.37a1.764 1.764 0 0 0-1.644-2.404ZM817.64 339H697.667c-.73 0-1.385.45-1.646 1.131l-271.1 705.369a1.765 1.765 0 0 0 1.646 2.4h116.601c.728 0 1.38-.45 1.644-1.13l274.472-705.367A1.764 1.764 0 0 0 817.64 339Z"/><path fill="#fff" d="M543.64 120H423.667c-.73 0-1.385.45-1.646 1.131l-271.1 705.37a1.764 1.764 0 0 0 1.646 2.397h116.601c.728 0 1.38-.447 1.644-1.124l274.472-705.371A1.764 1.764 0 0 0 543.64 120Z"/><path fill="#fff" d="M624.794 210.701H504.82c-.73 0-1.384.449-1.646 1.131l-271.1 705.37a1.764 1.764 0 0 0 1.647 2.397h116.601c.727 0 1.379-.447 1.643-1.125l274.472-705.37a1.763 1.763 0 0 0-1.643-2.403Z"/></svg>