<svg xmlns="http://www.w3.org/2000/svg" width="41" height="32" fill="none"><path fill="#171B27" d="M34.539 2.578A33.644 33.644 0 0 0 26.234.002a.125.125 0 0 0-.133.063c-.359.638-.756 1.47-1.034 2.124a31.058 31.058 0 0 0-9.328 0A21.467 21.467 0 0 0 14.69.065a.13.13 0 0 0-.133-.063A33.551 33.551 0 0 0 6.25 2.578a.119.119 0 0 0-.055.047C.906 10.527-.542 18.235.17 25.848a.141.141 0 0 0 .053.095c3.49 2.563 6.87 4.119 10.188 5.15a.131.131 0 0 0 .143-.047 24.216 24.216 0 0 0 2.084-3.39.132.132 0 0 0 .005-.106.127.127 0 0 0-.076-.074 22.3 22.3 0 0 1-3.183-1.517.132.132 0 0 1-.064-.105.131.131 0 0 1 .052-.112c.213-.16.427-.327.632-.495a.128.128 0 0 1 .132-.018c6.677 3.049 13.906 3.049 20.504 0a.126.126 0 0 1 .133.016c.205.168.419.337.634.497a.128.128 0 0 1 .052.112.132.132 0 0 1-.063.105 20.927 20.927 0 0 1-3.184 1.516.127.127 0 0 0-.075.075.13.13 0 0 0 .006.106 27.167 27.167 0 0 0 2.082 3.388.13.13 0 0 0 .143.049c3.334-1.032 6.714-2.587 10.204-5.15a.132.132 0 0 0 .053-.094c.851-8.8-1.425-16.446-6.032-23.223a.103.103 0 0 0-.053-.048ZM13.634 21.212c-2.01 0-3.667-1.845-3.667-4.112 0-2.266 1.625-4.112 3.667-4.112 2.059 0 3.699 1.862 3.667 4.112 0 2.267-1.625 4.112-3.667 4.112Zm13.557 0c-2.01 0-3.667-1.845-3.667-4.112 0-2.266 1.625-4.112 3.667-4.112 2.059 0 3.699 1.862 3.667 4.112 0 2.267-1.608 4.112-3.667 4.112Z"/></svg>