<svg xmlns="http://www.w3.org/2000/svg" width="39" height="38"><path fill-rule="evenodd" d="M1.245 4.446C.357 6.189.357 8.469.357 13.029V24.97c0 4.56 0 6.84.888 8.583a8.142 8.142 0 0 0 3.558 3.558C6.546 38 8.826 38 13.386 38h11.943c4.56 0 6.84 0 8.582-.888a8.143 8.143 0 0 0 3.559-3.558c.887-1.743.887-4.023.887-8.583V13.03c0-4.56 0-6.84-.887-8.583A8.143 8.143 0 0 0 33.91.888C32.17 0 29.89 0 25.33 0H13.386c-4.56 0-6.84 0-8.583.888a8.143 8.143 0 0 0-3.558 3.558Zm22.22 3.697c2.603.145 5.07 1.014 7.122 2.75 2.33 4.633 3.563 9.844 3.699 15.2-2.055 2.316-4.93 3.764-7.944 3.764 0 0-.96-1.157-1.643-2.171 1.78-.435 3.424-1.448 4.52-3.04-.959.58-1.919 1.157-2.878 1.592-1.232.58-2.465.868-3.697 1.159-1.095.144-2.192.289-3.287.289-1.095 0-2.192-.145-3.287-.29-1.232-.29-2.464-.579-3.698-1.158-.958-.435-1.918-1.013-2.876-1.592 1.095 1.592 2.739 2.605 4.52 3.04-.684 1.014-1.643 2.171-1.643 2.171-3.014 0-5.89-1.448-7.944-3.763.135-5.357 1.37-10.568 3.698-15.2 2.054-1.737 4.52-2.606 7.122-2.751l.41.434c-2.328.58-4.384 1.737-6.3 3.33a20.033 20.033 0 0 1 7.67-2.461c.822-.146 1.506-.146 2.328-.146.821 0 1.507 0 2.329.146 2.739.289 5.34 1.157 7.67 2.46-1.918-1.592-3.973-2.75-6.3-3.329l.41-.434Zm-11.23 12.449c0 1.593 1.234 2.896 2.603 2.896 1.37 0 2.601-1.303 2.601-2.896 0-1.592-1.232-2.895-2.601-2.895-1.37 0-2.603 1.303-2.603 2.895Zm9.038 0c0 1.593 1.236 2.896 2.604 2.896 1.37 0 2.603-1.303 2.603-2.896 0-1.592-1.234-2.895-2.604-2.895-1.369 0-2.601 1.303-2.601 2.895h-.002Z" clip-rule="evenodd"/></svg>