<svg xmlns="http://www.w3.org/2000/svg" width="32" height="32" fill="none"><path stroke="#F3F3F3" stroke-linecap="round" stroke-linejoin="round" stroke-width="2" d="m6 5 20 22M19.363 19.7A4.95 4.95 0 0 1 16 21a5 5 0 0 1-3.362-8.7"/><path stroke="#F3F3F3" stroke-linecap="round" stroke-linejoin="round" stroke-width="2" d="M9.25 8.575C4.15 11.15 2 16 2 16s4 9 14 9c2.343.02 4.657-.52 6.75-1.575M26.075 21.137C28.8 18.7 30 16 30 16s-4-9-14-9c-.867-.002-1.733.07-2.588.213"/><path stroke="#F3F3F3" stroke-linecap="round" stroke-linejoin="round" stroke-width="2" d="M16.938 11.088a4.988 4.988 0 0 1 4.037 4.437"/></svg>