<svg xmlns="http://www.w3.org/2000/svg" fill="none" viewBox="0 0 20 20"><path stroke="#F8F8F8" stroke-linecap="round" stroke-linejoin="round" stroke-width="2" d="M10 13.75a3.75 3.75 0 1 0 0-7.5 3.75 3.75 0 0 0 0 7.5Z"/><path stroke="#F8F8F8" stroke-linecap="round" stroke-linejoin="round" stroke-width="2" d="M14.352 5.086c.197.182.385.37.562.562l2.133.305c.347.604.615 1.25.797 1.922l-1.297 1.727s.023.53 0 .796l1.297 1.727a7.984 7.984 0 0 1-.797 1.922l-2.133.305s-.367.382-.562.562l-.305 2.133a8.062 8.062 0 0 1-1.922.797l-1.727-1.297a4.531 4.531 0 0 1-.796 0l-1.727 1.297a7.982 7.982 0 0 1-1.922-.797l-.305-2.133a14.33 14.33 0 0 1-.562-.562l-2.133-.305a8.062 8.062 0 0 1-.797-1.922l1.297-1.727s-.023-.53 0-.796L2.156 7.875c.18-.673.449-1.319.797-1.922l2.133-.305c.182-.192.37-.38.562-.562l.305-2.133a8.063 8.063 0 0 1 1.922-.797l1.727 1.297c.265-.023.531-.023.796 0l1.727-1.297c.673.18 1.319.449 1.922.797l.305 2.133Z"/></svg>