<svg xmlns="http://www.w3.org/2000/svg" width="20" height="20" fill="none"><path fill="#F4F6FB" fill-opacity=".7" d="M8.571 8.571H5.714v2.858h2.857V8.57ZM17.143 0H2.857A2.848 2.848 0 0 0 0 2.857v14.286A2.82 2.82 0 0 0 2.857 20h14.286A2.848 2.848 0 0 0 20 17.143V2.857A2.877 2.877 0 0 0 17.143 0Zm0 5.714h-2.857v2.857h2.857v2.858h-2.857v2.857h2.857v2.857h-2.857v-2.857h-2.857v2.857H8.57v-2.857H5.714v2.857H2.857v-2.857h2.857v-2.857H2.857V8.57h2.857V5.714H2.857V2.857h2.857v2.857h2.857V2.857h2.858v2.857h2.857V2.857h2.857v2.857ZM8.57 11.43v2.857h2.858v-2.857H8.57ZM11.43 8.57V5.714H8.57v2.857h2.858Zm0 2.858h2.857V8.57h-2.857v2.858Z"/></svg>