<svg xmlns="http://www.w3.org/2000/svg" width="34" height="34" fill="none"><circle cx="17" cy="17" r="17" fill="#C7CAD0"/><path fill="#000" fill-opacity=".5" d="M26.042 12c0-.929-.786-1.714-1.715-1.714h-3.143l-.464-1.143A1.731 1.731 0 0 0 19.113 8h-4.464c-.715 0-1.357.464-1.607 1.143l-.429 1.143H9.47c-.964 0-1.714.785-1.714 1.714v10.286c0 .964.75 1.714 1.714 1.714h14.857c.929 0 1.715-.75 1.715-1.714V12Zm-4.858 5.143a4.275 4.275 0 0 1-4.285 4.286 4.253 4.253 0 0 1-4.286-4.286 4.275 4.275 0 0 1 4.286-4.286 4.298 4.298 0 0 1 4.285 4.286Zm-1.142 0c0-1.714-1.429-3.143-3.143-3.143a3.147 3.147 0 0 0-3.143 3.143 3.125 3.125 0 0 0 3.143 3.143 3.147 3.147 0 0 0 3.143-3.143Z"/></svg>