<svg xmlns="http://www.w3.org/2000/svg" width="20" height="20" fill="none"><path fill="#F4F6FB" fill-opacity=".7" d="M8.854.195C8.894.078 9.01 0 9.167 0c.117 0 .234.078.273.195l.547 1.485 1.484.547c.117.039.196.156.196.273 0 .156-.079.273-.196.313l-1.484.546-.547 1.446A.294.294 0 0 1 9.167 5c-.157 0-.274-.078-.313-.195l-.547-1.446-1.484-.546c-.117-.04-.156-.157-.156-.313 0-.117.039-.234.156-.273l1.484-.547.547-1.485ZM15.313 3.659c.065-.195.26-.326.52-.326.196 0 .391.13.456.326l.912 2.474 2.473.911A.49.49 0 0 1 20 7.5c0 .26-.13.456-.326.52l-2.473.912-.912 2.41a.49.49 0 0 1-.456.325c-.26 0-.455-.13-.52-.326L14.4 8.932l-2.474-.911c-.195-.065-.26-.26-.26-.521 0-.195.065-.39.26-.456l2.474-.911.912-2.474ZM5.833 7.188c.104-.313.417-.521.834-.521.312 0 .625.208.729.52l1.458 3.959 3.959 1.458c.312.104.52.417.52.73 0 .416-.208.729-.52.833l-3.959 1.458-1.458 3.854a.783.783 0 0 1-.73.521c-.416 0-.729-.208-.833-.52l-1.458-3.855-3.958-1.458C.104 14.063 0 13.75 0 13.333c0-.312.104-.625.417-.729l3.958-1.458 1.458-3.959Z"/></svg>