<svg xmlns="http://www.w3.org/2000/svg" fill="none" viewBox="0 0 20 20"><path fill="url(#a)" d="m10 0 2.07 2.273L15 1.34l.657 3.003L18.66 5l-.933 2.93L20 10l-2.273 2.07.933 2.93-3.003.657L15 18.66l-2.93-.933L10 20l-2.07-2.273L5 18.66l-.657-3.003L1.34 15l.933-2.93L0 10l2.273-2.07L1.34 5l3.003-.657L5 1.34l2.93.933L10 0Z"/><path fill="#000" d="M14.798 9.703a.208.208 0 0 0-.208-.188h-4.355A2.562 2.562 0 0 0 7.76 7.6a2.563 2.563 0 0 0-2.56 2.56 2.563 2.563 0 0 0 2.56 2.56c1.263 0 2.312-.92 2.52-2.123h.97v1.38h.002a.209.209 0 0 0 .208.195h.682a.208.208 0 0 0 .208-.194h.002v-1.381h.549v2.135h.002a.21.21 0 0 0 .208.195h.679a.209.209 0 0 0 .208-.195H14v-2.135h.59a.21.21 0 0 0 .21-.21v-.684h-.002ZM7.76 11.646a1.47 1.47 0 0 1-1.468-1.469c0-.81.659-1.469 1.468-1.469a1.47 1.47 0 0 1 0 2.938Z"/><defs><linearGradient id="a" x1="10" x2="10" y1="0" y2="20" gradientUnits="userSpaceOnUse"><stop offset=".299" stop-color="#F661A7"/><stop offset=".703" stop-color="#00A4FF"/></linearGradient></defs></svg>