<svg xmlns="http://www.w3.org/2000/svg" width="34" height="34" fill="none"><path fill="url(#a)" d="M17 34c9.389 0 17-7.611 17-17S26.389 0 17 0 0 7.611 0 17s7.611 17 17 17Z"/><path fill="#fff" d="M27.875 15.575a.45.45 0 0 0-.451-.41H17.95C17.326 12.773 15.154 11 12.568 11A5.574 5.574 0 0 0 7 16.569a5.574 5.574 0 0 0 5.569 5.568c2.746 0 5.028-2 5.481-4.618h2.11v3.004h.003a.455.455 0 0 0 .453.422l.018-.002v.003h1.464a.454.454 0 0 0 .452-.423h.004V17.52h1.195v4.645h.004a.456.456 0 0 0 .453.422H25.683a.456.456 0 0 0 .452-.422h.004v-4.645h1.285a.457.457 0 0 0 .456-.457v-1.487h-.005ZM12.57 19.801a3.198 3.198 0 0 1-3.194-3.195 3.198 3.198 0 0 1 3.194-3.195 3.197 3.197 0 0 1 3.192 3.195 3.197 3.197 0 0 1-3.192 3.195Z"/><defs><linearGradient id="a" x1="17" x2="17" y1="0" y2="34" gradientUnits="userSpaceOnUse"><stop stop-color="#262D41"/><stop offset="1" stop-color="#11131C"/></linearGradient></defs></svg>