<svg xmlns="http://www.w3.org/2000/svg" width="24" height="24" fill="none"><g clip-path="url(#a)"><path fill="url(#b)" fill-rule="evenodd" d="M16.77 4.25h1.214a2.788 2.788 0 0 1 2.784 2.785V8.25c0 .36.143.706.399.96l1.038 1.038a2.79 2.79 0 0 1 0 3.939l-1.037 1.037c-.256.254-.4.6-.399.961v1.214a2.788 2.788 0 0 1-2.785 2.785H16.77c-.36 0-.706.142-.96.398L14.77 21.62a2.788 2.788 0 0 1-3.939 0l-1.037-1.037c-.254-.256-.6-.399-.96-.398H7.62A2.787 2.787 0 0 1 4.835 17.4v-1.215a1.35 1.35 0 0 0-.398-.961l-1.038-1.037a2.79 2.79 0 0 1 0-3.94l1.038-1.036c.255-.255.398-.6.397-.961V7.036A2.787 2.787 0 0 1 7.62 4.25h1.215c.36 0 .707-.143.961-.399l1.037-1.038a2.79 2.79 0 0 1 3.94 0l1.037 1.038c.254.256.6.399.96.398Zm-4.919 8.86 3.299-3.298a.713.713 0 0 1 1.007 1.008l-3.802 3.802a.712.712 0 0 1-1.008 0l-1.9-1.901a.713.713 0 0 1 1.007-1.008l1.397 1.397Z" clip-rule="evenodd"/></g><defs><linearGradient id="b" x1="2.584" x2="23.019" y1="12.145" y2="12.145" gradientUnits="userSpaceOnUse"><stop stop-color="#FAC213"/><stop offset="1" stop-color="#FF9B37"/></linearGradient><clipPath id="a"><path fill="#fff" d="M0 0h24v24H0z"/></clipPath></defs></svg>