<svg xmlns="http://www.w3.org/2000/svg" width="24" height="24" fill="none"><path fill="#000" stroke="#000" stroke-width=".553" d="M2.234 2.23a3.282 3.282 0 0 1 2.314-.953h12.853v4.939h3.548v4.94h1.774v5.798H20.95v4.939H4.55c-.869 0-1.701-.343-2.315-.953a3.242 3.242 0 0 1-.957-2.299V4.529c0-.862.344-1.689.957-2.298Zm0 0-.195-.197m.195.197-.195-.197m0 0A3.558 3.558 0 0 1 4.55 1H17.4L2.039 2.033ZM20.871 15.39h.277V12.719H16.258c-.478 0-.921.254-1.161.668a1.33 1.33 0 0 0 0 1.336c.24.413.683.667 1.16.667h4.614ZM4.548 2.84h-.276v.023c-.496.081-.936.38-1.192.82a1.681 1.681 0 0 0 0 1.69c.303.522.863.843 1.468.843h11.277V2.84H4.548Zm-.276 17.467v.023H19.373V16.953H16.257a2.92 2.92 0 0 1-2.526-1.45c-.52-.896-.52-2 0-2.897a2.92 2.92 0 0 1 2.527-1.45h3.115V7.78H4.548c-.45 0-.896-.093-1.308-.273l-.388-.17v11.304c0 .449.18.878.498 1.195.252.25.575.414.922.47Z"/></svg>