<svg xmlns="http://www.w3.org/2000/svg" width="16" height="18" fill="none"><path fill="#F4F6FB" fill-opacity=".5" d="M11.25 15.75H5.344a1.966 1.966 0 0 1-1.969-1.969V3.375H.844A.833.833 0 0 0 0 4.219v12.937c0 .492.352.844.844.844h9.562a.833.833 0 0 0 .844-.844V15.75Zm0-12.094V0H5.344A.833.833 0 0 0 4.5.844V13.78c0 .492.352.844.844.844h9.562a.833.833 0 0 0 .844-.844V4.5h-3.656c-.492 0-.844-.352-.844-.844Zm4.219-1.09L13.184.281C13.008.105 12.797 0 12.586 0h-.211v3.375h3.375v-.21c0-.212-.105-.423-.281-.599Z"/></svg>