<svg xmlns="http://www.w3.org/2000/svg" fill="none" viewBox="0 0 41 40"><path fill="#000" fill-rule="evenodd" d="M28.64 28.289c0 .398-.324.72-.724.72h-3.54l-.013-.003-.614.003c-.45.003-.87-.226-1.11-.605l-4.036-6.358a.572.572 0 0 1 .486-.877h4.56l.003.006V7.114a.37.37 0 0 1 .52-.341 9.678 9.678 0 0 1 2.791 1.938l.616.612a3.594 3.594 0 0 1 1.061 2.549v16.417Zm-12.066-9.464v14.061a.37.37 0 0 1-.518.342 9.668 9.668 0 0 1-2.792-1.939l-.616-.612a3.594 3.594 0 0 1-1.062-2.548V11.712c0-.399.325-.721.726-.721h3.538l.014.002.613-.002c.45-.002.87.226 1.11.605l4.037 6.358a.571.571 0 0 1-.487.877h-4.559l-.003-.006Zm19.754-8.184-6.802-6.764c-5.199-5.17-13.627-5.17-18.825 0L3.898 10.64a13.184 13.184 0 0 0 0 18.718l6.803 6.765c5.198 5.168 13.626 5.168 18.825 0l6.802-6.765a13.183 13.183 0 0 0 0-18.718Z" clip-rule="evenodd"/></svg>