<svg xmlns="http://www.w3.org/2000/svg" fill="none" viewBox="0 0 44 44"><path fill="#fff" fill-rule="evenodd" d="M31.328 31.121a.799.799 0 0 1-.792.792H25.98a1.446 1.446 0 0 1-1.22-.666l-4.4-6.997a.628.628 0 0 1 .535-.961h4.99V7.825a.408.408 0 0 1 .567-.377 10.688 10.688 0 0 1 3.055 2.13l.666.68a3.963 3.963 0 0 1 1.163 2.803l-.007 18.06Zm-13.2-10.416V36.17a.409.409 0 0 1-.566.377 10.499 10.499 0 0 1-3.055-2.131l-.679-.666a3.986 3.986 0 0 1-1.163-2.804v-18.06a.799.799 0 0 1 .792-.798h4.558a1.428 1.428 0 0 1 1.213.666l4.4 6.997a.63.63 0 0 1-.51.993h-4.99v-.038Zm21.611-9.001L32.296 4.26a14.57 14.57 0 0 0-20.592 0L4.26 11.704a14.57 14.57 0 0 0 0 20.592l7.443 7.443a14.57 14.57 0 0 0 20.592 0l7.443-7.443a14.57 14.57 0 0 0 0-20.592Z" clip-rule="evenodd"/></svg>