<svg xmlns="http://www.w3.org/2000/svg" fill="none" viewBox="0 0 24 24"><path d="M12.1 5C9.58 4.994 7.46 6.271 5.716 8.361a14.569 14.569 0 0 0-1.543 2.24 10.02 10.02 0 0 0-.505 1.039.949.949 0 0 0 0 .71c.092.22.248.577.505 1.039.342.614.74 1.24 1.197 1.83.072.094.647.764 1.144 1.284l-.985.984a.918.918 0 0 0 0 1.257.86.86 0 0 0 1.224 0l11.915-12.24a.918.918 0 0 0 0-1.258.85.85 0 0 0-.612-.246.85.85 0 0 0-.612.246l-1.09 1.148c-1.407-.967-2.806-1.39-4.256-1.394Zm0 3.498c.44 0 1.113.12 1.728.49l-1.303 1.34c-.134-.071-.388-.082-.426-.082-.94 0-1.702.783-1.702 1.749 0 .039-.012.303.027.464-.164.204-1.277 1.312-1.277 1.312a3.754 3.754 0 0 1-.452-1.776c-.01-1.931 1.524-3.497 3.404-3.497Zm6.755.3s-8.302 8.497-9.415 9.646a8.05 8.05 0 0 0 2.66.546c2.518 0 4.64-1.271 6.382-3.361a14.57 14.57 0 0 0 1.542-2.24c.257-.462.414-.819.506-1.039a.933.933 0 0 0 0-.71 13.058 13.058 0 0 0-1.117-2.022c-.15-.227-.558-.82-.558-.82Z"/></svg>