<svg xmlns="http://www.w3.org/2000/svg" width="522" height="625"><path fill="#fff" d="M391.42 0h-85.545c-.729 0-1.383.45-1.645 1.13L108.923 508.603a1.763 1.763 0 0 0 1.645 2.397h83.115c.727 0 1.38-.446 1.644-1.123L393.063 2.404A1.763 1.763 0 0 0 391.42 0Z"/><path fill="#fff" d="M283.42 57h-85.545c-.729 0-1.383.45-1.645 1.13L.923 565.603A1.764 1.764 0 0 0 2.568 568h83.115c.727 0 1.38-.446 1.644-1.123L285.063 59.404A1.763 1.763 0 0 0 283.42 57ZM443.42 88h-85.545c-.729 0-1.383.45-1.645 1.13L160.923 596.603a1.763 1.763 0 0 0 1.645 2.397h83.115c.727 0 1.38-.446 1.644-1.123L445.063 90.404A1.763 1.763 0 0 0 443.42 88Z"/><path fill="#fff" d="M543.42 49h-85.545c-.729 0-1.383.45-1.645 1.13L260.923 557.603a1.763 1.763 0 0 0 1.645 2.397h83.115c.727 0 1.38-.446 1.644-1.123L545.063 51.404A1.763 1.763 0 0 0 543.42 49Z"/><path fill="#fff" d="M601.42 114h-85.545c-.729 0-1.383.449-1.645 1.13L318.923 622.603a1.763 1.763 0 0 0 1.645 2.397h83.115c.727 0 1.38-.446 1.644-1.123l197.736-507.473A1.763 1.763 0 0 0 601.42 114Z"/><path fill="#fff" d="M702.42 73h-85.545c-.729 0-1.383.45-1.645 1.13L419.923 581.603a1.763 1.763 0 0 0 1.645 2.397h83.115c.727 0 1.38-.446 1.644-1.123L704.063 75.404A1.763 1.763 0 0 0 702.42 73Z"/></svg>