<svg xmlns="http://www.w3.org/2000/svg" fill="none" viewBox="0 0 22 22"><path fill="#000" d="M9.007 18.96a4.697 4.697 0 0 1-6.635 0 4.697 4.697 0 0 1 0-6.635L5.69 9.007a4.697 4.697 0 0 1 6.635 0 .704.704 0 1 1-.995.996 3.262 3.262 0 0 0-4.645 0L3.367 13.32a3.262 3.262 0 0 0 0 4.645 3.262 3.262 0 0 0 4.645 0l2.986-2.986a.704.704 0 1 1 .995.996L9.007 18.96Zm6.635-6.635a4.697 4.697 0 0 1-6.635 0 .703.703 0 1 1 .995-.995 3.262 3.262 0 0 0 4.645 0l3.318-3.318a3.262 3.262 0 0 0 0-4.645 3.262 3.262 0 0 0-4.645 0l-2.986 2.986a.704.704 0 1 1-.995-.995l2.986-2.986a4.697 4.697 0 0 1 6.635 0 4.697 4.697 0 0 1 0 6.635l-3.318 3.318Z"/></svg>