<svg xmlns="http://www.w3.org/2000/svg" width="33" height="18" fill="none"><path fill="#fff" d="M32.464 7.012a.692.692 0 0 0-.692-.629H17.254C16.297 2.717 12.967 0 9.005 0 4.3 0 .471 3.828.471 8.534c0 4.707 3.828 8.534 8.534 8.534 4.21 0 7.707-3.065 8.401-7.077h3.233v4.603h.005a.697.697 0 0 0 .694.647c.01 0 .018-.002.028-.003v.005h2.243v-.002a.695.695 0 0 0 .694-.646h.006V9.99h1.831v7.118h.006a.698.698 0 0 0 .694.647H29.103a.7.7 0 0 0 .694-.647h.006V9.991h1.97V9.99a.7.7 0 0 0 .698-.7V7.012h-.007ZM9.005 13.488a4.902 4.902 0 0 1-4.894-4.896 4.901 4.901 0 0 1 4.894-4.896A4.9 4.9 0 0 1 13.9 8.592a4.9 4.9 0 0 1-4.894 4.896Z"/></svg>