<svg xmlns="http://www.w3.org/2000/svg" fill="none" viewBox="0 0 16 16"><path fill="#121212" fill-rule="evenodd" d="M14.7 14.7v-2.2h-2.2v2.2h2.2Zm.5 1.3a.8.8 0 0 0 .8-.8V12a.8.8 0 0 0-.8-.8H12a.8.8 0 0 0-.8.8v3.2a.8.8 0 0 0 .8.8h3.2ZM9.1 14.7v-2.2H6.9v2.2h2.2Zm.5 1.3a.8.8 0 0 0 .8-.8V12a.8.8 0 0 0-.8-.8H6.4a.8.8 0 0 0-.8.8v3.2a.8.8 0 0 0 .8.8h3.2ZM3.5 14.7v-2.2H1.3v2.2h2.2ZM4 16a.8.8 0 0 0 .8-.8V12a.8.8 0 0 0-.8-.8H.8a.8.8 0 0 0-.8.8v3.2a.8.8 0 0 0 .8.8H4ZM14.7 9.1V6.9H1.3v2.2h13.4Zm.5 1.3a.8.8 0 0 0 .8-.8V6.4a.8.8 0 0 0-.8-.8H.8a.8.8 0 0 0-.8.8v3.2a.8.8 0 0 0 .8.8h14.4ZM14.7 3.5V1.3H1.3v2.2h13.4Zm.5 1.3A.8.8 0 0 0 16 4V.8a.8.8 0 0 0-.8-.8H.8a.8.8 0 0 0-.8.8V4a.8.8 0 0 0 .8.8h14.4Z" clip-rule="evenodd"/></svg>