<svg xmlns="http://www.w3.org/2000/svg" fill="none" viewBox="0 0 42 42"><g clip-path="url(#a)"><circle cx="21" cy="20.93" r="20.93" fill="#F8F8F8"/><g clip-path="url(#b)"><path fill="url(#c)" fill-rule="evenodd" d="M30.714 30.24c0 .458-.37.829-.827.829h-4.039c-.005 0-.01-.003-.015-.004l-.7.003a1.49 1.49 0 0 1-1.268-.695l-4.606-7.303a.657.657 0 0 1 .555-1.008h5.203l.004.007V5.917c0-.305.316-.52.593-.392 1.17.54 2.248 1.287 3.186 2.226l.703.703a4.142 4.142 0 0 1 1.211 2.928v18.859Zm-13.77-10.87v16.152c0 .305-.315.52-.593.392a11.027 11.027 0 0 1-3.186-2.226l-.702-.704a4.142 4.142 0 0 1-1.212-2.927V11.198c0-.457.37-.828.827-.828h4.038c.006 0 .011.003.017.003l.7-.003a1.49 1.49 0 0 1 1.267.696l4.606 7.304a.657.657 0 0 1-.555 1.006h-5.203l-.005-.006Z" clip-rule="evenodd"/></g></g><defs><clipPath id="a"><path fill="#fff" d="M0 0h42v41.859H0z"/></clipPath><clipPath id="b"><path fill="#fff" d="M-1.973-2.255h45.805V43.55H-1.973z"/></clipPath><linearGradient id="c" x1="28.893" x2="16.208" y1="27.695" y2="16.419" gradientUnits="userSpaceOnUse"><stop stop-color="#EEB76B"/><stop offset="1" stop-color="#F4D375"/></linearGradient></defs></svg>