<svg xmlns="http://www.w3.org/2000/svg" fill="none" viewBox="0 0 42 42"><g clip-path="url(#a)"><circle cx="21.572" cy="21.5" r="21.5" fill="#1F2127"/><g clip-path="url(#b)"><path fill="#F8F8F8" fill-rule="evenodd" d="M31.552 31.065c0 .47-.381.85-.85.85h-4.15l-.015-.003-.72.004a1.53 1.53 0 0 1-1.302-.715l-4.731-7.503a.675.675 0 0 1 .57-1.034h5.345l.004.007V6.078c0-.313.324-.534.609-.402a11.346 11.346 0 0 1 3.273 2.287l.722.722a4.254 4.254 0 0 1 1.245 3.008v19.372ZM17.404 19.898v16.593c0 .313-.323.534-.608.402a11.328 11.328 0 0 1-3.273-2.287l-.722-.722a4.255 4.255 0 0 1-1.245-3.008V11.504c0-.47.38-.851.85-.851h4.149c.006 0 .01.003.017.003l.718-.003a1.53 1.53 0 0 1 1.302.714l4.732 7.503a.674.674 0 0 1-.57 1.035H17.41l-.005-.007Z" clip-rule="evenodd"/></g></g><defs><clipPath id="a"><path fill="#fff" d="M0 0h42v41.859H0z"/></clipPath><clipPath id="b"><path fill="#fff" d="M-2.027-2.317h47.054v47.055H-2.027z"/></clipPath></defs></svg>