<svg xmlns="http://www.w3.org/2000/svg" fill="none" viewBox="0 0 42 42"><circle cx="21.065" cy="21.259" r="19.191" fill="#F8F8F8"/><g clip-path="url(#a)"><path fill="#1F2127" fill-rule="evenodd" d="M29.972 29.796c0 .42-.34.76-.758.76H25.51c-.005 0-.01-.003-.014-.004l-.642.003c-.471.003-.911-.238-1.162-.637l-4.224-6.697a.602.602 0 0 1 .509-.924h4.771l.004.006V7.493c0-.28.29-.477.543-.36a10.126 10.126 0 0 1 2.922 2.042l.644.645a3.797 3.797 0 0 1 1.11 2.684v17.292ZM17.345 19.83v14.81c0 .28-.288.477-.543.36a10.11 10.11 0 0 1-2.921-2.042l-.645-.645a3.798 3.798 0 0 1-1.11-2.684V12.336c0-.42.339-.76.758-.76h3.703l.015.003.642-.003c.471-.002.91.24 1.161.638l4.224 6.697a.602.602 0 0 1-.509.924h-4.77l-.005-.006Z" clip-rule="evenodd"/></g><defs><clipPath id="a"><path fill="#fff" d="M0 0h42v42H0z"/></clipPath></defs></svg>