<svg xmlns="http://www.w3.org/2000/svg" width="148" height="148" fill="none"><path fill="#000" fill-rule="evenodd" d="M74 86c-12.697 0-23-10.292-23-23s10.303-23 23-23 23 10.292 23 23-10.303 23-23 23ZM64 63c0 5.525 4.48 10 10 10s10-4.475 10-10-4.48-10-10-10-10 4.475-10 10Z" clip-rule="evenodd"/><path fill="#000" fill-rule="evenodd" d="M0 63.03 44 19h60l44 44.03L74 137 0 63.03ZM108 47c-18.695-18.778-49.305-18.777-68 0L24 63l16 16c18.695 18.778 49.305 18.778 68 0l16-16-16-16Z" clip-rule="evenodd"/></svg>