<svg xmlns="http://www.w3.org/2000/svg" fill="none" viewBox="0 0 28 28"><circle cx="14" cy="14" r="11.2" fill="#0CE466"/><path fill="#000" fill-rule="evenodd" d="M14 15.135a2.176 2.176 0 1 1 0-4.351 2.176 2.176 0 0 1 0 4.351Zm-.946-2.175a.946.946 0 1 0 1.892 0 .946.946 0 0 0-1.892 0Z" clip-rule="evenodd"/><path fill="#000" fill-rule="evenodd" d="m7 12.962 4.162-4.165h5.676L21 12.962l-7 6.997-7-6.997Zm10.216-1.516a4.548 4.548 0 0 0-6.432 0L9.27 12.96l1.514 1.513a4.548 4.548 0 0 0 6.432 0l1.514-1.514-1.514-1.513Z" clip-rule="evenodd"/></svg>