<svg xmlns="http://www.w3.org/2000/svg" fill="none" viewBox="0 0 25 25"><path fill="#969696" d="M25 12.5C25 19.403 19.403 25 12.5 25S0 19.403 0 12.5 5.597 0 12.5 0C19.405 0 25 5.597 25 12.5Z"/><path fill="#fff" fill-rule="evenodd" d="M12.205 13.429a2.55 2.55 0 1 1 0-5.1 2.55 2.55 0 0 1 0 5.1Zm-1.109-2.55a1.109 1.109 0 1 0 2.218 0 1.109 1.109 0 0 0-2.218 0Z" clip-rule="evenodd"/><path fill="#fff" fill-rule="evenodd" d="M4 10.882 8.879 6h6.652l4.879 4.882-8.205 8.202L4 10.882Zm11.975-1.777a5.332 5.332 0 0 0-7.54 0l-1.774 1.774 1.774 1.774a5.332 5.332 0 0 0 7.54 0l1.774-1.774-1.774-1.774Z" clip-rule="evenodd"/></svg>