<svg xmlns="http://www.w3.org/2000/svg" fill="none" viewBox="0 0 24 24"><path fill="#000" fill-rule="evenodd" d="m18.683 5.824-8.23 8.23-1.523-1.523 8.23-8.23 1.523 1.523Z" clip-rule="evenodd"/><path fill="#000" fill-rule="evenodd" d="m17.929 3.53 3.546 3.547-2.97 2.97L14.96 6.5l2.97-2.97ZM15.671 13.071l-3.046-3.03 1.52-1.527 3.045 3.03-1.519 1.527ZM7.353 13.4a2.23 2.23 0 1 0 0 4.462 2.23 2.23 0 0 0 0-4.462ZM2.97 15.63a4.385 4.385 0 1 1 8.769 0 4.385 4.385 0 0 1-8.77 0ZM1.77 8.153h2.307V9.23H1.77V8.153ZM19.923 14.769h2.308v1.076h-2.308V14.77ZM4.18 3.418l1.631 1.63-.761.762-1.631-1.63.761-.762ZM18.95 18.188l1.63 1.63-.76.762-1.631-1.631.761-.762ZM9.23 1.769v2.307H8.153V1.77H9.23ZM15.847 19.922v2.308H14.77v-2.308h1.077Z" clip-rule="evenodd"/><path fill="#000" d="M6.6 17.122c.184.016.246-.138.307-.292-.03-.17-.123-.277-.276-.323-.185-.046-.293.061-.339.23-.046.247.092.37.308.385ZM5.431 18.23c.17.015.262-.092.293-.262-.016-.153-.047-.307-.231-.323-.17-.015-.277.062-.277.247 0 .169.03.323.215.338ZM5.477 15.969c.17-.016.23-.17.261-.324-.046-.153-.153-.277-.323-.277-.184-.015-.292.108-.292.277 0 .2.139.339.354.324ZM5.416 13.03c-.2.016-.216.17-.216.324.016.17.108.261.277.261.185-.03.215-.184.215-.323 0-.169-.107-.277-.276-.261ZM10.123 13.062c-.215-.047-.323.061-.353.23-.046.17.046.293.215.354.246.077.37-.092.4-.277.015-.154-.123-.277-.261-.307ZM7.831 13.707c.154.015.293-.015.293-.292-.077-.139-.123-.385-.416-.37a.288.288 0 0 0-.261.308c.015.2.169.339.384.354ZM7.523 17.939c0 .154.093.292.262.292.17 0 .23-.138.262-.292-.031-.154-.108-.293-.277-.293-.17 0-.247.139-.247.293ZM8.03 15.677c.015-.139-.062-.216-.17-.246-.045-.016-.137.03-.168.077-.062.107-.03.2.092.246.092.046.184 0 .246-.077ZM10.046 18.277c.246.031.338-.138.323-.353-.015-.154-.154-.262-.323-.262-.185.015-.277.139-.277.292-.016.185.108.308.277.323ZM8.97 14.768c.184-.015.215-.17.23-.323-.03-.17-.123-.261-.292-.246-.185.015-.231.17-.216.323 0 .154.108.261.277.246ZM10.2 15.431c-.108-.046-.2.016-.216.139-.015.123.077.184.184.215.108-.015.215-.046.17-.2-.016-.061-.077-.123-.139-.154ZM6.585 14.184c-.185.016-.216.17-.216.323.016.17.108.262.292.262.17-.046.216-.17.2-.323 0-.17-.107-.277-.276-.262ZM8.892 17.077c.17 0 .277-.092.292-.246.016-.154-.03-.308-.215-.323-.17-.016-.292.061-.292.246 0 .138.046.277.215.323Z"/></svg>