<svg xmlns="http://www.w3.org/2000/svg" width="24" height="26"><g fill="#777E93" fill-rule="evenodd"><path d="M12.694 7.552c0-2.193.53-4.258 1.467-6.07.333-.645-.107-1.429-.82-1.465-.214-.011-.43-.017-.647-.017C5.684 0 0 5.82 0 13c0 7.194 5.75 13.044 12.773 13 3.744-.024 7.103-1.707 9.411-4.367.478-.55.233-1.418-.455-1.63-5.227-1.609-9.035-6.574-9.035-12.451M23.626 7.12l-1.31.15-.532-1.266a.33.33 0 0 0-.615 0l-.532 1.265-1.31-.15c-.29-.032-.48.312-.308.56l.779 1.115-.779 1.115c-.173.248.017.592.308.56l1.31-.15.532 1.265a.33.33 0 0 0 .615 0l.532-1.265 1.31.15c.291.032.48-.312.308-.56l-.778-1.115.778-1.115c.173-.248-.017-.592-.308-.56"/></g></svg>