<svg xmlns="http://www.w3.org/2000/svg" width="36" height="36" fill="none"><g clip-path="url(#a)"><path fill="#fff" d="M0 0h36v36H0z"/><g filter="url(#b)"><circle cx="18" cy="18" r="18" fill="#E4BA18"/></g><path fill="#fff" fill-rule="evenodd" d="M23.479 10a3.617 3.617 0 0 0-3.617 3.617v1.808a3.617 3.617 0 0 0 7.234 0v-1.808A3.617 3.617 0 0 0 23.479 10Zm-1.809 3.617a1.808 1.808 0 0 1 3.617 0v1.808a1.808 1.808 0 0 1-3.617 0v-1.808Zm-2.164 11.398c0-1.248.012-3.26 1.26-3.26h5.425c1.249 0 2.26 2.012 2.26 3.26h1.81c0-2.247-1.823-5.069-4.07-5.069h-5.425c-2.247 0-2.069 2.822-2.069 5.07h.809Z" clip-rule="evenodd"/><path fill="#fff" stroke="#E4BA18" stroke-width="1.5" d="M8.14 26.501h.75v-.75c0-1.063.862-1.925 1.925-1.925h6.421c1.063 0 1.925.862 1.925 1.925v.75h3.64v-.75a5.566 5.566 0 0 0-5.565-5.565h-1.172a5.032 5.032 0 0 0 2.993-4.601v-2.14a5.03 5.03 0 0 0-10.062 0v2.14a5.032 5.032 0 0 0 2.993 4.6h-1.172a5.566 5.566 0 0 0-5.566 5.566v.75h2.89Zm4.496-13.056a1.39 1.39 0 0 1 2.78 0v2.14a1.39 1.39 0 0 1-2.78 0v-2.14Z"/></g><defs><clipPath id="a"><path fill="#fff" d="M0 0h36v36H0z"/></clipPath><filter id="b" width="55.2" height="55.2" x="-9.6" y="-4.8" color-interpolation-filters="sRGB" filterUnits="userSpaceOnUse"><feFlood flood-opacity="0" result="BackgroundImageFix"/><feColorMatrix in="SourceAlpha" result="hardAlpha" values="0 0 0 0 0 0 0 0 0 0 0 0 0 0 0 0 0 0 127 0"/><feOffset dy="4.8"/><feGaussianBlur stdDeviation="4.8"/><feComposite in2="hardAlpha" operator="out"/><feColorMatrix values="0 0 0 0 0 0 0 0 0 0 0 0 0 0 0 0 0 0 0.08 0"/><feBlend in2="BackgroundImageFix" result="effect1_dropShadow_3117_17768"/><feBlend in="SourceGraphic" in2="effect1_dropShadow_3117_17768" result="shape"/></filter></defs></svg>