<svg xmlns="http://www.w3.org/2000/svg" width="199" height="48" fill="none"><path fill="#fff" fill-rule="evenodd" d="M23.842 47.684c13.167 0 23.842-10.675 23.842-23.842C47.684 10.674 37.009 0 23.842 0 10.674 0 0 10.674 0 23.842c0 13.167 10.674 23.842 23.842 23.842Zm10.127-12.292c.52 0 .942-.422.942-.943V12.966c0-1.251-.496-2.45-1.38-3.335l-.8-.8a12.58 12.58 0 0 0-3.63-2.537c-.316-.146-.675.098-.675.446v18.4l-.005-.007h-5.927a.748.748 0 0 0-.633 1.147l5.248 8.32c.312.496.858.795 1.443.792l.798-.004.008.002a.037.037 0 0 0 .01.002h4.6Zm-14.745 5.073v-18.4l.005.008h5.927c.59 0 .946-.65.632-1.147l-5.247-8.32a1.698 1.698 0 0 0-1.443-.793l-.797.004-.01-.002a.03.03 0 0 0-.01-.002h-4.6a.943.943 0 0 0-.942.944v21.482c0 1.251.497 2.45 1.38 3.335l.8.801a12.56 12.56 0 0 0 3.63 2.536c.316.147.675-.098.675-.446Z" clip-rule="evenodd"/><path fill="#fff" d="M56.655 14.937v15.419h5.184V20.189l11.446 10.167h5.185V14.937h-5.185V24.7l-10.773-9.763h-5.857ZM133.68 30.625h.943c1.818 0 3.501-.135 4.915-.471 1.414-.337 2.491-.741 3.299-1.145a7.823 7.823 0 0 0 1.953-1.616c.471-.606.808-1.145 1.01-1.616.134-.471.202-.943.202-1.414v-.202h-5.589v.068c-.606 1.818-2.626 2.693-6.127 2.693-1.144 0-2.154-.135-3.03-.404-.875-.27-1.481-.606-1.952-1.078-.471-.47-.741-.875-.943-1.346-.202-.471-.336-.943-.336-1.481v-.27c0-.538.067-1.01.269-1.48.202-.472.471-.876.875-1.28.472-.404 1.077-.74 1.953-.943.808-.27 1.885-.337 3.097-.337 1.01 0 1.885.068 2.693.27.741.134 1.347.337 1.751.538.404.203.74.472 1.01.741.269.27.471.539.538.673.068.135.135.27.135.472h5.588v-.27c0-.404-.067-.875-.202-1.346-.134-.471-.471-1.01-.942-1.616-.472-.606-1.145-1.077-1.885-1.549-.741-.471-1.886-.808-3.3-1.144-1.414-.337-3.097-.472-4.915-.472h-.942c-1.886 0-3.569.202-4.983.539-1.414.337-2.558.808-3.299 1.347-.741.538-1.414 1.144-1.885 1.885-.472.74-.741 1.414-.876 2.02a8.558 8.558 0 0 0-.201 1.885v.606c0 .404-.001.808.067 1.28.067.403.202.875.471 1.413.202.539.471 1.01.808 1.481.337.472.808.876 1.414 1.347.606.471 1.279.808 2.02 1.145.741.336 1.683.538 2.828.74 1.01.27 2.222.337 3.568.337ZM159.063 14.668c-1.482 0-2.828.067-4.04.269-1.212.202-2.222.404-3.03.74-.808.337-1.481.674-2.087 1.145-.606.472-1.078.876-1.414 1.347a6.322 6.322 0 0 0-.808 1.481 7.727 7.727 0 0 0-.404 1.414c-.067.404-.068.808-.068 1.28v.605c0 .472.001.876.068 1.28s.202.875.404 1.413c.202.54.471 1.01.808 1.482.336.471.808.875 1.414 1.346.606.472 1.346.808 2.087 1.145.808.337 1.818.539 3.03.74 1.212.203 2.558.27 4.04.27h.74c1.482 0 2.828-.067 3.973-.27a19.96 19.96 0 0 0 3.03-.74c.808-.337 1.481-.74 2.087-1.145.606-.47 1.077-.875 1.414-1.346.336-.471.606-.943.808-1.482.202-.538.336-1.01.404-1.413.067-.404.067-.876.067-1.28v-.606c0-.47 0-.875-.067-1.279a7.807 7.807 0 0 0-.404-1.414 6.359 6.359 0 0 0-.808-1.481c-.337-.471-.808-.875-1.414-1.347-.606-.471-1.279-.808-2.087-1.144-.808-.337-1.818-.539-3.03-.741-1.212-.202-2.491-.27-3.973-.27h-.74Zm7.069 8.08c0 .47-.067.942-.269 1.413-.202.472-.539.876-.943 1.28-.471.47-1.144.808-2.154 1.01-.808.269-1.818.336-2.963.404h-.538c-1.212 0-2.29-.135-3.165-.404-.943-.27-1.616-.607-2.087-1.078-.471-.471-.741-.875-.943-1.346a3.515 3.515 0 0 1-.269-1.414v-.135c0-2.626 2.154-3.973 6.396-4.04h.741c.875 0 1.616.068 2.289.27.808.202 1.481.404 1.953.673.471.27.875.606 1.144.942.337.404.539.741.606 1.078.135.336.135.74.135 1.077v.27h.067ZM172.529 30.423h5.05V19.718l6.666 10.705h2.828l6.598-10.705v10.705h5.185V14.937h-7.205l-5.858 9.628-5.79-9.628h-7.474v15.486ZM79.412 14.937v15.351h5.184v-6.194h11.85v-3.501H84.731v-2.087h21.276v11.782h5.319V18.506h7.205v-3.569h-39.12Z"/><path fill="#fff" d="M117.386 30.288a3.334 3.334 0 0 0 3.366-3.366 3.333 3.333 0 0 0-3.366-3.367 3.334 3.334 0 0 0-3.367 3.367c0 1.818 1.481 3.366 3.367 3.366Z"/></svg>