<svg xmlns="http://www.w3.org/2000/svg" fill="none" viewBox="0 0 24 24"><circle cx="12" cy="12" r="12" fill="url(#a)"/><path fill="#000" fill-rule="evenodd" d="M17.528 17.41c0 .26-.21.47-.469.47h-2.293l-.008-.001-.398.002a.845.845 0 0 1-.72-.395l-2.614-4.146a.373.373 0 0 1 .315-.571h2.954l.002.004V3.604c0-.173.18-.295.336-.222.664.306 1.276.73 1.81 1.264l.398.399c.44.44.687 1.038.687 1.661v10.705Zm-7.816-6.17v9.169c0 .173-.179.295-.336.222a6.258 6.258 0 0 1-1.809-1.264l-.399-.399a2.351 2.351 0 0 1-.688-1.662V6.602c0-.26.21-.47.47-.47h2.292l.01.002.397-.002a.846.846 0 0 1 .72.395l2.614 4.146a.373.373 0 0 1-.315.571H9.715l-.003-.004Z" clip-rule="evenodd"/><defs><linearGradient id="a" x1="21.754" x2="12.216" y1="17.495" y2="4.226" gradientUnits="userSpaceOnUse"><stop stop-color="#FDCC00"/><stop offset="1" stop-color="#FF9D39"/></linearGradient></defs></svg>