<svg xmlns="http://www.w3.org/2000/svg" width="264" height="64" fill="none"><path fill="#fff" fill-rule="evenodd" d="M31.652 63.305c17.482 0 31.653-14.171 31.653-31.652C63.305 14.17 49.134 0 31.653 0 14.17 0 0 14.171 0 31.652c0 17.482 14.171 31.653 31.652 31.653Zm13.445-16.319c.69 0 1.25-.56 1.25-1.252v-28.52c0-1.661-.658-3.253-1.832-4.428l-1.062-1.063a16.702 16.702 0 0 0-4.82-3.367c-.418-.194-.895.13-.895.592v24.428l-.006-.01h-7.87a.993.993 0 0 0-.84 1.523l6.967 11.046a2.252 2.252 0 0 0 1.916 1.051l1.06-.005.01.002c.004.002.009.003.013.003h6.109ZM25.52 53.722V29.293l.007.01h7.87a.993.993 0 0 0 .838-1.523L27.27 16.735a2.254 2.254 0 0 0-1.916-1.052l-1.059.005-.012-.003a.04.04 0 0 0-.013-.002h-6.107c-.691 0-1.251.56-1.251 1.253v28.52c0 1.661.66 3.253 1.833 4.428l1.062 1.063a16.676 16.676 0 0 0 4.819 3.367c.42.194.895-.131.895-.593Z" clip-rule="evenodd"/><path fill="#fff" d="M75.215 19.83V40.3h6.883V26.803L97.294 40.3h6.882V19.83h-6.882v12.962L82.992 19.83h-7.777ZM177.474 40.658h1.251c2.414 0 4.649-.179 6.526-.626 1.877-.447 3.307-.983 4.38-1.52a10.384 10.384 0 0 0 2.592-2.145c.626-.804 1.073-1.52 1.341-2.145a6.796 6.796 0 0 0 .268-1.877v-.268h-7.419v.089c-.805 2.413-3.486 3.576-8.134 3.576-1.52 0-2.861-.18-4.023-.537-1.162-.357-1.966-.804-2.592-1.43-.626-.626-.983-1.162-1.252-1.788-.268-.625-.446-1.251-.446-1.966v-.358c0-.715.089-1.34.357-1.966a5.243 5.243 0 0 1 1.162-1.699c.626-.536 1.43-.983 2.592-1.251 1.073-.358 2.503-.447 4.112-.447 1.341 0 2.503.09 3.576.357.983.18 1.787.447 2.324.715.536.269.983.626 1.341.984.357.357.625.715.715.894.089.178.178.357.178.625h7.42v-.357a6.67 6.67 0 0 0-.269-1.788c-.178-.626-.625-1.34-1.251-2.145-.626-.805-1.52-1.43-2.503-2.056-.983-.626-2.503-1.073-4.38-1.52-1.877-.447-4.112-.625-6.525-.625h-1.252c-2.502 0-4.737.268-6.614.715-1.877.447-3.397 1.072-4.38 1.787-.983.716-1.877 1.52-2.503 2.503-.626.983-.983 1.877-1.162 2.682a11.294 11.294 0 0 0-.268 2.503v.804c0 .537 0 1.073.089 1.699.089.536.268 1.162.626 1.877.268.715.626 1.34 1.072 1.966.447.626 1.073 1.162 1.878 1.788.804.626 1.698 1.073 2.681 1.52.983.447 2.235.715 3.755.983 1.34.357 2.949.447 4.737.447ZM211.172 19.473c-1.967 0-3.755.09-5.364.358-1.608.268-2.949.536-4.022.983-1.073.447-1.967.894-2.771 1.52-.805.625-1.43 1.161-1.877 1.787a8.404 8.404 0 0 0-1.073 1.967c-.268.715-.447 1.34-.536 1.877-.089.536-.09 1.072-.09 1.698v.805c0 .625.001 1.162.09 1.698s.268 1.162.536 1.877c.268.715.626 1.34 1.073 1.967.447.625 1.072 1.162 1.877 1.787.804.626 1.788 1.073 2.771 1.52 1.073.447 2.414.715 4.022.983 1.609.268 3.397.358 5.364.358h.983c1.967 0 3.754-.09 5.274-.358a26.479 26.479 0 0 0 4.022-.983c1.073-.447 1.967-.983 2.771-1.52.805-.625 1.43-1.162 1.877-1.787a8.404 8.404 0 0 0 1.073-1.967c.268-.715.447-1.34.536-1.877.09-.536.09-1.162.09-1.698v-.805c0-.626 0-1.162-.09-1.698-.089-.537-.268-1.162-.536-1.877a8.404 8.404 0 0 0-1.073-1.967c-.447-.626-1.072-1.162-1.877-1.788-.804-.625-1.698-1.072-2.771-1.52-1.072-.446-2.413-.714-4.022-.982-1.609-.269-3.307-.358-5.274-.358h-.983Zm9.385 10.726c0 .626-.089 1.252-.357 1.878-.268.625-.715 1.162-1.252 1.698-.625.626-1.519 1.072-2.86 1.34-1.073.358-2.413.448-3.933.537h-.715c-1.609 0-3.039-.179-4.201-.536-1.252-.358-2.146-.805-2.771-1.43-.626-.626-.984-1.163-1.252-1.788-.268-.626-.357-1.252-.357-1.877v-.18c0-3.485 2.86-5.273 8.491-5.362h.984c1.162 0 2.145.089 3.039.357 1.073.268 1.966.537 2.592.894.626.358 1.162.805 1.52 1.252.447.536.715.983.804 1.43.179.447.179.983.179 1.43v.357h.089ZM229.05 40.39h6.704V26.176l8.849 14.212h3.754l8.76-14.212v14.212H264V19.83h-9.564l-7.777 12.783-7.687-12.783h-9.922v20.56ZM105.427 19.83v20.38h6.883v-8.223h15.732v-4.648h-15.554v-2.771h28.247V40.21h7.061V24.568h9.565V19.83h-51.934Z"/><path fill="#fff" d="M155.841 40.21c2.503 0 4.47-1.966 4.47-4.469 0-2.502-1.967-4.469-4.47-4.469a4.426 4.426 0 0 0-4.469 4.47c0 2.413 1.967 4.469 4.469 4.469Z"/></svg>