<svg xmlns="http://www.w3.org/2000/svg" fill="none" viewBox="0 0 334 312"><path fill="#FFF0CB" d="M152.079 311.085c78.931 0 142.917-63.986 142.917-142.917 0-78.93-63.986-142.917-142.917-142.917-78.93 0-142.917 63.986-142.917 142.917 0 78.931 63.986 142.917 142.917 142.917Z"/><path stroke="#000" stroke-linecap="round" stroke-linejoin="round" stroke-miterlimit="10" stroke-width="1.667" d="M13.58 115.25v-34.5L36.494 67.5V102L13.58 115.25Z"/><path stroke="#000" stroke-linecap="round" stroke-linejoin="round" stroke-miterlimit="10" stroke-width="1.667" d="m12.162 79.75 1.417 1L36.495 67.5l-1.416-1-22.917 13.25Z"/><path stroke="#000" stroke-linecap="round" stroke-linejoin="round" stroke-miterlimit="10" stroke-width="1.667" d="M12.162 114.25v-34.5l1.417 1v34.5l-1.417-1ZM141.912 212.584s-6.583-12.75-1.083-37.75c0 0 21 5.917 29.416 15.917M204.995 209.918s10.667-14.666 7.167-32.083c0 0-13.334 0-21.75 10.083"/><path stroke="#000" stroke-linecap="round" stroke-linejoin="round" stroke-miterlimit="10" stroke-width="1.667" d="M167.162 187.75c3.916-1.083 8.333-1.583 13.333-1.166 22.083 1.666 20.333 15.083 26.75 28.75 9.667 20.916-5.75 30.666-25.083 30.666-22.75 0-38.334-9.083-45.167-18.833 0 0 1.083-6.75 4.667-14.667"/><path stroke="#000" stroke-linecap="round" stroke-linejoin="round" stroke-miterlimit="10" stroke-width="1.667" d="M161.495 214.168s6.917 7.833 11.25 0M196.162 214.168s3.917 6.5 7.833-.5M189.328 213.168c-1.333-3.5-6.166-3.667-7.75-.333-2.416 5.25-6 10.083-11.666 13-10.667 5.5-8 20.333 14.083 20.083s20.917-14.083 14.25-20.083c-3.917-3.5-6.75-7.084-8.917-12.667Z"/><path fill="#000" stroke="#000" stroke-linecap="round" stroke-linejoin="round" stroke-miterlimit="10" stroke-width="1.667" d="M203.078 204.168c1.167-1.417 5.25-7.334 4.834-20.667 0 0-7.584 3.167-12.25 8.167 3.833 3.083 5.666 7.5 7.416 12.5ZM158.829 191.418c-5-7.75-14.584-10.167-14.584-10.167-.333 12.333 1.25 18.917 2.5 22 3-4.417 7-8.75 12.084-11.833ZM178.662 227.335l6.833 5.25 7.584-5.417s-7.5-3-14.417.167Z"/><path stroke="#000" stroke-linecap="round" stroke-linejoin="round" stroke-miterlimit="10" stroke-width="1.667" d="M174.995 233.001c0 5.417 14.5 4.75 17.583 3.167M185.829 231.084v6.417M150.329 234.418l-15.5 6.333M146.412 229.251l-23.167 3.75M144.162 223.419l-16.333-2.167M207.162 232.169l16.583 2.167M207.912 227.168l20.917-1.917M206.162 221.169l15.25-6.167M180.495 186.585c-14.916-16.166-20.333-69.833-57.25-75.833-37.5-6.083-62.166 26.5-66.75 53-4.583 26.5 4.917 89.583 13.084 89.25 8.166-.333 6.083-26.75 8.5-31.833 2.416-5.084 21.916-16.667 17.083-34.75-4.917-18.167-16.167-20-16.167-20"/><path stroke="#000" stroke-linecap="round" stroke-linejoin="round" stroke-miterlimit="10" stroke-width="1.667" d="M55.33 183.502c-10.335 13.333-36.335 7.417-35.668 34.667.667 27.25-7.667 30.583-13.083 29.083-6.167-1.667-7.584-25.083-2.417-43.917 5.167-18.833 20.75-23.083 29.833-25.416 9.084-2.334 20-11.834 24.834-23.167M110.162 193.752c-2.75 32.5-3.667 104.417 7.75 104.083 11.417-.333 10.5-54.5 23.5-65.666"/><path stroke="#000" stroke-linecap="round" stroke-linejoin="round" stroke-miterlimit="10" stroke-width="1.667" d="M115.079 290.251s-.334 3.167 0 5.917M119.995 290.251s-.666 4.417-.75 7.167M109.495 271.418s7.834 5.167 18.334 2.417M59.33 224.918s6.915 7.417 17.5 5.167M67.245 246.001v5.5M71.578 245.751v6.583M2.495 210.502c5.25-.333 8 9 17.167 7.583"/><path fill="#000" stroke="#000" stroke-linecap="round" stroke-linejoin="round" stroke-miterlimit="10" stroke-width="1.667" d="M18.83 183.584c.082 5.25 3.415 12.417 9.915 14.5l-2.5 1.917s-9.75-4.834-9.5-15.084l2.084-1.333ZM35.08 177.584s-2.168 9.667 4.832 15.333l-2.583.834s-5.917-4.417-4.25-15.584l2-.583ZM91.412 206.001s4.25 12.916 16.917 19l1.083-21.667s-6.5-3.917-8.667-11c-2.666-9 0-18.083-17.75-24.167 0-.083 22.167 13.334 8.417 37.834ZM137.495 237.335s7.667 4.5 18.334 3.833c0 0-11-4.917-15-9l-3.334 5.167ZM91.412 149.084c-.5 1.167 17.833-25.25 57.166-23 0 0-5.166-7.666-12.583-10.833 0 0-29.667 2.333-44.583 33.833ZM95.995 113.251s-18.916 7.583-22 29.333c0 0-3.083-4.166 0-14.166.084.083 8.584-10.5 22-15.167ZM121.412 162.418c3.5-16.5 21.166-26.584 33.75-26.917l5.25 9.833c-.084 0-22.917 1.417-39 17.084ZM170.162 168.084s-13.167.584-21.583 5.417c0 0 6.25-10.5 18.083-13.75l3.5 8.333Z"/><path fill="#000" d="m207.996 149.671-10.083-5.833v2.917l4.083 2.333c.667.417 1.333.75 2.083 1l.084.333c-.667.167-1.084.5-1.667.834l-5.167 3.666v2.75l10.751 6.167v-2.917l-4.417-2.5a60.236 60.236 0 0 0-2.25-1.166l-.084-.334c.667-.166 1.251-.5 1.751-.916l4.833-3.667.083-2.667Z"/><path stroke="#000" stroke-linecap="round" stroke-linejoin="round" stroke-miterlimit="10" stroke-width="1.667" d="M158.828 242.335c-3.916 7.333-6.416 13.75 16.25 10.666 22.584-3 37.834-9.083 43.667-17.833 5.833-8.75.25-24.917-12.583-27"/><path stroke="#000" stroke-linecap="round" stroke-linejoin="round" stroke-miterlimit="10" stroke-width="1.667" d="M161.495 245.751s-3 1.917-5.083 4.75M160.329 253.335s1.916-2.5 4.583-4.25M178.162 245.668s2 3.25 1.583 6.667"/><path fill="#000" stroke="#000" stroke-linecap="round" stroke-linejoin="round" stroke-miterlimit="10" stroke-width="1.667" d="m169.495 166.502.25.583 26.833 15.584c.167-.084.25-.167.417-.25l-27.5-15.917ZM294.245 92.668l-139.25-80.5c-3.417-2-7.833-.5-9.333 3.25l-38.167 95c1.75-.25 3.5-.333 5.333-.416l37.334-93.167 144.083 83.333-45.083 112.417-36.834-21.333c0 .166-.083.25-.083.416l40.833 23.584 44.834-111.834c1.666-3.916.083-8.583-3.667-10.75Z"/><path stroke="#000" stroke-linecap="round" stroke-linejoin="round" stroke-miterlimit="10" stroke-width="1.667" d="M141.912 212.584s-6.583-12.75-1.083-37.75c0 0 21 5.917 29.416 15.917M204.995 209.918s10.667-14.666 7.167-32.083c0 0-13.334 0-21.75 10.083"/><path stroke="#000" stroke-linecap="round" stroke-linejoin="round" stroke-miterlimit="10" stroke-width="1.667" d="M167.162 187.75c3.916-1.083 8.333-1.583 13.333-1.166 22.083 1.666 20.333 15.083 26.75 28.75 9.667 20.916-5.75 30.666-25.083 30.666-22.75 0-38.334-9.083-45.167-18.833 0 0 1.083-6.75 4.667-14.667"/><path stroke="#000" stroke-linecap="round" stroke-linejoin="round" stroke-miterlimit="10" stroke-width="1.667" d="M161.495 214.168s6.917 7.833 11.25 0M196.162 214.168s3.917 6.5 7.833-.5M189.328 213.168c-1.333-3.5-6.166-3.667-7.75-.333-2.416 5.25-6 10.083-11.666 13-10.667 5.5-8 20.333 14.083 20.083s20.917-14.083 14.25-20.083c-3.917-3.5-6.75-7.084-8.917-12.667Z"/><path fill="#000" stroke="#000" stroke-linecap="round" stroke-linejoin="round" stroke-miterlimit="10" stroke-width="1.667" d="M203.078 204.168c1.167-1.417 5.25-7.334 4.834-20.667 0 0-7.584 3.167-12.25 8.167 3.833 3.083 5.666 7.5 7.416 12.5ZM158.829 191.418c-5-7.75-14.584-10.167-14.584-10.167-.333 12.333 1.25 18.917 2.5 22 3-4.417 7-8.75 12.084-11.833ZM178.662 227.335l6.833 5.25 7.584-5.417s-7.5-3-14.417.167Z"/><path stroke="#000" stroke-linecap="round" stroke-linejoin="round" stroke-miterlimit="10" stroke-width="1.667" d="M174.995 233.001c0 5.417 14.5 4.75 17.583 3.167M185.829 231.084v6.417M150.329 234.418l-15.5 6.333M146.412 229.251l-23.167 3.75M144.162 223.419l-16.333-2.167M207.162 232.169l16.583 2.167M207.912 227.168l20.917-1.917M206.162 221.169l15.25-6.167M180.495 186.585c-14.916-16.166-20.333-69.833-57.25-75.833-37.5-6.083-62.166 26.5-66.75 53-4.583 26.5 4.917 89.583 13.084 89.25 8.166-.333 6.083-26.75 8.5-31.833 2.416-5.084 21.916-16.667 17.083-34.75-4.917-18.167-16.167-20-16.167-20"/><path stroke="#000" stroke-linecap="round" stroke-linejoin="round" stroke-miterlimit="10" stroke-width="1.667" d="M110.162 193.752c-2.75 32.5-3.667 104.417 7.75 104.083 11.417-.333 10.5-54.5 23.5-65.666"/><path stroke="#000" stroke-linecap="round" stroke-linejoin="round" stroke-miterlimit="10" stroke-width="1.667" d="M115.079 290.251s-.334 3.167 0 5.917M119.995 290.251s-.666 4.417-.75 7.167M59.33 224.918s6.915 7.417 17.5 5.167M67.245 246.001v5.5M71.578 245.751v6.583M2.495 210.502c5.25-.333 8 9 17.167 7.583"/><path fill="#000" stroke="#000" stroke-linecap="round" stroke-linejoin="round" stroke-miterlimit="10" stroke-width="1.667" d="M18.83 183.584c.082 5.25 3.415 12.417 9.915 14.5l-2.5 1.917s-9.75-4.834-9.5-15.084l2.084-1.333ZM35.08 177.584s-2.168 9.667 4.832 15.333l-2.583.834s-5.917-4.417-4.25-15.584l2-.583ZM91.412 206.001s4.25 12.916 16.917 19l1.083-21.667s-6.5-3.917-8.667-11c-2.666-9 0-18.083-17.75-24.167 0-.083 22.167 13.334 8.417 37.834ZM137.495 237.335s7.667 4.5 18.334 3.833c0 0-11-4.917-15-9l-3.334 5.167ZM91.412 149.084c-.5 1.167 17.833-25.25 57.166-23 0 0-5.166-7.666-12.583-10.833 0 0-29.667 2.333-44.583 33.833ZM95.995 113.251s-18.916 7.583-22 29.333c0 0-3.083-4.166 0-14.166.084.083 8.584-10.5 22-15.167ZM121.412 162.418c3.5-16.5 21.166-26.584 33.75-26.917l5.25 9.833c-.084 0-22.917 1.417-39 17.084ZM170.162 168.084s-13.167.584-21.583 5.417c0 0 6.25-10.5 18.083-13.75l3.5 8.333Z"/><path stroke="#000" stroke-linecap="round" stroke-linejoin="round" stroke-miterlimit="10" stroke-width="1.667" d="M158.828 242.335c-3.916 7.333-6.416 13.75 16.25 10.666 22.584-3 37.834-9.083 43.667-17.833 5.833-8.75.25-24.917-12.583-27"/><path stroke="#000" stroke-linecap="round" stroke-linejoin="round" stroke-miterlimit="10" stroke-width="1.667" d="M161.495 245.751s-3 1.917-5.083 4.75M160.329 253.335s1.916-2.5 4.583-4.25M178.162 245.668s2 3.25 1.583 6.667M253.079 215.335l-40.833-23.583c-1.334 7.667-4.417 13.667-6.167 16.5 12.833 2.083 18.417 18.25 12.583 27l34.417-19.917Z"/><path stroke="#000" stroke-linecap="round" stroke-linejoin="round" stroke-miterlimit="10" stroke-width="1.667" d="M179.746 252.336c-1.5.25-3.084.5-4.75.666-7.167 1-11.834 1-14.667.334-2.333-.5-3.5-1.5-3.917-2.75-.75-2.167.667-5.084 2.417-8.25a159.988 159.988 0 0 1-3.417-1.25c.25.083.417.166.417.166-10.583.667-18.333-3.833-18.333-3.833-3.167 6-5.25 15.083-7.084 24.417l17.334 10c2.333 1.333 5.25 1.333 7.666 0l39.25-22.667c-4.5 1.167-9.499 2.25-14.916 3.167ZM4.162 188.669l5.417 3.166c2.166-2.833 4.666-5.166 7.25-6.916.666-.417 1.333-.834 1.916-1.25 4.917-2.917 10.084-4.417 14.167-5.417l1.5-.417c9-2.5 19.5-11.916 24.25-23v.084c.417-1.417 1-2.75 1.5-4.167l-56 32.25c-2.167 1.25-2.167 4.417 0 5.667ZM28.746 198.169l-2.334 1.75c-.333.333-.75.667-1.083 1l33.167 19.167c-1.834-11.75-3-25-3.167-36.667-3.75 4.833-9.583 7.167-15.417 9.417-3.916 1.583-7.833 3.083-11.166 5.333ZM78.162 221.168c-.75 1.584-1.083 5.167-1.417 9.417l31.667 18.333c-.167-11.5 0-23.5.417-34.333l-.5 10.333c-12.75-6.083-16.917-19-16.917-19v-.083c-4.75 7.333-11.917 12.417-13.25 15.333Z"/><path stroke="#000" stroke-linecap="round" stroke-linejoin="round" stroke-miterlimit="10" stroke-width="1.667" d="M59.662 226.835c-.084-.667-.25-1.25-.334-1.917-.25-1.583-.583-3.167-.833-4.833l-33.167-19.167c-1.166 1.25-2.25 2.583-3.166 4.25l37.5 21.667ZM108.412 249.002l-31.667-18.333c-.167 1.833-.25 3.833-.5 5.833l32.333 18.667c-.083-2-.083-4.083-.166-6.167ZM218.745 235.168c-4 5.917-12.25 10.583-24.083 13.917l-39.25 22.666c-2.334 1.334-5.25 1.334-7.667 0l-17.333-10c-.334 1.834-.667 3.667-1.083 5.5l17.833 10.334c2.333 1.333 5.166 1.333 7.416 0l95.167-54.917 3.25-7.25-34.25 19.75ZM5.745 193.918c0 .834.333 1.667 1.083 2.334.834-1.584 1.75-3.084 2.75-4.417l-5.416-3.167c-.834-.5-1.334-1.25-1.5-2.083H2.58l3.166 7.333Z"/><path fill="#F9D54C" stroke="#000" stroke-linecap="round" stroke-linejoin="round" stroke-miterlimit="10" stroke-width="1.667" d="M268.995 120.667 152.662 53.334l4.167-8.75a4.367 4.367 0 0 1 6.083-1.917l106.833 61.334c2.75 1.583 4 5 2.75 8l-3.5 8.666Z"/><path fill="#000" d="m193.663 115.336-15.084-8.75v4.417l6.084 3.5c1 .583 2 1.083 3.083 1.583l.167.5c-.917.25-1.584.667-2.417 1.25l-7.667 5.5v4.083l16.084 9.334v-4.417l-6.584-3.833c-1.166-.667-2.333-1.334-3.416-1.75l-.084-.417c1-.25 1.834-.667 2.667-1.333l7.25-5.584-.083-4.083ZM231.412 106.67l-20.166-11.667v5.917l8.083 4.666c1.333.75 2.667 1.5 4.083 2.084l.167.666c-1.25.417-2.167.917-3.25 1.667l-10.25 7.333v5.417l21.5 12.417v-5.917l-8.833-5.083c-1.584-.917-3.167-1.75-4.5-2.334l-.167-.583c1.333-.417 2.5-.917 3.583-1.75l9.667-7.417.083-5.416Z"/><path stroke="#000" stroke-linecap="round" stroke-linejoin="round" stroke-miterlimit="10" stroke-width="1.667" d="m152.662 53.335 116.333 67.333"/><path fill="#F9D54C" stroke="#000" stroke-linecap="round" stroke-linejoin="round" stroke-miterlimit="10" stroke-width="1.667" d="M41.58 60.834V18.501l28.166-16.25v42.333L41.58 60.834Z"/><path fill="#000" stroke="#000" stroke-linecap="round" stroke-linejoin="round" stroke-miterlimit="10" stroke-width="1.667" d="m39.83 17.25 1.75 1.25L69.745 2.25 67.996 1 39.83 17.25Z"/><path fill="#000" stroke="#000" stroke-linecap="round" stroke-linejoin="round" stroke-miterlimit="10" stroke-width="1.667" d="M39.83 59.667V17.25l1.75 1.25v42.333l-1.75-1.166Z"/><path stroke="#000" stroke-linecap="round" stroke-linejoin="round" stroke-miterlimit="10" stroke-width="1.667" d="m269.579 104.084-107-61.416c-2.333-1.334-5.25-.334-6.25 2.166l-27 67.417c2.333.833 4.583 1.833 6.667 3 7.416 3.25 12.583 10.833 12.583 10.833 2.417 2.917 4.583 6.084 6.583 9.417 1.917 3.167 3.584 6.417 5.167 9.834.333.75.667 1.416 1 2.166l78.833 45.25 32.25-80.5c1.167-3.083 0-6.583-2.833-8.167Z"/><path stroke="#000" stroke-linecap="round" stroke-linejoin="round" stroke-miterlimit="10" stroke-width="1.667" d="M132.745 113.584s-.083 0-.083-.083c0 .083.083.083.083.083Z"/><path stroke="#000" stroke-linecap="round" stroke-linejoin="round" stroke-miterlimit="10" stroke-width="1.667" d="m150.162 16.834-37.333 93.167c3.333-.084 6.833.166 10.416.75 2.167.333 4.167.833 6.084 1.5l27-67.417c1-2.5 3.916-3.5 6.25-2.167l107 61.417c2.833 1.583 4 5.083 2.833 8.083l-32.25 80.501-78.833-45.251c1.916 4.084 3.666 8.25 5.333 12.25l2.833 6.75 27.5 15.917c7.417-4.5 15.25-4.5 15.25-4.5.917 4.75.834 9.25.167 13.417l36.833 21.333 45.084-112.417-144.167-83.333Z"/><path stroke="#000" stroke-linecap="round" stroke-linejoin="round" stroke-miterlimit="10" stroke-width="1.667" d="M134.412 114.417c-.083 0-.167-.083-.25-.083.083 0 .167 0 .25.083Z"/><path fill="#F9D54C" stroke="#000" stroke-linecap="round" stroke-linejoin="round" stroke-miterlimit="10" stroke-width="1.667" d="M309.662 249.918v-44.833l-29.833-17.167v44.833l29.833 17.167Z"/><path fill="#000" stroke="#000" stroke-linecap="round" stroke-linejoin="round" stroke-miterlimit="10" stroke-width="1.667" d="m311.412 203.835-1.75 1.25-29.833-17.167 1.833-1.25 29.75 17.167Z"/><path fill="#000" stroke="#000" stroke-linecap="round" stroke-linejoin="round" stroke-miterlimit="10" stroke-width="1.667" d="M311.413 248.583v-44.75l-1.751 1.25v44.833l1.751-1.333Z"/><path fill="#000" stroke="#000" stroke-linecap="round" stroke-linejoin="round" stroke-miterlimit="10" stroke-width="1.667" d="M331.162 215.251v-31l-20.667-11.917v31l20.667 11.917Z"/><path fill="#000" stroke="#000" stroke-linecap="round" stroke-linejoin="round" stroke-miterlimit="10" stroke-width="1.667" d="m332.412 183.335-1.25.916-20.667-11.916 1.334-.917 20.583 11.917Z"/><path fill="#000" stroke="#000" stroke-linecap="round" stroke-linejoin="round" stroke-miterlimit="10" stroke-width="1.667" d="M332.412 214.335v-31l-1.25.917v31l1.25-.917ZM132.912 255.085c4.583-10.833 20.917-13.833 20.917-13.833l-16.334-3.917s-3.666 13.5-4.583 17.75ZM26.995 200.918c19.5-5 28.334-7.167 28.334-7.167l-.584-7.583s-17.416 7.583-27.75 14.75ZM78.162 226.835s8.833-10.75 19.25-15.167l-4.917-5.75s-4.666 7.333-9.916 11.667c-5.25 4.416-4.417 9.25-4.417 9.25Z"/></svg>