<svg xmlns="http://www.w3.org/2000/svg" width="28" height="26" fill="none"><mask id="a" fill="#fff"><path d="M5.988 6.287c-.212-.054-.363-.219-.273-.41.03-.083.243-.192.333-.165.182.055.303.22.424.302-.09.273-.272.328-.484.273z"/></mask><path fill="#000" d="M5.988 6.287c-.212-.054-.363-.219-.273-.41.03-.083.243-.192.333-.165.182.055.303.22.424.302-.09.273-.272.328-.484.273z"/><path fill="#000" d="m5.715 5.877.304.144.007-.014.005-.014zm.757.137.32.105.08-.24-.211-.144zm-.4-.052a.198.198 0 0 1-.053-.021c-.012-.008-.014-.012-.01-.007a.1.1 0 0 1 .015.043.088.088 0 0 1-.005.044l-.607-.288a.575.575 0 0 0 .056.6c.11.15.277.239.436.28zm-.041.03a.226.226 0 0 1-.037.066c-.007.01-.012.013-.01.012a.16.16 0 0 1 .045-.025.12.12 0 0 1 .007-.002h.002-.003l-.013.001c-.011 0-.037 0-.07-.01l.193-.643a.506.506 0 0 0-.259-.003.812.812 0 0 0-.334.167.5.5 0 0 0-.152.205zm-.08.042a.345.345 0 0 1 .114.074l.092.082c.033.03.077.068.127.102l.377-.557a.615.615 0 0 1-.057-.046l-.103-.092a.991.991 0 0 0-.356-.206zm.202-.126a.23.23 0 0 1-.03.066c-.005.005-.004.002.004-.002.015-.007.007.006-.055-.01l-.168.65c.15.04.338.053.52-.037.187-.092.303-.262.367-.456z" mask="url(#a)"/><g stroke="#000"><path fill="#000" stroke-width=".336" d="M8.132 8.4a.335.335 0 0 1-.12-.122.394.394 0 0 1-.068-.183c0-.101.026-.186.07-.236.034-.041.101-.084.252-.064.13.022.187.07.216.116.032.05.048.127.036.241-.024.125-.078.193-.133.227-.056.035-.14.05-.253.021zm.085-4.108-.008-.003c-.142-.035-.202-.085-.231-.132-.032-.05-.05-.129-.036-.263v-.001c.01-.109.06-.167.122-.198a.365.365 0 0 1 .26-.015c.1.042.159.102.186.165.027.06.033.144-.006.253l-.03.042-.003.004-.041.058a.425.425 0 0 1-.068.075.108.108 0 0 1-.05.025.203.203 0 0 1-.095-.01zm2.373 5.946-.009-.003-.01-.003c-.08-.02-.128-.057-.147-.086a.066.066 0 0 1-.012-.038c0-.013.004-.036.022-.07l.003-.005a.405.405 0 0 1 .144-.073c.098.05.173.12.257.199a.228.228 0 0 1-.089.09c-.031.015-.079.02-.159-.01zm-.045-4.473.007.002.008.002c.004 0 .023.006.053.028a.523.523 0 0 1 .156.177c.014.028.016.041.016.041v.009l.001.009c.013.112-.01.205-.051.256-.03.039-.097.086-.264.053h-.007a.657.657 0 0 1-.203-.078 1.797 1.797 0 0 1-.06-.035c.016-.08.031-.152.049-.215a.715.715 0 0 1 .08-.198c.025-.04.047-.054.068-.06.024-.008.068-.013.147.01zm2.287 2.768-.013.002c-.252.062-.435-.058-.497-.245l-.002-.006c-.059-.16-.029-.258.025-.324.063-.076.183-.14.355-.163h.005c.12-.02.205.009.27.066.069.06.13.161.17.308a.409.409 0 0 1-.07.227.356.356 0 0 1-.243.135zm-.046-4.269-.007-.002-.008-.002a.166.166 0 0 1-.054-.028.52.52 0 0 1-.155-.177c-.014-.028-.016-.041-.016-.041v-.009l-.001-.009c-.012-.104.014-.19.058-.24.038-.045.113-.09.266-.068h.002a.19.19 0 0 1 .14.079c.03.045.059.13.048.277a.478.478 0 0 1-.071.191.105.105 0 0 1-.056.039.274.274 0 0 1-.146-.01zm2.294 6.184h-.012a.244.244 0 0 1-.175-.063.288.288 0 0 1-.08-.165c0-.134.024-.22.06-.27.028-.037.085-.081.244-.07h.012c.08 0 .137.026.175.063a.284.284 0 0 1 .08.156c-.016.128-.037.217-.076.275a.15.15 0 0 1-.068.056.348.348 0 0 1-.16.018zm.267-4.292-.002.004a.404.404 0 0 1-.138.17.186.186 0 0 1-.17.017c-.122-.045-.194-.11-.226-.174-.03-.057-.037-.138.019-.25l.001-.003a.304.304 0 0 1 .313-.181c.124.071.193.135.224.192.025.047.036.112-.021.225zm1.978 2.374h-.013a.615.615 0 0 1-.347-.1c-.085-.059-.121-.129-.121-.197 0-.139.039-.265.109-.344.062-.07.167-.126.36-.093.22.04.372.189.404.426a.465.465 0 0 1-.128.232.33.33 0 0 1-.264.077zm-.48-4.444v-.002a.552.552 0 0 1 .143-.342c.068-.066.178-.113.371-.059h.002a.508.508 0 0 1 .269.163.42.42 0 0 1 .09.254.509.509 0 0 1-.152.249c-.062.05-.154.084-.302.073a.593.593 0 0 1-.328-.119.238.238 0 0 1-.093-.217zm2.572 6.118v-.01l-.001-.009c-.015-.133-.008-.225.023-.282.02-.04.07-.096.244-.107h.003c.13-.01.222.022.286.073.06.048.107.122.134.225a.87.87 0 0 1-.107.286.266.266 0 0 1-.219.122.348.348 0 0 1-.27-.077.292.292 0 0 1-.093-.221zm2.507-1.811h-.011a.244.244 0 0 1-.176-.064.292.292 0 0 1-.081-.172c-.013-.128.01-.215.047-.263.029-.039.088-.08.227-.07h.013c.089 0 .144.025.179.056.033.03.064.083.077.17-.001.128-.018.218-.053.272-.023.035-.07.081-.222.07zm-.041-3.97c-.289 0-.438-.159-.438-.298 0-.154.04-.278.108-.352.06-.066.163-.118.361-.085.208.038.343.176.4.4a.604.604 0 0 1-.15.234.398.398 0 0 1-.281.1zm2.304 6.025h-.002a.135.135 0 0 1-.045-.026.506.506 0 0 1-.083-.08.55.55 0 0 1-.1-.169.31.31 0 0 1 .06-.23c.039-.045.114-.089.266-.067h.005c.084.01.134.04.167.08a.365.365 0 0 1 .073.175l-.02.058-.001.004-.029.086a.477.477 0 0 1-.06.124.122.122 0 0 1-.063.047.345.345 0 0 1-.168-.002zm.064-4.108-.001.001c-.151.02-.208-.021-.239-.061-.044-.056-.071-.152-.086-.284V5.99a.153.153 0 0 1 .047-.135.334.334 0 0 1 .199-.085h.002a.343.343 0 0 1 .168.007.14.14 0 0 1 .069.064.78.78 0 0 1 .074.192c.017.06.032.125.05.199l-.054.03a.708.708 0 0 1-.229.078zm-4.195.136c-.032.048-.099.099-.243.11-.34.023-.585-.115-.676-.378-.045-.146-.018-.25.037-.32.058-.073.167-.133.33-.145a.425.425 0 0 1 .35.13c.091.09.161.216.234.36.02.112.002.192-.032.243z"/><path fill="#000" stroke-width=".336" d="M19.84 6.586c-.339.023-.584-.115-.674-.378-.046-.146-.018-.25.036-.32.058-.073.168-.133.33-.145a.416.416 0 0 1 .35.132c.089.091.159.221.23.374.008.113-.014.189-.047.236-.033.046-.095.09-.224.1zM7.944 8.095c0-.118.027-.199.067-.244.032-.035.098-.077.255-.055.13.022.186.07.215.116.032.054.05.139.037.27-.024.122-.075.18-.126.208-.055.03-.14.042-.26.011a.335.335 0 0 1-.12-.122.394.394 0 0 1-.068-.184zm-.003-4.167c.024-.132.08-.19.132-.215.06-.03.15-.036.259-.003.097.029.152.081.178.142.026.06.034.15-.007.275l-.02.027a.64.64 0 0 1-.117.138c-.03.022-.07.042-.16.024-.134-.033-.195-.087-.227-.14-.034-.054-.05-.134-.038-.248zm4.381 4.362-.003-.01c-.056-.14-.03-.24.028-.312.064-.08.184-.147.35-.17.198-.017.37.098.448.348a.418.418 0 0 1-.07.238c-.044.061-.12.118-.256.151l-.004.001a.402.402 0 0 1-.493-.246zm-1.537-2.277v.01l.001.01a.35.35 0 0 1-.053.247c-.034.044-.101.092-.263.061l-.007-.001a.76.76 0 0 1-.263-.105c.04-.204.077-.333.128-.409a.142.142 0 0 1 .073-.061.298.298 0 0 1 .155.002h.004a.172.172 0 0 1 .053.029.523.523 0 0 1 .156.176c.014.028.016.042.016.042zm1.757-2.029v-.006c-.023-.1-.002-.18.036-.226.034-.04.106-.085.26-.064h.002c.07.01.124.039.16.086.036.047.068.13.058.27a3.2 3.2 0 0 0-.007.034.4.4 0 0 1-.055.16.088.088 0 0 1-.05.035.323.323 0 0 1-.163-.01l-.013-.003c-.02-.003-.07-.03-.13-.098a.429.429 0 0 1-.098-.178zm-1.824 6.274c-.038.019-.09.024-.168.006a.292.292 0 0 1-.142-.105.09.09 0 0 1-.008-.082.542.542 0 0 1 .147-.085c.085.051.17.121.254.194a.224.224 0 0 1-.083.072zm-5.409-.191c0-.164.062-.239.14-.278.091-.048.236-.06.414-.023.223.047.358.144.44.256.08.11.12.251.123.41a.333.333 0 0 1-.082.152h-.737a.568.568 0 0 1-.298-.517zm.548-4.059a.151.151 0 0 1 .01-.06.318.318 0 0 1 .14-.071c.044.02.096.055.159.106a4.465 4.465 0 0 1 .098.082.166.166 0 0 1-.063.058c-.034.017-.087.023-.171.002-.088-.023-.138-.057-.159-.084a.062.062 0 0 1-.014-.033zm16.105 1.816h.011a.29.29 0 0 1 .19.059c.037.03.07.078.094.146-.016.136-.037.229-.076.288a.148.148 0 0 1-.067.057.343.343 0 0 1-.16.019h-.011c-.166 0-.256-.105-.256-.216V8.16c-.015-.137.005-.224.037-.27.023-.032.077-.077.237-.066zm-.517-3.699c0-.16.036-.283.099-.355.053-.06.154-.116.371-.082.207.038.342.177.399.4a.607.607 0 0 1-.141.236c-.06.057-.146.099-.29.099a.57.57 0 0 1-.33-.089.243.243 0 0 1-.108-.209zm-1.788 5.671h.002a.388.388 0 0 1 .283.07.311.311 0 0 1 .11.203.767.767 0 0 1-.088.313c-.04.065-.098.11-.211.12l-.014.001c-.122.02-.196-.01-.243-.055a.404.404 0 0 1-.106-.253c0-.135.01-.229.044-.292.024-.045.071-.096.223-.107zm4.593.08h.004c.086.01.133.04.16.075.029.035.051.091.054.178a6.504 6.504 0 0 0-.011.048c-.01.04-.017.074-.028.112a.396.396 0 0 1-.05.117.107.107 0 0 1-.058.044.342.342 0 0 1-.167-.002h-.002c-.02-.004-.071-.031-.13-.099a.44.44 0 0 1-.097-.172.312.312 0 0 1 .059-.234c.038-.045.113-.089.266-.067zm-9.17.572h-.012a.292.292 0 0 1-.193-.059c-.035-.03-.062-.078-.062-.157 0-.124.021-.21.06-.262.033-.042.097-.09.256-.09a.27.27 0 0 1 .182.055.23.23 0 0 1 .072.138c-.015.142-.036.239-.076.3a.148.148 0 0 1-.068.057.342.342 0 0 1-.159.018zm-.219-4.537h.001l.004-.012c.027-.086.131-.168.3-.16a.574.574 0 0 1 .205.192c.03.055.04.124-.002.233a.4.4 0 0 1-.136.165.186.186 0 0 1-.17.018c-.119-.044-.183-.107-.213-.17-.029-.061-.036-.149.011-.266zm2.015 2.32c0-.154.04-.278.108-.352.058-.064.16-.117.354-.086a.569.569 0 0 1 .275.158.592.592 0 0 1 .136.286.325.325 0 0 1-.103.203c-.056.05-.15.089-.302.089a.638.638 0 0 1-.35-.091c-.078-.053-.118-.12-.118-.207zm-.031-4.145v-.001a.517.517 0 0 1 .14-.331c.07-.065.184-.113.38-.07a.507.507 0 0 1 .265.162.42.42 0 0 1 .09.254.517.517 0 0 1-.152.25c-.062.05-.154.083-.302.072a.593.593 0 0 1-.329-.119.238.238 0 0 1-.092-.217zm7.326 1.656h.003a.314.314 0 0 1 .163.01c.025.01.048.03.072.07a.84.84 0 0 1 .076.196 5.518 5.518 0 0 1 .048.186l-.053.03a.708.708 0 0 1-.228.078l-.01.002a.354.354 0 0 1-.173 0 .121.121 0 0 1-.064-.047c-.042-.057-.063-.153-.078-.29a.225.225 0 0 1 .06-.153.293.293 0 0 1 .184-.082zM8.057 20.8c-.124-.011-.204-.06-.25-.12a.306.306 0 0 1-.047-.254.392.392 0 0 1 .139-.245.479.479 0 0 1 .295-.085.69.69 0 0 1 .337.102c.065.046.106.11.107.216a.357.357 0 0 1-.166.284.775.775 0 0 1-.415.102zm.115-4.026c-.289 0-.438-.158-.438-.297 0-.155.04-.279.108-.353.06-.065.164-.118.361-.084.221.04.373.189.404.426a.407.407 0 0 1-.127.217c-.061.052-.157.091-.308.091zm9.033 3.321h.007c.199-.025.33.014.408.077.076.06.13.163.13.33 0 .08-.034.134-.113.182a1.071 1.071 0 0 1-.361.115.71.71 0 0 1-.326-.1.22.22 0 0 1-.105-.197c0-.204.131-.388.36-.407zm6.785 2.445v-.002c-.015-.133-.01-.227.02-.286.02-.04.063-.09.212-.102a.445.445 0 0 1 .287.09.331.331 0 0 1 .115.226.435.435 0 0 1-.051.276.316.316 0 0 1-.232.142c-.136.02-.206-.017-.249-.063a.482.482 0 0 1-.103-.281zm.28-4.418h.005a.172.172 0 0 1 .053.029.526.526 0 0 1 .155.176c.015.028.017.042.017.042v-.001c0 .11-.022.212-.064.273a.137.137 0 0 1-.068.054.272.272 0 0 1-.146.002.394.394 0 0 1-.174-.12 1.85 1.85 0 0 1-.079-.09l-.005-.007a2.214 2.214 0 0 0-.029-.034.564.564 0 0 1 .092-.274.153.153 0 0 1 .078-.053.343.343 0 0 1 .165.003zm-.161-4.217h.006c.187.012.293.077.362.16a.787.787 0 0 1 .145.363.444.444 0 0 1-.098.254c-.039.04-.104.073-.24.043l-.003-.001c-.31-.065-.483-.297-.535-.603l-.001-.008c-.018-.08-.009-.122-.001-.14.006-.015.018-.03.046-.043.068-.032.185-.038.319-.025zm-2.208-1.971h.003a.343.343 0 0 1 .168.008.14.14 0 0 1 .068.063.787.787 0 0 1 .074.192c.017.06.033.125.05.199l-.054.03a.709.709 0 0 1-.228.078h-.002c-.15.021-.207-.021-.238-.06-.045-.057-.072-.153-.086-.285v-.002c-.01-.073.012-.116.043-.145a.35.35 0 0 1 .202-.078zm-.078 4.108c.164 0 .264.055.343.139.083.088.146.211.218.366a.33.33 0 0 1-.058.23c-.04.05-.113.096-.244.107-.344.024-.577-.117-.641-.365-.036-.154-.008-.27.05-.344.056-.073.16-.133.332-.133zm.159 4.705h-.002c-.15.02-.207-.021-.238-.061-.045-.056-.072-.152-.086-.284v-.005a.153.153 0 0 1 .046-.135.334.334 0 0 1 .2-.085l.012-.003c.089-.017.136-.01.16 0 .021.008.042.023.065.062.026.043.05.107.075.2.017.06.032.125.05.199v.003l-.054.03a.709.709 0 0 1-.228.079zm-2.597 1.708v-.004a.152.152 0 0 1 .047-.136.334.334 0 0 1 .199-.085h.002a.314.314 0 0 1 .164.01c.025.01.047.03.072.07.026.044.05.107.075.196.016.055.03.113.046.177l-.013.007-.06.032a.72.72 0 0 1-.208.079c-.15.02-.207-.022-.238-.061-.044-.057-.071-.152-.086-.285zm.307-8.465h.012c.09 0 .142.025.171.052.028.027.054.075.054.163 0 .133-.016.226-.052.282-.023.035-.07.081-.222.07h-.012a.228.228 0 0 1-.168-.06.214.214 0 0 1-.058-.155v-.017c-.014-.137.005-.224.038-.27.023-.032.077-.077.237-.066zm.008 4.132h.004a.185.185 0 0 1 .053.029.522.522 0 0 1 .155.176c.015.028.016.042.017.042v-.001c0 .11-.022.212-.065.273a.137.137 0 0 1-.067.054.276.276 0 0 1-.15.001h-.005c-.013-.003-.047-.021-.113-.094l-.06-.071-.03-.037a1.997 1.997 0 0 0-.045-.05c.016-.136.043-.226.081-.278a.122.122 0 0 1 .065-.047.325.325 0 0 1 .16.003zm-2.528-6.179a.404.404 0 0 1 .258-.117c.124.024.21.075.264.135a.352.352 0 0 1 .09.243c0 .194-.15.38-.378.38a.29.29 0 0 1-.24-.11.551.551 0 0 1-.105-.27.453.453 0 0 1 .112-.261zm-.268 4.664a.254.254 0 0 1-.065-.232.483.483 0 0 1 .137-.259.425.425 0 0 1 .29-.1c.144.025.26.072.338.132a.265.265 0 0 1 .113.22c0 .152-.052.256-.13.317-.077.062-.205.1-.398.065a.51.51 0 0 1-.285-.143zm-1.819 5.624h.005c.097-.01.158.015.195.045a.226.226 0 0 1 .076.142l.001.007c.026.131.013.21-.02.261-.029.048-.096.104-.256.14a.28.28 0 0 1-.172-.057.327.327 0 0 1-.101-.17c-.025-.127-.011-.212.02-.261.027-.043.088-.095.252-.107zm-.024-8.244.013-.002c.087-.017.13-.008.152.001.02.009.043.026.071.07.03.05.059.115.096.208l.012.03c.016.042.035.087.055.135a2.877 2.877 0 0 0-.06.039c-.017.01-.031.02-.045.027a.546.546 0 0 1-.213.09h-.002c-.15.021-.207-.021-.238-.06-.045-.057-.072-.152-.086-.285v-.002a.191.191 0 0 1 .049-.165.318.318 0 0 1 .196-.086zm.284 4.523-.001.004a.404.404 0 0 1-.138.17.186.186 0 0 1-.17.017c-.12-.044-.184-.107-.213-.17-.029-.06-.036-.146.01-.261a.291.291 0 0 1 .13-.142c.053-.026.134-.041.26-.013a.333.333 0 0 1 .148.15c.024.055.031.133-.025.245zm-3.043 2.083-.001-.01a.403.403 0 0 1 .072-.331c.06-.07.166-.125.347-.104l.007.001c.13.01.22.057.284.122a.55.55 0 0 1 .134.266.416.416 0 0 1-.1.23c-.052.056-.138.104-.287.115a.498.498 0 0 1-.332-.075.296.296 0 0 1-.124-.214zm.52-8.087-.008.003c-.087.026-.134.006-.167-.02a.38.38 0 0 1-.107-.193l-.003-.008c-.036-.109-.025-.17.008-.216.04-.057.142-.131.38-.196.002 0 .005 0 .008.002.007.003.02.01.036.029.035.037.07.101.096.182.035.12.024.207-.01.266-.032.06-.1.119-.233.151zm.329 3.898v.006c-.012.149-.074.248-.16.304-.087.057-.225.086-.42.039l-.01-.002a.35.35 0 0 1-.235-.138.283.283 0 0 1-.029-.246.686.686 0 0 1 .158-.271c.055-.05.134-.087.28-.057a.817.817 0 0 1 .323.163c.074.067.101.133.093.202zm-3.091 6.251v-.003c-.035-.136-.009-.244.048-.316.057-.072.162-.131.334-.131h.01a.373.373 0 0 1 .33.135c.081.092.141.212.211.352l.01.02a.36.36 0 0 1-.06.24c-.039.052-.107.094-.229.094a.89.89 0 0 1-.439-.094.437.437 0 0 1-.215-.297zm.44-4.559h.012a.343.343 0 0 1 .159.018c.029.012.05.03.067.057.04.06.062.157.077.3a.285.285 0 0 1-.079.157.244.244 0 0 1-.175.063c-.16 0-.222-.048-.254-.092-.04-.055-.063-.148-.063-.288 0-.079.028-.126.063-.157a.293.293 0 0 1 .193-.058zm-.498-3.71v-.002a.517.517 0 0 1 .141-.331c.07-.065.183-.113.378-.07a.507.507 0 0 1 .266.162.42.42 0 0 1 .09.254.502.502 0 0 1-.152.249c-.062.05-.153.084-.301.073a.574.574 0 0 1-.327-.127c-.074-.064-.103-.137-.095-.207zm-2.329-2.132c.004-.17.188-.431.747-.484.135.004.321.137.372.434.026.166.003.29-.051.375-.05.079-.143.146-.313.17a.885.885 0 0 1-.531-.127.476.476 0 0 1-.224-.368zm-1.725 2.308-.009-.002c-.141-.035-.201-.085-.23-.132-.032-.049-.05-.126-.037-.255a.252.252 0 0 1 .132-.183.353.353 0 0 1 .258-.01c.092.028.15.084.179.15a.305.305 0 0 1-.005.236c-.01.015-.022.03-.031.045l-.004.004-.04.057a.424.424 0 0 1-.069.076.109.109 0 0 1-.05.025.202.202 0 0 1-.094-.01zm.085 3.915-.005-.002c-.105-.023-.162-.06-.184-.087a.056.056 0 0 1-.014-.03.13.13 0 0 1 .012-.062.418.418 0 0 1 .12-.087c.06.032.12.071.18.114l.081.061.027.02a.153.153 0 0 1-.058.072c-.026.014-.074.023-.16 0zm-.603 4.126v-.005c-.012-.153.03-.265.102-.337.071-.07.194-.123.384-.112a.538.538 0 0 1 .31.108c.059.05.107.124.134.234a.48.48 0 0 1-.227.263.797.797 0 0 1-.424.074.551.551 0 0 1-.182-.111.496.496 0 0 1-.097-.114zm-2.028-2.219.001-.009v-.009c0-.103.083-.196.247-.217h.002a.342.342 0 0 1 .16.007c.029.01.052.027.073.053a.477.477 0 0 1 .065.119c.015.036.027.071.041.11l.004.01-.004.01-.04.11a.477.477 0 0 1-.066.12.159.159 0 0 1-.074.052.342.342 0 0 1-.16.007h-.009c-.122-.01-.175-.056-.203-.102a.42.42 0 0 1-.037-.26zm.168-8.452.008-.002.01-.002a.32.32 0 0 1 .251.02c.063.035.117.1.14.2a.403.403 0 0 1-.041.255c-.033.052-.097.107-.241.128-.145.02-.2-.024-.23-.065a.462.462 0 0 1-.063-.261c0-.023.02-.093.069-.17a.401.401 0 0 1 .067-.082.097.097 0 0 1 .03-.021zm-.387 4.434a.686.686 0 0 1 .157-.27c.055-.05.135-.087.28-.057a.857.857 0 0 1 .33.165c.078.068.114.14.116.213-.013.145-.074.242-.158.297-.088.057-.226.086-.421.039-.142-.035-.23-.095-.275-.156-.04-.054-.06-.127-.03-.23z"/><path fill="#000" stroke-width=".336" d="M7.7 12.247v-.004c-.01-.1.029-.198.137-.284.112-.088.302-.163.58-.19.135.005.322.138.372.435.026.166.003.299-.052.387-.05.081-.142.147-.307.158-.403.024-.709-.192-.73-.502zM6.244 14.15c.026.056.033.138-.006.247l-.022.03a.64.64 0 0 1-.117.137c-.03.022-.069.042-.158.025a.373.373 0 0 1-.221-.143.317.317 0 0 1-.045-.217c.023-.133.08-.19.132-.216.06-.03.149-.037.258-.004.098.03.153.083.18.141zm-.411 4.202a.096.096 0 0 1 .008-.05.342.342 0 0 1 .12-.069.806.806 0 0 1 .185.1c.034.022.066.046.099.07a.14.14 0 0 1-.053.055c-.032.018-.086.028-.17.019a.364.364 0 0 1-.17-.09.07.07 0 0 1-.02-.035zm9.31-3.795-.013.002a.3.3 0 0 1-.155 0 .137.137 0 0 1-.07-.052c-.045-.062-.072-.168-.087-.312a.225.225 0 0 1 .06-.154.292.292 0 0 1 .184-.082h.002c.086-.011.13 0 .156.011a.19.19 0 0 1 .078.08c.031.049.059.113.096.203l.008.018c.018.044.037.091.06.141a2.526 2.526 0 0 1-.102.063.584.584 0 0 1-.218.082zM10.5 18.096c.179 0 .237.05.263.088.035.051.052.138.053.28a.288.288 0 0 1-.08.164.244.244 0 0 1-.175.063c-.16 0-.222-.048-.254-.092-.04-.055-.063-.148-.063-.288 0-.079.028-.126.063-.157a.293.293 0 0 1 .193-.058zm-5.07 4.489v-.013c-.012-.154.03-.266.102-.337.071-.07.194-.123.384-.112a.586.586 0 0 1 .323.11c.062.05.108.121.124.226a.503.503 0 0 1-.233.294.769.769 0 0 1-.42.076.522.522 0 0 1-.18-.112.47.47 0 0 1-.08-.092.127.127 0 0 1-.02-.04zm4.572-8.199v-.002a.517.517 0 0 1 .141-.331c.07-.065.183-.113.378-.07a.507.507 0 0 1 .266.162.42.42 0 0 1 .09.254.502.502 0 0 1-.152.249c-.062.05-.153.084-.301.073a.574.574 0 0 1-.327-.127c-.074-.064-.103-.137-.095-.207zm.71 8.66H10.7a.748.748 0 0 1-.43-.083.54.54 0 0 1-.244-.315c-.033-.134-.006-.233.048-.3.058-.07.167-.132.346-.144a.4.4 0 0 1 .352.136c.084.095.142.226.202.374.02.11-.002.19-.038.24-.035.049-.101.092-.224.092zm1.888-6.294-.013-.002c-.133-.022-.215-.079-.255-.137-.037-.054-.052-.132-.01-.237l.002-.005a.634.634 0 0 1 .157-.263c.056-.049.14-.086.288-.068a.81.81 0 0 1 .318.162c.074.067.1.133.093.202v.005c-.012.15-.074.249-.16.304-.087.058-.226.086-.42.04zm-.297 3.841-.001-.01c-.025-.146.004-.255.061-.322.054-.064.162-.123.367-.112.245.02.39.17.418.38a.414.414 0 0 1-.11.235.426.426 0 0 1-.28.118c-.269.022-.437-.13-.455-.29zm3.042-2.083-.001.004a.404.404 0 0 1-.138.17.186.186 0 0 1-.17.017c-.12-.044-.184-.107-.213-.17-.029-.06-.036-.146.01-.261a.291.291 0 0 1 .13-.142c.053-.026.134-.041.26-.013a.333.333 0 0 1 .148.15c.024.055.031.133-.025.245zm-2.523-6.004-.008.003c-.087.026-.136.007-.17-.02a.35.35 0 0 1-.106-.17c-.038-.126-.027-.204.01-.258.039-.059.137-.133.37-.184a.16.16 0 0 1 .044.034c.04.04.08.106.103.178.035.12.024.207-.01.266-.032.06-.1.119-.233.151zm9.16-.004h-.001c-.151.022-.208-.02-.239-.06-.043-.055-.07-.147-.085-.274a.225.225 0 0 1 .06-.154.292.292 0 0 1 .185-.082l.013-.002c.088-.017.135-.01.16 0 .02.008.041.023.065.062.025.043.05.106.075.2l.05.198v.004l-.054.03a.709.709 0 0 1-.229.078zm2.205 6.165-.007-.002c-.032-.004-.074-.03-.137-.096a2.279 2.279 0 0 1-.092-.105 2.395 2.395 0 0 0-.039-.044.704.704 0 0 1 .1-.28.136.136 0 0 1 .07-.05c.03-.01.08-.014.16.002l.004.001c.005 0 .023.007.054.028a.523.523 0 0 1 .155.177c.015.028.016.041.017.041v.018c.014.12-.004.213-.04.263-.023.031-.076.08-.245.047zm.296-4.617c.068.087.108.214.137.377-.015.12-.051.197-.096.242-.04.039-.11.074-.251.053a.636.636 0 0 1-.374-.208.961.961 0 0 1-.186-.373.257.257 0 0 1 .01-.138.106.106 0 0 1 .053-.051c.072-.037.19-.047.347-.047.199 0 .298.064.36.144zm.09 8.692a.313.313 0 0 1-.226.14c-.14.01-.213-.028-.257-.073-.05-.051-.087-.139-.1-.27-.015-.134-.009-.22.02-.275.02-.039.065-.091.217-.114a.456.456 0 0 1 .285.083c.058.046.1.118.112.23v.003a.435.435 0 0 1-.051.276zm-2.409-6.552c.085.092.147.215.22.36a.33.33 0 0 1-.058.226c-.04.05-.11.096-.238.108-.325-.002-.585-.148-.648-.394-.034-.136-.008-.245.049-.317.056-.071.162-.13.334-.13.16 0 .26.057.341.146zm-4.354-3.986c0 .194-.149.38-.376.38a.27.27 0 0 1-.233-.108.504.504 0 0 1-.084-.3c0-.123.031-.2.076-.247.043-.047.12-.09.262-.103.228.049.356.208.356.378zm-.093 4.19c0 .152-.052.256-.13.317-.076.061-.202.1-.391.067a.629.629 0 0 1-.292-.165c-.061-.067-.082-.136-.065-.21a.485.485 0 0 1 .137-.26.425.425 0 0 1 .29-.1c.144.025.26.07.338.131a.265.265 0 0 1 .113.22zm4.185 3.755h.002a.313.313 0 0 1 .164.01c.025.01.048.03.072.07.026.044.05.107.075.196.016.056.03.114.047.18l.002.007-.053.029a.709.709 0 0 1-.229.078l-.01.002a.353.353 0 0 1-.172 0 .121.121 0 0 1-.065-.047c-.041-.057-.062-.153-.078-.29a.225.225 0 0 1 .06-.153.292.292 0 0 1 .185-.082zm-6.542 2.293.003.013c.025.113.012.193-.02.245-.03.046-.095.102-.251.126a.3.3 0 0 1-.182-.058.3.3 0 0 1-.098-.145c-.024-.126-.01-.21.021-.259.027-.042.088-.095.252-.106h.005c.105-.011.165.012.198.038.033.025.062.07.072.146zm4.295-7.884h-.012a.228.228 0 0 1-.168-.06.214.214 0 0 1-.058-.156v-.017c-.014-.137.005-.224.038-.27.023-.032.077-.077.237-.066h.012c.07 0 .126.023.163.056.034.031.062.08.062.16 0 .133-.017.226-.052.282-.023.035-.07.081-.222.07zm-.024 7.674.013-.002c.089-.017.136-.01.16 0 .021.007.042.022.065.062.026.043.05.106.075.2.017.06.032.125.05.198v.004l-.054.03a.709.709 0 0 1-.228.078c-.172.023-.224-.024-.25-.057-.039-.053-.06-.142-.075-.277a.225.225 0 0 1 .06-.154.292.292 0 0 1 .184-.082zm.269-3.864v.01l.001.008a.374.374 0 0 1-.05.26c-.027.036-.082.078-.219.053a.511.511 0 0 1-.13-.118l-.032-.035-.065-.073a1.04 1.04 0 0 0-.038-.039.596.596 0 0 1 .08-.268.121.121 0 0 1 .065-.047.325.325 0 0 1 .159.003h.004a.171.171 0 0 1 .054.029.526.526 0 0 1 .155.176c.014.028.016.042.016.042v-.001zM3.57 11.93h.008l.01-.004a.337.337 0 0 1 .255.012c.056.03.11.088.133.2a.516.516 0 0 1-.06.272c-.033.051-.091.099-.22.12-.144.02-.2-.024-.229-.065a.462.462 0 0 1-.063-.261c0-.023.02-.094.069-.17a.402.402 0 0 1 .067-.082.097.097 0 0 1 .03-.021zm.08 8.247h.002a.342.342 0 0 1 .16.007c.029.01.052.027.073.052a.473.473 0 0 1 .065.12c.015.036.027.07.041.11l.004.01-.004.01-.04.11a.473.473 0 0 1-.066.119.16.16 0 0 1-.074.053.34.34 0 0 1-.157.007c-.125-.02-.184-.072-.215-.123a.371.371 0 0 1-.037-.238l.001-.01v-.01c0-.077.026-.119.059-.147a.362.362 0 0 1 .188-.07zm.417-3.773v.006c-.012.149-.074.248-.16.304-.087.057-.225.086-.42.039-.142-.035-.23-.095-.275-.156-.04-.054-.06-.127-.03-.23a.686.686 0 0 1 .158-.271c.055-.05.135-.087.28-.057a.935.935 0 0 1 .343.167c.085.07.111.137.104.199zM7.76 20.4l.002-.008v-.008c.012-.113.054-.184.114-.23a.522.522 0 0 1 .318-.085.724.724 0 0 1 .34.101.22.22 0 0 1 .104.197c0 .165-.064.262-.155.322a.689.689 0 0 1-.42.085c-.127-.01-.21-.06-.255-.12a.305.305 0 0 1-.048-.254zm.412-3.626h-.014c-.263.022-.424-.148-.424-.297 0-.161.036-.283.099-.355.053-.061.155-.117.373-.082a.484.484 0 0 1 .288.143.466.466 0 0 1 .113.258.436.436 0 0 1-.138.239.448.448 0 0 1-.297.094zm9.033 3.294.007-.001c.194-.023.336.02.422.086a.304.304 0 0 1 .117.28l-.001.008v.007c0 .093-.041.154-.125.206-.09.056-.216.092-.357.119a.584.584 0 0 1-.318-.08c-.063-.044-.105-.108-.105-.218 0-.204.131-.389.36-.407z"/><path stroke-miterlimit="10" stroke-width="4.875" d="M25 3H3.172v19.747H25z"/><path fill="#000" stroke-miterlimit="10" stroke-width="4.705" d="M14.044 13.134c1.204 0 2.18-.883 2.18-1.972s-.976-1.972-2.18-1.972c-1.204 0-2.18.883-2.18 1.972 0 1.09.976 1.972 2.18 1.972zM9.17 22.336c0-2.437 2.18-4.41 4.875-4.41s4.874 1.973 4.874 4.41z"/></g></svg>