<svg xmlns="http://www.w3.org/2000/svg" width="19" height="19" fill="none"><path fill="url(#a)" fill-rule="evenodd" d="M.116 10.275c.273.953 1.008 1.687 2.476 3.155l1.738 1.738C6.884 17.723 8.162 19 9.749 19c1.587 0 2.864-1.277 5.42-3.832 2.554-2.554 3.83-3.832 3.83-5.419 0-1.587-1.276-2.864-3.83-5.419l-1.74-1.738C11.963 1.124 11.228.39 10.276.116c-.952-.273-1.964-.04-3.987.428L5.12.813c-1.702.393-2.553.59-3.136 1.172-.583.583-.78 1.434-1.172 3.136l-.27 1.167c-.466 2.023-.7 3.035-.427 3.987Zm7.6-5.267a1.916 1.916 0 1 1-2.709 2.71 1.916 1.916 0 0 1 2.71-2.71Zm8.482 4.541-6.63 6.63a.712.712 0 1 1-1.007-1.007l6.63-6.63a.713.713 0 0 1 1.007 1.007Z" clip-rule="evenodd"/><defs><linearGradient id="a" x1="0" x2="19" y1="9.433" y2="9.433" gradientUnits="userSpaceOnUse"><stop stop-color="#FAC213"/><stop offset="1" stop-color="#FF9B37"/></linearGradient></defs></svg>