<svg xmlns="http://www.w3.org/2000/svg" fill="none" viewBox="0 0 20 20"><path fill="#2081E2" d="M18 10a8 8 0 1 1-16 0 8 8 0 0 1 16 0Z"/><path fill="#fff" d="m5.947 10.269.034-.054 2.081-3.256a.071.071 0 0 1 .125.009c.348.78.648 1.748.508 2.352-.06.248-.225.584-.41.895-.024.045-.05.09-.078.132a.07.07 0 0 1-.059.031h-2.14a.071.071 0 0 1-.061-.11Z"/><path fill="#fff" d="M15.223 10.874v.515c0 .03-.018.056-.044.067-.161.07-.713.323-.942.642-.585.814-1.033 1.979-2.032 1.979h-4.17a2.68 2.68 0 0 1-2.675-2.685v-.047c0-.04.032-.072.071-.072h2.325c.046 0 .08.043.076.088a.793.793 0 0 0 .083.446c.138.28.424.456.733.456h1.15v-.899H8.661a.073.073 0 0 1-.06-.115l.042-.06c.107-.153.261-.39.414-.661.104-.183.205-.378.287-.573.016-.036.03-.072.043-.107.022-.063.045-.12.061-.18.017-.049.03-.1.043-.149a2.315 2.315 0 0 0 .045-.742 2.821 2.821 0 0 0-.023-.234 2.431 2.431 0 0 0-.032-.209 3.515 3.515 0 0 0-.066-.312l-.009-.04c-.02-.071-.036-.14-.059-.211a7.965 7.965 0 0 0-.313-.885c-.048-.118-.098-.225-.143-.326a4.538 4.538 0 0 1-.062-.13 4.617 4.617 0 0 0-.069-.143c-.016-.036-.035-.069-.048-.102l-.14-.26a.046.046 0 0 1 .051-.066l.88.238h.002l.003.001.116.032.128.037.046.013v-.523c0-.252.203-.457.452-.457.125 0 .239.05.32.134a.46.46 0 0 1 .133.323v.776l.093.026a.076.076 0 0 1 .022.01l.097.075c.033.026.069.058.111.091a6.701 6.701 0 0 1 .382.335 6.79 6.79 0 0 1 .583.612c.043.053.088.104.128.156.052.07.107.14.156.215.023.036.05.072.071.107a2.259 2.259 0 0 1 .235.433 2.09 2.09 0 0 1 .153.485v.007a.74.74 0 0 1 .017.124 1.326 1.326 0 0 1-.072.582c-.02.056-.04.114-.065.17-.049.114-.107.228-.176.335-.023.04-.049.081-.075.12l-.085.12a2.5 2.5 0 0 1-.114.148 5.414 5.414 0 0 1-.378.439c-.036.039-.072.074-.105.107a4.082 4.082 0 0 1-.14.133l-.09.083a.074.074 0 0 1-.048.018h-.7v.899h.88c.198 0 .385-.07.537-.198.051-.045.277-.241.544-.536.01-.01.021-.018.034-.02l2.434-.704a.072.072 0 0 1 .091.069Z"/></svg>