<svg xmlns="http://www.w3.org/2000/svg" fill="none" viewBox="0 0 25 25"><g clip-path="url(#a)"><path fill="#969696" d="M25 12.5C25 19.403 19.403 25 12.5 25S0 19.403 0 12.5 5.597 0 12.5 0C19.405 0 25 5.597 25 12.5Z"/><path fill="#fff" d="m6.167 12.92.054-.085 3.251-5.087a.111.111 0 0 1 .196.014c.543 1.218 1.012 2.732.792 3.675-.094.388-.35.913-.64 1.398-.037.07-.078.14-.122.207a.11.11 0 0 1-.092.049H6.262a.111.111 0 0 1-.095-.171Z"/><path fill="#fff" d="M20.661 13.865v.806a.116.116 0 0 1-.07.105c-.25.108-1.113.503-1.471 1.002-.914 1.272-1.613 3.092-3.175 3.092H9.43a4.187 4.187 0 0 1-4.18-4.194V14.6c0-.062.05-.112.112-.112h3.632c.072 0 .124.067.118.138a1.24 1.24 0 0 0 .13.697c.215.438.662.712 1.145.712h1.798v-1.404h-1.777a.115.115 0 0 1-.093-.18l.064-.095c.169-.239.409-.61.648-1.032.163-.285.32-.59.448-.896.026-.055.046-.111.067-.167.034-.097.07-.188.096-.28.026-.076.046-.157.067-.233.06-.26.086-.535.086-.82 0-.111-.005-.228-.016-.34-.005-.122-.02-.244-.036-.366a3.822 3.822 0 0 0-.05-.326 5.505 5.505 0 0 0-.103-.488l-.014-.062c-.03-.111-.056-.218-.092-.33-.101-.35-.218-.692-.342-1.012-.045-.127-.096-.249-.147-.371-.076-.184-.153-.35-.224-.509a6.883 6.883 0 0 1-.097-.204 7.468 7.468 0 0 0-.107-.223c-.026-.055-.055-.107-.076-.158l-.22-.406c-.03-.055.021-.12.082-.104l1.374.372h.003l.006.002.18.05.2.056.073.02v-.816A.71.71 0 0 1 12.891 5c.196 0 .373.08.5.21s.207.306.207.504v1.212l.146.041a.116.116 0 0 1 .034.017l.152.116c.052.04.107.09.174.142a10.514 10.514 0 0 1 .596.524c.223.208.474.452.712.722.067.076.133.153.2.234.066.082.137.163.198.244.081.108.169.22.245.336.035.056.076.112.111.167.098.148.184.3.266.454.035.07.07.147.102.223.09.204.163.412.209.62a.766.766 0 0 1 .03.138v.01c.015.062.02.127.025.194a2.077 2.077 0 0 1-.112.91c-.03.086-.061.178-.101.264a3.597 3.597 0 0 1-.276.524 2.992 2.992 0 0 1-.117.189c-.045.065-.091.127-.132.187a3.872 3.872 0 0 1-.179.23 8.267 8.267 0 0 1-.428.509 2.63 2.63 0 0 1-.163.177 6.386 6.386 0 0 1-.381.376l-.141.13a.115.115 0 0 1-.076.028h-1.094v1.404h1.376c.309 0 .601-.11.838-.31.08-.07.434-.376.851-.837a.107.107 0 0 1 .053-.032l3.803-1.1c.07-.02.142.034.142.108Z"/></g><defs><clipPath id="a"><path fill="#fff" d="M0 0h25v25H0z"/></clipPath></defs></svg>