<svg xmlns="http://www.w3.org/2000/svg" fill="none" viewBox="0 0 36 36"><g clip-path="url(#a)"><path fill="#fff" d="M0 0h36v36H0z"/><g filter="url(#b)"><circle cx="18" cy="18" r="18" fill="#B2B2B2"/></g><path fill="#ECECEC" fill-rule="evenodd" d="M18.145 7a5.411 5.411 0 0 0-5.41 5.411v2.705a5.411 5.411 0 1 0 10.821 0v-2.705A5.411 5.411 0 0 0 18.146 7Zm-2.705 5.411a2.705 2.705 0 1 1 5.41 0v2.705a2.705 2.705 0 0 1-5.41 0v-2.705Zm-4.735 15.556a3.382 3.382 0 0 1 3.382-3.382h8.116a3.382 3.382 0 0 1 3.382 3.382h2.705a6.087 6.087 0 0 0-6.087-6.087h-8.116A6.087 6.087 0 0 0 8 27.967h2.705Z" clip-rule="evenodd"/></g><defs><clipPath id="a"><path fill="#fff" d="M0 0h36v36H0z"/></clipPath><filter id="b" width="100" height="100" x="-32" y="-16" color-interpolation-filters="sRGB" filterUnits="userSpaceOnUse"><feFlood flood-opacity="0" result="BackgroundImageFix"/><feColorMatrix in="SourceAlpha" result="hardAlpha" values="0 0 0 0 0 0 0 0 0 0 0 0 0 0 0 0 0 0 127 0"/><feOffset dy="16"/><feGaussianBlur stdDeviation="16"/><feComposite in2="hardAlpha" operator="out"/><feColorMatrix values="0 0 0 0 0 0 0 0 0 0 0 0 0 0 0 0 0 0 0.08 0"/><feBlend in2="BackgroundImageFix" result="effect1_dropShadow_3117_17767"/><feBlend in="SourceGraphic" in2="effect1_dropShadow_3117_17767" result="shape"/></filter></defs></svg>