<svg xmlns="http://www.w3.org/2000/svg" fill="none" viewBox="0 0 40 40"><path fill="#00A4FF" d="M0 20C0 8.954 8.954 0 20 0s20 8.954 20 20-8.954 20-20 20S0 31.046 0 20Z"/><path fill="#F3F3F3" d="M27.5 15.992 24.008 12.5a1.243 1.243 0 0 0-1.766 0l-2.062 2.055-7.313 7.32a1.242 1.242 0 0 0-.367.883v3.492a1.25 1.25 0 0 0 1.25 1.25h3.492a1.241 1.241 0 0 0 .883-.367l9.375-9.375a1.258 1.258 0 0 0 0-1.766ZM14.008 22.5l7.242-7.242 1.305 1.305-7.242 7.242-1.305-1.305Zm-.258 1.508 2.242 2.242H13.75v-2.242Zm3.75 1.984-1.305-1.304 7.242-7.242 1.305 1.304-7.242 7.242Z"/><path fill="#00A4FF" d="M20 39C9.507 39 1 30.493 1 20h-2c0 11.598 9.402 21 21 21v-2Zm19-19c0 10.493-8.507 19-19 19v2c11.598 0 21-9.402 21-21h-2ZM20 1c10.493 0 19 8.507 19 19h2C41 8.402 31.598-1 20-1v2Zm0-2C8.402-1-1 8.402-1 20h2C1 9.507 9.507 1 20 1v-2Z"/></svg>