<svg xmlns="http://www.w3.org/2000/svg" fill="none" viewBox="0 0 302 200"><path fill="#D0D0D0" d="M0 16C0 7.163 7.163 0 16 0h270c8.837 0 16 7.163 16 16v184H0V16Z"/><path fill="#B2B2B2" d="M301.5 199.5H0V166l95.744-79.665c20.812-17.317 50.643-18.55 72.814-3.012L301.5 176.5v23Z"/><path fill="url(#a)" d="M302 200H97v-33.618l97.394-85.324c13.438-11.772 34.122-9.264 44.357 5.378L302 176.92V200Z" opacity=".6"/><path fill="url(#b)" d="M197.5 200H0v-33.618l31.926-87.296c7.384-20.19 32.983-26.29 48.677-11.597L197.5 176.919V200Z" opacity=".6"/><circle cx="259.138" cy="44.139" r="25.139" fill="#B2B2B2" opacity=".6"/><defs><linearGradient id="a" x1="199.5" x2="199.5" y1="59" y2="151.5" gradientUnits="userSpaceOnUse"><stop stop-color="#B2B2B2"/><stop offset="1" stop-color="#B2B2B2" stop-opacity="0"/></linearGradient><linearGradient id="b" x1="98.75" x2="98.75" y1="36.5" y2="165.5" gradientUnits="userSpaceOnUse"><stop stop-color="#B2B2B2"/><stop offset="1" stop-color="#B2B2B2" stop-opacity="0"/></linearGradient></defs></svg>