<svg xmlns="http://www.w3.org/2000/svg" width="200" height="199" fill="none"><path fill="#12FF80" d="M188.279 99.527h-21.686c-6.477 0-11.726 5.215-11.726 11.65v31.274c0 6.435-5.248 11.649-11.725 11.649H56.865c-6.477 0-11.725 5.215-11.725 11.65v21.547c0 6.435 5.248 11.649 11.725 11.649h91.271c6.477 0 11.65-5.214 11.65-11.649v-17.288c0-6.434 5.249-10.999 11.726-10.999h16.763c6.477 0 11.725-5.215 11.725-11.65v-36.318c0-6.436-5.248-11.515-11.725-11.515h.004ZM45.137 56.721c0-6.435 5.249-11.65 11.726-11.65h86.224c6.477 0 11.725-5.215 11.725-11.65V11.876c0-6.435-5.248-11.65-11.725-11.65H51.865c-6.477 0-11.726 5.215-11.726 11.65v16.602c0 6.436-5.248 11.65-11.725 11.65H11.725C5.248 40.127 0 45.342 0 51.777v36.357c0 6.436 5.27 11.389 11.747 11.389h21.687c6.477 0 11.725-5.215 11.725-11.65l-.022-31.148v-.004ZM89.796 76.88h20.83c6.788 0 12.296 5.475 12.296 12.216v20.697c0 6.744-5.512 12.216-12.296 12.216h-20.83c-6.79 0-12.297-5.476-12.297-12.216V89.096c0-6.745 5.512-12.217 12.297-12.217Z"/></svg>