<svg xmlns="http://www.w3.org/2000/svg" fill="none" viewBox="0 0 18 18"><path fill="#000" d="M9.004 6.358c.713 0 1.397.278 1.901.774.505.495.788 1.167.788 1.868 0 .7-.283 1.372-.788 1.868a2.714 2.714 0 0 1-1.901.774 2.714 2.714 0 0 1-1.902-.774A2.619 2.619 0 0 1 6.315 9a2.592 2.592 0 0 1 .78-1.876 2.687 2.687 0 0 1 1.909-.766Zm0 3.83c.32 0 .628-.125.855-.348.227-.223.355-.525.355-.84 0-.315-.128-.618-.355-.84a1.221 1.221 0 0 0-1.71 0 1.178 1.178 0 0 0-.004 1.684c.227.223.537.348.859.345Z"/><path fill="#000" d="M2.678 8.025a1.013 1.013 0 0 1-.284-1.35l1.266-2.14a1.06 1.06 0 0 1 .57-.461.995.995 0 0 1 .78.07l1.055.478c.16-.102.323-.195.491-.28l.108-1.172a1.03 1.03 0 0 1 .369-.677c.186-.154.42-.24.662-.243h2.525c.262 0 .514.096.706.27.192.175.31.414.33.67l.106 1.148c.172.085.339.178.5.28l1.075-.486.035-.015c.234-.096.495-.106.736-.025.24.08.442.244.567.461l1.236 2.113a1.014 1.014 0 0 1-.273 1.356l-.895.67c.007.097.013.199.013.308 0 .109 0 .2-.012.29l.963.673.015.012a1.016 1.016 0 0 1 .286 1.35l-1.292 2.14a.997.997 0 0 1-.594.469 1.016 1.016 0 0 1-.758-.079l-1.056-.477c-.16.102-.322.195-.492.28l-.109 1.172a1.032 1.032 0 0 1-.369.677c-.185.153-.419.24-.661.243H7.756c-.262 0-.514-.096-.706-.27a1.01 1.01 0 0 1-.33-.67l-.106-1.148a5.427 5.427 0 0 1-.5-.28l-1.07.486-.035.015a1.053 1.053 0 0 1-.736.025 1.031 1.031 0 0 1-.567-.461l-1.249-2.113a1.016 1.016 0 0 1 .278-1.359l.015-.012.963-.672c0-.093-.012-.19-.012-.291 0-.102 0-.192.012-.282l-1.009-.674-.026-.019Zm2.238-.26a.715.715 0 0 1 .315.706c-.03.175-.047.352-.05.529.004.178.021.356.051.532a.715.715 0 0 1-.303.694l-1.001.7.862 1.453 1.107-.495a.753.753 0 0 1 .778.098c.286.218.601.396.937.529a.72.72 0 0 1 .444.602l.11 1.182h1.707l.11-1.183a.719.719 0 0 1 .137-.36.737.737 0 0 1 .306-.241c.342-.143.666-.327.963-.548a.75.75 0 0 1 .753-.078l1.106.5.888-1.462-.999-.698a.728.728 0 0 1-.303-.695c.03-.175.046-.352.049-.53a3.616 3.616 0 0 0-.052-.53.714.714 0 0 1 .284-.68l.94-.704-.869-1.467-1.103.498a.752.752 0 0 1-.778-.097 3.92 3.92 0 0 0-.938-.53.738.738 0 0 1-.306-.24.718.718 0 0 1-.138-.361l-.11-1.183h-1.71L7.995 4.89a.737.737 0 0 1-.444.602 4.561 4.561 0 0 0-.963.547.746.746 0 0 1-.753.079l-1.103-.498-.858 1.453 1.043.693Z"/></svg>