<svg xmlns="http://www.w3.org/2000/svg" width="30" height="30"><g fill="#777E93" fill-rule="evenodd"><path d="M15 22.904c-4.362 0-7.91-3.55-7.91-7.916 0-4.366 3.548-7.917 7.91-7.917s7.91 3.551 7.91 7.917c0 4.365-3.548 7.916-7.91 7.916Zm12.446-10.052a1.764 1.764 0 0 1-.6-2.243l1.12-2.268a.88.88 0 0 0-.73-1.268l-2.524-.163a1.761 1.761 0 0 1-1.64-1.642l-.163-2.525a.88.88 0 0 0-1.267-.732l-2.265 1.122a1.76 1.76 0 0 1-2.243-.602L15.731.367c-.326-.49-1.136-.49-1.462 0l-1.403 2.164a1.76 1.76 0 0 1-2.242.602L8.358 2.01a.88.88 0 0 0-1.267.732L6.93 5.268a1.761 1.761 0 0 1-1.64 1.642l-2.524.163a.88.88 0 0 0-.731 1.268l1.12 2.267c.391.79.133 1.755-.6 2.244L.39 14.256a.88.88 0 0 0 0 1.464l2.163 1.403c.733.49.991 1.454.6 2.244l-1.12 2.268a.88.88 0 0 0 .73 1.268l2.524.163a1.761 1.761 0 0 1 1.64 1.641l.164 2.526a.88.88 0 0 0 1.266.732l2.265-1.122a1.759 1.759 0 0 1 2.243.601l1.403 2.164a.879.879 0 0 0 1.462 0l1.403-2.164a1.758 1.758 0 0 1 2.242-.601l2.266 1.122a.88.88 0 0 0 1.267-.732l.163-2.526a1.761 1.761 0 0 1 1.64-1.641l2.523-.163a.88.88 0 0 0 .731-1.268l-1.12-2.267a1.765 1.765 0 0 1 .6-2.245l2.163-1.403a.88.88 0 0 0 0-1.464l-2.163-1.404Z"/><path d="M15 8.83a6.155 6.155 0 0 1 6.152 6.158c0 3.4-2.754 6.157-6.152 6.157a6.155 6.155 0 0 1-6.152-6.157c0-3.4 2.754-6.158 6.152-6.158"/></g></svg>