<svg xmlns="http://www.w3.org/2000/svg" width="18" height="18" fill="none"><path fill="#F4F6FB" fill-opacity=".5" d="M1.15 6.17h12.989l-2.002 2.036a1.082 1.082 0 0 0 0 1.58c.211.21.492.315.808.315.28 0 .562-.105.772-.316l3.932-3.931a1.083 1.083 0 0 0 0-1.58L13.717.342a1.082 1.082 0 0 0-1.58 0 1.082 1.082 0 0 0 0 1.58l2.002 2.001H1.149c-.631 0-1.123.527-1.123 1.123 0 .632.492 1.124 1.124 1.124Zm15.727 5.616H3.853l2-2a1.083 1.083 0 0 0 0-1.58 1.083 1.083 0 0 0-1.579 0L.342 12.137a1.082 1.082 0 0 0 0 1.58l3.932 3.932c.21.21.491.316.807.316.281 0 .562-.105.773-.316a1.083 1.083 0 0 0 0-1.58l-2.001-2.036h13.024c.596 0 1.123-.491 1.123-1.123 0-.597-.527-1.124-1.123-1.124Z"/></svg>