<svg xmlns="http://www.w3.org/2000/svg" width="36" height="29" fill="none"><path fill="#171B27" d="M32.395 7.122V8.14c0 9.666-7.457 20.86-21.084 20.86C7.2 29 3.341 27.727 0 25.694h1.8c3.341 0 6.686-1.273 9.256-3.054-3.341 0-5.912-2.288-6.94-5.086.512 0 1.028.255 1.286.255.771 0 1.287 0 2.058-.255-3.342-.763-5.912-3.561-5.912-7.123 1.029.508 2.057.763 3.341 1.018-2.057-1.78-3.341-3.816-3.341-6.36 0-1.273.258-2.543 1.029-3.56 3.599 4.323 8.998 7.377 15.168 7.63 0-.508-.258-1.019-.258-1.781 0-4.07 3.341-7.378 7.457-7.378 2.058 0 4.112.763 5.399 2.288 1.8-.255 3.341-1.018 4.628-1.78-.513 1.78-1.8 3.053-3.341 4.068 1.542-.255 2.828-.507 4.37-1.273-1.035 1.531-2.319 2.801-3.605 3.82Z"/></svg>