<svg xmlns="http://www.w3.org/2000/svg" width="38" height="32"><path d="M11.928 31.286A22.06 22.06 0 0 1 0 27.806c2.925.19 8.086-.265 11.297-3.326-4.83-.222-7.008-3.927-7.292-5.51.41.16 2.367.35 3.471-.094-5.554-1.393-6.407-6.269-6.218-7.756 1.042.729 2.81.981 3.504.917C-.414 8.334 1.448 2.763 2.364 1.56c3.715 5.146 9.283 8.037 16.17 8.197a7.96 7.96 0 0 1-.199-1.77c0-4.374 3.533-7.916 7.892-7.916a7.857 7.857 0 0 1 5.768 2.515c1.522-.357 3.813-1.191 4.931-1.913-.564 2.026-2.32 3.715-3.383 4.342.008.022-.01-.021 0 0 .934-.14 3.46-.627 4.457-1.302-.494 1.137-2.356 3.03-3.884 4.089.285 12.542-9.313 23.484-22.19 23.484h.002Z"/></svg>