<svg xmlns="http://www.w3.org/2000/svg" width="22" height="21" fill="none"><path fill="url(#a)" fill-rule="evenodd" d="M14.77 2.25h1.214a2.788 2.788 0 0 1 2.784 2.785V6.25c0 .36.143.706.399.96l1.038 1.038a2.79 2.79 0 0 1 0 3.939l-1.037 1.037c-.256.254-.4.6-.399.961v1.214a2.788 2.788 0 0 1-2.785 2.785H14.77c-.361 0-.707.142-.961.398L12.77 19.62a2.788 2.788 0 0 1-3.939 0l-1.037-1.037c-.254-.256-.6-.399-.96-.398H5.62A2.787 2.787 0 0 1 2.835 15.4v-1.215a1.35 1.35 0 0 0-.398-.961l-1.038-1.037a2.79 2.79 0 0 1 0-3.94l1.038-1.036c.255-.255.398-.6.397-.961V5.036A2.787 2.787 0 0 1 5.62 2.25h1.215c.36 0 .707-.143.961-.399L8.832.814a2.79 2.79 0 0 1 3.94 0l1.037 1.038c.254.256.6.399.96.398ZM9.85 11.11l3.299-3.298a.713.713 0 0 1 1.007 1.008l-3.802 3.802a.712.712 0 0 1-1.007 0l-1.902-1.901a.713.713 0 0 1 1.008-1.008l1.397 1.397Z" clip-rule="evenodd"/><defs><linearGradient id="a" x1=".584" x2="21.019" y1="10.145" y2="10.145" gradientUnits="userSpaceOnUse"><stop stop-color="#FAC213"/><stop offset="1" stop-color="#FF9B37"/></linearGradient></defs></svg>