<svg xmlns="http://www.w3.org/2000/svg" fill="none" viewBox="0 0 24 24"><path d="M12.098 5.178c-2.556 0-4.71 1.256-6.48 3.32a14.386 14.386 0 0 0-1.565 2.214c-.26.456-.42.808-.513 1.026a.914.914 0 0 0 0 .702c.093.217.252.57.513 1.026.43.753.96 1.507 1.566 2.213C7.388 17.744 9.542 19 12.098 19s4.71-1.256 6.48-3.32a14.39 14.39 0 0 0 1.564-2.214c.261-.456.42-.809.514-1.026a.914.914 0 0 0 0-.702 9.79 9.79 0 0 0-.514-1.026c-.43-.754-.96-1.508-1.565-2.214-1.77-2.064-3.923-3.32-6.48-3.32Zm0 3.455a3.456 3.456 0 1 1 0 6.912 3.456 3.456 0 0 1 0-6.912Zm0 1.728a1.727 1.727 0 1 0-.001 3.455 1.727 1.727 0 0 0 0-3.455Z"/></svg>