<svg xmlns="http://www.w3.org/2000/svg" width="64" height="64" fill="none"><path fill="#000" d="m54.47 14.405.74.797-.647.874c-20.98 28.367-33.066 41.21-38.194 39.488-3.123-1.05-6.255-4.205-9.388-8.787a64.702 64.702 0 0 1-3.075-4.994 54.355 54.355 0 0 1-1.431-2.726c-.351-.737-.5-1.19-.617-1.786l-.014-.072a6.09 6.09 0 0 0-.103-.471 28.63 28.63 0 0 1-.954-7.351c0-15.79 12.8-28.59 28.59-28.59 4.947 0 9.714 1.259 13.939 3.622l.109.068c3.459 2.409 7.138 5.718 11.044 9.928ZM41.978 6.667A25.841 25.841 0 0 0 29.377 3.41C15.036 3.41 3.41 15.036 3.41 29.377c0 2.279.293 4.518.866 6.678a8.235 8.235 0 0 1 .155.708c.076.384.156.63.411 1.165.251.527.756 1.502 1.355 2.578a62.14 62.14 0 0 0 2.95 4.79c2.83 4.14 5.636 6.968 8.057 7.781 3.23 1.085 15.387-11.784 34.599-37.682-3.488-3.681-6.765-6.59-9.824-8.728Z"/><path fill="#EC1C79" d="M41.979 6.667A25.842 25.842 0 0 0 29.377 3.41C15.036 3.41 3.41 15.036 3.41 29.377c0 2.279.293 4.518.866 6.678.057.214.083.335.143.645l.012.063c.076.384.156.63.411 1.165.251.527.756 1.502 1.355 2.578a62.116 62.116 0 0 0 2.95 4.79c2.83 4.14 5.636 6.968 8.057 7.781 3.23 1.085 15.387-11.784 34.599-37.682-3.488-3.681-6.765-6.59-9.824-8.728Z"/><path fill="#000" d="M34.623 63.213c-15.79 0-28.59-12.8-28.59-28.59s12.8-28.59 28.59-28.59 28.59 12.8 28.59 28.59-12.8 28.59-28.59 28.59Zm0-2.623c14.341 0 25.967-11.626 25.967-25.967S48.964 8.656 34.623 8.656 8.656 20.282 8.656 34.623 20.282 60.59 34.623 60.59Z"/><path fill="#fff" d="M34.623 60.59c14.341 0 25.967-11.626 25.967-25.967S48.964 8.656 34.623 8.656 8.656 20.282 8.656 34.623 20.282 60.59 34.623 60.59Z"/><path fill="#000" fill-rule="evenodd" d="m15.198 39.942-3.437-10.355h3.011l1.792 5.949 1.983-5.979H21l1.983 5.979 1.792-5.95h2.953L24.29 39.943h-2.482l-2.07-5.92-2.057 5.92h-2.483Zm13.66-.073V29.587h8.27v2.423h-5.45v1.557h4.936v2.248H31.68v1.63h5.523v2.424h-8.343Zm12.31 0v-7.785h-3.085v-2.497h9.019v2.497h-3.085v7.785h-2.85Zm7.182 0V29.587h2.85v3.848h3.657v-3.848h2.85v10.282h-2.85v-3.907H51.2v3.907h-2.85Z" clip-rule="evenodd"/><path fill="#000" d="M2.49 26.494a1.469 1.469 0 1 1 1.314-2.627l4.197 2.098a1.469 1.469 0 0 1-1.314 2.628l-4.196-2.099ZM2.007 33.453a1.469 1.469 0 0 1 1.231-2.668l4.197 1.937a1.469 1.469 0 1 1-1.23 2.668l-4.198-1.937Z"/></svg>