<svg xmlns="http://www.w3.org/2000/svg" fill="none" viewBox="0 0 28 28"><path fill="#6F6F6F" d="M24.623 5.38A11.628 11.628 0 0 0 16.47 2.06c-6.443 0-11.666 5.223-11.666 11.666 0 6.443 5.223 11.666 11.666 11.666 3.173 0 6.05-1.266 8.153-3.321a13.703 13.703 0 0 1-10.898 5.38C6.145 27.45 0 21.305 0 13.725S6.145 0 13.725 0c4.44 0 8.39 2.11 10.898 5.38Z"/><path fill="#6F6F6F" d="M7.752 20.4a9.303 9.303 0 0 0 6.522 2.657 9.333 9.333 0 1 0 0-18.666 9.303 9.303 0 0 0-6.522 2.657 10.962 10.962 0 0 1 8.718-4.304c6.064 0 10.98 4.916 10.98 10.98s-4.916 10.98-10.98 10.98A10.963 10.963 0 0 1 7.752 20.4Z"/><path fill="#6F6F6F" fill-rule="evenodd" d="M21.96 13.725a8.235 8.235 0 1 1-16.47 0 8.235 8.235 0 0 1 16.47 0Zm-2.745 0a5.49 5.49 0 1 1-10.98 0 5.49 5.49 0 0 1 10.98 0Z" clip-rule="evenodd"/></svg>