<svg xmlns="http://www.w3.org/2000/svg" fill="none" viewBox="0 0 25 25"><path fill="#969696" d="M25 12.5C25 19.403 19.403 25 12.5 25S0 19.403 0 12.5 5.597 0 12.5 0C19.405 0 25 5.597 25 12.5Z"/><path fill="#fff" d="M18.455 7.94a6.375 6.375 0 1 0 0 9.12 7.5 7.5 0 1 1 0-9.12Z"/><path fill="#fff" d="M9.236 16.148a5.1 5.1 0 1 0 0-7.296 6 6 0 1 1 0 7.296Z"/><path fill="#fff" fill-rule="evenodd" d="M17 12.5a4.5 4.5 0 1 1-9 0 4.5 4.5 0 0 1 9 0Zm-1.5 0a3 3 0 1 1-6 0 3 3 0 0 1 6 0Z" clip-rule="evenodd"/></svg>