<svg xmlns="http://www.w3.org/2000/svg" fill="none" viewBox="0 0 40 40"><path fill="url(#a)" d="M32.704 10.272A13.556 13.556 0 0 0 23.2 6.4C15.689 6.4 9.6 12.489 9.6 20c0 7.511 6.089 13.6 13.6 13.6 3.699 0 7.052-1.476 9.504-3.872A15.974 15.974 0 0 1 20 36c-8.837 0-16-7.163-16-16S11.163 4 20 4c5.177 0 9.78 2.459 12.704 6.272Z"/><path fill="url(#b)" d="M13.037 27.782a10.845 10.845 0 0 0 7.603 3.098c6.009 0 10.88-4.871 10.88-10.88S26.649 9.12 20.64 9.12a10.845 10.845 0 0 0-7.603 3.098A12.78 12.78 0 0 1 23.2 7.2C30.27 7.2 36 12.93 36 20s-5.73 12.8-12.8 12.8a12.78 12.78 0 0 1-10.163-5.018Z"/><path fill="url(#c)" fill-rule="evenodd" d="M29.6 20a9.6 9.6 0 1 1-19.2 0 9.6 9.6 0 0 1 19.2 0Zm-3.2 0a6.4 6.4 0 1 1-12.8 0 6.4 6.4 0 0 1 12.8 0Z" clip-rule="evenodd"/><defs><linearGradient id="a" x1="4" x2="36" y1="19.448" y2="19.448" gradientUnits="userSpaceOnUse"><stop stop-color="#00E0FF"/><stop offset="1" stop-color="#562EC8"/></linearGradient><linearGradient id="b" x1="4" x2="36" y1="19.448" y2="19.448" gradientUnits="userSpaceOnUse"><stop stop-color="#00E0FF"/><stop offset="1" stop-color="#562EC8"/></linearGradient><linearGradient id="c" x1="4" x2="36" y1="19.448" y2="19.448" gradientUnits="userSpaceOnUse"><stop stop-color="#00E0FF"/><stop offset="1" stop-color="#562EC8"/></linearGradient></defs></svg>