<svg width="10" height="16" viewBox="0 0 10 16" fill="none" xmlns="http://www.w3.org/2000/svg">
<path d="M8.95171 0.390789C8.70141 0.140567 8.36198 0 8.00806 0C7.65414 0 7.31471 0.140567 7.06441 0.390789L0.390789 7.06441C0.140567 7.31471 0 7.65414 0 8.00806C0 8.36198 0.140567 8.70141 0.390789 8.95171L7.06441 15.6253C7.31614 15.8685 7.6533 16.003 8.00326 15.9999C8.35322 15.9969 8.68798 15.8565 8.93545 15.6091C9.18292 15.3616 9.32329 15.0268 9.32633 14.6769C9.32937 14.3269 9.19484 13.9898 8.95171 13.738L3.22174 8.00806L8.95171 2.27809C9.20193 2.02779 9.3425 1.68836 9.3425 1.33444C9.3425 0.980518 9.20193 0.641087 8.95171 0.390789Z" fill="#C1C1C1"/>
</svg>
