<svg width="10" height="16" viewBox="0 0 10 16" fill="none" xmlns="http://www.w3.org/2000/svg">
<path d="M0.390576 0.390789C0.640874 0.140567 0.980305 0 1.33423 0C1.68815 0 2.02758 0.140567 2.27788 0.390789L8.9515 7.06441C9.20172 7.31471 9.34229 7.65414 9.34229 8.00806C9.34229 8.36198 9.20172 8.70141 8.9515 8.95171L2.27788 15.6253C2.02614 15.8685 1.68899 16.003 1.33903 15.9999C0.989069 15.9969 0.654304 15.8565 0.406835 15.6091C0.159367 15.3616 0.0189953 15.0268 0.015954 14.6769C0.0129128 14.3269 0.147446 13.9898 0.390576 13.738L6.12055 8.00806L0.390576 2.27809C0.140354 2.02779 -0.000212669 1.68836 -0.000212669 1.33444C-0.000212669 0.980518 0.140354 0.641087 0.390576 0.390789Z" fill="#C1C1C1"/>
</svg>
