<svg width="100%" height="100%" viewBox="0 0 41 18" fill="none" xmlns="http://www.w3.org/2000/svg">
<rect width="41" height="18" rx="6" fill="url(#paint0_linear_812_1302)"/>
<path d="M6.76685 5.01001V12.99H10.8708C12.7068 12.99 13.5348 12.042 13.5348 10.83C13.5348 9.59401 12.5868 8.95801 11.5788 8.91001V8.73001C12.4308 8.63401 13.1748 8.02201 13.1748 6.94201C13.1748 5.80201 12.2268 5.01001 10.7148 5.01001H6.76685ZM10.3068 8.34601H8.43485V6.30601H10.3068C11.0028 6.30601 11.4588 6.67801 11.4588 7.32601C11.4588 7.97401 11.0028 8.34601 10.3068 8.34601ZM10.5348 11.694H8.43485V9.49801H10.5348C11.3388 9.49801 11.7828 9.91801 11.7828 10.602C11.7828 11.286 11.3148 11.694 10.5348 11.694Z" fill="black"/>
<path d="M16.1753 11.646V9.57001H19.9073V8.29801H16.1753V6.35401H20.3033V5.01001H14.5073V12.99H20.3633V11.646H16.1753Z" fill="black"/>
<path d="M27.4849 5.01001H20.7409V6.35401H23.2849V12.99H24.9529V6.35401H27.4849V5.01001Z" fill="black"/>
<path d="M32.5052 12.99H34.2332L31.2572 5.01001H29.1932L26.3612 12.99H28.0772L28.7732 11.034H31.7852L32.5052 12.99ZM29.1092 9.84601L29.8772 7.59001C29.9972 7.19401 30.0812 6.91801 30.1292 6.52201H30.3212C30.3932 6.91801 30.4772 7.19401 30.6092 7.59001L31.4252 9.84601H29.1092Z" fill="black"/>
<defs>
<linearGradient id="paint0_linear_812_1302" x1="-1.79441e-07" y1="8.93617" x2="41" y2="8.93617" gradientUnits="userSpaceOnUse">
<stop stop-color="#FAC213"/>
<stop offset="1" stop-color="#FF9B37"/>
</linearGradient>
</defs>
</svg>
