<svg width="24" height="24" viewBox="0 0 24 24" fill="none" xmlns="http://www.w3.org/2000/svg">
<path d="M9.29688 3.6427V3.6433V4.92466H3.53073L3.21777 4.0704L3.21772 4.07028C3.19791 4.01624 3.18895 3.95882 3.19136 3.90132C3.19377 3.84381 3.2075 3.78734 3.23177 3.73515C3.25603 3.68296 3.29035 3.63607 3.33276 3.59717C3.37517 3.55827 3.42484 3.52812 3.47892 3.50844L11.675 0.526545L11.6753 0.526447C11.7294 0.506736 11.7868 0.497892 11.8443 0.500423C11.9018 0.502954 11.9583 0.516809 12.0104 0.541195C12.0625 0.565581 12.1094 0.60002 12.1482 0.642539C12.187 0.685057 12.217 0.734819 12.2366 0.788977L12.2403 0.799407L12.1406 0.799406L12.14 0.799407C11.3862 0.80031 10.6636 1.10017 10.1306 1.6332C9.59761 2.16622 9.29778 2.8889 9.29688 3.6427ZM18.9062 4.92419H11.7031V3.64283C11.7031 3.52677 11.7492 3.41548 11.8313 3.33342C11.9133 3.25137 12.0246 3.20527 12.1406 3.20527H18.4688C18.5848 3.20527 18.6961 3.25137 18.7781 3.33342C18.8601 3.41547 18.9062 3.52677 18.9062 3.64283V4.92419ZM19.4601 16.2834L19.1066 15.9298L19.4601 16.2834C19.6857 16.0577 19.8125 15.7517 19.8125 15.4326C19.8125 15.1946 19.7419 14.962 19.6097 14.7642C19.4775 14.5663 19.2896 14.4121 19.0698 14.321C18.85 14.23 18.608 14.2061 18.3747 14.2526C18.1413 14.299 17.9269 14.4136 17.7586 14.5818C17.5904 14.7501 17.4758 14.9645 17.4294 15.1979C17.3829 15.4313 17.4068 15.6732 17.4978 15.893L17.9598 15.7017L17.4978 15.893C17.5889 16.1129 17.7431 16.3008 17.9409 16.433L18.2084 16.0327L17.9409 16.433C18.1388 16.5652 18.3714 16.6358 18.6094 16.6358C18.9285 16.6358 19.2345 16.509 19.4601 16.2834ZM18.6094 19.4484H21.3906V22.1249C21.3906 22.4896 21.2458 22.8394 20.9879 23.0972C20.73 23.3551 20.3803 23.5 20.0156 23.5H1.875C1.51034 23.5 1.1606 23.3551 0.902739 23.0972C0.644873 22.8394 0.5 22.4896 0.5 22.1249V8.70564C0.5 8.34092 0.644873 7.99116 0.902739 7.73327C1.1606 7.47539 1.51034 7.33052 1.875 7.33052H20.0156C20.3803 7.33052 20.73 7.47539 20.9879 7.73327C21.2458 7.99116 21.3906 8.34092 21.3906 8.70564V11.4168H18.6094C17.5444 11.4168 16.523 11.8399 15.7699 12.593C15.0168 13.3461 14.5938 14.3675 14.5938 15.4326C14.5938 16.4977 15.0168 17.5191 15.7699 18.2722C16.523 19.0253 17.5444 19.4484 18.6094 19.4484ZM18.6094 13.8231H23.2969C23.3507 13.8231 23.4024 13.8445 23.4405 13.8826C23.4786 13.9207 23.5 13.9724 23.5 14.0263V16.8389C23.5 16.8928 23.4786 16.9445 23.4405 16.9826C23.4024 17.0207 23.3507 17.0421 23.2969 17.0421H18.6094C18.1826 17.0421 17.7732 16.8725 17.4714 16.5707C17.1696 16.2689 17 15.8595 17 15.4326C17 15.0057 17.1696 14.5963 17.4714 14.2945C17.7732 13.9927 18.1826 13.8231 18.6094 13.8231Z" stroke="#00A4FF"/>
</svg>
