<svg width="24" height="24" viewBox="0 0 24 24" fill="none" xmlns="http://www.w3.org/2000/svg">
<path d="M12 2.25C10.0716 2.25 8.18657 2.82183 6.58319 3.89317C4.97982 4.96451 3.73013 6.48726 2.99218 8.26884C2.25422 10.0504 2.06114 12.0108 2.43735 13.9021C2.81355 15.7934 3.74215 17.5307 5.10571 18.8943C6.46928 20.2579 8.20656 21.1865 10.0979 21.5627C11.9892 21.9389 13.9496 21.7458 15.7312 21.0078C17.5127 20.2699 19.0355 19.0202 20.1068 17.4168C21.1782 15.8134 21.75 13.9284 21.75 12C21.745 9.41566 20.7162 6.93859 18.8888 5.11118C17.0614 3.28378 14.5843 2.25496 12 2.25ZM15.8813 14.0531C15.7421 14.1782 15.5621 14.2482 15.375 14.25C15.2709 14.2505 15.1678 14.2291 15.0724 14.1871C14.9771 14.1451 14.8918 14.0835 14.8219 14.0062L12 10.875L9.17813 14.0062C9.04263 14.148 8.857 14.2311 8.66101 14.2376C8.46502 14.2442 8.27426 14.1737 8.1296 14.0413C7.98494 13.9089 7.89789 13.7251 7.8871 13.5293C7.87631 13.3335 7.94264 13.1412 8.07188 12.9938L11.4469 9.24375C11.5192 9.17062 11.6054 9.11256 11.7003 9.07294C11.7953 9.03332 11.8971 9.01292 12 9.01292C12.1029 9.01292 12.2047 9.03332 12.2997 9.07294C12.3946 9.11256 12.4808 9.17062 12.5531 9.24375L15.9281 12.9938C16.0624 13.1405 16.1328 13.3345 16.124 13.5331C16.1152 13.7318 16.0279 13.9188 15.8813 14.0531Z" fill="black"/>
</svg>
