<svg width="16" height="16" viewBox="0 0 16 16" fill="none" xmlns="http://www.w3.org/2000/svg">
<circle cx="8" cy="8" r="8" fill="#4FAF53"/>
<path d="M7.9 12.5C7.83333 12.5 7.77667 12.4767 7.73 12.43C7.68333 12.3833 7.66 12.3267 7.66 12.26V11.56C7.16667 11.5133 6.75 11.3967 6.41 11.21C6.07 11.0167 5.81333 10.7867 5.64 10.52C5.46667 10.2467 5.37333 9.96333 5.36 9.67C5.36 9.61 5.38 9.56 5.42 9.52C5.46667 9.48 5.52 9.46 5.58 9.46H6.47C6.55 9.46 6.61333 9.48 6.66 9.52C6.70667 9.55333 6.74333 9.59667 6.77 9.65C6.81667 9.77667 6.89333 9.90333 7 10.03C7.11333 10.15 7.27 10.25 7.47 10.33C7.67 10.41 7.92 10.45 8.22 10.45C8.7 10.45 9.05667 10.37 9.29 10.21C9.52333 10.05 9.64 9.83333 9.64 9.56C9.64 9.36667 9.57667 9.21333 9.45 9.1C9.33 8.98 9.13667 8.87333 8.87 8.78C8.60333 8.68 8.25333 8.57667 7.82 8.47C7.32667 8.35 6.91 8.20667 6.57 8.04C6.23 7.86667 5.97333 7.65 5.8 7.39C5.63333 7.13 5.55 6.8 5.55 6.4C5.55 5.88667 5.73667 5.45 6.11 5.09C6.48333 4.73 7 4.51 7.66 4.43V3.74C7.66 3.67333 7.68333 3.61667 7.73 3.57C7.77667 3.52333 7.83333 3.5 7.9 3.5H8.51C8.57667 3.5 8.63333 3.52333 8.68 3.57C8.72667 3.61667 8.75 3.67333 8.75 3.74V4.45C9.20333 4.51667 9.58333 4.65 9.89 4.85C10.1967 5.05 10.43 5.28 10.59 5.54C10.75 5.79333 10.8333 6.04 10.84 6.28C10.84 6.33333 10.82 6.38333 10.78 6.43C10.7467 6.47 10.6967 6.49 10.63 6.49H9.7C9.64 6.49 9.58333 6.47667 9.53 6.45C9.47667 6.42333 9.43333 6.37333 9.4 6.3C9.36667 6.09333 9.24 5.91667 9.02 5.77C8.8 5.62333 8.51333 5.55 8.16 5.55C7.8 5.55 7.51 5.61667 7.29 5.75C7.07667 5.88333 6.97 6.09 6.97 6.37C6.97 6.55667 7.02333 6.71333 7.13 6.84C7.23667 6.96 7.41 7.06667 7.65 7.16C7.89667 7.25333 8.22333 7.35333 8.63 7.46C9.19667 7.58667 9.65667 7.73333 10.01 7.9C10.37 8.06667 10.6333 8.28 10.8 8.54C10.9733 8.79333 11.06 9.11667 11.06 9.51C11.06 9.89667 10.9633 10.2367 10.77 10.53C10.5833 10.8167 10.3167 11.05 9.97 11.23C9.62333 11.4033 9.21667 11.5167 8.75 11.57V12.26C8.75 12.3267 8.72667 12.3833 8.68 12.43C8.63333 12.4767 8.57667 12.5 8.51 12.5H7.9Z" fill="white"/>
</svg>
