<svg width="100%" height="100%" viewBox="0 0 56 35" fill="none" xmlns="http://www.w3.org/2000/svg">
<path d="M19.8822 16.3071H12.8004C9.05765 16.3071 6.01209 13.6532 6.01209 10.3918C6.01209 7.13034 9.05765 4.47645 12.8004 4.47645H43.3661C47.1088 4.47645 50.1544 7.13034 50.1544 10.3918C50.1544 12.3742 49.0168 14.1967 47.1455 15.3158C46.4116 15.7315 45.641 16.0193 44.7971 16.1792L49.8975 19.0888C49.9342 19.0569 49.9709 19.0569 50.0076 19.0249C53.31 17.0744 55.2547 13.845 55.2547 10.3918C55.2547 4.66829 49.8975 0 43.3294 0H12.8004C6.23225 0 0.875 4.66829 0.875 10.3918C0.875 16.1152 6.23225 20.7835 12.8004 20.7835H19.8822V16.3071Z" fill="#F9D54C"/>
<path d="M13.9252 2.91528C13.4529 2.97942 13.3439 3.26801 13.4529 3.58867C13.5256 3.78107 13.7072 4.00553 13.8888 4.03759C14.3248 4.13379 14.5064 3.78107 14.5064 3.49247C14.5064 3.20388 14.3248 2.91528 13.9252 2.91528Z" fill="#F9D54C"/>
<path d="M16.5776 1.79309C17.0498 1.76103 17.3768 1.5045 17.2315 1.02351C17.1225 0.702848 16.8319 0.542518 16.4323 0.574584C16.0327 0.670782 15.851 0.959376 15.8874 1.24797C15.8874 1.56863 16.2143 1.82516 16.5776 1.79309Z" fill="#F9D54C"/>
<path d="M16.6136 5.38428C16.1414 5.38428 15.8144 5.67287 15.9234 6.1218C15.996 6.44246 16.2867 6.63485 16.6863 6.60279C17.0859 6.57072 17.2312 6.28213 17.3402 5.99353C17.1949 5.67287 16.9769 5.38428 16.6136 5.38428Z" fill="#F9D54C"/>
<path d="M19.3744 2.91528C18.9021 2.97942 18.7931 3.26801 18.9021 3.58867C18.9748 3.78107 19.1564 4.00553 19.3381 4.03759C19.774 4.13379 19.9556 3.78107 19.9556 3.49247C19.9556 3.20388 19.774 2.91528 19.3744 2.91528Z" fill="#F9D54C"/>
<path d="M19.4471 7.75721C19.1202 7.69308 18.9749 7.88547 18.9022 8.07787C18.7932 8.39853 18.9022 8.75125 19.2291 8.87952C19.5561 9.00778 19.8831 8.81539 19.9557 8.43059C19.992 8.10993 19.8831 7.85341 19.4471 7.75721Z" fill="#F9D54C"/>
<path d="M8.36758 2.94748C8.11328 2.97955 7.93164 3.13987 7.93164 3.3964C7.93164 3.71706 7.93164 4.03772 8.36758 4.06979C8.80351 4.10186 8.9125 3.81326 9.02148 3.4926C8.94882 3.17194 8.80351 2.88335 8.36758 2.94748Z" fill="#F9D54C"/>
<path d="M8.4738 7.94971C8.36482 7.94971 8.18318 8.07797 8.14685 8.17417C8.03786 8.46276 8.29216 8.55896 8.58278 8.59103C8.69177 8.59103 8.83708 8.46276 8.94606 8.39863C8.94606 8.11004 8.76442 7.98177 8.4738 7.94971Z" fill="#F9D54C"/>
<path d="M5.86127 5.32034C5.42533 5.28827 5.24369 5.5448 5.31635 5.86546C5.35268 6.05786 5.57065 6.25025 5.8976 6.18612C6.15189 6.12199 6.36986 6.02579 6.33353 5.70513C6.2972 5.48067 6.11557 5.3524 5.86127 5.32034Z" fill="#F9D54C"/>
<path d="M11.1609 5.32031C10.7613 5.28825 10.6523 5.57684 10.6523 5.8975C10.6523 6.0899 10.834 6.41056 10.9793 6.44262C11.3062 6.53882 11.6695 6.37849 11.7059 5.9937C11.7785 5.67304 11.6695 5.41651 11.1609 5.32031Z" fill="#F9D54C"/>
<path d="M11.2355 1.63269C11.6352 1.56855 11.7441 1.31203 11.7441 0.959301C11.7078 0.574509 11.3445 0.446245 11.0176 0.510377" fill="#F9D54C"/>
<path d="M26.7852 1.15165C26.7488 1.44024 26.9668 1.72884 27.3664 1.76091C27.875 1.79297 28.1656 1.53644 28.1293 1.11959C28.093 0.798925 27.766 0.638595 27.4391 0.574463C27.0758 0.606529 26.8215 0.830991 26.7852 1.15165Z" fill="#F9D54C"/>
<path d="M22.0602 5.32031C21.7332 5.32031 21.5879 5.57684 21.5879 5.8975C21.5879 6.0899 21.7695 6.41056 21.9512 6.47469C22.3144 6.57089 22.6414 6.41056 22.6777 6.02576C22.7504 5.7051 22.6051 5.44858 22.0602 5.32031Z" fill="#F9D54C"/>
<path d="M24.8945 7.75733C24.4949 7.72526 24.3496 8.01385 24.3496 8.33451C24.3496 8.52691 24.5312 8.84757 24.7129 8.87964C25.0762 8.97583 25.4031 8.8155 25.4394 8.43071C25.4758 8.11005 25.3668 7.85352 24.8945 7.75733Z" fill="#F9D54C"/>
<path d="M21.9164 0.574443C21.5168 0.574443 21.2988 0.927169 21.2988 1.21576C21.2988 1.50436 21.5895 1.76089 21.9527 1.82502C22.316 1.79295 22.643 1.66469 22.6793 1.31196C22.7519 0.83097 22.425 0.542377 21.9164 0.574443Z" fill="#F9D54C"/>
<path d="M25.3669 3.55677C25.2942 3.42851 25.2579 3.26818 25.1489 3.20404C24.931 3.07578 24.6767 3.13991 24.5677 3.36437C24.5313 3.46057 24.6403 3.65297 24.7493 3.7171C25.0036 3.84536 25.2216 3.78123 25.3669 3.55677Z" fill="#F9D54C"/>
<path d="M27.5493 5.28809C27.0044 5.28809 26.7137 5.60875 26.7864 6.05767C26.8591 6.4104 27.186 6.57073 27.6219 6.47453C27.9852 6.37833 28.2758 6.218 28.3122 5.86527C28.2395 5.48048 27.9489 5.28809 27.5493 5.28809Z" fill="#F9D54C"/>
<path d="M30.4893 3.10761C30.344 3.07554 30.126 3.17174 30.0534 3.26794C29.9081 3.4924 30.017 3.6848 30.2713 3.78099C30.5256 3.87719 30.7799 3.81306 30.8889 3.62066C30.9616 3.3 30.7799 3.13967 30.4893 3.10761Z" fill="#F9D54C"/>
<path d="M33.2126 0.574436C32.6313 0.38204 32.3407 0.734766 32.268 1.11956C32.1954 1.44022 32.5223 1.69675 32.8493 1.76088C33.3216 1.82501 33.5758 1.63261 33.6848 1.27989C33.7938 0.959228 33.5395 0.7027 33.2126 0.574436Z" fill="#F9D54C"/>
<path d="M33.2126 5.41648C32.6313 5.22408 32.3407 5.57681 32.268 5.9616C32.1954 6.28226 32.5223 6.53879 32.8493 6.60292C33.3216 6.66705 33.5758 6.47465 33.6848 6.12193C33.7938 5.7692 33.5395 5.54474 33.2126 5.41648Z" fill="#F9D54C"/>
<path d="M30.3092 7.8214C29.8733 7.78933 29.619 8.01379 29.5826 8.36652C29.5463 8.68718 29.728 9.00784 30.1639 9.03991C30.5635 9.07197 30.8905 8.91164 30.9268 8.52685C30.9631 8.14206 30.7088 7.9176 30.3092 7.8214Z" fill="#F9D54C"/>
<path d="M38.6273 5.35226C38.1551 5.28813 38.0098 5.57673 38.0098 5.89739C38.0098 6.08978 38.1914 6.37838 38.373 6.44251C38.7363 6.53871 39.0269 6.41044 39.0996 6.02565C39.1359 5.67292 39.0269 5.4164 38.6273 5.35226Z" fill="#F9D54C"/>
<path d="M38.737 0.574569C38.4101 0.478371 38.0831 0.574569 38.0105 0.991427C37.9741 1.31209 38.0831 1.56862 38.4827 1.66481C38.8097 1.72895 38.9187 1.53655 39.064 1.34415C39.2093 0.959361 39.064 0.670767 38.737 0.574569Z" fill="#F9D54C"/>
<path d="M43.8951 5.3524C43.4228 5.41653 43.0959 5.73719 43.2775 6.18611C43.3865 6.50677 43.7498 6.69917 44.1131 6.60297C44.5127 6.50677 44.658 6.25024 44.658 5.92958C44.549 5.54479 44.2584 5.32033 43.8951 5.3524Z" fill="#F9D54C"/>
<path d="M41.8254 3.46049C41.8254 3.30016 41.5711 3.01156 41.3895 2.9795C40.9172 2.8833 40.8082 3.20396 40.6992 3.81322C40.7355 3.84528 40.9898 4.00561 41.2078 4.03768C41.7164 4.13387 41.8617 3.74908 41.8254 3.46049Z" fill="#F9D54C"/>
<path d="M44.1143 0.542434C43.642 0.478302 43.4604 0.798962 43.4967 1.11962C43.533 1.31202 43.751 1.56855 43.9326 1.60061" fill="#F9D54C"/>
<path d="M40.9897 8.11002C40.8808 8.33448 41.0261 8.52687 41.2804 8.62307C41.5347 8.6872 41.7526 8.62307 41.8979 8.30241C41.7526 8.17415 41.571 8.01382 41.3893 7.91762C41.3167 7.88555 41.0624 8.01382 40.9897 8.11002Z" fill="#F9D54C"/>
<path d="M14.5398 8.46274C14.4672 8.14208 14.2855 7.85349 13.9223 7.82142C13.3773 7.75729 13.123 8.07795 13.123 8.49481C13.123 8.81547 13.45 9.00787 13.777 9.03993H13.8859C14.2492 9.00787 14.4672 8.75134 14.5398 8.46274Z" fill="#F9D54C"/>
<path d="M35.7578 7.66109C35.2855 7.56489 34.8496 7.69316 34.8496 8.20621C34.8496 8.55894 35.0312 8.84753 35.3582 9.00786H36.3754C36.4844 8.91167 36.557 8.81547 36.5933 8.65514C36.5933 8.20621 36.3754 7.78936 35.7578 7.66109Z" fill="#F9D54C"/>
<path d="M35.544 3.3002C35.435 3.55673 35.6166 3.71706 35.8709 3.78119C36.1252 3.84532 36.3432 3.78119 36.4522 3.46053C36.3069 3.36433 36.1252 3.17194 35.9436 3.10781C35.8346 3.07574 35.5803 3.204 35.544 3.3002Z" fill="#F9D54C"/>
<path d="M52.2488 7.69312C51.7766 7.72518 51.7402 8.04584 51.7402 8.3665C51.7766 8.71923 51.9945 8.97576 52.3941 8.91162" fill="#F9D54C"/>
<path d="M46.8352 7.78931C46.3629 7.78931 46.2539 8.0779 46.2539 8.39856C46.2539 8.68716 46.4719 8.84748 46.7625 8.84748C47.2348 8.87955 47.3074 8.55889 47.3437 8.20616C47.3074 7.94964 47.1258 7.78931 46.8352 7.78931Z" fill="#F9D54C"/>
<path d="M49.4906 5.35232C48.9094 5.25612 48.6914 5.64091 48.6914 6.05777C48.6914 6.41049 49.0547 6.60289 49.4543 6.60289C49.8902 6.60289 50.1082 6.37843 50.1445 6.05777C50.1082 5.67298 49.8902 5.44851 49.4906 5.35232Z" fill="#F9D54C"/>
<path d="M38.8091 11.5411C39.3177 11.5091 39.4993 11.1243 39.4267 10.6753C39.354 10.2585 39.0634 10.002 38.7728 10.002C38.0462 10.0661 37.6829 10.3867 37.7193 10.7715C37.7193 11.2846 38.2642 11.5732 38.8091 11.5411Z" fill="#F9D54C"/>
<path d="M35.757 13.6894C36.0839 13.7535 36.1929 13.5611 36.3382 13.3687C36.4835 13.016 36.3382 12.7274 36.0113 12.6312C35.6843 12.535 35.3574 12.6312 35.2847 13.0481C35.2484 13.3367 35.3937 13.5932 35.757 13.6894Z" fill="#F9D54C"/>
<path d="M36.4102 17.8901C36.2648 17.7939 36.0832 17.6336 35.8652 17.5694C35.7562 17.5374 35.5383 17.6656 35.502 17.7939" fill="#F9D54C"/>
<path d="M46.8715 13.6573C47.1258 13.6252 47.3074 13.4649 47.4891 13.3687C47.2348 12.8877 47.2348 12.5029 46.7262 12.5671C46.4355 12.5991 46.2539 12.7915 46.2539 13.0481C46.2539 13.4008 46.3992 13.7535 46.8715 13.6573Z" fill="#F9D54C"/>
<path d="M41.8613 18.0505C41.8613 17.6978 41.7887 17.4092 41.2801 17.4092C40.9895 17.4092 40.7715 17.5695 40.7715 17.8581" fill="#F9D54C"/>
<path d="M41.1696 13.8497C41.6055 13.8818 41.8235 13.6573 41.9324 13.3046C41.9324 12.9519 41.7145 12.6953 41.3512 12.5991C40.7699 12.4709 40.5157 12.8557 40.4793 13.2405C40.443 13.5611 40.7699 13.8176 41.1696 13.8497Z" fill="#F9D54C"/>
<path d="M44.1145 11.2525C44.5141 11.1563 44.6594 10.8677 44.5505 10.515C44.4778 10.2905 44.2962 10.0982 44.1509 10.1302C43.5333 10.2585 43.4243 10.5471 43.5333 10.8998C43.6059 11.1243 43.7876 11.3487 44.1145 11.2525Z" fill="#F9D54C"/>
<path d="M49.5988 11.3486C49.9984 11.3486 50.2527 11.0279 50.2527 10.7072C50.2527 10.3866 49.9984 10.13 49.6352 10.0659C49.1992 10.098 49.0176 10.3224 49.0176 10.6752C49.0176 11.0279 49.1992 11.3486 49.5988 11.3486Z" fill="#F9D54C"/>
<path d="M49.4135 14.9722C48.9776 14.9722 48.7596 15.2287 48.687 15.5494C48.6143 15.9021 48.905 16.1586 49.2682 16.2227" fill="#F9D54C"/>
<path d="M52.3248 12.5994C51.8525 12.5673 51.7435 12.8559 51.7799 13.2086C51.7799 13.4651 51.9978 13.6575 52.2521 13.6575" fill="#F9D54C"/>
<path d="M16.7199 16.1266C17.1195 16.0625 17.2285 15.7739 17.1922 15.4532C17.1559 15.0684 16.7926 14.9401 16.4656 15.0043C16.3203 15.0363 16.1387 15.357 16.1387 15.5494C16.1387 15.8059 16.2477 16.1907 16.7199 16.1266Z" fill="#F9D54C"/>
<path d="M16.7223 11.4128C17.1219 11.3487 17.2672 11.0922 17.2672 10.7395C17.1582 10.4188 16.9039 10.1943 16.5406 10.1943C16.141 10.1943 15.8867 10.515 15.8867 10.8036C15.8867 11.1884 16.1773 11.509 16.7223 11.4128Z" fill="#F9D54C"/>
<path d="M13.8875 13.6895C14.3598 13.7537 14.4324 13.4009 14.5051 13.1123C14.4324 12.7917 14.3234 12.5031 13.8512 12.5352C13.5969 12.5672 13.3789 12.7276 13.3789 12.9841C13.4152 13.3368 13.4516 13.6575 13.8875 13.6895Z" fill="#F9D54C"/>
<path d="M13.9966 17.4091C13.6333 17.3129 13.5243 17.5374 13.4517 17.7618C13.3427 18.0504 13.597 18.1787 13.8513 18.2428" fill="#F9D54C"/>
<path d="M22.1727 11.3808C22.5723 11.3167 22.7176 11.0601 22.754 10.7715C22.645 10.4188 22.3907 10.1623 22.0637 10.1944C21.5915 10.2264 21.2645 10.515 21.4098 10.9639C21.4825 11.2846 21.7731 11.4449 22.1727 11.3808Z" fill="#F9D54C"/>
<path d="M21.8429 16.1908C22.2062 16.319 22.4968 16.1266 22.6784 15.838C22.8601 15.4853 22.6058 15.2608 22.3151 15.1005C21.9882 14.9081 21.6612 15.0364 21.4433 15.325C21.189 15.7418 21.3706 16.0304 21.8429 16.1908Z" fill="#F9D54C"/>
<path d="M19.8819 13.0802C19.8092 12.8557 19.5912 12.7274 19.3369 12.7595C19.228 12.7916 19.0826 13.0481 19.119 13.0802C19.2643 13.2084 19.4823 13.3046 19.6639 13.4008C19.7365 13.3046 19.8092 13.2084 19.8819 13.0802Z" fill="#F9D54C"/>
<path d="M5.56867 14.9722C5.20539 15.0363 4.91477 15.2928 4.87844 15.5814C4.84211 15.87 5.09641 16.1907 5.49602 16.2227" fill="#F9D54C"/>
<path d="M8.36718 13.8179C8.73046 13.8179 8.98476 13.5614 9.05741 13.2407C8.98476 12.92 8.83945 12.6314 8.43984 12.5994C7.89492 12.5352 7.64062 12.888 7.64062 13.2728C7.64062 13.5934 8.0039 13.8179 8.36718 13.8179Z" fill="#F9D54C"/>
<path d="M8.73081 17.377C8.36753 17.2808 8.04058 17.4091 8.00425 17.8259C7.96792 18.1466 8.04058 18.4352 8.47651 18.5314" fill="#F9D54C"/>
<path d="M5.63923 11.4127C6.00251 11.4127 6.29314 11.1562 6.29314 10.8035C6.29314 10.4828 6.03884 10.2583 5.74822 10.1942C5.23963 10.1622 4.98533 10.3866 4.91268 10.6752C4.80369 11.1562 5.2033 11.3807 5.63923 11.4127Z" fill="#F9D54C"/>
<path d="M11.0159 11.2524C11.3792 11.3486 11.6698 11.1883 11.7425 10.8035C11.7788 10.4829 11.6698 10.2263 11.1976 10.1301C10.798 10.0981 10.6526 10.3867 10.689 10.7073C10.689 10.8997 10.8343 11.2204 11.0159 11.2524Z" fill="#F9D54C"/>
<path d="M11.0159 16.0945C11.3792 16.1907 11.6698 16.0303 11.7425 15.6456C11.7788 15.3249 11.6698 15.0684 11.1976 14.9722C10.798 14.9401 10.6526 15.2287 10.689 15.5494C10.689 15.7418 10.8343 16.0624 11.0159 16.0945Z" fill="#F9D54C"/>
<path d="M33.1437 11.2847C33.5434 11.2205 33.6523 10.964 33.6523 10.6113C33.5797 10.2265 33.2527 10.0982 32.9258 10.1944C32.7441 10.2265 32.5625 10.5472 32.5625 10.7075C32.5625 10.9961 32.6715 11.3488 33.1437 11.2847Z" fill="#F9D54C"/>
<path d="M28.493 10.8997C28.5293 10.3866 28.275 9.96974 27.5848 10.0339C27.0762 10.0659 26.8582 10.3866 26.7129 10.7714" fill="#F9D54C"/>
<path d="M30.3086 13.6894C30.7809 13.7535 30.9262 13.4328 30.9262 13.1442C30.9262 12.9518 30.7445 12.6633 30.5629 12.5991" fill="#F9D54C"/>
<path d="M24.0957 18.1466C24.1684 18.4672 24.459 18.6596 24.8586 18.6276C25.2582 18.5955 25.4035 18.3069 25.4762 18.0183" fill="#F9D54C"/>
<path d="M25.1844 12.5032C24.8211 12.5032 24.4941 12.5994 24.4941 12.9842C24.4941 13.2407 24.6758 13.401 25.0027 13.401" fill="#F9D54C"/>
<path d="M33.7207 15.6455C33.757 15.3249 33.3937 15.1004 33.0305 15.0042C32.5582 14.908 32.3766 15.2287 32.2676 15.5173" fill="#F9D54C"/>
<path d="M38.5551 15.0042C37.9375 14.908 37.7559 15.2928 37.7559 15.7096C37.7559 16.0303 38.0828 16.2868 38.4824 16.2547C38.882 16.2547 39.1363 16.0303 39.209 15.6776C39.1726 15.3248 38.9547 15.0683 38.5551 15.0042Z" fill="#F9D54C"/>
<path d="M42.5002 21.9238L26.7483 12.866L26.6621 29.4592L31.8935 26.9728L35.3429 32.6053L40.718 30.0428L37.2687 24.4102L42.5002 21.9238Z" stroke="black" stroke-width="3.68039" stroke-miterlimit="10"/>
</svg>
