<svg width="900" height="900" viewBox="0 0 900 900" fill="none" xmlns="http://www.w3.org/2000/svg">
<path d="M450 0C201.47 0 0 201.47 0 450C0 698.529 201.47 900 450 900C698.529 900 900 698.529 900 450C900 201.47 698.529 0 450 0Z" fill="#2A62F4"/>
<path d="M450 200C311.928 200 200 311.928 200 450C200 588.072 311.928 700 450 700C588.072 700 700 588.072 700 450C700 311.928 588.072 200 450 200Z" fill="white"/>
<g filter="url(#filter0_d)">
<rect x="359" y="359" width="182" height="182" rx="20" fill="#2A62F4"/>
</g>
<defs>
<filter id="filter0_d" x="355" y="359" width="190" height="190" filterUnits="userSpaceOnUse" color-interpolation-filters="sRGB">
<feFlood flood-opacity="0" result="BackgroundImageFix"/>
<feColorMatrix in="SourceAlpha" type="matrix" values="0 0 0 0 0 0 0 0 0 0 0 0 0 0 0 0 0 0 127 0"/>
<feOffset dy="4"/>
<feGaussianBlur stdDeviation="2"/>
<feColorMatrix type="matrix" values="0 0 0 0 0 0 0 0 0 0 0 0 0 0 0 0 0 0 0.25 0"/>
<feBlend mode="normal" in2="BackgroundImageFix" result="effect1_dropShadow"/>
<feBlend mode="normal" in="SourceGraphic" in2="effect1_dropShadow" result="shape"/>
</filter>
</defs>
</svg>
