<?xml version="1.0" encoding="UTF-8"?>
<svg width="120px" height="122px" viewBox="0 0 120 122" version="1.1" xmlns="http://www.w3.org/2000/svg" xmlns:xlink="http://www.w3.org/1999/xlink">
    <title>496D44D2-E8C3-4B9E-8B65-1B3468F373E0</title>
    <defs>
        <linearGradient x1="50%" y1="0%" x2="50%" y2="100%" id="linearGradient-1">
            <stop stop-color="#BD2A74" offset="0%"></stop>
            <stop stop-color="#262C40" offset="100%"></stop>
        </linearGradient>
        <polygon id="path-2" points="0 0 13.2066075 0 13.2066075 14.7316481 0 14.7316481"></polygon>
    </defs>
    <g id="Dark" stroke="none" stroke-width="1" fill="none" fill-rule="evenodd">
        <g id="URL-Detail-Bid-Success" transform="translate(-660.000000, -260.000000)">
            <g id="Group-56-Copy" transform="translate(420.000000, 144.000000)">
                <g id="confetti" transform="translate(240.000000, 117.000000)">
                    <path d="M39.5038834,117.647577 C37.913488,117.647577 36.3008626,117.265311 34.8055362,116.459295 L21.0692502,109.054916 C15.8818417,106.259055 12.6589558,100.949053 12.6589558,95.1974874 L12.6589558,83.9095129 C12.6589558,78.1577131 15.8818417,72.8477103 21.0697232,70.0518495 L35.6956846,61.9377829 L18.1228211,52.1474654 C13.3428849,49.5709797 11.5758315,43.6424611 14.1753298,38.9052712 C16.774828,34.1683156 22.7568429,32.4170647 27.5370156,34.9930817 L41.2733017,42.3972261 C46.4611831,45.19379 49.6835961,50.5035583 49.6835961,56.2548894 L49.6835961,67.5428639 C49.6835961,73.294195 46.4609466,78.6041977 41.2733017,81.4002928 L25.9924993,89.0964686 L44.2197308,99.3049113 C48.9996669,101.881163 50.7667203,107.809916 48.1672221,112.546871 C46.3807765,115.802107 42.9968409,117.647577 39.5038834,117.647577 Z" id="Fill-1" fill-opacity="0.75" fill="url(#linearGradient-1)"></path>
                    <path d="M44.2197308,99.3049113 L41.2508351,97.6420199 C39.7812862,100.15499 37.1136788,101.57835 34.3588066,101.57835 C33.0732469,101.57835 31.7697139,101.269444 30.5610134,100.617646 L19.4573342,94.6326433 C15.3362592,92.4114703 12.7507139,88.2269369 12.6632126,83.6702159 C12.6620301,83.7499034 12.6589558,83.8295909 12.6589558,83.9095129 L12.6589558,95.1974874 C12.6589558,100.949053 15.8818417,106.259055 21.0692502,109.054916 L34.8055362,116.459061 C36.3008626,117.265077 37.913488,117.647343 39.5038834,117.647343 C42.9968409,117.647343 46.3807765,115.801873 48.1672221,112.546871 C50.7667203,107.809916 48.9994305,101.881397 44.2197308,99.3049113 Z" id="Fill-5" fill-opacity="0.5" fill="#262C40"></path>
                    <path d="M49.6835961,67.5426295 L49.6835961,56.254655 C49.6835961,50.5035583 46.4611831,45.1935556 41.2733017,42.3969917 L37.8612237,40.5578501 L37.8612237,42.134726 C40.8225517,44.5438678 42.5877132,48.1265259 42.5877132,51.9519966 L42.5877132,61.0766887 C42.5877132,62.6767677 42.2790937,64.2346591 41.7032405,65.6819254 C44.2939886,67.0698949 46.9237576,68.3898956 49.519472,69.7727088 C49.627075,69.0395834 49.6835961,68.295208 49.6835961,67.5426295" id="Fill-7" fill-opacity="0.5" fill="#262C40"></path>
                    <path d="M41.7032405,65.6816911 C40.6061633,68.4395831 38.5392406,70.7957562 35.7890982,72.2781788 L15.1345333,82.7252154 L26.3065581,88.9823279 L41.2733017,81.3998241 C45.7822203,78.9695885 48.8052722,74.6399769 49.519472,69.77224 C46.9237576,68.3896612 44.2939886,67.0698949 41.7032405,65.6816911 Z" id="Fill-9" fill-opacity="0.5" fill="#262C40"></path>
                    <path d="M78.662846,86.1920921 C80.2532414,86.1920921 81.8658668,85.8098263 83.3609567,85.0035759 L97.0972427,77.5994315 C102.284651,74.8035707 105.507537,69.493568 105.507537,63.7420026 L105.507537,52.4540281 C105.507537,46.7022283 102.284651,41.3922256 97.0967697,38.5963648 L82.4708083,30.4822981 L100.043672,20.6919806 C104.823608,18.115495 106.590661,12.1869763 103.991163,7.4497864 C101.391665,2.71283086 95.40965,0.961579972 90.6294773,3.53759691 L76.8931913,10.9417413 C71.7053098,13.7383052 68.4828968,19.0480736 68.4828968,24.7991702 L68.4828968,36.0871447 C68.4828968,41.8387102 71.7055463,47.1484785 76.8931913,49.9448081 L92.1739936,57.6409839 L73.9467622,67.8494266 C69.166826,70.4256779 67.3997726,76.3544309 69.9992708,81.0913864 C71.7859529,84.3466225 75.1698885,86.1920921 78.662846,86.1920921 Z" id="Fill-11" fill-opacity="0.75" fill="url(#linearGradient-1)"></path>
                    <path d="M97.0970062,38.5963648 L82.0337747,30.167298 C82.2080679,30.9763609 76.7193711,33.3997996 76.7193711,34.2449563 L96.2626695,46.8175408 C98.4596617,48.3137916 99.3365667,51.1424649 98.2851321,53.5703568 C98.1780021,53.8180913 98.0377635,54.0686383 97.871984,54.3201228 C100.382089,53.1834035 102.916553,52.0832466 105.432806,50.9559023 C104.926954,45.7923841 101.830827,41.1475379 97.0970062,38.5963648" id="Fill-15" fill-opacity="0.5" fill="#262C40"></path>
                    <path d="M95.7613106,6.2675983 C97.7582323,9.90674078 96.4007796,14.4613525 92.7287992,16.4406504 L67.7251828,30.4108137 L72.8239076,35.6933945 L100.044145,20.6919806 C104.823844,18.115495 106.591134,12.1869763 103.991636,7.4497864 C101.637142,3.15954984 96.5081461,1.31853328 92.0103425,2.92329972 C93.5550953,3.55681567 94.900014,4.6982225 95.7613106,6.2675983" id="Fill-19" fill-opacity="0.5" fill="#262C40"></path>
                    <path d="M44.8951462,7.04197369 C49.3130162,7.04197369 52.894421,10.5913505 52.894421,14.9697121 C52.894421,19.3480737 49.3130162,22.8974505 44.8951462,22.8974505 C40.4772763,22.8974505 36.8958715,19.3480737 36.8958715,14.9697121 C36.8958715,10.5913505 40.4772763,7.04197369 44.8951462,7.04197369" id="Fill-21" fill-opacity="0.5" fill="#BD2A74"></path>
                    <path d="M100.991547,89.6765002 C102.27285,85.4863418 106.738728,83.1189187 110.966696,84.3887631 C115.194665,85.6583731 117.58345,90.0845473 116.302148,94.2744713 C115.021081,98.4646297 110.554967,100.832053 106.326999,99.5624427 C102.099267,98.2925983 99.710481,93.8666586 100.991547,89.6765002" id="Fill-23" fill-opacity="0.5" fill="#BD2A74"></path>
                    <path d="M70.9360078,94.7592059 L72.9643826,100.411865 C73.0511745,100.653975 73.2231027,100.845693 73.4402005,100.94249 L78.5077086,103.205148 C79.2235639,103.524835 79.2235639,104.655227 78.5077086,104.974914 L73.4402005,107.237572 C73.2233392,107.334369 73.0511745,107.526322 72.9643826,107.768197 L70.9360078,113.420856 C70.6493819,114.219372 69.6360222,114.219372 69.3493963,113.420856 L67.3210214,107.768197 C67.2342296,107.526087 67.0623013,107.334369 66.8452035,107.237572 L61.7776954,104.974914 C61.0618402,104.655227 61.0618402,103.524835 61.7776954,103.205148 L66.8452035,100.94249 C67.0623013,100.845693 67.2342296,100.65374 67.3210214,100.411865 L69.3493963,94.7592059 C69.6357857,93.9606899 70.6493819,93.9606899 70.9360078,94.7592059" id="Fill-25" fill="#BD2A74"></path>
                    <g id="Group-29" transform="translate(106.793392, 22.736435)">
                        <mask id="mask-3" fill="white">
                            <use xlink:href="#path-2"></use>
                        </mask>
                        <g id="Clip-28"></g>
                        <path d="M7.19160224,0.444375226 L8.69638821,4.63734611 C8.76071349,4.81687745 8.8884181,4.95914315 9.04923131,5.03109631 L12.8082401,6.70945654 C13.3393967,6.94664416 13.3393967,7.78523834 12.8082401,8.02219159 L9.04923131,9.70055182 C8.8884181,9.77250498 8.76071349,9.91477068 8.69638821,10.094302 L7.19160224,14.2872729 C6.97899772,14.8797732 6.22719596,14.8797732 6.01459143,14.2872729 L4.51004196,10.094302 C4.44548018,9.91477068 4.31801206,9.77250498 4.15719885,9.70055182 L0.398190063,8.02219159 C-0.132730021,7.78500397 -0.132730021,6.94640979 0.398190063,6.70945654 L4.15719885,5.03109631 C4.31824855,4.95914315 4.44571667,4.81687745 4.51004196,4.63734611 L6.01459143,0.444375226 C6.22719596,-0.148125075 6.97899772,-0.148125075 7.19160224,0.444375226" id="Fill-27" fill="#BD2A74" mask="url(#mask-3)"></path>
                    </g>
                    <path d="M7.1920161,54.96067 L8.69680206,59.1536409 C8.76112735,59.3331722 8.88883196,59.4754379 9.04964517,59.5473911 L12.808654,61.2257513 C13.3398105,61.4629389 13.3398105,62.3015331 12.808654,62.5384863 L9.04964517,64.2168466 C8.88859547,64.2887997 8.76112735,64.4310654 8.69680206,64.6105968 L7.1920161,68.803802 C6.97941157,69.396068 6.22760982,69.396068 6.01500529,68.803802 L4.51021932,64.6105968 C4.44589404,64.4310654 4.31818943,64.2887997 4.15737622,64.2168466 L0.398367431,62.5384863 C-0.132789144,62.3012987 -0.132789144,61.4627045 0.398367431,61.2257513 L4.15737622,59.5473911 C4.31842592,59.4754379 4.44589404,59.3331722 4.51021932,59.1536409 L6.01500529,54.96067 C6.22760982,54.3681697 6.97941157,54.3681697 7.1920161,54.96067" id="Fill-30" fill="#BD2A74"></path>
                    <path d="M55.1550291,32.0258927 C56.2102475,32.0258927 57.0656319,32.8736275 57.0656319,33.9194093 C57.0656319,34.965191 56.2102475,35.8129259 55.1550291,35.8129259 C54.0998106,35.8129259 53.2444262,34.965191 53.2444262,33.9194093 C53.2444262,32.8736275 54.0998106,32.0258927 55.1550291,32.0258927" id="Fill-32" fill="#BD2A74"></path>
                    <path d="M65.8718342,58.0467106 C66.0004848,57.0081945 66.954249,56.2699128 68.0021363,56.3974129 C69.0500236,56.5251473 69.7949671,57.4703822 69.6663165,58.508664 C69.537666,59.5471801 68.5836652,60.2854618 67.5360145,60.1579617 C66.4881272,60.0304616 65.7431837,59.0852268 65.8718342,58.0467106" id="Fill-34" fill="#BD2A74"></path>
                    <path d="M13.3674326,14.4245556 C14.304406,12.1843982 16.8961001,11.1212726 19.1564716,12.0498669 C21.4166067,12.9782267 22.4895619,15.546978 21.5525885,17.786901 C20.6158515,20.0270584 18.023921,21.090184 15.7635494,20.1618241 C13.5034143,19.2332299 12.4304591,16.664713 13.3674326,14.4245556" id="Fill-36" fill="#BD2A74"></path>
                    <path d="M94.1829763,105.917337 C96.629229,105.917337 98.6121978,107.882572 98.6121978,110.306948 C98.6121978,112.731324 96.629229,114.69656 94.1829763,114.69656 C91.7367235,114.69656 89.7537548,112.731324 89.7537548,110.306948 C89.7537548,107.882572 91.7367235,105.917337 94.1829763,105.917337" id="Fill-38" fill="#BD2A74"></path>
                    <path d="M47.3097093,65.3371596 L36.8800266,59.9001256 C36.8726955,59.8959069 36.8663102,59.8907506 36.858979,59.8865319 L19.2861155,50.0964488 C19.2764194,50.0910581 19.2669598,50.0856675 19.2570272,50.0805112 C15.6347096,48.1279321 14.2905004,43.6190236 16.2606987,40.0290999 C17.615077,37.5611299 20.1887979,36.1602698 22.8424523,36.1602698 C24.0480784,36.1602698 25.2709683,36.4497231 26.4023365,37.0595671 L40.1386226,44.4637115 C44.5616953,46.8480096 47.3092363,51.3658244 47.3092363,56.2544206 L47.3097093,65.3371596 Z M25.9842222,86.4613892 L15.3863951,80.901777 C16.2592798,77.2211501 18.7074244,74.0029453 22.2036928,72.1185694 C22.2122064,72.1138819 22.2207201,72.1091943 22.2292337,72.1047412 L35.7276108,64.6159874 L46.4311489,70.1957559 C46.6120637,70.290209 46.7996003,70.3581778 46.9897383,70.4029435 C46.1501988,74.1346641 43.6949594,77.4063064 40.1674743,79.3181043 L25.9842222,86.4613892 Z M43.0517066,101.353115 C43.0628216,101.359209 43.0741731,101.365537 43.0855246,101.371631 C46.7076057,103.32421 48.051815,107.833119 46.0818531,111.422808 C44.7707525,113.811325 42.2504784,115.294919 39.5036469,115.294919 C38.2672771,115.294919 37.0349276,114.982966 35.9397423,114.392341 L22.2032198,106.987962 C17.7803835,104.604133 15.0328426,100.086318 15.0328426,95.1974874 L15.0328426,86.0404514 L25.6280682,91.5986574 C25.6389468,91.6042824 25.6505348,91.6080324 25.6614133,91.6136574 L43.0517066,101.353115 Z M42.4077443,40.3302719 L28.6712217,32.9258931 C22.7488023,29.7341728 15.3104818,31.9122207 12.0899608,37.7809737 C8.87227766,43.6450392 11.0626482,51.0088711 16.9732431,54.2055134 L30.843619,61.9330954 L19.9218006,67.9923954 C13.9771511,71.2026314 10.285069,77.3001345 10.285069,83.9095129 L10.285069,95.1974874 C10.285069,101.811788 13.9825904,107.913744 19.9348076,111.121636 L33.6710936,118.52578 C35.4603771,119.490234 37.4771639,120 39.5036469,120 C43.9910449,120 48.109755,117.574921 50.252591,113.670934 C53.4698012,107.807806 51.2801402,100.445146 45.3719101,97.2478009 L31.0136553,89.2063906 L42.3486218,83.4974814 C42.3682504,83.4874033 42.3881156,83.4773251 42.4075078,83.4667783 C48.359725,80.2584173 52.0574828,74.156461 52.0574828,67.5423951 L52.0574828,56.2544206 C52.0574828,49.6408235 48.359725,43.5388673 42.4077443,40.3302719 Z" id="Fill-40" stroke="#22293B" stroke-width="2" fill="#BD2A74"></path>
                    <path d="M95.9630366,75.5327117 L82.2267506,82.9368561 C81.1315653,83.527247 79.8992158,83.8392003 78.662846,83.8392003 C75.916251,83.8392003 73.3957404,82.3556058 72.0848763,79.9673234 C70.1146779,76.377634 71.4588872,71.8684911 75.0809683,69.9161464 C75.0923198,69.9100526 75.1036713,69.9039588 75.1147863,69.8976307 L92.5057891,60.1574695 C92.5164311,60.1520789 92.5275462,60.1483289 92.5381882,60.1429383 L103.133414,54.5847323 L103.133414,63.7420026 C103.133414,68.6310676 100.386109,73.1488824 95.9630366,75.5327117 Z M77.9994915,47.8628539 C74.4715335,45.951056 72.0162942,42.6794137 71.1765181,38.9474587 C71.3666561,38.9026931 71.5544292,38.8347243 71.735344,38.7402711 L82.4386456,33.1605026 L95.9370227,40.6490221 C95.9455363,40.6537096 95.9538135,40.6583971 95.9625636,40.6628502 C99.458832,42.5472262 101.90674,45.7654309 102.779861,49.4460578 L92.1820342,55.00567 L77.9994915,47.8628539 Z M78.0276339,13.0084611 L91.7636834,5.60431671 C95.3862375,3.65173759 99.9360689,4.98439452 101.905794,8.57384948 C103.875756,12.1635388 102.531783,16.6726817 98.9094657,18.6252608 C98.8997696,18.6306515 98.89031,18.6358077 98.8806139,18.6411984 L81.3077504,28.4315158 C81.3013651,28.4350315 81.2956894,28.439719 81.2895406,28.4432346 L70.8570201,33.8816749 L70.8570201,24.7989359 C70.8570201,19.910574 73.6045611,15.3927592 78.0276339,13.0084611 Z M107.881424,63.7420026 L107.881424,52.4540281 C107.881424,45.8444153 104.188632,39.7464435 98.2437463,36.5364418 L87.3231104,30.477845 L101.193013,22.7502629 C107.103372,19.5538551 109.294452,12.1897888 106.076769,6.32548895 C102.856011,0.456735964 95.4176906,-1.7215464 89.4952712,1.47040836 L75.7589851,8.87455275 C69.806768,12.0831481 66.1092466,18.1851044 66.1092466,24.7989359 L66.1092466,36.0869104 C66.1092466,42.7009762 69.8070044,48.8029325 75.7589851,52.0112935 C75.7783773,52.0218404 75.7982425,52.0319185 75.8178712,52.0419966 L87.1528376,57.7509058 L72.7945828,65.7925505 C66.8863528,68.9898959 64.6966917,76.3525559 67.9141384,82.2156839 C70.0567379,86.1196702 74.175448,88.5447496 78.662846,88.5447496 C80.689329,88.5447496 82.7061158,88.0349837 84.4953993,87.0705301 L98.2314488,79.6663857 C104.183903,76.4582591 107.881424,70.3565372 107.881424,63.7420026 Z" id="Fill-42" stroke="#22293B" stroke-width="2" fill="#BD2A74"></path>
                    <path d="M44.8951462,20.5447931 C41.7933432,20.5447931 39.2697582,18.0437762 39.2697582,14.9697121 C39.2697582,11.895648 41.7931067,9.39463114 44.8951462,9.39463114 C47.9969493,9.39463114 50.5207707,11.8954137 50.5207707,14.9697121 C50.5207707,18.0437762 47.9969493,20.5447931 44.8951462,20.5447931 M44.8951462,4.68931625 C39.1753987,4.68931625 34.5219847,9.30111547 34.5219847,14.9697121 C34.5219847,20.6385431 39.1753987,25.250108 44.8951462,25.250108 C50.6151302,25.250108 55.2685443,20.6383087 55.2685443,14.9697121 C55.2685443,9.30111547 50.6151302,4.68931625 44.8951462,4.68931625" id="Fill-44" stroke="#22293B" stroke-width="2" fill="#BD2A74"></path>
                    <path d="M108.63157,97.5210823 C105.529767,97.5210823 103.006182,95.0200654 103.006182,91.9460013 C103.006182,88.8719373 105.529531,86.3709204 108.63157,86.3709204 C111.733373,86.3709204 114.256958,88.8719373 114.256958,91.9460013 C114.256958,95.0200654 111.73361,97.5210823 108.63157,97.5210823 M108.63157,81.6653711 C102.911823,81.6653711 98.2584087,86.2771703 98.2584087,91.945767 C98.2584087,97.614598 102.911823,102.226163 108.63157,102.226163 C114.351318,102.226163 119.004732,97.6143636 119.004732,91.945767 C119.004732,86.2771703 114.351318,81.6653711 108.63157,81.6653711" id="Fill-46" stroke="#22293B" stroke-width="2" fill="#BD2A74"></path>
                </g>
            </g>
        </g>
    </g>
</svg>