<svg width="16" height="16" viewBox="0 0 16 16" fill="none" xmlns="http://www.w3.org/2000/svg">
<path fill-rule="evenodd" clip-rule="evenodd" d="M14.2225 12.4448V1.77781L3.55561 1.77789C3.55561 1.30629 3.74296 0.854195 4.07631 0.520703C4.40981 0.187358 4.86205 0 5.33349 0H14.2225C14.6941 0 15.1462 0.187358 15.4797 0.520703C15.8131 0.854199 16.0004 1.30629 16.0004 1.77789V10.6669C16.0004 11.1384 15.8131 11.5906 15.4797 11.9241C15.1462 12.2575 14.6941 12.4448 14.2225 12.4448ZM1.77789 3.55515H10.6669C11.1384 3.55515 11.5906 3.74251 11.9241 4.07585C12.2575 4.40935 12.4448 4.86159 12.4448 5.33303V14.2221C12.4448 14.6937 12.2575 15.1458 11.9241 15.4793C11.5906 15.8126 11.1384 16 10.6669 16H1.77789C1.30629 16 0.854195 15.8126 0.520703 15.4793C0.187358 15.1458 0 14.6937 0 14.2221V5.33303C0 4.86159 0.187358 4.40934 0.520703 4.07585C0.854199 3.74251 1.30629 3.55515 1.77789 3.55515Z" fill="#969696"/>
</svg>
