<?xml version="1.0" encoding="UTF-8"?>
<svg width="102px" height="102px" viewBox="0 0 102 102" version="1.1" xmlns="http://www.w3.org/2000/svg" xmlns:xlink="http://www.w3.org/1999/xlink">
    <title>D081EB83-CB7A-46E7-80AE-98225C3E7D38</title>
    <defs>
        <linearGradient x1="50%" y1="0%" x2="50%" y2="100%" id="linearGradient-1">
            <stop stop-color="#F52F8E" offset="0%"></stop>
            <stop stop-color="#262C40" offset="100%"></stop>
        </linearGradient>
        <linearGradient x1="50%" y1="0%" x2="50%" y2="100%" id="linearGradient-2">
            <stop stop-color="#F52F8E" offset="0%"></stop>
            <stop stop-color="#262C40" offset="100%"></stop>
        </linearGradient>
    </defs>
    <g id="Dark" stroke="none" stroke-width="1" fill="none" fill-rule="evenodd" opacity="0.75">
        <g id="Profile-Details" transform="translate(-669.000000, -505.000000)" stroke="#F52F8E" stroke-width="2">
            <g id="Group-5" transform="translate(520.000000, 506.000000)">
                <g id="Group-10" transform="translate(150.000000, 0.000000)">
                    <path d="M56.384712,67.6979894 L65.7456568,77.0613043 L77.1267204,65.6777807 L67.7521037,56.3027465 C64.7677264,60.821506 60.8952624,64.7037131 56.384712,67.6979894" id="Fill-1" fill="#262C40"></path>
                    <path d="M81.1201024,85.1929228 L76.9783023,81.0528915 L81.1201024,76.9128601 L85.2599494,81.0528915 L81.1201024,85.1929228 Z M50.6968365,85.1929228 L46.5552317,81.0528915 L50.6968365,76.9128601 L54.8366835,81.0528915 L50.6968365,85.1929228 Z M81.1201024,54.8602984 L76.9783023,50.7183138 L81.1201024,46.5782825 L85.2599494,50.7183138 L81.1201024,54.8602984 Z M74.3335737,32.5772574 C74.5970505,38.8416038 73.3382604,45.2834972 70.7130631,50.9818023 L85.4062386,65.6777807 L65.7456764,85.3433202 L51.0737899,70.6688272 C45.3480042,73.3253929 38.8890148,74.5979115 32.5804161,74.3324698 C36.4019034,89.0792317 49.8206639,100.000039 65.7456764,100.000039 C84.6333864,100.000039 100,84.6327412 100,65.74419 C100,49.8184683 89.079679,36.3991103 74.3335737,32.5772574 Z" id="Fill-3" fill-opacity="0.75" fill="url(#linearGradient-1)"></path>
                    <g id="Group-7" fill="url(#linearGradient-2)" fill-opacity="0.75">
                        <path d="M19.2084134,53.7067305 L15.0679805,49.5666991 L19.2084134,45.4247146 L23.3488464,49.5666991 L19.2084134,53.7067305 Z M34.2588158,14.5260488 L53.9221124,34.1896352 L34.2588158,53.8549794 L14.5957145,34.1896352 L34.2588158,14.5260488 Z M19.2084134,15.0901369 L23.3488464,19.2321215 L19.2084134,23.3721528 L15.0679805,19.2321215 L19.2084134,15.0901369 Z M49.6353903,15.0901369 L53.7756279,19.2321215 L49.6353903,23.3721528 L45.4949574,19.2321215 L49.6353903,15.0901369 Z M49.6353903,53.7067305 L45.4949574,49.5666991 L49.6353903,45.4247146 L53.7756279,49.5666991 L49.6353903,53.7067305 Z M68.4160691,31.5897127 C67.0438024,14.0221198 51.9025796,0 34.2588158,0 C15.3685667,0 0,15.3672979 0,34.2560444 C0,52.9240778 15.6127075,68.5118935 34.2588158,68.5118935 C53.7918389,68.5118935 69.8807187,51.0122724 68.4160691,31.5897127 L68.4160691,31.5897127 Z" id="Fill-5"></path>
                    </g>
                    <polygon id="Fill-8" fill="#262C40" points="22.8717171 34.1903969 34.2514135 22.8101937 45.6313052 34.1903969 34.2514135 45.5706001"></polygon>
                </g>
            </g>
        </g>
    </g>
</svg>