<svg width="41" height="32" viewBox="0 0 41 32" fill="none" xmlns="http://www.w3.org/2000/svg">
<path d="M34.5389 2.57798C31.8937 1.36377 29.1023 0.49794 26.2342 0.00213706C26.2082 -0.00272324 26.1812 0.00075504 26.1574 0.0120787C26.1334 0.0234024 26.1135 0.0419936 26.1008 0.0652071C25.7421 0.703215 25.3448 1.53537 25.0667 2.18936C21.9307 1.71982 18.8107 1.71982 15.7391 2.18936C15.461 1.52075 15.0493 0.703215 14.689 0.0652071C14.6757 0.0425223 14.6558 0.0243867 14.632 0.013165C14.6082 0.00194498 14.5816 -0.00183922 14.5556 0.00230708C11.6873 0.496954 8.89559 1.36271 6.25073 2.57781C6.2281 2.58748 6.20905 2.60393 6.19616 2.6249C0.906787 10.5272 -0.542293 18.2352 0.168647 25.8477C0.170656 25.8662 0.176387 25.8842 0.185497 25.9007C0.194609 25.917 0.206914 25.9315 0.221687 25.9429C3.71144 28.5058 7.09189 30.0618 10.4096 31.093C10.4354 31.1007 10.463 31.1003 10.4885 31.0918C10.5141 31.0835 10.5365 31.0675 10.5528 31.0461C11.3375 29.9744 12.037 28.8442 12.637 27.656C12.6452 27.6396 12.6499 27.6218 12.6508 27.6036C12.6516 27.5854 12.6486 27.567 12.6419 27.5502C12.6353 27.5332 12.6251 27.5177 12.612 27.505C12.599 27.4922 12.5834 27.4826 12.5662 27.4763C11.4565 27.0553 10.3999 26.5421 9.38349 25.9594C9.36496 25.9483 9.34939 25.9332 9.33817 25.9148C9.32693 25.8965 9.32039 25.8757 9.31911 25.8541C9.31784 25.8327 9.32187 25.8113 9.33084 25.7917C9.33982 25.7722 9.35347 25.7552 9.37057 25.7423C9.58443 25.582 9.79846 25.4152 10.0026 25.2467C10.0208 25.2318 10.0428 25.2222 10.0661 25.219C10.0894 25.2159 10.1131 25.2193 10.1346 25.2289C16.8118 28.2775 24.0406 28.2775 30.6389 25.2289C30.6604 25.2187 30.6843 25.2148 30.708 25.2176C30.7316 25.2205 30.754 25.2301 30.7724 25.2452C30.9767 25.4135 31.1906 25.582 31.4061 25.7423C31.4233 25.755 31.4371 25.772 31.4461 25.7914C31.4553 25.8108 31.4594 25.8322 31.4583 25.8536C31.4571 25.875 31.4509 25.8959 31.4398 25.9143C31.4288 25.9327 31.4133 25.9481 31.3949 25.9592C30.3782 26.553 29.3129 27.0599 28.2108 27.4746C28.1937 27.481 28.1782 27.4911 28.1653 27.5041C28.1523 27.5171 28.1421 27.5325 28.1357 27.5497C28.1292 27.5669 28.1263 27.5851 28.1274 27.6034C28.1284 27.6218 28.1333 27.6396 28.1416 27.656C28.7543 28.8426 29.4539 29.9727 30.2241 31.0444C30.2399 31.0665 30.2622 31.083 30.2879 31.0918C30.3136 31.1005 30.3413 31.1008 30.3673 31.093C33.701 30.0615 37.0814 28.5058 40.5712 25.9429C40.5861 25.932 40.5987 25.9179 40.6079 25.9017C40.6171 25.8856 40.6227 25.8676 40.6244 25.8492C41.4751 17.0483 39.1995 9.40348 34.5919 2.62643C34.5807 2.60441 34.5619 2.58716 34.5389 2.57781V2.57798ZM13.634 21.2124C11.6238 21.2124 9.96727 19.3668 9.96727 17.1001C9.96727 14.8336 11.5916 12.9879 13.6342 12.9879C15.6925 12.9879 17.3329 14.8498 17.3007 17.1003C17.3007 19.3668 15.6764 21.2124 13.634 21.2124ZM27.1912 21.2124C25.1809 21.2124 23.5244 19.3668 23.5244 17.1001C23.5244 14.8336 25.1486 12.9879 27.1912 12.9879C29.2495 12.9879 30.8899 14.8498 30.8577 17.1003C30.8577 19.3668 29.2495 21.2124 27.1912 21.2124Z" fill="#171B27"/>
</svg>
