<svg width="39" height="38" viewBox="0 0 39 38" xmlns="http://www.w3.org/2000/svg">
<path fill-rule="evenodd" clip-rule="evenodd" d="M1.24475 4.446C0.357178 6.18857 0.357178 8.46857 0.357178 13.0286V24.9714C0.357178 29.5314 0.357178 31.8114 1.24475 33.554C2.02542 35.0861 3.27107 36.3318 4.80318 37.1124C6.54575 38 8.82575 38 13.3857 38H25.3286C29.8886 38 32.1686 38 33.9112 37.1124C35.4433 36.3318 36.6889 35.0861 37.4696 33.554C38.3572 31.8114 38.3572 29.5314 38.3572 24.9714V13.0286C38.3572 8.46857 38.3572 6.18857 37.4696 4.446C36.6889 2.91389 35.4433 1.66824 33.9112 0.887571C32.1686 8.0892e-08 29.8886 0 25.3286 0H13.3857C8.82575 0 6.54575 8.0892e-08 4.80318 0.887571C3.27107 1.66824 2.02542 2.91389 1.24475 4.446ZM23.4652 8.14286C26.0682 8.28807 28.5342 9.15664 30.5875 10.8938C32.9164 15.5257 34.15 20.7371 34.2857 26.0938C32.231 28.4091 29.3552 29.8571 26.3424 29.8571C26.3424 29.8571 25.3829 28.6995 24.6989 27.6857C26.4795 27.2514 28.123 26.2376 29.2182 24.6457C28.26 25.2252 27.3005 25.8034 26.341 26.2376C25.1087 26.8171 23.8765 27.1062 22.6442 27.3966C21.549 27.5405 20.4524 27.6857 19.3572 27.6857C18.262 27.6857 17.1654 27.5405 16.0702 27.3966C14.8379 27.1062 13.6056 26.8171 12.372 26.2376C11.4138 25.8034 10.4543 25.2252 9.49618 24.6457C10.5914 26.2376 12.2349 27.2514 14.0155 27.6857C13.3315 28.6995 12.3733 29.8571 12.3733 29.8571C9.35911 29.8571 6.48332 28.4091 4.42861 26.0938C4.56432 20.7371 5.79932 15.5257 8.12682 10.8938C10.1815 9.15664 12.6461 8.28807 15.2491 8.14286L15.659 8.57714C13.3315 9.15664 11.2754 10.3143 9.35911 11.9062C11.688 10.6034 14.2896 9.73479 17.0283 9.44571C17.8507 9.3005 18.5347 9.3005 19.3572 9.3005C20.1782 9.3005 20.8636 9.3005 21.686 9.44571C24.4247 9.73479 27.0264 10.6034 29.3552 11.9062C27.4376 10.3143 25.3829 9.15664 23.0554 8.57714L23.4652 8.14286ZM12.2349 20.5919C12.2349 22.1852 13.4685 23.4881 14.8379 23.4881C16.2072 23.4881 17.4395 22.1852 17.4395 20.5919C17.4395 19 16.2072 17.6971 14.8379 17.6971C13.4672 17.6971 12.2349 19 12.2349 20.5919ZM21.2735 20.5919C21.2735 22.1852 22.5085 23.4881 23.8765 23.4881C25.2472 23.4881 26.4795 22.1852 26.4795 20.5919C26.4795 19 25.2458 17.6971 23.8765 17.6971C22.5071 17.6971 21.2748 19 21.2748 20.5919H21.2735Z"/>
</svg>
