<svg width="100%" height="100%" viewBox="0 0 25 24" fill="none" xmlns="http://www.w3.org/2000/svg">
<path d="M18.8052 11.25H6.80518C6.60626 11.25 6.4155 11.329 6.27485 11.4697C6.13419 11.6103 6.05518 11.8011 6.05518 12C6.05518 12.1989 6.13419 12.3897 6.27485 12.5303C6.4155 12.671 6.60626 12.75 6.80518 12.75H18.8052C19.0041 12.75 19.1949 12.671 19.3355 12.5303C19.4762 12.3897 19.5552 12.1989 19.5552 12C19.5552 11.8011 19.4762 11.6103 19.3355 11.4697C19.1949 11.329 19.0041 11.25 18.8052 11.25Z" fill="black"/>
<path d="M22.5552 6.75H3.05518C2.85626 6.75 2.6655 6.82902 2.52485 6.96967C2.38419 7.11032 2.30518 7.30109 2.30518 7.5C2.30518 7.69891 2.38419 7.88968 2.52485 8.03033C2.6655 8.17098 2.85626 8.25 3.05518 8.25H22.5552C22.7541 8.25 22.9449 8.17098 23.0855 8.03033C23.2262 7.88968 23.3052 7.69891 23.3052 7.5C23.3052 7.30109 23.2262 7.11032 23.0855 6.96967C22.9449 6.82902 22.7541 6.75 22.5552 6.75Z" fill="black"/>
<path d="M15.0552 15.75H10.5552C10.3563 15.75 10.1655 15.829 10.0248 15.9697C9.88419 16.1103 9.80518 16.3011 9.80518 16.5C9.80518 16.6989 9.88419 16.8897 10.0248 17.0303C10.1655 17.171 10.3563 17.25 10.5552 17.25H15.0552C15.2541 17.25 15.4449 17.171 15.5855 17.0303C15.7262 16.8897 15.8052 16.6989 15.8052 16.5C15.8052 16.3011 15.7262 16.1103 15.5855 15.9697C15.4449 15.829 15.2541 15.75 15.0552 15.75Z" fill="black"/>
</svg>
