<svg width="20" height="20" viewBox="0 0 20 20" fill="none" xmlns="http://www.w3.org/2000/svg">
<path d="M8.85417 0.195313C8.89323 0.078125 9.01042 0 9.16667 0C9.28386 0 9.40104 0.078125 9.44011 0.195313L9.98698 1.67969L11.4714 2.22656C11.5885 2.26563 11.6667 2.38281 11.6667 2.5C11.6667 2.65625 11.5885 2.77344 11.4714 2.8125L9.98698 3.35938L9.44011 4.80469C9.40104 4.92188 9.28386 5 9.16667 5C9.01042 5 8.89323 4.92188 8.85417 4.80469L8.30729 3.35938L6.82292 2.8125C6.70573 2.77344 6.66667 2.65625 6.66667 2.5C6.66667 2.38281 6.70573 2.26563 6.82292 2.22656L8.30729 1.67969L8.85417 0.195313Z" fill="#F4F6FB" fill-opacity="0.7"/>
<path d="M15.3125 3.65885C15.3776 3.46354 15.5729 3.33333 15.8333 3.33333C16.0286 3.33333 16.224 3.46354 16.2891 3.65885L17.2005 6.13281L19.6745 7.04427C19.8698 7.10938 20 7.30469 20 7.5C20 7.76042 19.8698 7.95573 19.6745 8.02083L17.2005 8.93229L16.2891 11.3411C16.224 11.5365 16.0286 11.6667 15.8333 11.6667C15.5729 11.6667 15.3776 11.5365 15.3125 11.3411L14.401 8.93229L11.9271 8.02083C11.7318 7.95573 11.6667 7.76042 11.6667 7.5C11.6667 7.30469 11.7318 7.10938 11.9271 7.04427L14.401 6.13281L15.3125 3.65885Z" fill="#F4F6FB" fill-opacity="0.7"/>
<path d="M5.83333 7.1875C5.9375 6.875 6.25 6.66667 6.66667 6.66667C6.97917 6.66667 7.29167 6.875 7.39583 7.1875L8.85417 11.1458L12.8125 12.6042C13.125 12.7083 13.3333 13.0208 13.3333 13.3333C13.3333 13.75 13.125 14.0625 12.8125 14.1667L8.85417 15.625L7.39583 19.4792C7.29167 19.7917 6.97917 20 6.66667 20C6.25 20 5.9375 19.7917 5.83333 19.4792L4.375 15.625L0.416667 14.1667C0.104167 14.0625 0 13.75 0 13.3333C0 13.0208 0.104167 12.7083 0.416667 12.6042L4.375 11.1458L5.83333 7.1875Z" fill="#F4F6FB" fill-opacity="0.7"/>
</svg>
