<svg width="20" height="17" viewBox="0 0 20 17" fill="none" xmlns="http://www.w3.org/2000/svg">
<path d="M18.75 0.333496C19.4141 0.333496 20 0.891532 20 1.52397C20 2.19362 19.4141 2.71445 18.75 2.71445H1.25C0.546875 2.71445 0 2.19362 0 1.52397C0 0.891532 0.546875 0.333496 1.25 0.333496H18.75ZM1.25 3.90492H18.75V14.6192C19.4141 14.6192 20 15.1772 20 15.8097C20 16.4793 19.4141 17.0002 18.75 17.0002C12.9167 17.0002 7.08333 17.0002 1.25 17.0002C0.546875 17.0002 0 16.4793 0 15.8097C0 15.1772 0.546875 14.6192 1.25 14.6192V3.90492Z" fill="#F4F6FB" fill-opacity="0.7"/>
</svg>
