<svg width="100%" height="100%" viewBox="0 0 20 20" fill="none" xmlns="http://www.w3.org/2000/svg">
<path d="M10 0L12.0706 2.27259L15 1.33975L15.6569 4.34315L18.6603 5L17.7274 7.92945L20 10L17.7274 12.0706L18.6603 15L15.6569 15.6569L15 18.6603L12.0706 17.7274L10 20L7.92945 17.7274L5 18.6603L4.34315 15.6569L1.33975 15L2.27259 12.0706L0 10L2.27259 7.92945L1.33975 5L4.34315 4.34315L5 1.33975L7.92945 2.27259L10 0Z" fill="url(#paint0_linear_913_9734)"/>
<path d="M14.798 9.70309C14.7933 9.65137 14.7693 9.6033 14.7309 9.56838C14.6924 9.53346 14.6423 9.51424 14.5903 9.51451H10.235C9.94795 8.41461 8.94901 7.59961 7.76039 7.59961C6.34854 7.59961 5.2002 8.74795 5.2002 10.1598C5.2002 11.572 6.34854 12.72 7.76039 12.72C9.02327 12.72 10.0724 11.8006 10.2806 10.5968H11.2506V11.9779H11.2521C11.2559 12.0306 11.2794 12.0798 11.318 12.1158C11.3566 12.1518 11.4074 12.1719 11.4602 12.1719C11.4631 12.1719 11.4656 12.1713 11.4685 12.1711V12.1724H12.1416V12.172C12.1944 12.172 12.2452 12.152 12.2838 12.116C12.3224 12.08 12.346 12.0307 12.3497 11.978H12.3515V10.5969H12.9009V12.7324H12.9025C12.9063 12.785 12.9299 12.8343 12.9685 12.8703C13.0071 12.9063 13.0579 12.9264 13.1107 12.9266L13.113 12.9263H13.7875L13.7898 12.9266C13.8426 12.9264 13.8933 12.9063 13.9319 12.8702C13.9705 12.8342 13.9941 12.785 13.998 12.7324H13.9997V10.5968H14.5905V10.5965C14.6461 10.5965 14.6994 10.5743 14.7387 10.535C14.778 10.4957 14.8001 10.4424 14.8002 10.3868H14.8001V9.70298H14.798V9.70309ZM7.76039 11.6459C6.95069 11.6459 6.29193 10.9867 6.29193 10.1771C6.29193 9.36742 6.95069 8.70834 7.76039 8.70834C8.56998 8.70834 9.2284 9.36742 9.2284 10.1771C9.22851 10.9868 8.56998 11.6459 7.76039 11.6459Z" fill="black"/>
<defs>
<linearGradient id="paint0_linear_913_9734" x1="10" y1="0" x2="10" y2="20" gradientUnits="userSpaceOnUse">
<stop offset="0.299479" stop-color="#F661A7"/>
<stop offset="0.703125" stop-color="#00A4FF"/>
</linearGradient>
</defs>
</svg>