<svg width="34" height="34" viewBox="0 0 34 34" fill="none" xmlns="http://www.w3.org/2000/svg">
<path d="M17 34C26.3888 34 34 26.3888 34 17C34 7.61116 26.3888 0 17 0C7.61116 0 0 7.61116 0 17C0 26.3888 7.61116 34 17 34Z" fill="url(#paint0_linear_1228_1270)"/>
<path d="M27.8754 15.5751C27.8652 15.4626 27.8131 15.3581 27.7294 15.2821C27.6458 15.2062 27.5367 15.1644 27.4238 15.165H17.9507C17.3265 12.7726 15.1538 11 12.5685 11C9.49768 11 7 13.4977 7 16.5685C7 19.64 9.49768 22.137 12.5685 22.137C15.3153 22.137 17.5972 20.1373 18.0501 17.5189H20.1597V20.523H20.163C20.1712 20.6375 20.2225 20.7446 20.3064 20.8229C20.3904 20.9012 20.5009 20.9447 20.6157 20.9449C20.6219 20.9449 20.6274 20.9434 20.6337 20.9432V20.9458H22.0977V20.9451C22.2125 20.9451 22.3231 20.9016 22.4071 20.8233C22.4911 20.745 22.5422 20.6377 22.5503 20.5232H22.5542V17.5191H23.7491V22.1638H23.7527C23.7611 22.2784 23.8124 22.3855 23.8963 22.4638C23.9803 22.5422 24.0908 22.5859 24.2056 22.5862L24.2106 22.5858H25.6775L25.6826 22.5862C25.7974 22.5858 25.9078 22.5421 25.9918 22.4638C26.0757 22.3855 26.127 22.2783 26.1354 22.1638H26.139V17.5189H27.4242V17.5184C27.5452 17.5182 27.6611 17.4701 27.7466 17.3845C27.832 17.299 27.8801 17.1831 27.8802 17.0622H27.88V15.5749H27.8754V15.5751ZM12.5685 19.8008C10.8074 19.8008 9.37456 18.367 9.37456 16.6062C9.37456 14.845 10.8074 13.4115 12.5685 13.4115C14.3294 13.4115 15.7614 14.845 15.7614 16.6062C15.7617 18.3673 14.3294 19.8008 12.5685 19.8008Z" fill="white"/>
<defs>
<linearGradient id="paint0_linear_1228_1270" x1="17" y1="0" x2="17" y2="34" gradientUnits="userSpaceOnUse">
<stop stop-color="#262D41"/>
<stop offset="1" stop-color="#11131C"/>
</linearGradient>
</defs>
</svg>
