<svg width="24" height="24" viewBox="0 0 24 24" fill="none" xmlns="http://www.w3.org/2000/svg">
<g clip-path="url(#clip0_1376_16844)">
<path fill-rule="evenodd" clip-rule="evenodd" d="M16.7695 4.2498H17.9843C18.7225 4.25078 19.4302 4.54456 19.9522 5.06666C20.4741 5.58876 20.7677 6.29659 20.7685 7.03481V8.24962C20.7676 8.61039 20.9109 8.95634 21.1667 9.21063L22.2047 10.2477C22.7261 10.7706 23.0191 11.4789 23.0191 12.2173C23.0191 12.9557 22.7262 13.664 22.2047 14.1869L21.1676 15.224C20.9119 15.4783 20.7685 15.8243 20.7693 16.185V17.3989C20.7686 18.1373 20.4749 18.8453 19.9528 19.3674C19.4307 19.8895 18.7227 20.1832 17.9843 20.184H16.7695C16.4087 20.1831 16.0628 20.3265 15.8085 20.5822L14.7714 21.6202C14.2486 22.142 13.5403 22.435 12.8018 22.435C12.0633 22.435 11.3549 22.142 10.8322 21.6202L9.79511 20.5831C9.54082 20.3274 9.19485 20.184 8.8341 20.1848H7.62022C6.88184 20.1842 6.17385 19.8904 5.65175 19.3683C5.12963 18.8462 4.83587 18.1382 4.83507 17.3998V16.185C4.83603 15.8242 4.69265 15.4783 4.43692 15.224L3.39891 14.1869C2.87744 13.664 2.58447 12.9557 2.58447 12.2173C2.58447 11.4789 2.87742 10.7706 3.39891 10.2477L4.43692 9.21064C4.69233 8.95618 4.83539 8.61022 4.83428 8.24962V7.03575C4.83493 6.29737 5.12869 5.58938 5.65079 5.06728C6.17289 4.54516 6.88088 4.25139 7.61926 4.2506H8.83407C9.19485 4.25156 9.54079 4.10817 9.79509 3.85245L10.8322 2.81444C11.3551 2.29296 12.0634 2 12.8018 2C13.5402 2 14.2485 2.29295 14.7714 2.81444L15.8085 3.85245C16.0629 4.10786 16.4089 4.25092 16.7695 4.2498ZM11.8513 13.1097L15.1497 9.81211C15.3318 9.64263 15.5889 9.58009 15.8284 9.6474C16.0677 9.71454 16.2549 9.90169 16.3222 10.1412C16.3893 10.3807 16.3268 10.6378 16.1573 10.8197V10.8199L12.3551 14.6221C12.2216 14.7559 12.0404 14.8313 11.8513 14.8313C11.6621 14.8313 11.4809 14.7559 11.3475 14.6221L9.44636 12.7209C9.27688 12.5388 9.21434 12.2817 9.28149 12.0422C9.34879 11.8029 9.53594 11.6157 9.77528 11.5484C10.0148 11.4813 10.2719 11.5438 10.454 11.7133L11.8513 13.1097Z" fill="url(#paint0_linear_1376_16844)"/>
</g>
<defs>
<linearGradient id="paint0_linear_1376_16844" x1="2.58447" y1="12.145" x2="23.0191" y2="12.145" gradientUnits="userSpaceOnUse">
<stop stop-color="#FAC213"/>
<stop offset="1" stop-color="#FF9B37"/>
</linearGradient>
<clipPath id="clip0_1376_16844">
<rect width="24" height="24" fill="white"/>
</clipPath>
</defs>
</svg>
