<svg width="100%" height="100%" viewBox="0 0 18 16" fill="none" xmlns="http://www.w3.org/2000/svg">
<path d="M9 15.84C9 15.84 0 10.8 0 4.68001C0 3.59811 0.374845 2.54962 1.06076 1.71294C1.74667 0.876259 2.70128 0.303068 3.76218 0.0908897C4.82307 -0.121289 5.92471 0.0406519 6.87966 0.549159C7.83461 1.05767 8.58388 1.88133 9 2.88001C9.41612 1.88133 10.1654 1.05767 11.1203 0.549159C12.0753 0.0406519 13.1769 -0.121289 14.2378 0.0908897C15.2987 0.303068 16.2533 0.876259 16.9392 1.71294C17.6252 2.54962 18 3.59811 18 4.68001C18 10.8 9 15.84 9 15.84Z" fill="current"/>
</svg>
