<svg width="16" height="18" viewBox="0 0 16 18" fill="none" xmlns="http://www.w3.org/2000/svg">
<path d="M11.25 15.75H5.34375C4.25391 15.75 3.375 14.8711 3.375 13.7812V3.375H0.84375C0.351562 3.375 0 3.76172 0 4.21875V17.1562C0 17.6484 0.351562 18 0.84375 18H10.4062C10.8633 18 11.25 17.6484 11.25 17.1562V15.75ZM11.25 3.65625V0H5.34375C4.85156 0 4.5 0.386719 4.5 0.84375V13.7812C4.5 14.2734 4.85156 14.625 5.34375 14.625H14.9062C15.3633 14.625 15.75 14.2734 15.75 13.7812V4.5H12.0938C11.6016 4.5 11.25 4.14844 11.25 3.65625ZM15.4688 2.56641L13.1836 0.28125C13.0078 0.105469 12.7969 0 12.5859 0H12.375V3.375H15.75V3.16406C15.75 2.95312 15.6445 2.74219 15.4688 2.56641Z" fill="#F4F6FB" fill-opacity="0.5"/>
</svg>
