<svg width="100%" height="100%" viewBox="0 0 24 24" fill="none" xmlns="http://www.w3.org/2000/svg">
<path d="M12.0993 5.00002C9.5811 4.9939 7.45946 6.27135 5.71652 8.3611C5.11994 9.07546 4.59824 9.83879 4.17442 10.6012C3.91741 11.0629 3.76082 11.4196 3.66891 11.64C3.577 11.8595 3.577 12.1305 3.66891 12.35C3.76082 12.5703 3.91741 12.9271 4.17442 13.3887C4.51569 14.0034 4.91398 14.6295 5.37099 15.2197C5.44333 15.3132 6.01778 15.983 6.51479 16.5032L5.53015 17.4869C5.19824 17.8288 5.19824 18.4024 5.53015 18.7442C5.86291 19.0853 6.42118 19.0853 6.75394 18.7442L18.6685 6.50306C19.0004 6.16118 19.0004 5.5876 18.6685 5.24573C18.5017 5.07522 18.2745 5.00002 18.0566 5.00002C17.8388 5.00002 17.6115 5.07522 17.4447 5.24573L16.3545 6.39376C14.9478 5.42671 13.5487 5.00352 12.0993 5.00002ZM12.0993 8.4975C12.5402 8.4975 13.2134 8.6173 13.8278 8.98891L12.5249 10.3284C12.3912 10.2567 12.1368 10.2462 12.0993 10.2462C11.1589 10.2462 10.3973 11.0288 10.3973 11.995C10.3973 12.0335 10.3853 12.2984 10.4236 12.4593C10.2602 12.663 9.14708 13.7708 9.14708 13.7708C8.85091 13.241 8.69857 12.6018 8.69517 11.995C8.68581 10.0635 10.2194 8.4975 12.0993 8.4975ZM18.8549 8.79828C18.8549 8.79828 10.553 17.2954 9.43983 18.4435C10.6653 18.9427 11.9232 18.99 12.0993 18.99C14.6176 18.99 16.7392 17.7186 18.4822 15.6289C19.0787 14.9145 19.6004 14.1512 20.0242 13.3887C20.2813 12.9271 20.4379 12.5703 20.5298 12.35C20.6225 12.1279 20.6242 11.8612 20.5298 11.64C20.3366 11.1853 19.9732 10.4622 19.4132 9.61758C19.2626 9.39112 18.8549 8.79828 18.8549 8.79828Z" />
</svg>
