<svg width="522" height="625" viewBox="0 0 522 625" xmlns="http://www.w3.org/2000/svg">
<path d="M391.42 0H305.875C305.146 0 304.492 0.449257 304.23 1.13017L108.923 508.603C108.478 509.758 109.331 511 110.568 511H193.683C194.41 511 195.063 510.554 195.327 509.877L393.063 2.40395C393.514 1.24765 392.661 0 391.42 0Z" fill="white"/>
<path d="M283.42 57H197.875C197.146 57 196.492 57.4493 196.23 58.1302L0.922552 565.603C0.477943 566.758 1.33065 568 2.5685 568H85.6835C86.4104 568 87.0629 567.554 87.3268 566.877L285.063 59.4039C285.514 58.2477 284.661 57 283.42 57Z" fill="white"/>
<path d="M443.42 88H357.875C357.146 88 356.492 88.4493 356.23 89.1302L160.923 596.603C160.478 597.758 161.331 599 162.568 599H245.683C246.41 599 247.063 598.554 247.327 597.877L445.063 90.4039C445.514 89.2477 444.661 88 443.42 88Z" fill="white"/>
<path d="M543.42 49H457.875C457.146 49 456.492 49.4493 456.23 50.1302L260.923 557.603C260.478 558.758 261.331 560 262.568 560H345.683C346.41 560 347.063 559.554 347.327 558.877L545.063 51.4039C545.514 50.2477 544.661 49 543.42 49Z" fill="white"/>
<path d="M601.42 114H515.875C515.146 114 514.492 114.449 514.23 115.13L318.923 622.603C318.478 623.758 319.331 625 320.568 625H403.683C404.41 625 405.063 624.554 405.327 623.877L603.063 116.404C603.514 115.248 602.661 114 601.42 114Z" fill="white"/>
<path d="M702.42 73H616.875C616.146 73 615.492 73.4493 615.23 74.1302L419.923 581.603C419.478 582.758 420.331 584 421.568 584H504.683C505.41 584 506.063 583.554 506.327 582.877L704.063 75.4039C704.514 74.2477 703.661 73 702.42 73Z" fill="white"/>
</svg>
