<svg width="100%" height="100%" viewBox="0 0 699 478" fill="none" xmlns="http://www.w3.org/2000/svg">
<path d="M444.083 397.017H335.732C331.079 397.017 326.926 399.938 325.353 404.317L167.3 844.344C164.719 851.53 170.044 859.101 177.679 859.101H286.031C290.684 859.101 294.837 856.18 296.41 851.801L454.462 411.773C457.043 404.588 451.718 397.017 444.083 397.017Z" fill="url(#paint0_linear_1122_10848)"/>
<path opacity="0.1" d="M282.083 369H173.732C169.079 369 164.926 371.921 163.353 376.3L5.30029 816.327C2.71938 823.513 8.04447 831.084 15.6793 831.084H124.031C128.684 831.084 132.837 828.163 134.41 823.783L292.462 383.756C295.043 376.571 289.718 369 282.083 369Z" fill="#919191"/>
<path opacity="0.1" d="M581.97 0H473.602C468.94 0 464.782 2.93084 463.215 7.32103L340.403 351.402C337.84 358.584 343.164 366.138 350.79 366.138H459.158C463.819 366.138 467.977 363.207 469.544 358.817L592.356 14.7355C594.92 7.55373 589.595 0 581.97 0Z" fill="#919191"/>
<path d="M683.336 195.202H574.977C570.32 195.202 566.165 198.128 564.595 202.512L500.81 380.618C498.237 387.802 503.562 395.365 511.192 395.365H619.552C624.209 395.365 628.364 392.439 629.934 388.055L693.719 209.949C696.292 202.765 690.967 195.202 683.336 195.202Z" fill="url(#paint1_linear_1122_10848)"/>
<defs>
<linearGradient id="paint0_linear_1122_10848" x1="375.397" y1="481.935" x2="323.023" y2="321.835" gradientUnits="userSpaceOnUse">
<stop stop-color="#F9D963"/>
<stop offset="1" stop-color="#F6BE54"/>
</linearGradient>
<linearGradient id="paint1_linear_1122_10848" x1="655.438" y1="347.943" x2="627.905" y2="80.0421" gradientUnits="userSpaceOnUse">
<stop stop-color="#F9D963"/>
<stop offset="1" stop-color="#F6BE54"/>
</linearGradient>
</defs>
</svg>
