<svg width="230" height="230" viewBox="0 0 230 230" fill="none" xmlns="http://www.w3.org/2000/svg">
<path d="M33.688 196.314C53.9047 216.533 80.9277 228.495 109.486 229.867C138.044 231.239 166.09 221.924 188.152 203.737C188.696 203.267 189.034 202.603 189.095 201.887C189.155 201.171 188.933 200.459 188.475 199.905C188.017 199.351 187.361 198.998 186.646 198.922C185.931 198.846 185.215 199.053 184.651 199.499C137.992 237.986 68.98 231.333 30.5084 184.672C13.6065 164.169 4.73607 138.22 5.55035 111.66C6.36463 85.1008 16.8081 59.7435 34.9342 40.3146L39.974 45.3545C40.3625 45.7439 40.8501 46.0196 41.384 46.1517C41.9179 46.2838 42.4778 46.2673 43.003 46.104C43.5283 45.9407 43.9988 45.6369 44.3637 45.2253C44.7286 44.8138 44.974 44.3102 45.0733 43.7692L48.5232 24.9381C48.6663 24.1514 48.4914 23.3401 48.0371 22.6822C47.5827 22.0242 46.8859 21.5734 46.0996 21.4285C45.7497 21.3643 45.3911 21.3643 45.0412 21.4285L26.0276 24.6678C25.4818 24.7606 24.972 25.0019 24.5543 25.3653C24.1365 25.7286 23.8269 26.2 23.6594 26.7277C23.4918 27.2554 23.4729 27.8191 23.6045 28.3569C23.7362 28.8947 24.0134 29.3858 24.4057 29.7765L31.0445 36.4201C-11.3444 81.7062 -10.1899 152.458 33.6835 196.324L33.688 196.314ZM42.4618 27.4123L40.5054 38.0924L31.6813 29.2725L42.4618 27.4123Z" fill="white"/>
<path d="M223.54 143.702C222.84 143.498 222.088 143.58 221.448 143.931C220.809 144.282 220.335 144.872 220.131 145.572C219.137 148.99 217.964 152.403 216.64 155.715C216.37 156.393 216.38 157.151 216.668 157.822C216.956 158.492 217.499 159.021 218.177 159.291C218.855 159.562 219.613 159.552 220.284 159.263C220.954 158.975 221.483 158.432 221.753 157.754C223.128 154.277 224.378 150.698 225.418 147.106C225.621 146.407 225.538 145.656 225.188 145.018C224.837 144.38 224.248 143.906 223.549 143.702H223.54Z" fill="white"/>
<path d="M227.938 136.614C228.644 132.949 229.175 129.187 229.519 125.467C229.586 124.741 229.363 124.018 228.897 123.457C228.431 122.896 227.762 122.543 227.036 122.475C226.31 122.408 225.587 122.631 225.026 123.097C224.464 123.563 224.111 124.232 224.044 124.958C223.719 128.505 223.21 132.078 222.537 135.579C222.399 136.295 222.552 137.037 222.962 137.64C223.371 138.244 224.003 138.66 224.72 138.797C225.436 138.935 226.178 138.782 226.781 138.372C227.385 137.963 227.801 137.331 227.938 136.614Z" fill="white"/>
<path d="M107.823 5.71782H107.997C111.543 5.49332 115.167 5.43834 118.722 5.56205C119.452 5.58635 120.16 5.32003 120.693 4.82168C121.226 4.32333 121.539 3.63376 121.563 2.90468C121.587 2.1756 121.321 1.46672 120.823 0.934002C120.324 0.401279 119.635 0.0883454 118.906 0.0640427C115.176 -0.0596624 111.373 -0.00468238 107.649 0.233565C106.919 0.256652 106.229 0.56842 105.73 1.10028C105.231 1.63215 104.964 2.34054 104.987 3.06962C105.01 3.7987 105.321 4.48875 105.853 4.98796C106.385 5.48717 107.094 5.75466 107.823 5.73157V5.71782Z" fill="white"/>
<path d="M185.801 31.4583C188.514 33.7491 191.148 36.2278 193.631 38.789C193.878 39.0611 194.176 39.2812 194.509 39.4362C194.841 39.5913 195.202 39.6781 195.569 39.6915C195.935 39.705 196.301 39.6449 196.644 39.5147C196.988 39.3845 197.301 39.1869 197.567 38.9335C197.833 38.6801 198.045 38.3761 198.191 38.0394C198.337 37.7027 198.415 37.3402 198.418 36.9731C198.422 36.6061 198.352 36.242 198.213 35.9023C198.074 35.5626 197.868 35.2542 197.608 34.9954L197.576 34.9633C194.974 32.2784 192.206 29.6898 189.357 27.2707C188.805 26.7937 188.086 26.5555 187.359 26.6083C186.632 26.6612 185.955 27.0008 185.478 27.5524C185.001 28.1041 184.763 28.8226 184.816 29.55C184.869 30.2773 185.208 30.9539 185.76 31.4308L185.801 31.4583Z" fill="white"/>
<path d="M149.405 10.9914C152.787 12.1094 156.15 13.4106 159.403 14.8584C160.071 15.1549 160.83 15.1737 161.512 14.9108C162.194 14.6479 162.744 14.1247 163.04 13.4564C163.337 12.7881 163.356 12.0293 163.093 11.3471C162.83 10.6649 162.307 10.115 161.639 9.81853C158.216 8.29742 154.684 6.93208 151.133 5.75917C150.789 5.64305 150.426 5.59573 150.064 5.61992C149.702 5.64411 149.349 5.73933 149.024 5.90015C148.699 6.06097 148.409 6.28424 148.17 6.5572C147.931 6.83017 147.748 7.14749 147.632 7.49104C147.516 7.8346 147.469 8.19766 147.493 8.5595C147.517 8.92135 147.613 9.27488 147.773 9.59992C147.934 9.92497 148.157 10.2151 148.43 10.4539C148.703 10.6927 149.021 10.8753 149.364 10.9914H149.405Z" fill="white"/>
<path d="M219.884 83.4201C220.906 86.8289 221.771 90.3292 222.459 93.8205C222.517 94.185 222.648 94.5341 222.843 94.847C223.039 95.1598 223.296 95.43 223.599 95.6415C223.901 95.8529 224.243 96.0013 224.605 96.0777C224.966 96.1541 225.338 96.157 225.701 96.0862C226.063 96.0154 226.407 95.8724 226.713 95.6656C227.019 95.4589 227.28 95.1927 227.481 94.8829C227.681 94.5731 227.818 94.2261 227.881 93.8625C227.945 93.4989 227.935 93.1263 227.851 92.7667C227.132 89.1014 226.225 85.436 225.148 81.8348C224.934 81.1418 224.454 80.5616 223.814 80.2208C223.173 79.8799 222.424 79.806 221.729 80.0152C221.035 80.2244 220.451 80.6997 220.105 81.3375C219.759 81.9753 219.68 82.7239 219.884 83.4201Z" fill="white"/>
<path d="M211.94 64.0206C213.598 67.1728 215.124 70.4349 216.462 73.7337C216.595 74.0695 216.793 74.3757 217.044 74.635C217.295 74.8943 217.595 75.1016 217.927 75.2449C218.258 75.3883 218.614 75.465 218.975 75.4706C219.336 75.4763 219.695 75.4107 220.031 75.2777C220.367 75.1448 220.673 74.947 220.932 74.6957C221.191 74.4443 221.399 74.1444 221.542 73.813C221.685 73.4815 221.762 73.1251 221.768 72.7641C221.773 72.403 221.708 72.0444 221.575 71.7086V71.6628C220.164 68.1991 218.565 64.7903 216.819 61.4548C216.47 60.8266 215.889 60.3602 215.2 60.1554C214.511 59.9507 213.769 60.0239 213.133 60.3594C212.498 60.6949 212.019 61.2659 211.799 61.9503C211.579 62.6346 211.636 63.3778 211.958 64.0206H211.94Z" fill="white"/>
<path d="M206.725 55.1642C206.915 55.4799 207.166 55.7542 207.464 55.9709C207.762 56.1876 208.1 56.3423 208.459 56.4257C208.818 56.5091 209.19 56.5195 209.552 56.4565C209.915 56.3934 210.262 56.258 210.571 56.0584C210.881 55.8588 211.147 55.599 211.354 55.2945C211.562 54.99 211.705 54.647 211.777 54.2858C211.849 53.9246 211.848 53.5526 211.774 53.1919C211.699 52.8312 211.553 52.4892 211.344 52.1861V52.1586C209.3 49.0293 207.078 45.9642 204.732 43.0457C204.267 42.5062 203.61 42.1685 202.901 42.1037C202.192 42.0389 201.485 42.2519 200.929 42.698C200.374 43.1441 200.013 43.7884 199.924 44.4951C199.834 45.2018 200.022 45.9158 200.448 46.4865C202.661 49.2676 204.801 52.1861 206.725 55.1642Z" fill="white"/>
<path d="M168.607 19.4769C171.709 21.2225 174.76 23.1422 177.683 25.181C178.281 25.5686 179.006 25.709 179.705 25.5724C180.405 25.4359 181.024 25.0332 181.432 24.4491C181.84 23.8651 182.005 23.1454 181.893 22.4418C181.781 21.7381 181.4 21.1055 180.831 20.6773C177.761 18.533 174.554 16.5171 171.301 14.6844C170.986 14.5033 170.638 14.3864 170.278 14.3404C169.918 14.2945 169.552 14.3204 169.201 14.4167C168.851 14.5131 168.523 14.6779 168.237 14.9016C167.951 15.1254 167.712 15.4036 167.534 15.7203C167.356 16.037 167.242 16.3858 167.2 16.7466C167.158 17.1074 167.187 17.473 167.287 17.8223C167.387 18.1717 167.555 18.4977 167.781 18.7817C168.008 19.0657 168.288 19.302 168.607 19.4769Z" fill="white"/>
<path d="M226.417 100.978C226.058 101.014 225.709 101.12 225.391 101.291C225.073 101.462 224.792 101.694 224.563 101.973C224.335 102.253 224.164 102.574 224.06 102.92C223.956 103.266 223.921 103.629 223.957 103.988C224.309 107.52 224.493 111.121 224.502 114.69C224.502 115.42 224.791 116.119 225.307 116.634C225.823 117.15 226.522 117.439 227.251 117.439C227.98 117.439 228.679 117.15 229.195 116.634C229.71 116.119 230 115.42 230 114.69C230 110.943 229.798 107.163 229.427 103.456C229.355 102.731 228.998 102.064 228.435 101.601C227.871 101.139 227.147 100.92 226.422 100.991L226.417 100.978Z" fill="white"/>
<path d="M86.596 9.11727C86.8311 9.11663 87.0651 9.08583 87.2924 9.02563C90.7332 8.1093 94.2611 7.39456 97.7844 6.8356C98.1477 6.78705 98.4975 6.66637 98.8135 6.48063C99.1294 6.2949 99.405 6.04788 99.624 5.75408C99.8431 5.46029 100.001 5.12566 100.089 4.76987C100.177 4.41408 100.193 4.04431 100.136 3.68231C100.079 3.32031 99.9496 2.97339 99.7565 2.66195C99.5633 2.3505 99.3098 2.08082 99.0109 1.86877C98.712 1.65671 98.3738 1.50656 98.016 1.42714C97.6582 1.34772 97.2882 1.34064 96.9276 1.40632C93.2256 1.98819 89.5191 2.78082 85.9041 3.69715C85.2469 3.85665 84.6716 4.25281 84.2881 4.80988C83.9046 5.36695 83.7399 6.04582 83.8256 6.71667C83.9112 7.38752 84.2411 8.00327 84.7522 8.44615C85.2633 8.88904 85.9198 9.12797 86.596 9.11727Z" fill="white"/>
<path d="M66.4374 16.5259C66.85 16.5248 67.2572 16.4309 67.6286 16.251C70.8358 14.707 74.1621 13.305 77.5067 12.0863C78.1914 11.8335 78.7477 11.3191 79.0531 10.6562C79.3586 9.99331 79.3882 9.23622 79.1355 8.5515C78.8827 7.86677 78.3683 7.31049 77.7054 7.00503C77.0425 6.69957 76.2854 6.66996 75.6007 6.92271C72.0866 8.20558 68.5953 9.67171 65.2232 11.2982C64.6593 11.5686 64.2045 12.0231 63.9337 12.5869C63.663 13.1506 63.5925 13.7898 63.734 14.3989C63.8755 15.0081 64.2204 15.5508 64.7119 15.9375C65.2034 16.3242 65.812 16.5317 66.4374 16.5259Z" fill="white"/>
<path d="M128.962 6.37277C132.499 6.83094 136.05 7.45405 139.5 8.24668C139.852 8.3273 140.217 8.33781 140.573 8.2776C140.929 8.21739 141.269 8.08764 141.575 7.89577C141.881 7.70389 142.146 7.45364 142.355 7.15931C142.565 6.86497 142.714 6.53232 142.794 6.18034C142.875 5.82836 142.886 5.46395 142.825 5.10791C142.765 4.75187 142.635 4.41118 142.444 4.10528C142.252 3.79938 142.001 3.53428 141.707 3.32509C141.413 3.11591 141.08 2.96675 140.728 2.88612C137.099 2.05226 133.37 1.3925 129.663 0.911421C129.304 0.85116 128.937 0.862882 128.582 0.945908C128.227 1.02893 127.893 1.18161 127.598 1.39506C127.302 1.60851 127.053 1.87848 126.863 2.18929C126.673 2.5001 126.547 2.84555 126.491 3.20557C126.436 3.56558 126.453 3.93299 126.541 4.28644C126.629 4.63988 126.786 4.97233 127.004 5.26445C127.221 5.55658 127.495 5.80256 127.808 5.98811C128.122 6.17365 128.469 6.29506 128.83 6.34528H128.972L128.962 6.37277Z" fill="white"/>
<path d="M195.904 170.496L195.363 189.222C195.341 190.02 195.635 190.793 196.183 191.374C196.73 191.954 197.484 192.294 198.282 192.319C198.636 192.328 198.989 192.275 199.326 192.164L217.195 186.18C217.717 186.004 218.181 185.687 218.536 185.266C218.891 184.844 219.124 184.333 219.209 183.789C219.294 183.244 219.228 182.686 219.018 182.177C218.809 181.667 218.463 181.224 218.019 180.897L212.155 176.59C213.988 173.681 215.715 170.666 217.282 167.601C217.613 166.951 217.674 166.197 217.449 165.503C217.224 164.809 216.733 164.233 216.084 163.901C215.434 163.569 214.679 163.509 213.986 163.734C213.292 163.959 212.716 164.45 212.384 165.099C210.95 167.899 209.378 170.661 207.711 173.346L200.678 168.146C200.235 167.822 199.712 167.625 199.166 167.576C198.619 167.527 198.069 167.629 197.577 167.87C197.084 168.111 196.666 168.482 196.369 168.944C196.071 169.405 195.906 169.939 195.89 170.487L195.904 170.496ZM201.264 175.394L210.886 182.469L200.948 185.795L201.264 175.394Z" fill="white"/>
<path d="M104.043 88.3916C103.443 88.3916 102.855 88.5698 102.356 88.9035C101.856 89.2373 101.467 89.7117 101.237 90.2668C101.007 90.8219 100.947 91.4326 101.064 92.0219C101.181 92.6111 101.471 93.1524 101.895 93.5772C102.32 94.002 102.861 94.2913 103.451 94.4085C104.04 94.5257 104.651 94.4656 105.206 94.2357C105.761 94.0058 106.235 93.6164 106.569 93.1169C106.903 92.6173 107.081 92.03 107.081 91.4293C107.081 90.6236 106.761 89.851 106.191 89.2813C105.622 88.7116 104.849 88.3916 104.043 88.3916Z" fill="white"/>
<path d="M120.321 99.213C120.922 99.213 121.509 99.0348 122.009 98.7011C122.509 98.3673 122.898 97.8929 123.128 97.3378C123.358 96.7827 123.418 96.172 123.301 95.5827C123.183 94.9935 122.894 94.4522 122.469 94.0274C122.044 93.6026 121.503 93.3133 120.914 93.1961C120.325 93.0789 119.714 93.139 119.159 93.3689C118.604 93.5988 118.129 93.9882 117.796 94.4877C117.462 94.9873 117.284 95.5746 117.284 96.1753C117.284 96.981 117.604 97.7536 118.173 98.3233C118.743 98.893 119.516 99.213 120.321 99.213Z" fill="white"/>
<path d="M87.0861 167.069C86.4842 167.068 85.8956 167.246 85.3947 167.58C84.8938 167.914 84.5031 168.388 84.2722 168.944C84.0412 169.5 83.9803 170.112 84.0972 170.702C84.2141 171.293 84.5034 171.835 84.9287 172.261C85.354 172.687 85.8961 172.977 86.4863 173.095C87.0766 173.213 87.6885 173.153 88.2447 172.923C88.8008 172.693 89.2762 172.303 89.6107 171.802C89.9452 171.302 90.1237 170.713 90.1237 170.112C90.1243 169.712 90.0462 169.317 89.8938 168.948C89.7414 168.579 89.5178 168.243 89.2357 167.961C88.9535 167.678 88.6185 167.454 88.2496 167.301C87.8808 167.148 87.4854 167.069 87.0861 167.069Z" fill="white"/>
<path d="M113.889 170.79C113.889 171.39 114.067 171.978 114.401 172.477C114.734 172.977 115.209 173.366 115.764 173.596C116.319 173.826 116.93 173.886 117.519 173.769C118.108 173.652 118.65 173.362 119.074 172.938C119.499 172.513 119.788 171.971 119.906 171.382C120.023 170.793 119.963 170.182 119.733 169.627C119.503 169.072 119.114 168.598 118.614 168.264C118.114 167.93 117.527 167.752 116.926 167.752C116.121 167.753 115.349 168.074 114.78 168.643C114.21 169.212 113.89 169.984 113.889 170.79Z" fill="white"/>
<path d="M101.326 153.507C100.725 153.508 100.139 153.687 99.6397 154.021C99.1407 154.356 98.7521 154.831 98.5229 155.386C98.2937 155.941 98.2342 156.551 98.3519 157.14C98.4696 157.729 98.7593 158.27 99.1843 158.695C99.6093 159.119 100.151 159.408 100.74 159.525C101.329 159.641 101.939 159.581 102.494 159.351C103.049 159.121 103.523 158.732 103.857 158.232C104.19 157.733 104.368 157.146 104.368 156.545C104.366 155.739 104.044 154.967 103.474 154.398C102.904 153.829 102.132 153.509 101.326 153.507Z" fill="white"/>
<path d="M129.814 159.583C131.492 159.583 132.852 158.223 132.852 156.545C132.852 154.867 131.492 153.507 129.814 153.507C128.136 153.507 126.776 154.867 126.776 156.545C126.776 158.223 128.136 159.583 129.814 159.583Z" fill="white"/>
<path d="M142.703 173.149C143.304 173.15 143.893 172.973 144.394 172.639C144.895 172.305 145.286 171.83 145.516 171.275C145.747 170.719 145.808 170.107 145.691 169.516C145.575 168.926 145.285 168.384 144.86 167.958C144.435 167.532 143.893 167.241 143.302 167.124C142.712 167.006 142.1 167.066 141.544 167.296C140.988 167.526 140.512 167.916 140.178 168.417C139.843 168.917 139.665 169.505 139.665 170.107C139.665 170.913 139.985 171.686 140.554 172.257C141.124 172.827 141.897 173.148 142.703 173.149Z" fill="white"/>
<path d="M115.57 146.016C116.171 146.016 116.758 145.838 117.258 145.504C117.757 145.17 118.147 144.696 118.377 144.141C118.607 143.585 118.667 142.975 118.55 142.385C118.432 141.796 118.143 141.255 117.718 140.83C117.293 140.405 116.752 140.116 116.163 139.999C115.574 139.882 114.963 139.942 114.408 140.172C113.853 140.402 113.378 140.791 113.045 141.29C112.711 141.79 112.533 142.377 112.533 142.978C112.533 143.784 112.853 144.556 113.422 145.126C113.992 145.696 114.765 146.016 115.57 146.016Z" fill="white"/>
<path d="M100.713 119.959C92.173 122.936 84.7711 128.496 79.5327 135.868C74.2944 143.241 71.4792 152.06 71.4774 161.104V179.142C68.878 179.643 66.5585 181.094 64.9712 183.213C63.384 185.332 62.6428 187.966 62.8922 190.601C63.1417 193.237 64.3639 195.685 66.3205 197.468C68.2771 199.251 70.8278 200.241 73.475 200.246H156.548C159.196 200.242 161.747 199.253 163.705 197.47C165.662 195.687 166.885 193.239 167.135 190.603C167.386 187.967 166.645 185.333 165.057 183.214C163.47 181.095 161.15 179.643 158.55 179.142V161.09C158.547 152.043 155.728 143.222 150.486 135.849C145.243 128.477 137.836 122.919 129.292 119.946C127.891 119.471 126.674 118.57 125.812 117.368C124.95 116.166 124.486 114.724 124.486 113.245C124.486 111.766 124.95 110.324 125.812 109.122C126.674 107.92 127.891 107.018 129.292 106.544C137.836 103.572 145.243 98.0151 150.486 90.6432C155.729 83.2714 158.547 74.4505 158.55 65.4043V50.8526C161.15 50.3515 163.47 48.8998 165.057 46.7807C166.645 44.6616 167.386 42.0272 167.135 39.3913C166.885 36.7555 165.662 34.3073 163.705 32.5245C161.747 30.7418 159.196 29.7522 156.548 29.749H73.4567C70.811 29.7579 68.2634 30.7514 66.3102 32.536C64.357 34.3206 63.1382 36.7685 62.8911 39.4027C62.6441 42.0369 63.3865 44.6687 64.9738 46.7854C66.5611 48.9021 68.8795 50.352 71.4774 50.8526V65.4272C71.4805 74.4734 74.2989 83.2943 79.5417 90.6662C84.7845 98.038 92.1916 103.595 100.735 106.567C102.136 107.041 103.354 107.943 104.216 109.145C105.078 110.347 105.541 111.789 105.541 113.268C105.541 114.747 105.078 116.189 104.216 117.391C103.354 118.593 102.136 119.494 100.735 119.969L100.713 119.959ZM161.68 189.63C161.677 190.99 161.136 192.293 160.174 193.254C159.212 194.215 157.908 194.755 156.548 194.757H73.4567C72.0909 194.757 70.781 194.214 69.8153 193.248C68.8495 192.283 68.3069 190.973 68.3069 189.607C68.3069 188.241 68.8495 186.931 69.8153 185.965C70.781 184.999 72.0909 184.457 73.4567 184.457H156.548C157.224 184.459 157.893 184.594 158.516 184.854C159.14 185.114 159.706 185.495 160.182 185.974C160.659 186.453 161.036 187.021 161.293 187.646C161.55 188.271 161.682 188.94 161.68 189.616V189.63ZM76.9753 65.4181V51.0359H82.8397C83.5688 51.0359 84.268 50.7463 84.7836 50.2307C85.2991 49.7152 85.5887 49.0159 85.5887 48.2868C85.5887 47.5577 85.2991 46.8585 84.7836 46.343C84.268 45.8274 83.5688 45.5378 82.8397 45.5378H73.4567C72.781 45.536 72.1123 45.4011 71.4887 45.1409C70.8652 44.8806 70.299 44.5001 69.8225 44.021C69.346 43.542 68.9686 42.9737 68.7117 42.3488C68.4548 41.7238 68.3235 41.0544 68.3253 40.3787V40.3146C68.3625 38.9421 68.9376 37.6392 69.9267 36.6869C70.9158 35.7346 72.2395 35.2093 73.6124 35.2242H156.539C157.215 35.226 157.884 35.3609 158.507 35.6212C159.131 35.8814 159.697 36.2619 160.173 36.741C160.65 37.22 161.027 37.7883 161.284 38.4132C161.541 39.0382 161.672 39.7076 161.671 40.3833V40.4337C161.633 41.8062 161.058 43.1091 160.069 44.0614C159.08 45.0136 157.756 45.539 156.383 45.524H101.139C100.41 45.524 99.7103 45.8137 99.1948 46.3292C98.6793 46.8448 98.3897 47.544 98.3897 48.2731C98.3897 49.0022 98.6793 49.7014 99.1948 50.217C99.7103 50.7325 100.41 51.0222 101.139 51.0222H153.053V65.4043C153.052 69.6257 152.347 73.8175 150.968 77.8072H79.037C77.667 73.8205 76.9702 69.6336 76.9753 65.4181ZM102.541 101.367C93.4932 98.2199 85.9667 91.7746 81.4653 83.319H148.572C144.069 91.7732 136.543 98.2179 127.496 101.367C125.015 102.214 122.86 103.816 121.334 105.949C119.808 108.082 118.988 110.638 118.988 113.261C118.988 115.883 119.808 118.44 121.334 120.573C122.86 122.706 125.015 124.308 127.496 125.155C134.961 127.753 141.432 132.61 146.012 139.051C150.592 145.493 153.054 153.2 153.057 161.104V178.973H76.9753V161.104C76.9779 153.199 79.4406 145.491 84.0217 139.05C88.6027 132.608 95.075 127.752 102.541 125.155C105.02 124.306 107.173 122.703 108.696 120.57C110.22 118.438 111.039 115.882 111.039 113.261C111.039 110.64 110.22 108.084 108.696 105.951C107.173 103.819 105.02 102.216 102.541 101.367Z" fill="white"/>
</svg>
