<svg width="100%" height="100%" viewBox="0 0 20 20" fill="none" xmlns="http://www.w3.org/2000/svg">
<path d="M18.75 9.91361L10.586 1.74954C10.4415 1.60375 10.2631 1.49604 10.0667 1.43606C9.87042 1.37607 9.66229 1.36567 9.46097 1.40579L3.15628 2.67142C3.03673 2.69529 2.92693 2.75403 2.84073 2.84024C2.75452 2.92644 2.69578 3.03624 2.67191 3.15579L1.40628 9.46048C1.36616 9.6618 1.37656 9.86993 1.43654 10.0663C1.49653 10.2626 1.60424 10.441 1.75003 10.5855L9.91409 18.7495C10.0296 18.8662 10.1671 18.9589 10.3186 19.0221C10.4702 19.0853 10.6327 19.1178 10.7969 19.1178C10.9611 19.1178 11.1237 19.0853 11.2752 19.0221C11.4267 18.9589 11.5642 18.8662 11.6797 18.7495L18.75 11.6792C18.8667 11.5637 18.9594 11.4262 19.0226 11.2747C19.0858 11.1232 19.1183 10.9606 19.1183 10.7964C19.1183 10.6322 19.0858 10.4697 19.0226 10.3181C18.9594 10.1666 18.8667 10.0291 18.75 9.91361V9.91361ZM6.56253 7.49954C6.37711 7.49954 6.19586 7.44456 6.04168 7.34155C5.88751 7.23853 5.76735 7.09211 5.69639 6.92081C5.62544 6.7495 5.60687 6.561 5.64304 6.37915C5.67922 6.19729 5.76851 6.03024 5.89962 5.89913C6.03073 5.76802 6.19778 5.67873 6.37963 5.64256C6.56149 5.60638 6.74999 5.62495 6.9213 5.69591C7.0926 5.76686 7.23902 5.88702 7.34203 6.0412C7.44505 6.19537 7.50003 6.37662 7.50003 6.56204C7.50003 6.81068 7.40126 7.04914 7.22544 7.22496C7.04963 7.40077 6.81117 7.49954 6.56253 7.49954Z" fill="#F3F3F3"/>
</svg>
