<svg width="100%" height="100%" viewBox="0 0 18 18" fill="none" xmlns="http://www.w3.org/2000/svg">
<mask id="path-1-inside-1_648_20365" fill="white">
<rect x="3.05664" y="3.05542" width="3.66667" height="3.66667" rx="0.611111"/>
</mask>
<rect x="3.05664" y="3.05542" width="3.66667" height="3.66667" rx="0.611111" stroke="black" stroke-width="1.98611" mask="url(#path-1-inside-1_648_20365)"/>
<mask id="path-2-inside-2_648_20365" fill="white">
<rect x="3.05664" y="7.33325" width="3.66667" height="3.66667" rx="0.611111"/>
</mask>
<rect x="3.05664" y="7.33325" width="3.66667" height="3.66667" rx="0.611111" stroke="black" stroke-width="1.98611" mask="url(#path-2-inside-2_648_20365)"/>
<mask id="path-3-inside-3_648_20365" fill="white">
<rect x="3.05664" y="11.6108" width="3.66667" height="3.66667" rx="0.611111"/>
</mask>
<rect x="3.05664" y="11.6108" width="3.66667" height="3.66667" rx="0.611111" stroke="black" stroke-width="1.98611" mask="url(#path-3-inside-3_648_20365)"/>
<mask id="path-4-inside-4_648_20365" fill="white">
<rect x="7.33398" y="3.05542" width="3.66667" height="3.66667" rx="0.611111"/>
</mask>
<rect x="7.33398" y="3.05542" width="3.66667" height="3.66667" rx="0.611111" stroke="black" stroke-width="1.98611" mask="url(#path-4-inside-4_648_20365)"/>
<mask id="path-5-inside-5_648_20365" fill="white">
<rect x="7.33398" y="7.33325" width="3.66667" height="3.66667" rx="0.611111"/>
</mask>
<rect x="7.33398" y="7.33325" width="3.66667" height="3.66667" rx="0.611111" stroke="black" stroke-width="1.98611" mask="url(#path-5-inside-5_648_20365)"/>
<mask id="path-6-inside-6_648_20365" fill="white">
<rect x="7.33398" y="11.6108" width="3.66667" height="3.66667" rx="0.611111"/>
</mask>
<rect x="7.33398" y="11.6108" width="3.66667" height="3.66667" rx="0.611111" stroke="black" stroke-width="1.98611" mask="url(#path-6-inside-6_648_20365)"/>
<mask id="path-7-inside-7_648_20365" fill="white">
<rect x="11.6113" y="3.05542" width="3.66667" height="3.66667" rx="0.611111"/>
</mask>
<rect x="11.6113" y="3.05542" width="3.66667" height="3.66667" rx="0.611111" stroke="black" stroke-width="1.98611" mask="url(#path-7-inside-7_648_20365)"/>
<mask id="path-8-inside-8_648_20365" fill="white">
<rect x="11.6113" y="7.33325" width="3.66667" height="3.66667" rx="0.611111"/>
</mask>
<rect x="11.6113" y="7.33325" width="3.66667" height="3.66667" rx="0.611111" stroke="black" stroke-width="1.98611" mask="url(#path-8-inside-8_648_20365)"/>
<mask id="path-9-inside-9_648_20365" fill="white">
<rect x="11.6113" y="11.6108" width="3.66667" height="3.66667" rx="0.611111"/>
</mask>
<rect x="11.6113" y="11.6108" width="3.66667" height="3.66667" rx="0.611111" stroke="black" stroke-width="1.98611" mask="url(#path-9-inside-9_648_20365)"/>
</svg>
