<svg width="24" height="24" viewBox="0 0 24 24" fill="none" xmlns="http://www.w3.org/2000/svg">
<mask id="path-1-inside-1_1521_2473" fill="white">
<rect x="20" y="20" width="4.8" height="4.8" rx="0.8" transform="rotate(-180 20 20)"/>
</mask>
<rect x="20" y="20" width="4.8" height="4.8" rx="0.8" transform="rotate(-180 20 20)" stroke="black" stroke-width="3.2" mask="url(#path-1-inside-1_1521_2473)"/>
<mask id="path-2-inside-2_1521_2473" fill="white">
<rect x="14.3999" y="20" width="4.8" height="4.8" rx="0.8" transform="rotate(-180 14.3999 20)"/>
</mask>
<rect x="14.3999" y="20" width="4.8" height="4.8" rx="0.8" transform="rotate(-180 14.3999 20)" stroke="black" stroke-width="3.2" mask="url(#path-2-inside-2_1521_2473)"/>
<mask id="path-3-inside-3_1521_2473" fill="white">
<rect x="8.80005" y="20" width="4.8" height="4.8" rx="0.8" transform="rotate(-180 8.80005 20)"/>
</mask>
<rect x="8.80005" y="20" width="4.8" height="4.8" rx="0.8" transform="rotate(-180 8.80005 20)" stroke="black" stroke-width="3.2" mask="url(#path-3-inside-3_1521_2473)"/>
<mask id="path-4-inside-4_1521_2473" fill="white">
<rect x="20" y="14.4" width="16" height="4.8" rx="0.8" transform="rotate(-180 20 14.4)"/>
</mask>
<rect x="20" y="14.4" width="16" height="4.8" rx="0.8" transform="rotate(-180 20 14.4)" stroke="black" stroke-width="3.2" mask="url(#path-4-inside-4_1521_2473)"/>
<mask id="path-5-inside-5_1521_2473" fill="white">
<rect x="20" y="8.80005" width="16" height="4.8" rx="0.8" transform="rotate(-180 20 8.80005)"/>
</mask>
<rect x="20" y="8.80005" width="16" height="4.8" rx="0.8" transform="rotate(-180 20 8.80005)" stroke="black" stroke-width="3.2" mask="url(#path-5-inside-5_1521_2473)"/>
</svg>
