<svg width="40" height="40" viewBox="0 0 40 40" fill="none" xmlns="http://www.w3.org/2000/svg">
<rect width="40" height="40" rx="10" fill="#F8F8F8"/>
<path d="M20 27.84C20 27.84 11 22.8 11 16.68C11 15.5981 11.3748 14.5496 12.0608 13.7129C12.7467 12.8763 13.7013 12.3031 14.7622 12.0909C15.8231 11.8787 16.9247 12.0407 17.8797 12.5492C18.8346 13.0577 19.5839 13.8813 20 14.88C20.4161 13.8813 21.1654 13.0577 22.1203 12.5492C23.0753 12.0407 24.1769 11.8787 25.2378 12.0909C26.2987 12.3031 27.2533 12.8763 27.9392 13.7129C28.6252 14.5496 29 15.5981 29 16.68C29 22.8 20 27.84 20 27.84Z" fill="#4D4D4D"/>
</svg>
