<svg width="24" height="24" viewBox="0 0 24 24" fill="none" xmlns="http://www.w3.org/2000/svg">
<path d="M12.0053 1.15778e-06C9.63167 -0.00104127 7.31108 0.70186 5.337 2.0198C3.36291 3.33775 1.82402 5.21152 0.914964 7.40414C0.0059045 9.59677 -0.232487 12.0097 0.22994 14.3378C0.692367 16.666 1.83484 18.8047 3.51286 20.4834C5.19088 22.1622 7.32906 23.3056 9.65698 23.769C11.9849 24.2325 14.398 23.9951 16.591 23.0871C18.784 22.179 20.6585 20.6409 21.9773 18.6674C23.2961 16.6939 24 14.3736 24 12C24.0007 10.4244 23.6909 8.86407 23.0885 7.4082C22.486 5.95232 21.6026 4.62941 20.4887 3.51504C19.3748 2.40067 18.0523 1.51667 16.5967 0.913549C15.1411 0.310428 13.5809 1.0057e-06 12.0053 1.15778e-06ZM12.0053 3.58893C12.7901 3.58893 13.5574 3.82167 14.21 4.25773C14.8626 4.69378 15.3712 5.31355 15.6716 6.03868C15.9719 6.7638 16.0505 7.56171 15.8974 8.3315C15.7443 9.10129 15.3663 9.80839 14.8113 10.3634C14.2564 10.9184 13.5493 11.2963 12.7795 11.4494C12.0097 11.6026 11.2118 11.524 10.4866 11.2236C9.76151 10.9233 9.14174 10.4146 8.70569 9.76202C8.26963 9.10943 8.03689 8.34218 8.03689 7.55731C8.03689 6.50483 8.45499 5.49546 9.1992 4.75124C9.94342 4.00703 10.9528 3.58893 12.0053 3.58893ZM12.0053 20.859C9.90368 20.863 7.86993 20.1153 6.27141 18.751C6.08588 18.5918 5.9367 18.3946 5.83396 18.1727C5.73122 17.9509 5.67731 17.7096 5.67589 17.4651C5.67658 16.9378 5.78139 16.4158 5.9843 15.9291C6.18721 15.4424 6.48423 15.0005 6.85832 14.6289C7.23241 14.2572 7.6762 13.9631 8.16424 13.7634C8.65227 13.5637 9.17493 13.4623 9.70224 13.4651H14.3188C14.8457 13.4623 15.3678 13.5638 15.8553 13.7636C16.3427 13.9634 16.7858 14.2577 17.159 14.6295C17.5323 15.0013 17.8283 15.4432 18.0301 15.9299C18.2318 16.4165 18.3354 16.9383 18.3347 17.4651C18.335 17.7099 18.2819 17.9517 18.179 18.1738C18.0761 18.396 17.926 18.5929 17.7391 18.751C16.1392 20.1165 14.1034 20.8643 12 20.859H12.0053Z" fill="#05C0FC"/>
</svg>
