<svg width="100%" height="100%" viewBox="0 0 41 41" fill="none" xmlns="http://www.w3.org/2000/svg">
<g clip-path="url(#clip0_122_2958)">
<circle cx="20.5001" cy="20.4312" r="20.4312" fill="#1F2127"/>
<g clip-path="url(#clip1_122_2958)">
<path fill-rule="evenodd" clip-rule="evenodd" d="M29.983 29.5208C29.983 29.9674 29.6212 30.3289 29.1756 30.3289H25.2328C25.2277 30.3289 25.2226 30.3263 25.2175 30.3257L24.5337 30.3289C24.0324 30.3314 23.5643 30.0751 23.2967 29.6503L18.8001 22.5203C18.5312 22.0935 18.8379 21.5373 19.3418 21.5373H24.4216L24.4255 21.5437V5.77605C24.4255 5.47808 24.7335 5.26852 25.0036 5.39349C26.1459 5.92085 27.1985 6.65005 28.1147 7.56702L28.8004 8.2533C29.5578 9.01134 29.983 10.0391 29.983 11.1112V29.5208ZM16.54 18.9088V34.6765C16.54 34.9744 16.2327 35.1842 15.9618 35.0589C14.8196 34.5317 13.767 33.8025 12.8515 32.8856L12.1658 32.1993C11.4083 31.4412 10.9825 30.4134 10.9825 29.3414V10.9318C10.9825 10.4851 11.3443 10.1231 11.7905 10.1231H15.7326C15.7384 10.1231 15.7429 10.1263 15.7486 10.1263L16.4318 10.1231C16.9338 10.1212 17.4011 10.3775 17.6688 10.8023L22.1654 17.9323C22.4343 18.3591 22.1282 18.9153 21.6237 18.9153H16.5445L16.54 18.9088Z" fill="url(#paint0_linear_122_2958)"/>
</g>
</g>
<defs>
<linearGradient id="paint0_linear_122_2958" x1="28.2046" y1="27.0352" x2="15.8221" y2="16.0285" gradientUnits="userSpaceOnUse">
<stop stop-color="#EEB76B"/>
<stop offset="1" stop-color="#F4D375"/>
</linearGradient>
<clipPath id="clip0_122_2958">
<rect width="41" height="40.8624" fill="white"/>
</clipPath>
<clipPath id="clip1_122_2958">
<rect width="44.7148" height="44.7148" fill="white" transform="translate(-1.92627 -2.20142)"/>
</clipPath>
</defs>
</svg>
