<?xml version="1.0" encoding="UTF-8"?>
<svg width="164px" height="40px" viewBox="0 0 164 40" version="1.1" xmlns="http://www.w3.org/2000/svg" xmlns:xlink="http://www.w3.org/1999/xlink">
    <title>0D1112B4-6D04-4299-BE3D-0873AA4A3B8D</title>
    <g id="Dark" stroke="none" stroke-width="1" fill="none" fill-rule="evenodd">
        <g id="Home-Dark-Leaderboard" transform="translate(-20.000000, -20.000000)" fill="#FEFEFE">
            <g id="nft_logo" transform="translate(20.000000, 20.000000)">
                <path d="M114.098276,10.0000526 C117.285334,10.0000526 120.154853,11.3626806 121.971561,13.7389902 L122.392473,14.2884624 L117.596512,17.4189805 L117.227551,16.9547712 C116.71758,16.3131939 115.76019,15.5484591 114.098276,15.5484591 C111.258444,15.5484591 109.96549,17.8495057 109.96549,19.9873948 C109.96549,22.1373891 111.258444,24.4515935 114.098276,24.4515935 C115.419325,24.4515935 116.499702,23.958437 117.22278,23.0258078 L117.590151,22.5510722 L122.389292,25.6831693 L121.974211,26.2326415 C120.164925,28.6268457 117.294346,30 114.098276,30 C108.360299,30 104.195176,25.7889585 104.195176,19.9873948 C104.195176,14.2000416 108.360299,10.0000526 114.098276,10.0000526 Z M101.33626,24.0647525 C102.956295,24.0647525 104.325055,25.4236963 104.325055,27.0321131 C104.325055,28.6689509 102.984391,30 101.33626,30 C99.6881288,30 98.346935,28.6689509 98.346935,27.0321131 C98.346935,25.3958016 99.6881288,24.0647525 101.33626,24.0647525 Z M131.487676,10 C137.225653,10 141.390775,14.1999889 141.390775,19.9873421 C141.390775,25.7889058 137.225653,29.9999474 131.487676,29.9999474 C125.749698,29.9999474 121.584576,25.7889058 121.584576,19.9873421 C121.584576,14.1999889 125.749698,10 131.487676,10 Z M58.795765,10.3098413 L64.8947512,19.3592912 L64.8947512,10.3098413 L70.6655955,10.3098413 L70.6655955,29.6645272 L65.769973,29.6645272 L59.6704567,20.614551 L59.6704567,29.6645272 L53.9001425,29.6645272 L53.9001425,10.3098413 L58.795765,10.3098413 Z M99.9067487,10.3098413 L99.9067487,15.7803532 L95.6435547,15.7803532 L95.6435547,29.6645272 L89.8992162,29.6645272 L89.8992162,15.7803532 L78.2287625,15.7803532 L78.2287625,18.9750816 L84.3632664,18.9750816 L84.3632664,24.4203305 L78.2287625,24.4203305 L78.2287625,29.6645272 L72.484424,29.6645272 L72.484424,10.3098413 L99.9067487,10.3098413 Z M148.254825,10.3098413 L153.216712,18.4561356 L158.179129,10.3098413 L163.900143,10.3098413 L163.900143,29.6645272 L158.129828,29.6645272 L158.129828,20.597709 L154.415305,26.6966403 L152.046216,26.6966403 L148.304656,20.5871827 L148.304656,29.6645272 L142.559787,29.6645272 L142.559787,10.3098413 L148.254825,10.3098413 Z M131.487676,15.5484065 C128.647843,15.5484065 127.35489,17.849453 127.35489,19.9873421 C127.35489,22.1373365 128.647843,24.4515409 131.487676,24.4515409 C134.327508,24.4515409 135.620461,22.1373365 135.620461,19.9873421 C135.620461,17.849453 134.327508,15.5484065 131.487676,15.5484065 Z" id="Combined-Shape"></path>
                <path d="M28.4075175,28.2887561 C28.4075175,28.6870404 28.0854675,29.0093419 27.6887475,29.0093419 L24.1786875,29.0093419 C24.1741275,29.0093419 24.1695675,29.0070393 24.1650075,29.0064678 L23.5562475,29.0093419 C23.1099375,29.0116107 22.6932675,28.7830401 22.4550075,28.4041843 L18.4518975,22.0459213 C18.2124975,21.6653512 18.4855275,21.169353 18.9341175,21.169353 L23.4564975,21.169353 L23.4599175,21.1750672 L23.4599175,21.169353 L23.4599175,7.11397459 C23.4599175,6.84826126 23.7340875,6.66140478 23.9746275,6.77283295 C24.9915075,7.24311699 25.9285875,7.89340038 26.7442575,8.71111175 L27.3547275,9.32310956 C28.0290375,9.99910715 28.4075175,10.9156753 28.4075175,11.8716719 L28.4075175,28.2887561 Z M16.4397975,18.8253613 L16.4397975,18.8310756 L16.4397975,32.886454 C16.4397975,33.1521673 16.1661975,33.3390238 15.9250875,33.2275956 C14.9082075,32.7573116 13.9711275,32.1070282 13.1560275,31.2893168 L12.5455575,30.677319 C11.8712475,30.0013214 11.4921975,29.0847533 11.4921975,28.1287567 L11.4921975,11.7116725 C11.4921975,11.3133882 11.8142475,10.9905226 12.2115375,10.9905226 L15.7210275,10.9905226 C15.7261575,10.9905226 15.7301475,10.9933893 15.7352775,10.9933893 L16.3434675,10.9905226 C16.7903475,10.9888179 17.2064475,11.2173885 17.4447075,11.5962443 L21.4478175,17.9545073 C21.6872175,18.3350774 21.4147575,18.8310756 20.9655975,18.8310756 L16.4437875,18.8310756 L16.4397975,18.8253613 Z M36.0329775,10.6408191 L29.2858875,3.8768433 C24.1296675,-1.2922811 15.7700475,-1.2922811 10.6143975,3.8768433 L3.8667375,10.6408191 C-1.2889125,15.8099435 -1.2889125,24.190485 3.8667375,29.359038 L10.6143975,36.1235853 C15.7700475,41.2921382 24.1296675,41.2921382 29.2858875,36.1235853 L36.0329775,29.359038 C41.1891975,24.190485 41.1891975,15.8099435 36.0329775,10.6408191 L36.0329775,10.6408191 Z" id="Fill-1"></path>
            </g>
        </g>
    </g>
</svg>