<svg width="100%" height="100%" viewBox="0 0 42 42" fill="none" xmlns="http://www.w3.org/2000/svg">
<g clip-path="url(#clip0_130_2903)">
<circle cx="21.0001" cy="20.9295" r="20.9295" fill="#F8F8F8"/>
<g clip-path="url(#clip1_130_2903)">
<path fill-rule="evenodd" clip-rule="evenodd" d="M30.7143 30.2408C30.7143 30.6983 30.3438 31.0685 29.8873 31.0685H25.8484C25.8431 31.0685 25.8379 31.0659 25.8326 31.0652L25.1322 31.0685C24.6186 31.0711 24.1392 30.8085 23.865 30.3734L19.2588 23.0695C18.9833 22.6323 19.2975 22.0625 19.8137 22.0625H25.0174L25.0213 22.0691V5.91684C25.0213 5.6116 25.3368 5.39693 25.6136 5.52494C26.7837 6.06516 27.8619 6.81215 28.8005 7.75149L29.503 8.4545C30.2788 9.23104 30.7143 10.2839 30.7143 11.3821V30.2408ZM16.9435 19.3699V35.5222C16.9435 35.8273 16.6287 36.0423 16.3513 35.9139C15.1812 35.3739 14.1029 34.6269 13.165 33.6876L12.4626 32.9845C11.6867 32.208 11.2505 31.1551 11.2505 30.057V11.1983C11.2505 10.7408 11.6211 10.3699 12.0782 10.3699H16.1165C16.1224 10.3699 16.127 10.3732 16.1329 10.3732L16.8327 10.3699C17.3469 10.3679 17.8257 10.6305 18.0999 11.0657L22.7061 18.3696C22.9816 18.8067 22.668 19.3765 22.1512 19.3765H16.9481L16.9435 19.3699Z" fill="url(#paint0_linear_130_2903)"/>
</g>
</g>
<defs>
<linearGradient id="paint0_linear_130_2903" x1="28.8926" y1="27.6945" x2="16.2081" y2="16.4193" gradientUnits="userSpaceOnUse">
<stop stop-color="#EEB76B"/>
<stop offset="1" stop-color="#F4D375"/>
</linearGradient>
<clipPath id="clip0_130_2903">
<rect width="42" height="41.8591" fill="white"/>
</clipPath>
<clipPath id="clip1_130_2903">
<rect width="45.8054" height="45.8054" fill="white" transform="translate(-1.97314 -2.25513)"/>
</clipPath>
</defs>
</svg>
