<svg width="100%" height="100%" viewBox="0 0 25 25" fill="none" xmlns="http://www.w3.org/2000/svg">
<path d="M25 12.5C25 19.4032 19.4032 25 12.5 25C5.59683 25 0 19.4032 0 12.5C0 5.59683 5.59683 0 12.5 0C19.4046 0 25 5.59683 25 12.5Z" fill="#969696"/>
<path fill-rule="evenodd" clip-rule="evenodd" d="M12.205 13.4288C10.7971 13.4288 9.65479 12.2876 9.65479 10.8786C9.65479 9.46956 10.7971 8.32837 12.205 8.32837C13.6128 8.32837 14.7552 9.46956 14.7552 10.8786C14.7552 12.2876 13.6128 13.4288 12.205 13.4288ZM11.0962 10.8786C11.0962 11.4912 11.5929 11.9874 12.205 11.9874C12.8171 11.9874 13.3138 11.4912 13.3138 10.8786C13.3138 10.266 12.8171 9.7698 12.205 9.7698C11.5929 9.7698 11.0962 10.266 11.0962 10.8786Z" fill="white"/>
<path fill-rule="evenodd" clip-rule="evenodd" d="M4 10.882L8.87864 6H15.5314L20.41 10.882L12.205 19.0837L4 10.882ZM15.9749 9.10457C13.902 7.02257 10.508 7.02258 8.43513 9.10458L6.66109 10.8787L8.43513 12.6527C10.508 14.7347 13.902 14.7347 15.9749 12.6527L17.7489 10.8787L15.9749 9.10457Z" fill="white"/>
</svg>
