<svg width="100%" height="100%" viewBox="0 0 24 24" fill="none" xmlns="http://www.w3.org/2000/svg">
<path fill-rule="evenodd" clip-rule="evenodd" d="M18.6835 5.82378L10.4527 14.0545L8.92969 12.5315L17.1605 4.30078L18.6835 5.82378Z" fill="black"/>
<path fill-rule="evenodd" clip-rule="evenodd" d="M17.9287 3.53027L21.4751 7.07665L18.5053 10.0465L14.9589 6.50009L17.9287 3.53027Z" fill="black"/>
<path fill-rule="evenodd" clip-rule="evenodd" d="M15.6712 13.0713L12.625 10.0405L14.1441 8.51367L17.1903 11.5444L15.6712 13.0713Z" fill="black"/>
<path fill-rule="evenodd" clip-rule="evenodd" d="M7.35337 13.3999C6.12135 13.3999 5.1226 14.3987 5.1226 15.6307C5.1226 16.8627 6.12135 17.8615 7.35337 17.8615C8.58539 17.8615 9.58414 16.8627 9.58414 15.6307C9.58414 14.3987 8.58539 13.3999 7.35337 13.3999ZM2.96875 15.6307C2.96875 13.2092 4.93181 11.2461 7.35337 11.2461C9.77492 11.2461 11.738 13.2092 11.738 15.6307C11.738 18.0523 9.77492 20.0153 7.35337 20.0153C4.93181 20.0153 2.96875 18.0523 2.96875 15.6307Z" fill="black"/>
<path fill-rule="evenodd" clip-rule="evenodd" d="M1.76953 8.15332H4.07722V9.23024H1.76953V8.15332Z" fill="black"/>
<path fill-rule="evenodd" clip-rule="evenodd" d="M19.9229 14.7686H22.2305V15.8455H19.9229V14.7686Z" fill="black"/>
<path fill-rule="evenodd" clip-rule="evenodd" d="M4.18044 3.41797L5.81121 5.04874L5.04971 5.81024L3.41895 4.17947L4.18044 3.41797Z" fill="black"/>
<path fill-rule="evenodd" clip-rule="evenodd" d="M18.95 18.1875L20.5807 19.8183L19.8192 20.5798L18.1885 18.949L18.95 18.1875Z" fill="black"/>
<path fill-rule="evenodd" clip-rule="evenodd" d="M9.23024 1.76855V4.07625H8.15332V1.76855H9.23024Z" fill="black"/>
<path fill-rule="evenodd" clip-rule="evenodd" d="M15.8465 19.9219V22.2296H14.7695V19.9219H15.8465Z" fill="black"/>
<path d="M6.59977 17.1222C6.78439 17.1376 6.84593 16.9837 6.90746 16.8299C6.8767 16.6607 6.78439 16.553 6.63054 16.5068C6.44593 16.4607 6.33823 16.5684 6.29208 16.7376C6.24593 16.9837 6.38439 17.1068 6.59977 17.1222Z" fill="black"/>
<path d="M5.4312 18.2301C5.60044 18.2455 5.69274 18.1378 5.72351 17.9685C5.70813 17.8147 5.67736 17.6609 5.49274 17.6455C5.32351 17.6301 5.21582 17.707 5.21582 17.8916C5.21582 18.0609 5.24659 18.2147 5.4312 18.2301Z" fill="black"/>
<path d="M5.47689 15.9685C5.64612 15.9531 5.70766 15.7993 5.73843 15.6454C5.69228 15.4916 5.58459 15.3685 5.41535 15.3685C5.23074 15.3531 5.12305 15.4762 5.12305 15.6454C5.12305 15.8454 5.26151 15.9839 5.47689 15.9685Z" fill="black"/>
<path d="M5.41558 13.0308C5.21558 13.0461 5.2002 13.2 5.2002 13.3538C5.21558 13.5231 5.30789 13.6154 5.47712 13.6154C5.66173 13.5846 5.6925 13.4308 5.6925 13.2923C5.6925 13.1231 5.58481 13.0154 5.41558 13.0308Z" fill="black"/>
<path d="M10.1235 13.0615C9.90811 13.0153 9.80042 13.123 9.76965 13.2923C9.7235 13.4615 9.81581 13.5846 9.98504 13.6461C10.2312 13.723 10.3543 13.5538 10.385 13.3692C10.4004 13.2153 10.262 13.0923 10.1235 13.0615Z" fill="black"/>
<path d="M7.83139 13.7071C7.98523 13.7225 8.12369 13.6918 8.12369 13.4148C8.04677 13.2764 8.00062 13.0302 7.70831 13.0456C7.53908 13.061 7.43139 13.2148 7.44677 13.3533C7.46215 13.5533 7.616 13.6918 7.83139 13.7071Z" fill="black"/>
<path d="M7.52344 17.9388C7.52344 18.0926 7.61574 18.2311 7.78498 18.2311C7.95421 18.2311 8.01574 18.0926 8.04651 17.9388C8.01574 17.7849 7.93882 17.6465 7.76959 17.6465C7.60036 17.6465 7.52344 17.7849 7.52344 17.9388Z" fill="black"/>
<path d="M8.02975 15.6769C8.04511 15.5384 7.96832 15.4615 7.8608 15.4308C7.81472 15.4154 7.72257 15.4615 7.69185 15.5077C7.63041 15.6154 7.66113 15.7077 7.78401 15.7538C7.87616 15.8 7.96832 15.7538 8.02975 15.6769Z" fill="black"/>
<path d="M10.0458 18.2775C10.292 18.3083 10.3843 18.139 10.3689 17.9236C10.3535 17.7698 10.215 17.6621 10.0458 17.6621C9.86118 17.6775 9.76888 17.8006 9.76888 17.9544C9.75349 18.139 9.87657 18.2621 10.0458 18.2775Z" fill="black"/>
<path d="M8.96913 14.7682C9.15374 14.7528 9.18451 14.5989 9.19989 14.4451C9.16913 14.2758 9.07682 14.1835 8.90759 14.1989C8.72297 14.2143 8.67682 14.3682 8.6922 14.522C8.6922 14.6758 8.79989 14.7835 8.96913 14.7682Z" fill="black"/>
<path d="M10.1991 15.4313C10.0916 15.3852 9.99946 15.4467 9.9841 15.5698C9.96874 15.6929 10.0609 15.7544 10.1684 15.7852C10.2759 15.7698 10.3834 15.739 10.3374 15.5852C10.322 15.5236 10.2606 15.4621 10.1991 15.4313Z" fill="black"/>
<path d="M6.58452 14.1841C6.39991 14.1995 6.36914 14.3533 6.36914 14.5072C6.38453 14.6764 6.47683 14.7687 6.66145 14.7687C6.83068 14.7225 6.87683 14.5995 6.86145 14.4456C6.86145 14.2764 6.75376 14.1687 6.58452 14.1841Z" fill="black"/>
<path d="M8.89214 17.077C9.06137 17.077 9.16907 16.9847 9.18445 16.8309C9.19983 16.677 9.15368 16.5232 8.96907 16.5078C8.79983 16.4924 8.67676 16.5693 8.67676 16.7539C8.67676 16.8924 8.72291 17.0309 8.89214 17.077Z" fill="black"/>
</svg>
