<?xml version="1.0" encoding="UTF-8"?>
<svg width="24px" height="26px" viewBox="0 0 24 26" version="1.1" xmlns="http://www.w3.org/2000/svg" xmlns:xlink="http://www.w3.org/1999/xlink">
    <title>F30113D4-E3E0-40B2-A127-3CA1AFF8F042</title>
    <g id="Light" stroke="none" stroke-width="1" fill="none" fill-rule="evenodd">
        <g id="Light-Home-Leaderboard" transform="translate(-1393.000000, -27.000000)" fill="#777E93">
            <g id="Group-4" transform="translate(1137.000000, 23.000000)">
                <g id="moon" transform="translate(256.000000, 4.000000)">
                    <path d="M12.6941511,7.55188518 C12.6941511,5.3594548 13.2245286,3.29407916 14.1606231,1.48235593 C14.4942412,0.836519793 14.0543096,0.053472673 13.3418007,0.0166562552 C13.1272894,0.00558593925 12.9113401,0 12.6941511,0 C5.68335988,0 0,5.82024401 0,12.9999533 C0,20.1935766 5.74906203,26.04368 12.7732912,26 C16.5168261,25.9763441 19.8755696,24.2930975 22.1844175,21.6328193 C22.6617374,21.0828074 22.4166808,20.2150063 21.7285189,20.0031469 C16.5019006,18.3942948 12.6941511,13.4285472 12.6941511,7.55188518" id="Fill-1"></path>
                    <g id="Group-5" transform="translate(18.953374, 5.794000)">
                        <path d="M4.67302782,1.32568953 L3.36275899,1.4751029 L2.83104038,0.210447439 C2.71305687,-0.0701491465 2.33344243,-0.0701491465 2.21551765,0.210447439 L1.6837403,1.4751029 L0.373588926,1.32568953 C0.0829466213,1.29255499 -0.106919325,1.63732665 0.0657981968,1.88472711 L0.844289687,2.99996921 L0.0657981968,4.11527289 C-0.106919325,4.36267335 0.0829466213,4.70744501 0.373588926,4.67431047 L1.6837403,4.52483551 L2.21551765,5.78955256 C2.33344243,6.07014915 2.71305687,6.07014915 2.83104038,5.78955256 L3.36275899,4.52483551 L4.67302782,4.67431047 C4.96372885,4.70744501 5.15353607,4.36267335 4.98081855,4.11527289 L4.20226833,2.99996921 L4.98081855,1.88472711 C5.15353607,1.63732665 4.96372885,1.29255499 4.67302782,1.32568953" id="Fill-3"></path>
                    </g>
                </g>
            </g>
        </g>
    </g>
</svg>