<svg width="36" height="36" viewBox="0 0 36 36" fill="none" xmlns="http://www.w3.org/2000/svg">
<g clip-path="url(#clip0_3117_17768)">
<rect width="36" height="36" fill="white"/>
<g filter="url(#filter0_d_3117_17768)">
<circle cx="18" cy="18" r="18" fill="#E4BA18"/>
</g>
<path fill-rule="evenodd" clip-rule="evenodd" d="M23.4789 10C21.4813 10 19.8618 11.6194 19.8618 13.617V15.4255C19.8618 17.423 21.4811 19.0425 23.4789 19.0425C25.4766 19.0425 27.0959 17.4232 27.0959 15.4255V13.617C27.0959 11.6195 25.4766 10 23.4789 10ZM21.6704 13.617C21.6704 12.6183 22.4801 11.8086 23.4789 11.8086C24.4776 11.8086 25.2873 12.6183 25.2873 13.617V15.4255C25.2873 16.4242 24.4776 17.2339 23.4789 17.2339C22.4801 17.2339 21.6704 16.4242 21.6704 15.4255V13.617ZM19.5056 25.0155C19.5056 23.7671 19.5176 21.755 20.7661 21.755H26.1912C27.4397 21.755 28.4517 23.7671 28.4517 25.0155H30.2602C30.2602 22.7683 28.4384 19.9465 26.1912 19.9465H20.7661C18.5189 19.9465 18.6972 22.7683 18.6972 25.0155H19.5056Z" fill="white"/>
<path d="M8.14027 26.5012H8.89027V25.7512C8.89027 24.6879 9.7522 23.8259 10.8155 23.8259H17.236C18.2994 23.8259 19.1613 24.6879 19.1613 25.7512V26.5012H19.9113H22.0516H22.8016V25.7512C22.8016 22.6774 20.3098 20.1856 17.236 20.1856H16.0643C17.8271 19.4035 19.0567 17.6379 19.0567 15.585V13.4447C19.0567 10.6666 16.8045 8.41406 14.026 8.41406C11.2477 8.41406 8.99532 10.6664 8.99532 13.4447V15.585C8.99532 17.6378 10.2248 19.4035 11.9877 20.1856H10.8155C7.74177 20.1856 5.25 22.6774 5.25 25.7512V26.5012H6H8.14027ZM12.6357 13.4447C12.6357 12.677 13.2582 12.0545 14.026 12.0545C14.7938 12.0545 15.4163 12.6769 15.4163 13.4447V15.585C15.4163 16.3528 14.7938 16.9753 14.026 16.9753C13.2582 16.9753 12.6357 16.3528 12.6357 15.585V13.4447Z" fill="white" stroke="#E4BA18" stroke-width="1.5"/>
</g>
<defs>
<filter id="filter0_d_3117_17768" x="-9.6" y="-4.8" width="55.2" height="55.2" filterUnits="userSpaceOnUse" color-interpolation-filters="sRGB">
<feFlood flood-opacity="0" result="BackgroundImageFix"/>
<feColorMatrix in="SourceAlpha" type="matrix" values="0 0 0 0 0 0 0 0 0 0 0 0 0 0 0 0 0 0 127 0" result="hardAlpha"/>
<feOffset dy="4.8"/>
<feGaussianBlur stdDeviation="4.8"/>
<feComposite in2="hardAlpha" operator="out"/>
<feColorMatrix type="matrix" values="0 0 0 0 0 0 0 0 0 0 0 0 0 0 0 0 0 0 0.08 0"/>
<feBlend mode="normal" in2="BackgroundImageFix" result="effect1_dropShadow_3117_17768"/>
<feBlend mode="normal" in="SourceGraphic" in2="effect1_dropShadow_3117_17768" result="shape"/>
</filter>
<clipPath id="clip0_3117_17768">
<rect width="36" height="36" fill="white"/>
</clipPath>
</defs>
</svg>
