<svg width="264" height="64" viewBox="0 0 264 64" fill="none" xmlns="http://www.w3.org/2000/svg">
<path fill-rule="evenodd" clip-rule="evenodd" d="M31.6525 63.3049C49.1336 63.3049 63.3049 49.1336 63.3049 31.6525C63.3049 14.1713 49.1336 0 31.6525 0C14.1713 0 0 14.1713 0 31.6525C0 49.1336 14.1713 63.3049 31.6525 63.3049ZM45.0966 46.986C45.787 46.986 46.3474 46.4261 46.3474 45.7342V17.2136C46.3474 15.5528 45.6888 13.9605 44.5154 12.7861L43.4531 11.7229C42.0336 10.3023 40.4029 9.17259 38.6333 8.35559C38.2148 8.162 37.7377 8.48665 37.7377 8.94827V33.3759L37.7317 33.366H29.8619C29.0813 33.366 28.6062 34.2277 29.0228 34.8888L35.9889 45.9347C36.4035 46.5929 37.1286 46.9899 37.9053 46.986L38.9646 46.981C38.9681 46.9815 38.9715 46.9824 38.9749 46.9834C38.9794 46.9847 38.9839 46.986 38.9884 46.986H45.0966ZM25.5213 53.7215V29.2939L25.5283 29.3038H33.3971C34.1787 29.3038 34.6529 28.4421 34.2363 27.781L27.2701 16.7351C26.8554 16.0769 26.1314 15.6798 25.3537 15.6828L24.2953 15.6878C24.2909 15.6878 24.2869 15.6865 24.283 15.6853C24.279 15.684 24.275 15.6828 24.2705 15.6828H18.1634C17.472 15.6828 16.9116 16.2437 16.9116 16.9356V45.4562C16.9116 47.117 17.5712 48.7093 18.7447 49.8837L19.807 50.9469C21.2254 52.3675 22.8561 53.4972 24.6256 54.3139C25.0452 54.508 25.5213 54.183 25.5213 53.7215Z" fill="white"/>
<path d="M75.2148 19.8303V40.3001H82.0977V26.8026L97.2936 40.3001H104.176V19.8303H97.2936V32.7915L82.9916 19.8303H75.2148Z" fill="white"/>
<path d="M177.474 40.6578H178.725C181.139 40.6578 183.374 40.479 185.251 40.0321C187.128 39.5851 188.558 39.0488 189.631 38.5125C190.703 37.8868 191.508 37.1717 192.223 36.3672C192.849 35.5627 193.296 34.8476 193.564 34.2219C193.743 33.5962 193.832 32.9704 193.832 32.3447V32.0766H186.413V32.166C185.608 34.5794 182.927 35.7415 178.279 35.7415C176.759 35.7415 175.418 35.5627 174.256 35.2051C173.094 34.8476 172.29 34.4006 171.664 33.7749C171.038 33.1492 170.681 32.6129 170.412 31.9872C170.144 31.3615 169.966 30.7358 169.966 30.0207V29.6631C169.966 28.948 170.055 28.3223 170.323 27.6966C170.591 27.0709 170.949 26.5345 171.485 25.9982C172.111 25.4619 172.915 25.015 174.077 24.7468C175.15 24.3892 176.58 24.2999 178.189 24.2999C179.53 24.2999 180.692 24.3892 181.765 24.6574C182.748 24.8362 183.552 25.1043 184.089 25.3725C184.625 25.6407 185.072 25.9982 185.43 26.3558C185.787 26.7133 186.055 27.0709 186.145 27.2497C186.234 27.4284 186.323 27.6072 186.323 27.8754H193.743V27.5178C193.743 26.9815 193.653 26.3558 193.474 25.7301C193.296 25.1043 192.849 24.3892 192.223 23.5848C191.597 22.7803 190.703 22.1546 189.72 21.5288C188.737 20.9031 187.217 20.4562 185.34 20.0093C183.463 19.5623 181.228 19.3835 178.815 19.3835H177.563C175.061 19.3835 172.826 19.6517 170.949 20.0986C169.072 20.5456 167.552 21.1713 166.569 21.8864C165.586 22.6015 164.692 23.406 164.066 24.3892C163.44 25.3725 163.083 26.2664 162.904 27.0709C162.725 27.8754 162.636 28.6798 162.636 29.5737V30.3782C162.636 30.9145 162.636 31.4509 162.725 32.0766C162.814 32.6129 162.993 33.2386 163.351 33.9537C163.619 34.6688 163.977 35.2945 164.423 35.9202C164.87 36.5459 165.496 37.0823 166.301 37.708C167.105 38.3337 167.999 38.7806 168.982 39.2276C169.965 39.6745 171.217 39.9427 172.737 40.2108C174.077 40.5684 175.686 40.6578 177.474 40.6578Z" fill="white"/>
<path d="M211.172 19.4729C209.205 19.4729 207.417 19.5623 205.808 19.8305C204.2 20.0986 202.859 20.3668 201.786 20.8137C200.713 21.2607 199.819 21.7076 199.015 22.3333C198.21 22.959 197.585 23.4953 197.138 24.1211C196.691 24.7468 196.333 25.3725 196.065 26.0876C195.797 26.8027 195.618 27.4284 195.529 27.9647C195.44 28.501 195.439 29.0374 195.439 29.6631V30.4676C195.439 31.0933 195.44 31.6296 195.529 32.1659C195.618 32.7023 195.797 33.328 196.065 34.0431C196.333 34.7582 196.691 35.3839 197.138 36.0096C197.585 36.6353 198.21 37.1716 199.015 37.7973C199.819 38.423 200.803 38.87 201.786 39.3169C202.859 39.7639 204.2 40.032 205.808 40.3002C207.417 40.5684 209.205 40.6577 211.172 40.6577H212.155C214.122 40.6577 215.909 40.5684 217.429 40.3002C219.038 40.032 220.379 39.6745 221.451 39.3169C222.524 38.87 223.418 38.3337 224.222 37.7973C225.027 37.1716 225.652 36.6353 226.099 36.0096C226.546 35.3839 226.904 34.7582 227.172 34.0431C227.44 33.328 227.619 32.7023 227.708 32.1659C227.798 31.6296 227.798 31.0039 227.798 30.4676V29.6631C227.798 29.0374 227.798 28.501 227.708 27.9647C227.619 27.4284 227.44 26.8027 227.172 26.0876C226.904 25.3725 226.546 24.7468 226.099 24.1211C225.652 23.4953 225.027 22.959 224.222 22.3333C223.418 21.7076 222.524 21.2607 221.451 20.8137C220.379 20.3668 219.038 20.0986 217.429 19.8305C215.82 19.5623 214.122 19.4729 212.155 19.4729H211.172ZM220.557 30.1994C220.557 30.8251 220.468 31.4508 220.2 32.0765C219.932 32.7023 219.485 33.2386 218.948 33.7749C218.323 34.4006 217.429 34.8475 216.088 35.1157C215.015 35.4733 213.675 35.5627 212.155 35.652C211.887 35.652 211.529 35.652 211.44 35.652C209.831 35.652 208.401 35.4733 207.239 35.1157C205.987 34.7582 205.093 34.3112 204.468 33.6855C203.842 33.0598 203.484 32.5235 203.216 31.8978C202.948 31.2721 202.859 30.6463 202.859 30.0206V29.8419C202.859 26.3557 205.719 24.568 211.35 24.4786C211.529 24.4786 212.066 24.4786 212.334 24.4786C213.496 24.4786 214.479 24.568 215.373 24.8361C216.446 25.1043 217.339 25.3725 217.965 25.73C218.591 26.0876 219.127 26.5345 219.485 26.9815C219.932 27.5178 220.2 27.9647 220.289 28.4116C220.468 28.8586 220.468 29.3949 220.468 29.8419V30.1994H220.557Z" fill="white"/>
<path d="M229.05 40.3895H235.754V26.1768L244.603 40.3895H248.357L257.117 26.1768V40.3895H264V19.8303H254.436L246.659 32.6127L238.972 19.8303H229.05V40.3895Z" fill="white"/>
<path d="M105.427 19.8303V40.2107H112.31V31.987H128.042V27.3389H112.488V24.5679H140.735V40.2107H147.796V24.5679H157.361V19.8303H105.427Z" fill="white"/>
<path d="M155.841 40.2107C158.344 40.2107 160.311 38.2442 160.311 35.7413C160.311 33.2385 158.344 31.272 155.841 31.272C153.339 31.272 151.372 33.2385 151.372 35.7413C151.372 38.1548 153.339 40.2107 155.841 40.2107Z" fill="white"/>
</svg>
