<svg width="25" height="24" viewBox="0 0 25 24" fill="none" xmlns="http://www.w3.org/2000/svg">
<ellipse cx="12.5" cy="11.9999" rx="12.5" ry="11.9999" fill="url(#paint0_linear_1720_13)"/>
<path fill-rule="evenodd" clip-rule="evenodd" d="M18.2584 17.4099C18.2584 17.6696 18.0393 17.8797 17.7694 17.8797H15.3813C15.3782 17.8797 15.3751 17.8782 15.372 17.8778L14.9578 17.8797C14.6542 17.8812 14.3707 17.7322 14.2086 17.4851L11.485 13.3393C11.3222 13.0912 11.5079 12.7678 11.8131 12.7678H14.8899L14.8923 12.7715V3.60322C14.8923 3.42997 15.0788 3.30812 15.2424 3.38078C15.9343 3.68742 16.5718 4.11142 17.1268 4.6446L17.5421 5.04364C18.0009 5.48442 18.2584 6.08204 18.2584 6.70539V17.4099ZM10.1161 11.2394V20.4077C10.1161 20.5809 9.92997 20.7029 9.76591 20.63C9.07408 20.3235 8.43654 19.8995 7.882 19.3663L7.46666 18.9673C7.00788 18.5265 6.75 17.9289 6.75 17.3055V6.60106C6.75 6.34137 6.9691 6.13084 7.2394 6.13084H9.62708C9.63058 6.13084 9.63331 6.13272 9.63678 6.13272L10.0506 6.13084C10.3546 6.12974 10.6377 6.27877 10.7998 6.52579L13.5233 10.6716C13.6862 10.9197 13.5008 11.2431 13.1952 11.2431H10.1188L10.1161 11.2394Z" fill="black"/>
<defs>
<linearGradient id="paint0_linear_1720_13" x1="22.6601" y1="17.4948" x2="13.2529" y2="3.86138" gradientUnits="userSpaceOnUse">
<stop stop-color="#FDCC00"/>
<stop offset="1" stop-color="#FF9D39"/>
</linearGradient>
</defs>
</svg>
