<svg width="199" height="48" viewBox="0 0 199 48" fill="none" xmlns="http://www.w3.org/2000/svg">
<path fill-rule="evenodd" clip-rule="evenodd" d="M23.8419 47.6838C37.0094 47.6838 47.6838 37.0094 47.6838 23.8419C47.6838 10.6744 37.0094 0 23.8419 0C10.6744 0 0 10.6744 0 23.8419C0 37.0094 10.6744 47.6838 23.8419 47.6838ZM33.9689 35.3917C34.4889 35.3917 34.911 34.97 34.911 34.4488V12.9659C34.911 11.7149 34.4149 10.5156 33.5311 9.63097L32.7309 8.83013C31.6617 7.76009 30.4334 6.90915 29.1005 6.29376C28.7852 6.14794 28.4258 6.39248 28.4258 6.74019V25.1401L28.4213 25.1326H22.4935C21.9055 25.1326 21.5476 25.7816 21.8614 26.2796L27.1086 34.5998C27.4209 35.0956 27.9671 35.3947 28.5521 35.3917L29.35 35.388C29.3526 35.3883 29.3552 35.389 29.3577 35.3898C29.3611 35.3908 29.3645 35.3917 29.3679 35.3917H33.9689ZM19.224 40.4652V22.0653L19.2292 22.0728H25.1563C25.7451 22.0728 26.1022 21.4237 25.7884 20.9257L20.5412 12.6055C20.2289 12.1098 19.6835 11.8107 19.0977 11.8129L18.3005 11.8166C18.2972 11.8166 18.2942 11.8157 18.2912 11.8148C18.2882 11.8138 18.2852 11.8129 18.2818 11.8129H13.6817C13.1609 11.8129 12.7388 12.2354 12.7388 12.7566V34.2394C12.7388 35.4904 13.2356 36.6898 14.1195 37.5744L14.9197 38.3752C15.9881 39.4453 17.2164 40.2962 18.5493 40.9114C18.8654 41.0576 19.224 40.8127 19.224 40.4652Z" fill="white"/>
<path d="M56.6547 14.937V30.3556H61.8391V20.1888L73.2852 30.3556H78.4696V14.937H73.2852V24.6999L62.5124 14.937H56.6547Z" fill="white"/>
<path d="M133.68 30.6249H134.623C136.441 30.6249 138.124 30.4903 139.538 30.1536C140.952 29.817 142.029 29.413 142.837 29.009C143.645 28.5377 144.251 27.9991 144.79 27.3931C145.261 26.7871 145.598 26.2485 145.8 25.7772C145.934 25.3058 146.002 24.8345 146.002 24.3632V24.1612H140.413V24.2286C139.807 26.0465 137.787 26.9218 134.286 26.9218C133.142 26.9218 132.132 26.7871 131.256 26.5178C130.381 26.2485 129.775 25.9118 129.304 25.4405C128.833 24.9692 128.563 24.5652 128.361 24.0939C128.159 23.6226 128.025 23.1513 128.025 22.6126V22.3433C128.025 21.8047 128.092 21.3334 128.294 20.8621C128.496 20.3907 128.765 19.9868 129.169 19.5828C129.641 19.1788 130.246 18.8421 131.122 18.6402C131.93 18.3708 133.007 18.3035 134.219 18.3035C135.229 18.3035 136.104 18.3708 136.912 18.5728C137.653 18.7075 138.259 18.9095 138.663 19.1115C139.067 19.3135 139.403 19.5828 139.673 19.8521C139.942 20.1214 140.144 20.3907 140.211 20.5254C140.279 20.6601 140.346 20.7947 140.346 20.9967H145.934V20.7274C145.934 20.3234 145.867 19.8521 145.732 19.3808C145.598 18.9095 145.261 18.3708 144.79 17.7649C144.318 17.1589 143.645 16.6876 142.905 16.2163C142.164 15.745 141.019 15.4083 139.605 15.0717C138.191 14.735 136.508 14.6003 134.69 14.6003H133.748C131.862 14.6003 130.179 14.8023 128.765 15.139C127.351 15.4756 126.207 15.9469 125.466 16.4856C124.725 17.0242 124.052 17.6302 123.581 18.3708C123.109 19.1115 122.84 19.7848 122.705 20.3907C122.571 20.9967 122.504 21.6027 122.504 22.276V22.882C122.504 23.2859 122.503 23.6899 122.571 24.1612C122.638 24.5652 122.773 25.0365 123.042 25.5752C123.244 26.1138 123.513 26.5851 123.85 27.0564C124.187 27.5277 124.658 27.9317 125.264 28.403C125.87 28.8743 126.543 29.211 127.284 29.5476C128.025 29.8843 128.967 30.0863 130.112 30.2883C131.122 30.5576 132.334 30.6249 133.68 30.6249Z" fill="white"/>
<path d="M159.063 14.6677C157.581 14.6677 156.235 14.7351 155.023 14.937C153.811 15.139 152.801 15.341 151.993 15.6777C151.185 16.0143 150.512 16.351 149.906 16.8223C149.3 17.2936 148.828 17.6976 148.492 18.1689C148.155 18.6402 147.886 19.1115 147.684 19.6502C147.482 20.1888 147.347 20.6601 147.28 21.0641C147.213 21.4681 147.212 21.8721 147.212 22.3434V22.9493C147.212 23.4207 147.213 23.8246 147.28 24.2286C147.347 24.6326 147.482 25.1039 147.684 25.6425C147.886 26.1812 148.155 26.6525 148.492 27.1238C148.828 27.5951 149.3 27.9991 149.906 28.4704C150.512 28.9417 151.252 29.2784 151.993 29.615C152.801 29.9517 153.811 30.1537 155.023 30.3557C156.235 30.5577 157.581 30.625 159.063 30.625H159.803C161.285 30.625 162.631 30.5577 163.776 30.3557C164.988 30.1537 165.998 29.8844 166.806 29.615C167.614 29.2784 168.287 28.8744 168.893 28.4704C169.499 27.9991 169.97 27.5951 170.307 27.1238C170.643 26.6525 170.913 26.1812 171.115 25.6425C171.317 25.1039 171.451 24.6326 171.519 24.2286C171.586 23.8246 171.586 23.3533 171.586 22.9493V22.3434C171.586 21.8721 171.586 21.4681 171.519 21.0641C171.451 20.6601 171.317 20.1888 171.115 19.6502C170.913 19.1115 170.643 18.6402 170.307 18.1689C169.97 17.6976 169.499 17.2936 168.893 16.8223C168.287 16.351 167.614 16.0143 166.806 15.6777C165.998 15.341 164.988 15.139 163.776 14.937C162.564 14.7351 161.285 14.6677 159.803 14.6677H159.063ZM166.132 22.7473C166.132 23.2187 166.065 23.69 165.863 24.1613C165.661 24.6326 165.324 25.0366 164.92 25.4406C164.449 25.9119 163.776 26.2485 162.766 26.4505C161.958 26.7198 160.948 26.7872 159.803 26.8545C159.601 26.8545 159.332 26.8545 159.265 26.8545C158.053 26.8545 156.975 26.7198 156.1 26.4505C155.157 26.1812 154.484 25.8445 154.013 25.3732C153.542 24.9019 153.272 24.4979 153.07 24.0266C152.868 23.5553 152.801 23.084 152.801 22.6127V22.478C152.801 19.8522 154.955 18.5055 159.197 18.4382C159.332 18.4382 159.736 18.4382 159.938 18.4382C160.813 18.4382 161.554 18.5055 162.227 18.7075C163.035 18.9095 163.708 19.1115 164.18 19.3808C164.651 19.6502 165.055 19.9868 165.324 20.3235C165.661 20.7274 165.863 21.0641 165.93 21.4007C166.065 21.7374 166.065 22.1414 166.065 22.478V22.7473H166.132Z" fill="white"/>
<path d="M172.529 30.423H177.579V19.7175L184.245 30.423H187.073L193.671 19.7175V30.423H198.856V14.937H191.651L185.793 24.5652L180.003 14.937H172.529V30.423Z" fill="white"/>
<path d="M79.4117 14.937V30.2883H84.5961V24.0939H96.4462V20.5927H84.7308V18.5055H106.007V30.2883H111.326V18.5055H118.531V14.937H79.4117Z" fill="white"/>
<path d="M117.386 30.2882C119.271 30.2882 120.752 28.8069 120.752 26.9217C120.752 25.0364 119.271 23.5552 117.386 23.5552C115.5 23.5552 114.019 25.0364 114.019 26.9217C114.019 28.7396 115.5 30.2882 117.386 30.2882Z" fill="white"/>
</svg>
