<svg width="100%" height="100%" viewBox="0 0 24 24" fill="none" xmlns="http://www.w3.org/2000/svg">
<circle cx="11.9999" cy="11.9999" r="11.9999" fill="url(#paint0_linear_2645_15420)"/>
<path fill-rule="evenodd" clip-rule="evenodd" d="M17.5284 17.4108C17.5284 17.6705 17.3181 17.8807 17.059 17.8807H14.7664C14.7635 17.8807 14.7605 17.8792 14.7575 17.8788L14.3599 17.8807C14.0684 17.8822 13.7963 17.7331 13.6407 17.4861L11.0261 13.3403C10.8697 13.0922 11.048 12.7688 11.341 12.7688H14.2948L14.297 12.7725V3.6042C14.297 3.43094 14.4761 3.30909 14.6332 3.38175C15.2973 3.68839 15.9094 4.1124 16.4421 4.64558L16.8408 5.04462C17.2812 5.48539 17.5284 6.08302 17.5284 6.70636V17.4108ZM9.71191 11.2404V20.4087C9.71191 20.5819 9.53322 20.7039 9.37573 20.631C8.71157 20.3245 8.09954 19.9005 7.56718 19.3673L7.16846 18.9683C6.72803 18.5275 6.48047 17.9299 6.48047 17.3065V6.60204C6.48047 6.34235 6.6908 6.13182 6.95029 6.13182H9.24245C9.24581 6.13182 9.24843 6.1337 9.25177 6.1337L9.64899 6.13182C9.94087 6.13072 10.2126 6.27975 10.3683 6.52677L12.9828 10.6726C13.1392 10.9207 12.9612 11.2441 12.6679 11.2441H9.71452L9.71191 11.2404Z" fill="black"/>
<defs>
<linearGradient id="paint0_linear_2645_15420" x1="21.7536" y1="17.4948" x2="12.2161" y2="4.22552" gradientUnits="userSpaceOnUse">
<stop stop-color="#FDCC00"/>
<stop offset="1" stop-color="#FF9D39"/>
</linearGradient>
</defs>
</svg>
