<?xml version="1.0" encoding="UTF-8"?>
<svg width="34px" height="34px" viewBox="0 0 34 34" version="1.1" xmlns="http://www.w3.org/2000/svg" xmlns:xlink="http://www.w3.org/1999/xlink">
    <title>DB03B720-35FB-4CD8-A0BD-05A47BC66227</title>
    <defs>
        <linearGradient x1="50%" y1="0%" x2="50%" y2="100%" id="linearGradient-1">
            <stop stop-color="#FF278F" offset="0%"></stop>
            <stop stop-color="#009ECF" offset="100%"></stop>
        </linearGradient>
    </defs>
    <g id="Dark" stroke="none" stroke-width="1" fill="none" fill-rule="evenodd">
        <g id="Home-Dark-Leaderboard" transform="translate(-1054.000000, -535.000000)">
            <g id="Group-9" transform="translate(220.000000, 180.000000)">
                <g id="Group-7" transform="translate(0.000000, 300.000000)">
                    <g id="Group-6" transform="translate(0.000000, 32.000000)">
                        <g id="Group-9-Copy-3" transform="translate(834.000000, 23.000000)">
                            <circle id="Oval" fill="url(#linearGradient-1)" cx="17" cy="17" r="17"></circle>
                            <path d="M13.7699891,10.0695971 L13.7804381,10.0718023 L13.7804381,10.0718023 L14.2454165,10.0695971 C14.586749,10.0682858 14.9045713,10.244108 15.0865572,10.5355332 L18.1441821,15.4264657 C18.3270388,15.7192095 18.1189305,16.1007436 17.7758565,16.1007436 L14.3216068,16.1007436 L14.3189945,16.096348 L14.3189945,26.9124868 C14.3189945,27.1168801 14.1095801,27.2606147 13.9258527,27.1749014 C13.1491471,26.8131473 12.4333939,26.3129333 11.8108104,25.6839296 L11.3440905,25.2131658 C10.8294795,24.6931718 10.5399565,23.988125 10.5399565,23.2527489 L10.5399565,10.6243233 C10.5399565,10.3179533 10.7859422,10.0695971 11.0893973,10.0695971 L13.7699891,10.0695971 Z M20.0741038,6.82524635 C20.8508093,7.18700041 21.5665626,7.68721441 22.1895814,8.31621813 L22.655866,8.78698193 C23.1709123,9.30697592 23.46,10.0120227 23.46,10.7473988 L23.46,23.3758244 C23.46,23.6821945 23.2140142,23.9301168 22.9109946,23.9301168 L20.2299673,23.9301168 C20.2264844,23.9301168 20.2230014,23.9283455 20.2195184,23.9279059 L19.75454,23.9301168 C19.4136429,23.9318619 19.0953852,23.7560398 18.9133992,23.4646146 L15.8557743,18.5736821 C15.6729176,18.2809382 15.8814613,17.8994041 16.2240999,17.8994041 L19.6783497,17.8994041 L19.6809619,17.9037997 L19.6809619,7.0876609 C19.6809619,6.88326765 19.8903764,6.73953305 20.0741038,6.82524635 Z" id="Combined-Shape" fill="#FFFFFF"></path>
                        </g>
                    </g>
                </g>
            </g>
        </g>
    </g>
</svg>