<svg width="600" height="417" viewBox="0 0 600 417" fill="none" xmlns="http://www.w3.org/2000/svg">
<ellipse cx="285.417" cy="227.085" rx="142.917" ry="142.917" fill="#FFF0CB"/>
<path d="M146.917 174.167V139.667L169.833 126.417V160.917L146.917 174.167Z" stroke="black" stroke-width="1.66667" stroke-miterlimit="10" stroke-linecap="round" stroke-linejoin="round"/>
<path d="M145.5 138.667L146.917 139.667L169.833 126.417L168.417 125.417L145.5 138.667Z" stroke="black" stroke-width="1.66667" stroke-miterlimit="10" stroke-linecap="round" stroke-linejoin="round"/>
<path d="M145.5 173.167V138.667L146.917 139.667V174.167L145.5 173.167Z" stroke="black" stroke-width="1.66667" stroke-miterlimit="10" stroke-linecap="round" stroke-linejoin="round"/>
<path d="M275.25 271.501C275.25 271.501 268.667 258.751 274.167 233.751C274.167 233.751 295.167 239.668 303.583 249.668" stroke="black" stroke-width="1.66667" stroke-miterlimit="10" stroke-linecap="round" stroke-linejoin="round"/>
<path d="M338.333 268.835C338.333 268.835 349 254.169 345.5 236.752C345.5 236.752 332.166 236.752 323.75 246.835" stroke="black" stroke-width="1.66667" stroke-miterlimit="10" stroke-linecap="round" stroke-linejoin="round"/>
<path d="M300.5 246.667C304.416 245.584 308.833 245.084 313.833 245.501C335.916 247.167 334.166 260.584 340.583 274.251C350.25 295.167 334.833 304.917 315.5 304.917C292.75 304.917 277.166 295.834 270.333 286.084C270.333 286.084 271.416 279.334 275 271.417" stroke="black" stroke-width="1.66667" stroke-miterlimit="10" stroke-linecap="round" stroke-linejoin="round"/>
<path d="M294.833 273.085C294.833 273.085 301.75 280.918 306.083 273.085" stroke="black" stroke-width="1.66667" stroke-miterlimit="10" stroke-linecap="round" stroke-linejoin="round"/>
<path d="M329.5 273.085C329.5 273.085 333.417 279.585 337.333 272.585" stroke="black" stroke-width="1.66667" stroke-miterlimit="10" stroke-linecap="round" stroke-linejoin="round"/>
<path d="M322.666 272.085C321.333 268.585 316.5 268.418 314.916 271.752C312.5 277.002 308.916 281.835 303.25 284.752C292.583 290.252 295.25 305.085 317.333 304.835C339.416 304.585 338.25 290.752 331.583 284.752C327.666 281.252 324.833 277.668 322.666 272.085Z" stroke="black" stroke-width="1.66667" stroke-miterlimit="10" stroke-linecap="round" stroke-linejoin="round"/>
<path d="M336.416 263.085C337.583 261.668 341.666 255.751 341.25 242.418C341.25 242.418 333.666 245.585 329 250.585C332.833 253.668 334.666 258.085 336.416 263.085Z" fill="black" stroke="black" stroke-width="1.66667" stroke-miterlimit="10" stroke-linecap="round" stroke-linejoin="round"/>
<path d="M292.167 250.335C287.167 242.585 277.583 240.168 277.583 240.168C277.25 252.501 278.833 259.085 280.083 262.168C283.083 257.751 287.083 253.418 292.167 250.335Z" fill="black" stroke="black" stroke-width="1.66667" stroke-miterlimit="10" stroke-linecap="round" stroke-linejoin="round"/>
<path d="M312 286.252L318.833 291.502L326.417 286.085C326.417 286.085 318.917 283.085 312 286.252Z" fill="black" stroke="black" stroke-width="1.66667" stroke-miterlimit="10" stroke-linecap="round" stroke-linejoin="round"/>
<path d="M308.333 291.918C308.333 297.335 322.833 296.668 325.916 295.085" stroke="black" stroke-width="1.66667" stroke-miterlimit="10" stroke-linecap="round" stroke-linejoin="round"/>
<path d="M319.167 290.001V296.418" stroke="black" stroke-width="1.66667" stroke-miterlimit="10" stroke-linecap="round" stroke-linejoin="round"/>
<path d="M283.667 293.335L268.167 299.668" stroke="black" stroke-width="1.66667" stroke-miterlimit="10" stroke-linecap="round" stroke-linejoin="round"/>
<path d="M279.75 288.168L256.583 291.918" stroke="black" stroke-width="1.66667" stroke-miterlimit="10" stroke-linecap="round" stroke-linejoin="round"/>
<path d="M277.5 282.336L261.167 280.169" stroke="black" stroke-width="1.66667" stroke-miterlimit="10" stroke-linecap="round" stroke-linejoin="round"/>
<path d="M340.5 291.086L357.083 293.253" stroke="black" stroke-width="1.66667" stroke-miterlimit="10" stroke-linecap="round" stroke-linejoin="round"/>
<path d="M341.25 286.085L362.167 284.168" stroke="black" stroke-width="1.66667" stroke-miterlimit="10" stroke-linecap="round" stroke-linejoin="round"/>
<path d="M339.5 280.086L354.75 273.919" stroke="black" stroke-width="1.66667" stroke-miterlimit="10" stroke-linecap="round" stroke-linejoin="round"/>
<path d="M313.833 245.502C298.917 229.336 293.5 175.669 256.583 169.669C219.083 163.586 194.417 196.169 189.833 222.669C185.25 249.169 194.75 312.252 202.917 311.919C211.083 311.586 209 285.169 211.417 280.086C213.833 275.002 233.333 263.419 228.5 245.336C223.583 227.169 212.333 225.336 212.333 225.336" stroke="black" stroke-width="1.66667" stroke-miterlimit="10" stroke-linecap="round" stroke-linejoin="round"/>
<path d="M188.667 242.419C178.333 255.752 152.333 249.836 153 277.086C153.667 304.336 145.333 307.669 139.917 306.169C133.75 304.502 132.333 281.086 137.5 262.252C142.667 243.419 158.25 239.169 167.333 236.836C176.417 234.502 187.333 225.002 192.167 213.669" stroke="black" stroke-width="1.66667" stroke-miterlimit="10" stroke-linecap="round" stroke-linejoin="round"/>
<path d="M243.5 252.669C240.75 285.169 239.833 357.086 251.25 356.752C262.667 356.419 261.75 302.252 274.75 291.086" stroke="black" stroke-width="1.66667" stroke-miterlimit="10" stroke-linecap="round" stroke-linejoin="round"/>
<path d="M248.417 349.168C248.417 349.168 248.083 352.335 248.417 355.085" stroke="black" stroke-width="1.66667" stroke-miterlimit="10" stroke-linecap="round" stroke-linejoin="round"/>
<path d="M253.333 349.168C253.333 349.168 252.667 353.585 252.583 356.335" stroke="black" stroke-width="1.66667" stroke-miterlimit="10" stroke-linecap="round" stroke-linejoin="round"/>
<path d="M242.833 330.335C242.833 330.335 250.667 335.502 261.167 332.752" stroke="black" stroke-width="1.66667" stroke-miterlimit="10" stroke-linecap="round" stroke-linejoin="round"/>
<path d="M192.667 283.835C192.667 283.835 199.583 291.252 210.167 289.002" stroke="black" stroke-width="1.66667" stroke-miterlimit="10" stroke-linecap="round" stroke-linejoin="round"/>
<path d="M200.583 304.918V310.418" stroke="black" stroke-width="1.66667" stroke-miterlimit="10" stroke-linecap="round" stroke-linejoin="round"/>
<path d="M204.916 304.668V311.251" stroke="black" stroke-width="1.66667" stroke-miterlimit="10" stroke-linecap="round" stroke-linejoin="round"/>
<path d="M135.833 269.419C141.083 269.086 143.833 278.419 153 277.002" stroke="black" stroke-width="1.66667" stroke-miterlimit="10" stroke-linecap="round" stroke-linejoin="round"/>
<path d="M152.167 242.501C152.25 247.751 155.583 254.918 162.083 257.001L159.583 258.918C159.583 258.918 149.833 254.084 150.083 243.834L152.167 242.501Z" fill="black" stroke="black" stroke-width="1.66667" stroke-miterlimit="10" stroke-linecap="round" stroke-linejoin="round"/>
<path d="M168.417 236.501C168.417 236.501 166.25 246.168 173.25 251.834L170.667 252.668C170.667 252.668 164.75 248.251 166.417 237.084L168.417 236.501Z" fill="black" stroke="black" stroke-width="1.66667" stroke-miterlimit="10" stroke-linecap="round" stroke-linejoin="round"/>
<path d="M224.75 264.918C224.75 264.918 229 277.834 241.667 283.918L242.75 262.251C242.75 262.251 236.25 258.334 234.083 251.251C231.417 242.251 234.083 233.168 216.333 227.084C216.333 227.001 238.5 240.418 224.75 264.918Z" fill="black" stroke="black" stroke-width="1.66667" stroke-miterlimit="10" stroke-linecap="round" stroke-linejoin="round"/>
<path d="M270.833 296.252C270.833 296.252 278.5 300.752 289.167 300.085C289.167 300.085 278.167 295.168 274.167 291.085L270.833 296.252Z" fill="black" stroke="black" stroke-width="1.66667" stroke-miterlimit="10" stroke-linecap="round" stroke-linejoin="round"/>
<path d="M224.75 208.001C224.25 209.168 242.583 182.751 281.916 185.001C281.916 185.001 276.75 177.335 269.333 174.168C269.333 174.168 239.666 176.501 224.75 208.001Z" fill="black" stroke="black" stroke-width="1.66667" stroke-miterlimit="10" stroke-linecap="round" stroke-linejoin="round"/>
<path d="M229.333 172.168C229.333 172.168 210.417 179.751 207.333 201.501C207.333 201.501 204.25 197.335 207.333 187.335C207.417 187.418 215.917 176.835 229.333 172.168Z" fill="black" stroke="black" stroke-width="1.66667" stroke-miterlimit="10" stroke-linecap="round" stroke-linejoin="round"/>
<path d="M254.75 221.335C258.25 204.835 275.916 194.751 288.5 194.418L293.75 204.251C293.666 204.251 270.833 205.668 254.75 221.335Z" fill="black" stroke="black" stroke-width="1.66667" stroke-miterlimit="10" stroke-linecap="round" stroke-linejoin="round"/>
<path d="M303.5 227.001C303.5 227.001 290.333 227.585 281.917 232.418C281.917 232.418 288.167 221.918 300 218.668L303.5 227.001Z" fill="black" stroke="black" stroke-width="1.66667" stroke-miterlimit="10" stroke-linecap="round" stroke-linejoin="round"/>
<path d="M341.334 208.588L331.251 202.755V205.672L335.334 208.005C336.001 208.422 336.667 208.755 337.417 209.005L337.501 209.338C336.834 209.505 336.417 209.838 335.834 210.172L330.667 213.838V216.588L341.418 222.755V219.838L337.001 217.338C336.251 216.922 335.418 216.505 334.751 216.172L334.667 215.838C335.334 215.672 335.918 215.338 336.418 214.922L341.251 211.255L341.334 208.588Z" fill="black"/>
<path d="M292.166 301.252C288.25 308.585 285.75 315.002 308.416 311.918C331 308.918 346.25 302.835 352.083 294.085C357.916 285.335 352.333 269.168 339.5 267.085" stroke="black" stroke-width="1.66667" stroke-miterlimit="10" stroke-linecap="round" stroke-linejoin="round"/>
<path d="M294.833 304.668C294.833 304.668 291.833 306.585 289.75 309.418" stroke="black" stroke-width="1.66667" stroke-miterlimit="10" stroke-linecap="round" stroke-linejoin="round"/>
<path d="M293.667 312.252C293.667 312.252 295.583 309.752 298.25 308.002" stroke="black" stroke-width="1.66667" stroke-miterlimit="10" stroke-linecap="round" stroke-linejoin="round"/>
<path d="M311.5 304.585C311.5 304.585 313.5 307.835 313.083 311.252" stroke="black" stroke-width="1.66667" stroke-miterlimit="10" stroke-linecap="round" stroke-linejoin="round"/>
<path d="M302.833 225.419L303.083 226.002L329.916 241.586C330.083 241.502 330.166 241.419 330.333 241.336L302.833 225.419Z" fill="black" stroke="black" stroke-width="1.66667" stroke-miterlimit="10" stroke-linecap="round" stroke-linejoin="round"/>
<path d="M427.583 151.585L288.333 71.0851C284.916 69.0851 280.5 70.5851 279 74.3351L240.833 169.335C242.583 169.085 244.333 169.002 246.166 168.919L283.5 75.7517L427.583 159.085L382.5 271.502L345.666 250.169C345.666 250.335 345.583 250.419 345.583 250.585L386.416 274.169L431.25 162.335C432.916 158.419 431.333 153.752 427.583 151.585Z" fill="black" stroke="black" stroke-width="1.66667" stroke-miterlimit="10" stroke-linecap="round" stroke-linejoin="round"/>
<path d="M275.25 271.501C275.25 271.501 268.667 258.751 274.167 233.751C274.167 233.751 295.167 239.668 303.583 249.668" stroke="black" stroke-width="1.66667" stroke-miterlimit="10" stroke-linecap="round" stroke-linejoin="round"/>
<path d="M338.333 268.835C338.333 268.835 349 254.169 345.5 236.752C345.5 236.752 332.166 236.752 323.75 246.835" stroke="black" stroke-width="1.66667" stroke-miterlimit="10" stroke-linecap="round" stroke-linejoin="round"/>
<path d="M300.5 246.667C304.416 245.584 308.833 245.084 313.833 245.501C335.916 247.167 334.166 260.584 340.583 274.251C350.25 295.167 334.833 304.917 315.5 304.917C292.75 304.917 277.166 295.834 270.333 286.084C270.333 286.084 271.416 279.334 275 271.417" stroke="black" stroke-width="1.66667" stroke-miterlimit="10" stroke-linecap="round" stroke-linejoin="round"/>
<path d="M294.833 273.085C294.833 273.085 301.75 280.918 306.083 273.085" stroke="black" stroke-width="1.66667" stroke-miterlimit="10" stroke-linecap="round" stroke-linejoin="round"/>
<path d="M329.5 273.085C329.5 273.085 333.417 279.585 337.333 272.585" stroke="black" stroke-width="1.66667" stroke-miterlimit="10" stroke-linecap="round" stroke-linejoin="round"/>
<path d="M322.666 272.085C321.333 268.585 316.5 268.418 314.916 271.752C312.5 277.002 308.916 281.835 303.25 284.752C292.583 290.252 295.25 305.085 317.333 304.835C339.416 304.585 338.25 290.752 331.583 284.752C327.666 281.252 324.833 277.668 322.666 272.085Z" stroke="black" stroke-width="1.66667" stroke-miterlimit="10" stroke-linecap="round" stroke-linejoin="round"/>
<path d="M336.416 263.085C337.583 261.668 341.666 255.751 341.25 242.418C341.25 242.418 333.666 245.585 329 250.585C332.833 253.668 334.666 258.085 336.416 263.085Z" fill="black" stroke="black" stroke-width="1.66667" stroke-miterlimit="10" stroke-linecap="round" stroke-linejoin="round"/>
<path d="M292.167 250.335C287.167 242.585 277.583 240.168 277.583 240.168C277.25 252.501 278.833 259.085 280.083 262.168C283.083 257.751 287.083 253.418 292.167 250.335Z" fill="black" stroke="black" stroke-width="1.66667" stroke-miterlimit="10" stroke-linecap="round" stroke-linejoin="round"/>
<path d="M312 286.252L318.833 291.502L326.417 286.085C326.417 286.085 318.917 283.085 312 286.252Z" fill="black" stroke="black" stroke-width="1.66667" stroke-miterlimit="10" stroke-linecap="round" stroke-linejoin="round"/>
<path d="M308.333 291.918C308.333 297.335 322.833 296.668 325.916 295.085" stroke="black" stroke-width="1.66667" stroke-miterlimit="10" stroke-linecap="round" stroke-linejoin="round"/>
<path d="M319.167 290.001V296.418" stroke="black" stroke-width="1.66667" stroke-miterlimit="10" stroke-linecap="round" stroke-linejoin="round"/>
<path d="M283.667 293.335L268.167 299.668" stroke="black" stroke-width="1.66667" stroke-miterlimit="10" stroke-linecap="round" stroke-linejoin="round"/>
<path d="M279.75 288.168L256.583 291.918" stroke="black" stroke-width="1.66667" stroke-miterlimit="10" stroke-linecap="round" stroke-linejoin="round"/>
<path d="M277.5 282.336L261.167 280.169" stroke="black" stroke-width="1.66667" stroke-miterlimit="10" stroke-linecap="round" stroke-linejoin="round"/>
<path d="M340.5 291.086L357.083 293.253" stroke="black" stroke-width="1.66667" stroke-miterlimit="10" stroke-linecap="round" stroke-linejoin="round"/>
<path d="M341.25 286.085L362.167 284.168" stroke="black" stroke-width="1.66667" stroke-miterlimit="10" stroke-linecap="round" stroke-linejoin="round"/>
<path d="M339.5 280.086L354.75 273.919" stroke="black" stroke-width="1.66667" stroke-miterlimit="10" stroke-linecap="round" stroke-linejoin="round"/>
<path d="M313.833 245.502C298.917 229.336 293.5 175.669 256.583 169.669C219.083 163.586 194.417 196.169 189.833 222.669C185.25 249.169 194.75 312.252 202.917 311.919C211.083 311.586 209 285.169 211.417 280.086C213.833 275.002 233.333 263.419 228.5 245.336C223.583 227.169 212.333 225.336 212.333 225.336" stroke="black" stroke-width="1.66667" stroke-miterlimit="10" stroke-linecap="round" stroke-linejoin="round"/>
<path d="M243.5 252.669C240.75 285.169 239.833 357.086 251.25 356.752C262.667 356.419 261.75 302.252 274.75 291.086" stroke="black" stroke-width="1.66667" stroke-miterlimit="10" stroke-linecap="round" stroke-linejoin="round"/>
<path d="M248.417 349.168C248.417 349.168 248.083 352.335 248.417 355.085" stroke="black" stroke-width="1.66667" stroke-miterlimit="10" stroke-linecap="round" stroke-linejoin="round"/>
<path d="M253.333 349.168C253.333 349.168 252.667 353.585 252.583 356.335" stroke="black" stroke-width="1.66667" stroke-miterlimit="10" stroke-linecap="round" stroke-linejoin="round"/>
<path d="M192.667 283.835C192.667 283.835 199.583 291.252 210.167 289.002" stroke="black" stroke-width="1.66667" stroke-miterlimit="10" stroke-linecap="round" stroke-linejoin="round"/>
<path d="M200.583 304.918V310.418" stroke="black" stroke-width="1.66667" stroke-miterlimit="10" stroke-linecap="round" stroke-linejoin="round"/>
<path d="M204.916 304.668V311.251" stroke="black" stroke-width="1.66667" stroke-miterlimit="10" stroke-linecap="round" stroke-linejoin="round"/>
<path d="M135.833 269.419C141.083 269.086 143.833 278.419 153 277.002" stroke="black" stroke-width="1.66667" stroke-miterlimit="10" stroke-linecap="round" stroke-linejoin="round"/>
<path d="M152.167 242.501C152.25 247.751 155.583 254.918 162.083 257.001L159.583 258.918C159.583 258.918 149.833 254.084 150.083 243.834L152.167 242.501Z" fill="black" stroke="black" stroke-width="1.66667" stroke-miterlimit="10" stroke-linecap="round" stroke-linejoin="round"/>
<path d="M168.417 236.501C168.417 236.501 166.25 246.168 173.25 251.834L170.667 252.668C170.667 252.668 164.75 248.251 166.417 237.084L168.417 236.501Z" fill="black" stroke="black" stroke-width="1.66667" stroke-miterlimit="10" stroke-linecap="round" stroke-linejoin="round"/>
<path d="M224.75 264.918C224.75 264.918 229 277.834 241.667 283.918L242.75 262.251C242.75 262.251 236.25 258.334 234.083 251.251C231.417 242.251 234.083 233.168 216.333 227.084C216.333 227.001 238.5 240.418 224.75 264.918Z" fill="black" stroke="black" stroke-width="1.66667" stroke-miterlimit="10" stroke-linecap="round" stroke-linejoin="round"/>
<path d="M270.833 296.252C270.833 296.252 278.5 300.752 289.167 300.085C289.167 300.085 278.167 295.168 274.167 291.085L270.833 296.252Z" fill="black" stroke="black" stroke-width="1.66667" stroke-miterlimit="10" stroke-linecap="round" stroke-linejoin="round"/>
<path d="M224.75 208.001C224.25 209.168 242.583 182.751 281.916 185.001C281.916 185.001 276.75 177.335 269.333 174.168C269.333 174.168 239.666 176.501 224.75 208.001Z" fill="black" stroke="black" stroke-width="1.66667" stroke-miterlimit="10" stroke-linecap="round" stroke-linejoin="round"/>
<path d="M229.333 172.168C229.333 172.168 210.417 179.751 207.333 201.501C207.333 201.501 204.25 197.335 207.333 187.335C207.417 187.418 215.917 176.835 229.333 172.168Z" fill="black" stroke="black" stroke-width="1.66667" stroke-miterlimit="10" stroke-linecap="round" stroke-linejoin="round"/>
<path d="M254.75 221.335C258.25 204.835 275.916 194.751 288.5 194.418L293.75 204.251C293.666 204.251 270.833 205.668 254.75 221.335Z" fill="black" stroke="black" stroke-width="1.66667" stroke-miterlimit="10" stroke-linecap="round" stroke-linejoin="round"/>
<path d="M303.5 227.001C303.5 227.001 290.333 227.585 281.917 232.418C281.917 232.418 288.167 221.918 300 218.668L303.5 227.001Z" fill="black" stroke="black" stroke-width="1.66667" stroke-miterlimit="10" stroke-linecap="round" stroke-linejoin="round"/>
<path d="M292.166 301.252C288.25 308.585 285.75 315.002 308.416 311.918C331 308.918 346.25 302.835 352.083 294.085C357.916 285.335 352.333 269.168 339.5 267.085" stroke="black" stroke-width="1.66667" stroke-miterlimit="10" stroke-linecap="round" stroke-linejoin="round"/>
<path d="M294.833 304.668C294.833 304.668 291.833 306.585 289.75 309.418" stroke="black" stroke-width="1.66667" stroke-miterlimit="10" stroke-linecap="round" stroke-linejoin="round"/>
<path d="M293.667 312.252C293.667 312.252 295.583 309.752 298.25 308.002" stroke="black" stroke-width="1.66667" stroke-miterlimit="10" stroke-linecap="round" stroke-linejoin="round"/>
<path d="M311.5 304.585C311.5 304.585 313.5 307.835 313.083 311.252" stroke="black" stroke-width="1.66667" stroke-miterlimit="10" stroke-linecap="round" stroke-linejoin="round"/>
<path d="M386.417 274.252L345.584 250.669C344.25 258.336 341.167 264.336 339.417 267.169C352.25 269.252 357.834 285.419 352 294.169L386.417 274.252Z" stroke="black" stroke-width="1.66667" stroke-miterlimit="10" stroke-linecap="round" stroke-linejoin="round"/>
<path d="M313.084 311.253C311.584 311.503 310 311.753 308.334 311.919C301.167 312.919 296.5 312.919 293.667 312.253C291.334 311.753 290.167 310.753 289.75 309.503C289 307.336 290.417 304.419 292.167 301.253C291 300.836 289.834 300.419 288.75 300.003C289 300.086 289.167 300.169 289.167 300.169C278.584 300.836 270.834 296.336 270.834 296.336C267.667 302.336 265.584 311.419 263.75 320.753L281.084 330.753C283.417 332.086 286.334 332.086 288.75 330.753L328 308.086C323.5 309.253 318.501 310.336 313.084 311.253Z" stroke="black" stroke-width="1.66667" stroke-miterlimit="10" stroke-linecap="round" stroke-linejoin="round"/>
<path d="M137.5 247.586L142.917 250.752C145.083 247.919 147.583 245.586 150.167 243.836C150.833 243.419 151.5 243.002 152.083 242.586C157 239.669 162.167 238.169 166.25 237.169L167.75 236.752C176.75 234.252 187.25 224.836 192 213.752V213.836C192.417 212.419 193 211.086 193.5 209.669L137.5 241.919C135.333 243.169 135.333 246.336 137.5 247.586Z" stroke="black" stroke-width="1.66667" stroke-miterlimit="10" stroke-linecap="round" stroke-linejoin="round"/>
<path d="M162.084 257.086L159.75 258.836C159.417 259.169 159 259.503 158.667 259.836L191.834 279.003C190 267.253 188.834 254.003 188.667 242.336C184.917 247.169 179.084 249.503 173.25 251.753C169.334 253.336 165.417 254.836 162.084 257.086Z" stroke="black" stroke-width="1.66667" stroke-miterlimit="10" stroke-linecap="round" stroke-linejoin="round"/>
<path d="M211.5 280.085C210.75 281.669 210.417 285.252 210.083 289.502L241.75 307.835C241.583 296.335 241.75 284.335 242.167 273.502L241.667 283.835C228.917 277.752 224.75 264.835 224.75 264.835C224.75 264.835 224.75 264.835 224.75 264.752C220 272.085 212.833 277.169 211.5 280.085Z" stroke="black" stroke-width="1.66667" stroke-miterlimit="10" stroke-linecap="round" stroke-linejoin="round"/>
<path d="M193 285.752C192.916 285.085 192.75 284.502 192.666 283.835C192.416 282.252 192.083 280.668 191.833 279.002L158.666 259.835C157.5 261.085 156.416 262.418 155.5 264.085L193 285.752Z" stroke="black" stroke-width="1.66667" stroke-miterlimit="10" stroke-linecap="round" stroke-linejoin="round"/>
<path d="M241.75 307.919L210.083 289.586C209.916 291.419 209.833 293.419 209.583 295.419L241.916 314.086C241.833 312.086 241.833 310.003 241.75 307.919Z" stroke="black" stroke-width="1.66667" stroke-miterlimit="10" stroke-linecap="round" stroke-linejoin="round"/>
<path d="M352.083 294.085C348.083 300.002 339.833 304.668 328 308.002L288.75 330.668C286.416 332.002 283.5 332.002 281.083 330.668L263.75 320.668C263.416 322.502 263.083 324.335 262.667 326.168L280.5 336.502C282.833 337.835 285.666 337.835 287.916 336.502L383.083 281.585L386.333 274.335L352.083 294.085Z" stroke="black" stroke-width="1.66667" stroke-miterlimit="10" stroke-linecap="round" stroke-linejoin="round"/>
<path d="M139.083 252.835C139.083 253.669 139.416 254.502 140.166 255.169C141 253.585 141.916 252.085 142.916 250.752L137.5 247.585C136.666 247.085 136.166 246.335 136 245.502H135.917L139.083 252.835Z" stroke="black" stroke-width="1.66667" stroke-miterlimit="10" stroke-linecap="round" stroke-linejoin="round"/>
<path d="M402.333 179.584L286 112.251L290.167 103.501C291.25 101.251 294 100.334 296.25 101.584L403.083 162.918C405.833 164.501 407.083 167.918 405.833 170.918L402.333 179.584Z" fill="#F9D54C" stroke="black" stroke-width="1.66667" stroke-miterlimit="10" stroke-linecap="round" stroke-linejoin="round"/>
<path d="M327.001 174.253L311.917 165.503V169.92L318.001 173.42C319.001 174.003 320.001 174.503 321.084 175.003L321.251 175.503C320.334 175.753 319.667 176.17 318.834 176.753L311.167 182.253V186.336L327.251 195.67V191.253L320.667 187.42C319.501 186.753 318.334 186.086 317.251 185.67L317.167 185.253C318.167 185.003 319.001 184.586 319.834 183.92L327.084 178.336L327.001 174.253Z" fill="black"/>
<path d="M364.75 165.587L344.584 153.92V159.837L352.667 164.503C354 165.253 355.334 166.003 356.75 166.587L356.917 167.253C355.667 167.67 354.75 168.17 353.667 168.92L343.417 176.253V181.67L364.917 194.087V188.17L356.084 183.087C354.5 182.17 352.917 181.337 351.584 180.753L351.417 180.17C352.75 179.753 353.917 179.253 355 178.42L364.667 171.003L364.75 165.587Z" fill="black"/>
<path d="M286 112.252L402.333 179.585" stroke="black" stroke-width="1.66667" stroke-miterlimit="10" stroke-linecap="round" stroke-linejoin="round"/>
<path d="M174.917 119.751V77.418L203.084 61.168V103.501L174.917 119.751Z" fill="#F9D54C" stroke="black" stroke-width="1.66667" stroke-miterlimit="10" stroke-linecap="round" stroke-linejoin="round"/>
<path d="M173.167 76.167L174.917 77.417L203.084 61.167L201.334 59.917L173.167 76.167Z" fill="black" stroke="black" stroke-width="1.66667" stroke-miterlimit="10" stroke-linecap="round" stroke-linejoin="round"/>
<path d="M173.167 118.584V76.167L174.917 77.417V119.75L173.167 118.584Z" fill="black" stroke="black" stroke-width="1.66667" stroke-miterlimit="10" stroke-linecap="round" stroke-linejoin="round"/>
<path d="M402.917 163.001L295.917 101.585C293.584 100.251 290.667 101.251 289.667 103.751L262.667 171.168C265 172.001 267.25 173.001 269.334 174.168C276.75 177.418 281.917 185.001 281.917 185.001C284.334 187.918 286.5 191.085 288.5 194.418C290.417 197.585 292.084 200.835 293.667 204.252C294 205.002 294.334 205.668 294.667 206.418L373.5 251.668L405.75 171.168C406.917 168.085 405.75 164.585 402.917 163.001Z" stroke="black" stroke-width="1.66667" stroke-miterlimit="10" stroke-linecap="round" stroke-linejoin="round"/>
<path d="M266.083 172.501C266.083 172.501 266 172.501 266 172.418C266 172.501 266.083 172.501 266.083 172.501Z" stroke="black" stroke-width="1.66667" stroke-miterlimit="10" stroke-linecap="round" stroke-linejoin="round"/>
<path d="M283.5 75.751L246.167 168.918C249.5 168.834 253 169.084 256.583 169.668C258.75 170.001 260.75 170.501 262.667 171.168L289.667 103.751C290.667 101.251 293.583 100.251 295.917 101.584L402.917 163.001C405.75 164.584 406.917 168.084 405.75 171.084L373.5 251.585L294.667 206.334C296.583 210.418 298.333 214.584 300 218.584L302.833 225.334L330.333 241.251C337.75 236.751 345.583 236.751 345.583 236.751C346.5 241.501 346.417 246.001 345.75 250.168L382.583 271.501L427.667 159.084L283.5 75.751Z" stroke="black" stroke-width="1.66667" stroke-miterlimit="10" stroke-linecap="round" stroke-linejoin="round"/>
<path d="M267.75 173.334C267.667 173.334 267.583 173.251 267.5 173.251C267.583 173.251 267.667 173.251 267.75 173.334Z" stroke="black" stroke-width="1.66667" stroke-miterlimit="10" stroke-linecap="round" stroke-linejoin="round"/>
<path d="M443 308.835V264.002L413.167 246.835V291.668L443 308.835Z" fill="#F9D54C" stroke="black" stroke-width="1.66667" stroke-miterlimit="10" stroke-linecap="round" stroke-linejoin="round"/>
<path d="M444.75 262.752L443 264.002L413.167 246.835L415 245.585L444.75 262.752Z" fill="black" stroke="black" stroke-width="1.66667" stroke-miterlimit="10" stroke-linecap="round" stroke-linejoin="round"/>
<path d="M444.751 307.5V262.75L443 264V308.833L444.751 307.5Z" fill="black" stroke="black" stroke-width="1.66667" stroke-miterlimit="10" stroke-linecap="round" stroke-linejoin="round"/>
<path d="M464.5 274.168V243.168L443.833 231.251V262.251L464.5 274.168Z" fill="black" stroke="black" stroke-width="1.66667" stroke-miterlimit="10" stroke-linecap="round" stroke-linejoin="round"/>
<path d="M465.75 242.252L464.5 243.168L443.833 231.252L445.167 230.335L465.75 242.252Z" fill="black" stroke="black" stroke-width="1.66667" stroke-miterlimit="10" stroke-linecap="round" stroke-linejoin="round"/>
<path d="M465.75 273.252V242.252L464.5 243.169V274.169L465.75 273.252Z" fill="black" stroke="black" stroke-width="1.66667" stroke-miterlimit="10" stroke-linecap="round" stroke-linejoin="round"/>
<path d="M266.25 314.002C270.833 303.169 287.167 300.169 287.167 300.169L270.833 296.252C270.833 296.252 267.167 309.752 266.25 314.002Z" fill="black" stroke="black" stroke-width="1.66667" stroke-miterlimit="10" stroke-linecap="round" stroke-linejoin="round"/>
<path d="M160.333 259.835C179.833 254.835 188.667 252.668 188.667 252.668L188.083 245.085C188.083 245.085 170.667 252.668 160.333 259.835Z" fill="black" stroke="black" stroke-width="1.66667" stroke-miterlimit="10" stroke-linecap="round" stroke-linejoin="round"/>
<path d="M211.5 285.752C211.5 285.752 220.333 275.002 230.75 270.585L225.833 264.835C225.833 264.835 221.167 272.168 215.917 276.502C210.667 280.918 211.5 285.752 211.5 285.752Z" fill="black" stroke="black" stroke-width="1.66667" stroke-miterlimit="10" stroke-linecap="round" stroke-linejoin="round"/>
</svg>
