<svg width="100%" height="100%" viewBox="0 0 20 20" fill="none" xmlns="http://www.w3.org/2000/svg">
<path d="M18 10C18 14.418 14.418 18 10 18C5.58197 18 2 14.418 2 10C2 5.58197 5.58197 2 10 2C14.419 2 18 5.58197 18 10Z" fill="#969696"/>
<path d="M5.94686 10.2689L5.98137 10.2146L8.06249 6.95898C8.0929 6.91132 8.16441 6.91624 8.18742 6.96802C8.5351 7.7472 8.8351 8.71626 8.69455 9.31956C8.63455 9.56778 8.47017 9.90394 8.28522 10.2146C8.2614 10.2598 8.2351 10.3042 8.20714 10.347C8.19399 10.3667 8.1718 10.3782 8.14796 10.3782H6.00767C5.95014 10.3782 5.91644 10.3157 5.94686 10.2689Z" fill="white"/>
<path d="M15.2231 10.8737V11.3891C15.2231 11.4186 15.205 11.4449 15.1787 11.4564C15.0176 11.5255 14.4661 11.7786 14.2368 12.0976C13.6516 12.9121 13.2044 14.0768 12.205 14.0768H8.03535C6.55754 14.0768 5.35999 12.8751 5.35999 11.3923V11.3447C5.35999 11.3052 5.39203 11.2732 5.43149 11.2732H7.75591C7.80192 11.2732 7.83562 11.3159 7.83152 11.3611C7.81507 11.5123 7.84303 11.6669 7.91453 11.8074C8.05261 12.0877 8.33864 12.2628 8.64768 12.2628H9.79839V11.3644H8.66083C8.60248 11.3644 8.56797 11.297 8.60167 11.2493C8.61399 11.2304 8.62797 11.2107 8.64275 11.1885C8.75043 11.0356 8.90413 10.7981 9.05701 10.5277C9.16139 10.3452 9.26248 10.1504 9.34386 9.9548C9.36031 9.91946 9.37344 9.88328 9.38659 9.84794C9.40879 9.78547 9.43181 9.72712 9.44824 9.66877C9.46469 9.61944 9.47783 9.56766 9.49098 9.51917C9.52962 9.35313 9.54605 9.17725 9.54605 8.99478C9.54605 8.92328 9.54277 8.84848 9.53619 8.77697C9.5329 8.69889 9.52304 8.6208 9.51317 8.54272C9.50659 8.47368 9.49427 8.40546 9.48112 8.33395C9.46469 8.22957 9.44167 8.12601 9.41536 8.02162L9.40632 7.98218C9.38659 7.91066 9.37016 7.84245 9.34715 7.77094C9.28221 7.54654 9.20743 7.32792 9.12851 7.12326C9.09975 7.04189 9.06687 6.96381 9.03399 6.88573C8.98551 6.76819 8.93618 6.66134 8.89098 6.56024C8.86797 6.51421 8.84824 6.47229 8.82851 6.42955C8.80632 6.38106 8.78331 6.33256 8.76029 6.28654C8.74386 6.2512 8.72495 6.21832 8.71179 6.18544L8.57125 5.92571C8.55152 5.89037 8.5844 5.84845 8.62303 5.85914L9.5025 6.09749H9.50496C9.50659 6.09749 9.50743 6.09832 9.50824 6.09832L9.62413 6.13037L9.75154 6.16654L9.79839 6.17968V5.65694C9.79839 5.40461 10.0006 5.19995 10.2504 5.19995C10.3754 5.19995 10.4888 5.25091 10.5702 5.33392C10.6515 5.41694 10.7025 5.53037 10.7025 5.65694V6.43285L10.7962 6.45914C10.8036 6.46162 10.811 6.4649 10.8176 6.46982C10.8406 6.48709 10.8735 6.51256 10.9154 6.54381C10.9483 6.5701 10.9836 6.60216 11.0263 6.63504C11.111 6.70325 11.2121 6.7912 11.3231 6.8923C11.3526 6.91778 11.3814 6.94408 11.4077 6.97038C11.5507 7.10354 11.711 7.2597 11.8639 7.4323C11.9066 7.4808 11.9485 7.53011 11.9913 7.58189C12.034 7.6345 12.0792 7.68627 12.1187 7.73806C12.1705 7.8071 12.2264 7.87861 12.2748 7.95341C12.2979 7.98875 12.3242 8.02491 12.3464 8.06026C12.4088 8.15477 12.4639 8.25259 12.5165 8.3504C12.5387 8.3956 12.5617 8.44491 12.5814 8.49341C12.6398 8.62409 12.6858 8.75725 12.7154 8.8904C12.7244 8.91917 12.731 8.9504 12.7343 8.97835V8.98493C12.7442 9.02437 12.7475 9.06629 12.7507 9.10902C12.7639 9.24547 12.7573 9.3819 12.7277 9.51917C12.7154 9.57753 12.699 9.63259 12.6792 9.69096C12.6595 9.74685 12.6398 9.8052 12.6143 9.86027C12.565 9.97451 12.5066 10.0888 12.4376 10.1956C12.4154 10.2351 12.3891 10.277 12.3628 10.3164C12.334 10.3584 12.3044 10.3978 12.2781 10.4364C12.242 10.4858 12.2033 10.5375 12.1639 10.5836C12.1285 10.6321 12.0924 10.6806 12.0529 10.7233C11.9979 10.7882 11.9452 10.8499 11.8902 10.9091C11.8573 10.9477 11.822 10.9871 11.7858 11.0225C11.7505 11.0619 11.7143 11.0973 11.6814 11.1301C11.6264 11.1852 11.5803 11.228 11.5417 11.2633L11.4513 11.3463C11.4381 11.3578 11.4209 11.3644 11.4028 11.3644H10.7025V12.2628H11.5836C11.7809 12.2628 11.9683 12.1929 12.1195 12.0647C12.1713 12.0195 12.3973 11.8239 12.6644 11.5288C12.6735 11.5189 12.685 11.5115 12.6981 11.5082L15.1319 10.8047C15.1771 10.7915 15.2231 10.826 15.2231 10.8737Z" fill="white"/>
</svg>
