<svg width="100%" height="100%" viewBox="0 0 36 36" fill="none" xmlns="http://www.w3.org/2000/svg">
<g clip-path="url(#clip0_3117_17767)">
<rect width="36" height="36" fill="white"/>
<g filter="url(#filter0_d_3117_17767)">
<circle cx="18" cy="18" r="18" fill="#B2B2B2"/>
</g>
<path fill-rule="evenodd" clip-rule="evenodd" d="M18.1453 7C15.1569 7 12.7343 9.42262 12.7343 12.411V15.1164C12.7343 18.1047 15.1567 20.5274 18.1453 20.5274C21.1338 20.5274 23.5562 18.1049 23.5562 15.1164V12.411C23.5562 9.42279 21.1338 7 18.1453 7ZM15.4399 12.411C15.4399 10.9169 16.6511 9.70558 18.1453 9.70558C19.6394 9.70558 20.8507 10.9169 20.8507 12.411V15.1164C20.8507 16.6105 19.6394 17.8218 18.1453 17.8218C16.6511 17.8218 15.4399 16.6105 15.4399 15.1164V12.411ZM10.7054 27.967C10.7054 26.0994 12.2194 24.5853 14.0871 24.5853H22.2029C24.0707 24.5853 25.5846 26.0994 25.5846 27.967H28.29C28.29 24.6052 25.5647 21.8799 22.2029 21.8799H14.0871C10.7253 21.8799 8 24.6052 8 27.967H10.7054Z" fill="#ECECEC"/>
</g>
<defs>
<filter id="filter0_d_3117_17767" x="-32" y="-16" width="100" height="100" filterUnits="userSpaceOnUse" color-interpolation-filters="sRGB">
<feFlood flood-opacity="0" result="BackgroundImageFix"/>
<feColorMatrix in="SourceAlpha" type="matrix" values="0 0 0 0 0 0 0 0 0 0 0 0 0 0 0 0 0 0 127 0" result="hardAlpha"/>
<feOffset dy="16"/>
<feGaussianBlur stdDeviation="16"/>
<feComposite in2="hardAlpha" operator="out"/>
<feColorMatrix type="matrix" values="0 0 0 0 0 0 0 0 0 0 0 0 0 0 0 0 0 0 0.08 0"/>
<feBlend mode="normal" in2="BackgroundImageFix" result="effect1_dropShadow_3117_17767"/>
<feBlend mode="normal" in="SourceGraphic" in2="effect1_dropShadow_3117_17767" result="shape"/>
</filter>
<clipPath id="clip0_3117_17767">
<rect width="36" height="36" fill="white"/>
</clipPath>
</defs>
</svg>
