<svg width="46" height="38" viewBox="0 0 46 38" fill="none" xmlns="http://www.w3.org/2000/svg">
<path d="M30.5 8C30.5 9.98912 29.7098 11.8968 28.3033 13.3033C26.8968 14.7098 24.9891 15.5 23 15.5C21.0109 15.5 19.1032 14.7098 17.6967 13.3033C16.2902 11.8968 15.5 9.98912 15.5 8C15.5 6.01088 16.2902 4.10322 17.6967 2.6967C19.1032 1.29018 21.0109 0.5 23 0.5C24.9891 0.5 26.8968 1.29018 28.3033 2.6967C29.7098 4.10322 30.5 6.01088 30.5 8ZM43 13C43 14.3261 42.4732 15.5979 41.5355 16.5355C40.5979 17.4732 39.3261 18 38 18C36.6739 18 35.4021 17.4732 34.4645 16.5355C33.5268 15.5979 33 14.3261 33 13C33 11.6739 33.5268 10.4021 34.4645 9.46447C35.4021 8.52678 36.6739 8 38 8C39.3261 8 40.5979 8.52678 41.5355 9.46447C42.4732 10.4021 43 11.6739 43 13ZM33 30.5C33 27.8478 31.9464 25.3043 30.0711 23.4289C28.1957 21.5536 25.6522 20.5 23 20.5C20.3478 20.5 17.8043 21.5536 15.9289 23.4289C14.0536 25.3043 13 27.8478 13 30.5V38H33V30.5ZM13 13C13 14.3261 12.4732 15.5979 11.5355 16.5355C10.5979 17.4732 9.32608 18 8 18C6.67392 18 5.40215 17.4732 4.46447 16.5355C3.52678 15.5979 3 14.3261 3 13C3 11.6739 3.52678 10.4021 4.46447 9.46447C5.40215 8.52678 6.67392 8 8 8C9.32608 8 10.5979 8.52678 11.5355 9.46447C12.4732 10.4021 13 11.6739 13 13ZM38 38V30.5C38.0036 27.9582 37.3582 25.4576 36.125 23.235C37.2334 22.9514 38.3919 22.9246 39.5122 23.1568C40.6324 23.389 41.6849 23.874 42.5892 24.5748C43.4935 25.2756 44.2259 26.1737 44.7303 27.2005C45.2348 28.2274 45.498 29.3559 45.5 30.5V38H38ZM9.875 23.235C8.64187 25.4576 7.9965 27.9582 8 30.5V38H0.500001V30.5C0.499519 29.3551 0.761158 28.2253 1.26487 27.1971C1.76858 26.169 2.50098 25.2698 3.40596 24.5685C4.31093 23.8672 5.36445 23.3824 6.48577 23.1513C7.6071 22.9201 8.76646 22.9488 9.875 23.235Z" fill="#EC2075"/>
</svg>
