<svg width="40" height="40" viewBox="0 0 40 40" fill="none" xmlns="http://www.w3.org/2000/svg">
<path fill-rule="evenodd" clip-rule="evenodd" d="M40 15C40.0007 17.3429 39.4525 19.6534 38.3995 21.7464C37.3464 23.8393 35.8177 25.6565 33.9359 27.0522C32.0541 28.4479 29.8715 29.3835 27.563 29.7838C25.2545 30.1841 22.8844 30.0381 20.6425 29.3575L20 30L17.5 32.5L15 35H10V40H0V30L10.6425 19.3575C10.0186 17.295 9.84641 15.1224 10.1376 12.9874C10.4288 10.8524 11.1766 8.80518 12.33 6.98512C13.4834 5.16506 15.0154 3.61487 16.8217 2.44005C18.6281 1.26524 20.6663 0.493382 22.7977 0.177019C24.9291 -0.139344 27.1037 0.0072139 29.1733 0.606718C31.243 1.20622 33.1593 2.2446 34.7916 3.65117C36.424 5.05774 37.7341 6.79949 38.6329 8.75786C39.5316 10.7162 39.9979 12.8452 40 15ZM25 5.00001C24.337 5.00001 23.7011 5.2634 23.2322 5.73224C22.7634 6.20108 22.5 6.83697 22.5 7.50001C22.5 8.16305 22.7634 8.79893 23.2322 9.26777C23.7011 9.73661 24.337 10 25 10C26.3261 10 27.5979 10.5268 28.5355 11.4645C29.4732 12.4022 30 13.6739 30 15C30 15.663 30.2634 16.2989 30.7322 16.7678C31.2011 17.2366 31.837 17.5 32.5 17.5C33.163 17.5 33.7989 17.2366 34.2678 16.7678C34.7366 16.2989 35 15.663 35 15C35 12.3478 33.9464 9.8043 32.0711 7.92894C30.1957 6.05357 27.6522 5.00001 25 5.00001Z" fill="#EC2075"/>
</svg>
