<svg width="43" height="44" viewBox="0 0 43 44" fill="none" xmlns="http://www.w3.org/2000/svg">
<path fill-rule="evenodd" clip-rule="evenodd" d="M14.6801 2.7775C14.5083 2.137 14.0892 1.59096 13.5149 1.25949C12.9405 0.928015 12.258 0.838273 11.6176 1.01C10.9771 1.18173 10.431 1.60086 10.0995 2.17519C9.76807 2.74952 9.67832 3.432 9.85005 4.0725L10.4976 6.4875C10.6693 7.128 11.0884 7.67405 11.6627 8.00552C12.2371 8.33699 12.9196 8.42673 13.5601 8.255C14.2006 8.08327 14.7466 7.66414 15.0781 7.08981C15.4095 6.51548 15.4993 5.833 15.3276 5.1925L14.6776 2.7775H14.6801ZM4.07255 9.85C3.75486 9.7634 3.42319 9.74041 3.09658 9.78235C2.76998 9.8243 2.45488 9.93035 2.16938 10.0944C1.88388 10.2585 1.63361 10.4773 1.43293 10.7384C1.23226 10.9995 1.08513 11.2976 1.00001 11.6157C0.914891 11.9338 0.893449 12.2656 0.936917 12.592C0.980385 12.9184 1.08791 13.233 1.25331 13.5177C1.41871 13.8025 1.63873 14.0517 1.90073 14.2512C2.16274 14.4506 2.46156 14.5964 2.78005 14.68L5.19505 15.3275C5.8344 15.4954 6.51421 15.4033 7.08579 15.0712C7.65737 14.7392 8.07419 14.1943 8.24507 13.5557C8.41594 12.9172 8.32697 12.237 7.9976 11.6638C7.66824 11.0907 7.1253 10.6714 6.48755 10.4975L4.07255 9.8475V9.85ZM26.1076 8.4275C26.3397 8.19523 26.5238 7.91951 26.6493 7.61609C26.7749 7.31267 26.8394 6.98749 26.8393 6.65912C26.8392 6.33075 26.7744 6.00561 26.6486 5.70228C26.5229 5.39895 26.3386 5.12336 26.1063 4.89125C25.874 4.65914 25.5983 4.47505 25.2949 4.3495C24.9915 4.22394 24.6663 4.15938 24.3379 4.15949C24.0095 4.15961 23.6844 4.2244 23.3811 4.35017C23.0778 4.47594 22.8022 4.66023 22.5701 4.8925L20.8026 6.66C20.5703 6.89228 20.386 7.16803 20.2603 7.47151C20.1346 7.77499 20.0699 8.10026 20.0699 8.42875C20.0699 8.75724 20.1346 9.08251 20.2603 9.38599C20.386 9.68947 20.5703 9.96523 20.8026 10.1975C21.0348 10.4298 21.3106 10.614 21.6141 10.7397C21.9175 10.8654 22.2428 10.9301 22.5713 10.9301C22.8998 10.9301 23.2251 10.8654 23.5285 10.7397C23.832 10.614 24.1078 10.4298 24.3401 10.1975L26.1076 8.4275ZM8.43005 26.1075L10.1976 24.34C10.667 23.8712 10.931 23.2352 10.9314 22.5718C10.9319 21.9084 10.6688 21.2719 10.2001 20.8025C9.73128 20.3331 9.09523 20.0691 8.43182 20.0686C7.76841 20.0681 7.13198 20.3312 6.66255 20.8L4.89255 22.5675C4.42345 23.0366 4.15991 23.6728 4.15991 24.3363C4.15991 24.9997 4.42345 25.6359 4.89255 26.105C5.36165 26.5741 5.99789 26.8376 6.6613 26.8376C7.32471 26.8376 7.96095 26.5741 8.43005 26.105V26.1075ZM16.4301 13.18C15.9757 12.9981 15.478 12.9536 14.9986 13.052C14.5193 13.1503 14.0793 13.3872 13.7333 13.7332C13.3872 14.0792 13.1504 14.5192 13.052 14.9986C12.9537 15.478 12.9982 15.9757 13.1801 16.43L23.1801 41.43C23.3592 41.8774 23.6639 42.2636 24.0574 42.5418C24.451 42.8201 24.9166 42.9787 25.3981 42.9985C25.8797 43.0184 26.3567 42.8985 26.7718 42.6535C27.1868 42.4085 27.5222 42.0487 27.7376 41.6175L31.1876 34.72L38.7326 42.27C39.2017 42.7388 39.8378 43.002 40.5009 43.0018C41.1641 43.0015 41.8 42.7379 42.2688 42.2688C42.7376 41.7997 43.0008 41.1635 43.0006 40.5004C43.0003 39.8372 42.7367 39.2013 42.2676 38.7325L34.7201 31.1825L41.6201 27.735C42.0504 27.5192 42.4094 27.1836 42.6536 26.7687C42.8979 26.3538 43.0172 25.8772 42.9971 25.3961C42.9771 24.915 42.8185 24.45 42.5405 24.0569C42.2625 23.6637 41.8769 23.3593 41.4301 23.18L16.4301 13.18Z" fill="#EC2075"/>
</svg>
