<svg width="23" height="32" viewBox="0 0 23 32" fill="none" xmlns="http://www.w3.org/2000/svg">
<path d="M14.604 0H6.87248C3.0783 0 0 3.0783 0 6.87248C0 8.08949 1.00224 9.09172 2.29083 9.09172C3.50783 9.09172 4.58166 8.0179 4.58166 6.87248C4.58166 5.58389 5.58389 4.58166 6.87248 4.58166H14.604C16.6085 4.58166 18.3266 6.22819 18.3266 8.23266C18.3266 9.66443 17.5392 10.953 16.1074 11.6689L9.09172 15.7494C8.37584 16.179 8.0179 16.8949 8.0179 17.6823V20.5459C8.0179 21.8345 9.02013 22.8367 10.3087 22.8367C11.5257 22.8367 12.5996 21.8345 12.5996 20.5459V19.0425L18.3266 15.6779C21.1186 14.2461 22.9083 11.3826 22.9083 8.23266C22.9083 3.65101 19.1857 0 14.604 0ZM10.3087 26.2729C8.66219 26.2729 7.44519 27.5615 7.44519 29.1365C7.44519 30.783 8.66219 32 10.3087 32C11.8837 32 13.1723 30.7114 13.1723 29.1365C13.1723 27.6331 11.8837 26.2729 10.3087 26.2729Z" fill="white"/>
</svg>
