<svg width="638" height="1699" viewBox="0 0 638 1699" fill="none" xmlns="http://www.w3.org/2000/svg">
<path d="M113.157 1C23.6071 42.1427 -97.1281 202.231 136.331 513.44C369.791 824.649 163.225 1071.56 30.7595 1156.12" stroke="url(#paint0_linear_470_139)" stroke-opacity="0.1" stroke-width="2"/>
<path d="M507.978 542.382C418.428 583.525 297.693 743.612 531.153 1054.82C764.612 1366.03 558.046 1612.94 425.581 1697.5" stroke="url(#paint1_linear_470_139)" stroke-opacity="0.1" stroke-width="2"/>
<path d="M131.958 26.78C42.4079 67.9228 -78.3273 228.011 155.132 539.22C388.592 850.43 182.026 1097.34 49.5603 1181.9" stroke="url(#paint2_linear_470_139)" stroke-opacity="0.1" stroke-width="2"/>
<path d="M150.76 52.5603C61.2096 93.703 -59.5256 253.791 173.934 565C407.394 876.21 200.828 1123.12 68.3621 1207.68" stroke="url(#paint3_linear_470_139)" stroke-opacity="0.1" stroke-width="2"/>
<path d="M169.559 78.3403C80.0094 119.483 -40.7258 279.571 192.734 590.78C426.193 901.99 219.627 1148.9 87.1619 1233.46" stroke="url(#paint4_linear_470_139)" stroke-opacity="0.1" stroke-width="2"/>
<path d="M188.361 104.12C98.8112 145.263 -21.924 305.351 211.536 616.56C444.995 927.77 238.429 1174.68 105.964 1259.24" stroke="url(#paint5_linear_470_139)" stroke-opacity="0.1" stroke-width="2"/>
<path d="M207.162 129.9C117.612 171.043 -3.12322 331.131 230.336 642.34C463.796 953.55 257.23 1200.46 124.764 1285.02" stroke="url(#paint6_linear_470_139)" stroke-opacity="0.1" stroke-width="2"/>
<path d="M225.964 155.681C136.414 196.823 15.6785 356.911 249.138 668.121C482.598 979.33 276.032 1226.24 143.566 1310.8" stroke="url(#paint7_linear_470_139)" stroke-opacity="0.1" stroke-width="2"/>
<path d="M244.764 181.461C155.214 222.603 34.4783 382.691 267.938 693.901C501.397 1005.11 294.831 1252.02 162.366 1336.58" stroke="url(#paint8_linear_470_139)" stroke-opacity="0.1" stroke-width="2"/>
<path d="M263.565 207.241C174.015 248.383 53.2801 408.471 286.74 719.681C520.199 1030.89 313.633 1277.8 181.168 1362.36" stroke="url(#paint9_linear_470_139)" stroke-opacity="0.1" stroke-width="2"/>
<path d="M282.366 233.021C192.816 274.164 72.0809 434.251 305.54 745.461C539 1056.67 332.434 1303.58 199.969 1388.14" stroke="url(#paint10_linear_470_139)" stroke-opacity="0.1" stroke-width="2"/>
<path d="M301.168 258.801C211.618 299.944 90.8826 460.032 324.342 771.241C557.802 1082.45 351.236 1329.36 218.77 1413.92" stroke="url(#paint11_linear_470_139)" stroke-opacity="0.1" stroke-width="2"/>
<path d="M319.968 284.581C230.418 325.724 109.682 485.812 343.142 797.021C576.602 1108.23 370.036 1355.14 237.57 1439.7" stroke="url(#paint12_linear_470_139)" stroke-opacity="0.1" stroke-width="2"/>
<path d="M338.769 310.361C249.219 351.504 128.484 511.592 361.944 822.801C595.403 1134.01 388.837 1380.92 256.372 1465.48" stroke="url(#paint13_linear_470_139)" stroke-opacity="0.1" stroke-width="2"/>
<path d="M357.57 336.141C268.02 377.284 147.285 537.372 380.745 848.581C614.204 1159.79 407.638 1406.7 275.173 1491.26" stroke="url(#paint14_linear_470_139)" stroke-opacity="0.1" stroke-width="2"/>
<path d="M376.372 361.921C286.822 403.064 166.087 563.152 399.546 874.361C633.006 1185.57 426.44 1432.48 293.974 1517.04" stroke="url(#paint15_linear_470_139)" stroke-opacity="0.1" stroke-width="2"/>
<path d="M395.172 387.701C305.622 428.844 184.887 588.932 418.346 900.141C651.806 1211.35 445.24 1458.26 312.774 1542.82" stroke="url(#paint16_linear_470_139)" stroke-opacity="0.1" stroke-width="2"/>
<path d="M413.974 413.481C324.423 454.624 203.688 614.712 437.148 925.922C670.607 1237.13 464.041 1484.04 331.576 1568.6" stroke="url(#paint17_linear_470_139)" stroke-opacity="0.1" stroke-width="2"/>
<path d="M432.774 439.262C343.224 480.404 222.489 640.492 455.949 951.702C689.408 1262.91 482.842 1509.82 350.377 1594.38" stroke="url(#paint18_linear_470_139)" stroke-opacity="0.1" stroke-width="2"/>
<path d="M451.576 465.042C362.026 506.184 241.291 666.272 474.75 977.482C708.21 1288.69 501.644 1535.6 369.178 1620.16" stroke="url(#paint19_linear_470_139)" stroke-opacity="0.1" stroke-width="2"/>
<path d="M470.376 490.822C380.826 531.964 260.091 692.052 493.55 1003.26C727.01 1314.47 520.444 1561.38 387.978 1645.94" stroke="url(#paint20_linear_470_139)" stroke-opacity="0.1" stroke-width="2"/>
<path d="M489.178 516.602C399.628 557.745 278.892 717.832 512.352 1029.04C745.811 1340.25 539.245 1587.16 406.78 1671.72" stroke="url(#paint21_linear_470_139)" stroke-opacity="0.1" stroke-width="2"/>
<defs>
<linearGradient id="paint0_linear_470_139" x1="121.589" y1="1" x2="121.589" y2="1156.12" gradientUnits="userSpaceOnUse">
<stop stop-color="white" stop-opacity="0"/>
<stop offset="0.203125" stop-color="white"/>
<stop offset="0.796875" stop-color="white" stop-opacity="0.69"/>
<stop offset="0.947917" stop-color="white" stop-opacity="0"/>
</linearGradient>
<linearGradient id="paint1_linear_470_139" x1="516.411" y1="542.382" x2="516.411" y2="1697.5" gradientUnits="userSpaceOnUse">
<stop stop-color="white" stop-opacity="0"/>
<stop offset="0.203125" stop-color="white"/>
<stop offset="0.796875" stop-color="white" stop-opacity="0.69"/>
<stop offset="0.947917" stop-color="white" stop-opacity="0"/>
</linearGradient>
<linearGradient id="paint2_linear_470_139" x1="140.39" y1="26.78" x2="140.39" y2="1181.9" gradientUnits="userSpaceOnUse">
<stop stop-color="white" stop-opacity="0"/>
<stop offset="0.203125" stop-color="white"/>
<stop offset="0.796875" stop-color="white" stop-opacity="0.69"/>
<stop offset="0.947917" stop-color="white" stop-opacity="0"/>
</linearGradient>
<linearGradient id="paint3_linear_470_139" x1="159.192" y1="52.5603" x2="159.192" y2="1207.68" gradientUnits="userSpaceOnUse">
<stop stop-color="white" stop-opacity="0"/>
<stop offset="0.203125" stop-color="white"/>
<stop offset="0.796875" stop-color="white" stop-opacity="0.69"/>
<stop offset="0.947917" stop-color="white" stop-opacity="0"/>
</linearGradient>
<linearGradient id="paint4_linear_470_139" x1="177.992" y1="78.3403" x2="177.992" y2="1233.46" gradientUnits="userSpaceOnUse">
<stop stop-color="white" stop-opacity="0"/>
<stop offset="0.203125" stop-color="white"/>
<stop offset="0.796875" stop-color="white" stop-opacity="0.69"/>
<stop offset="0.947917" stop-color="white" stop-opacity="0"/>
</linearGradient>
<linearGradient id="paint5_linear_470_139" x1="196.793" y1="104.12" x2="196.793" y2="1259.24" gradientUnits="userSpaceOnUse">
<stop stop-color="white" stop-opacity="0"/>
<stop offset="0.203125" stop-color="white"/>
<stop offset="0.796875" stop-color="white" stop-opacity="0.69"/>
<stop offset="0.947917" stop-color="white" stop-opacity="0"/>
</linearGradient>
<linearGradient id="paint6_linear_470_139" x1="215.594" y1="129.9" x2="215.594" y2="1285.02" gradientUnits="userSpaceOnUse">
<stop stop-color="white" stop-opacity="0"/>
<stop offset="0.203125" stop-color="white"/>
<stop offset="0.796875" stop-color="white" stop-opacity="0.69"/>
<stop offset="0.947917" stop-color="white" stop-opacity="0"/>
</linearGradient>
<linearGradient id="paint7_linear_470_139" x1="234.396" y1="155.681" x2="234.396" y2="1310.8" gradientUnits="userSpaceOnUse">
<stop stop-color="white" stop-opacity="0"/>
<stop offset="0.203125" stop-color="white"/>
<stop offset="0.796875" stop-color="white" stop-opacity="0.69"/>
<stop offset="0.947917" stop-color="white" stop-opacity="0"/>
</linearGradient>
<linearGradient id="paint8_linear_470_139" x1="253.196" y1="181.461" x2="253.196" y2="1336.58" gradientUnits="userSpaceOnUse">
<stop stop-color="white" stop-opacity="0"/>
<stop offset="0.203125" stop-color="white"/>
<stop offset="0.796875" stop-color="white" stop-opacity="0.69"/>
<stop offset="0.947917" stop-color="white" stop-opacity="0"/>
</linearGradient>
<linearGradient id="paint9_linear_470_139" x1="271.998" y1="207.241" x2="271.998" y2="1362.36" gradientUnits="userSpaceOnUse">
<stop stop-color="white" stop-opacity="0"/>
<stop offset="0.203125" stop-color="white"/>
<stop offset="0.796875" stop-color="white" stop-opacity="0.69"/>
<stop offset="0.947917" stop-color="white" stop-opacity="0"/>
</linearGradient>
<linearGradient id="paint10_linear_470_139" x1="290.798" y1="233.021" x2="290.798" y2="1388.14" gradientUnits="userSpaceOnUse">
<stop stop-color="white" stop-opacity="0"/>
<stop offset="0.203125" stop-color="white"/>
<stop offset="0.796875" stop-color="white" stop-opacity="0.69"/>
<stop offset="0.947917" stop-color="white" stop-opacity="0"/>
</linearGradient>
<linearGradient id="paint11_linear_470_139" x1="309.6" y1="258.801" x2="309.6" y2="1413.92" gradientUnits="userSpaceOnUse">
<stop stop-color="white" stop-opacity="0"/>
<stop offset="0.203125" stop-color="white"/>
<stop offset="0.796875" stop-color="white" stop-opacity="0.69"/>
<stop offset="0.947917" stop-color="white" stop-opacity="0"/>
</linearGradient>
<linearGradient id="paint12_linear_470_139" x1="328.4" y1="284.581" x2="328.4" y2="1439.7" gradientUnits="userSpaceOnUse">
<stop stop-color="white" stop-opacity="0"/>
<stop offset="0.203125" stop-color="white"/>
<stop offset="0.796875" stop-color="white" stop-opacity="0.69"/>
<stop offset="0.947917" stop-color="white" stop-opacity="0"/>
</linearGradient>
<linearGradient id="paint13_linear_470_139" x1="347.202" y1="310.361" x2="347.202" y2="1465.48" gradientUnits="userSpaceOnUse">
<stop stop-color="white" stop-opacity="0"/>
<stop offset="0.203125" stop-color="white"/>
<stop offset="0.796875" stop-color="white" stop-opacity="0.69"/>
<stop offset="0.947917" stop-color="white" stop-opacity="0"/>
</linearGradient>
<linearGradient id="paint14_linear_470_139" x1="366.002" y1="336.141" x2="366.002" y2="1491.26" gradientUnits="userSpaceOnUse">
<stop stop-color="white" stop-opacity="0"/>
<stop offset="0.203125" stop-color="white"/>
<stop offset="0.796875" stop-color="white" stop-opacity="0.69"/>
<stop offset="0.947917" stop-color="white" stop-opacity="0"/>
</linearGradient>
<linearGradient id="paint15_linear_470_139" x1="384.804" y1="361.921" x2="384.804" y2="1517.04" gradientUnits="userSpaceOnUse">
<stop stop-color="white" stop-opacity="0"/>
<stop offset="0.203125" stop-color="white"/>
<stop offset="0.796875" stop-color="white" stop-opacity="0.69"/>
<stop offset="0.947917" stop-color="white" stop-opacity="0"/>
</linearGradient>
<linearGradient id="paint16_linear_470_139" x1="403.604" y1="387.701" x2="403.604" y2="1542.82" gradientUnits="userSpaceOnUse">
<stop stop-color="white" stop-opacity="0"/>
<stop offset="0.203125" stop-color="white"/>
<stop offset="0.796875" stop-color="white" stop-opacity="0.69"/>
<stop offset="0.947917" stop-color="white" stop-opacity="0"/>
</linearGradient>
<linearGradient id="paint17_linear_470_139" x1="422.406" y1="413.481" x2="422.406" y2="1568.6" gradientUnits="userSpaceOnUse">
<stop stop-color="white" stop-opacity="0"/>
<stop offset="0.203125" stop-color="white"/>
<stop offset="0.796875" stop-color="white" stop-opacity="0.69"/>
<stop offset="0.947917" stop-color="white" stop-opacity="0"/>
</linearGradient>
<linearGradient id="paint18_linear_470_139" x1="441.207" y1="439.262" x2="441.207" y2="1594.38" gradientUnits="userSpaceOnUse">
<stop stop-color="white" stop-opacity="0"/>
<stop offset="0.203125" stop-color="white"/>
<stop offset="0.796875" stop-color="white" stop-opacity="0.69"/>
<stop offset="0.947917" stop-color="white" stop-opacity="0"/>
</linearGradient>
<linearGradient id="paint19_linear_470_139" x1="460.008" y1="465.042" x2="460.008" y2="1620.16" gradientUnits="userSpaceOnUse">
<stop stop-color="white" stop-opacity="0"/>
<stop offset="0.203125" stop-color="white"/>
<stop offset="0.796875" stop-color="white" stop-opacity="0.69"/>
<stop offset="0.947917" stop-color="white" stop-opacity="0"/>
</linearGradient>
<linearGradient id="paint20_linear_470_139" x1="478.808" y1="490.822" x2="478.808" y2="1645.94" gradientUnits="userSpaceOnUse">
<stop stop-color="white" stop-opacity="0"/>
<stop offset="0.203125" stop-color="white"/>
<stop offset="0.796875" stop-color="white" stop-opacity="0.69"/>
<stop offset="0.947917" stop-color="white" stop-opacity="0"/>
</linearGradient>
<linearGradient id="paint21_linear_470_139" x1="497.61" y1="516.602" x2="497.61" y2="1671.72" gradientUnits="userSpaceOnUse">
<stop stop-color="white" stop-opacity="0"/>
<stop offset="0.203125" stop-color="white"/>
<stop offset="0.796875" stop-color="white" stop-opacity="0.69"/>
<stop offset="0.947917" stop-color="white" stop-opacity="0"/>
</linearGradient>
</defs>
</svg>
