<svg width="24" height="32" viewBox="0 0 24 32" fill="none" xmlns="http://www.w3.org/2000/svg">
<path d="M22 0C23.0625 0 24 0.9375 24 2C24 3.125 23.0625 4 22 4V4.6875C22 7.375 20.9375 9.9375 19.0625 11.8125L14.8125 16L19.0625 20.25C20.9375 22.125 22 24.6875 22 27.3125V28C23.0625 28 24 28.9375 24 30C24 31.125 23.0625 32 22 32H2C0.875 32 0 31.125 0 30C0 28.9375 0.875 28 2 28V27.3125C2 24.6875 3 22.125 4.875 20.25L9.125 16L4.875 11.8125C3 9.9375 2 7.375 2 4.6875V4C0.875 4 0 3.125 0 2C0 0.9375 0.875 0 2 0H22ZM6.9375 8H17C17.625 7.0625 18 5.875 18 4.6875V4H6V4.6875C6 5.875 6.3125 7.0625 6.9375 8ZM6.9375 24H17C16.75 23.6875 16.5 23.375 16.1875 23.125L12 18.875L7.75 23.125C7.4375 23.375 7.1875 23.6875 6.9375 24Z" fill="white"/>
</svg>
