<?xml version="1.0" encoding="UTF-8"?>
<svg width="30px" height="30px" viewBox="0 0 30 30" version="1.1" xmlns="http://www.w3.org/2000/svg" xmlns:xlink="http://www.w3.org/1999/xlink">
    <title>56812200-2AAA-4793-BA26-93049FAE3179</title>
    <g id="Dark" stroke="none" stroke-width="1" fill="none" fill-rule="evenodd">
        <g id="Home-Dark-Leaderboard" transform="translate(-1390.000000, -25.000000)" fill="#777E93">
            <g id="Group-4" transform="translate(1137.000000, 23.000000)">
                <g id="sun" transform="translate(253.000000, 2.000000)">
                    <path d="M15.0000879,22.904415 C10.6381678,22.904415 7.08988529,19.3532507 7.08988529,14.9877879 C7.08988529,10.6223251 10.6381678,7.0711607 15.0000879,7.0711607 C19.362008,7.0711607 22.9102905,10.6223251 22.9102905,14.9877879 C22.9102905,19.3532507 19.362008,22.904415 15.0000879,22.904415 Z M27.4464694,12.8522924 C26.7134573,12.3635139 26.4551159,11.3988582 26.8456456,10.6085443 L27.9666092,8.34075314 C28.0970982,8.07704149 28.0867857,7.76606464 27.9400075,7.51097332 C27.7932293,7.25670299 27.5288527,7.09180258 27.2353549,7.07286131 L24.7119417,6.90966151 C23.8330303,6.852955 23.1283777,6.14773013 23.0717172,5.26810489 L22.9086499,2.74264218 C22.8897826,2.44884735 22.7249574,2.18431472 22.4708934,2.0374173 C22.2151302,1.88964026 21.9035268,1.87937797 21.641787,2.01079398 L19.3767151,3.13266801 C18.5853433,3.52351483 17.6214704,3.26666426 17.1339676,2.5313562 L15.7313422,0.367243538 C15.4052075,-0.122414513 14.5949097,-0.122414513 14.268775,0.367243538 L12.8662668,2.53129755 C12.377885,3.26660561 11.412313,3.52345618 10.6243396,3.13260937 L8.35844741,2.01073534 C8.09494978,1.87931933 7.78340498,1.88964026 7.52934099,2.03735866 C7.275277,2.18425608 7.11051041,2.44884735 7.09158452,2.74258354 L6.92851716,5.26804624 C6.87185667,6.14767149 6.1672041,6.85289636 5.2882927,6.90960287 L2.76487948,7.07280267 C2.47132307,7.09168529 2.20700512,7.25664435 2.06022692,7.51091468 C1.91344871,7.76606464 1.90313615,8.07698285 2.0336252,8.34069449 L3.1545888,10.607606 C3.54511843,11.398741 3.28677707,12.3633966 2.55376496,12.8521751 L0.391408543,14.2559397 C0.146778204,14.4191395 0,14.693993 0,14.9877879 C0,15.2815827 0.146778204,15.5564363 0.391408543,15.7196361 L2.55370637,17.1232834 C3.28671848,17.6120618 3.54505983,18.5767175 3.1545302,19.3670315 L2.0335666,21.6348226 C1.90307756,21.8985343 1.91339012,22.2095111 2.06016832,22.4646024 C2.20694653,22.7188728 2.47132307,22.8837732 2.76482089,22.9027144 L5.28823411,23.0659142 C6.16714551,23.1226207 6.87179808,23.8278456 6.92845857,24.7074709 L7.09152593,27.2329336 C7.11039322,27.5267284 7.27521841,27.791261 7.5292824,27.9381584 C7.78334639,28.0841762 8.09489118,28.0944972 8.35838882,27.9647818 L10.6234607,26.8429077 C11.4148325,26.4511813 12.3778264,26.7089115 12.8662082,27.4442195 L14.2687164,29.6082736 C14.4317838,29.8531026 14.7064729,30 14.9999707,30 C15.2934685,30 15.5681576,29.8531026 15.731225,29.6082736 L17.1337332,27.4442195 C17.6212361,26.7089115 18.587687,26.4511813 19.3756604,26.8429077 L21.6416112,27.9647818 C21.9034096,28.0944972 22.2149544,28.0841762 22.4707176,27.9381584 C22.7247816,27.791261 22.8895482,27.5266697 22.9084741,27.2329336 L23.0715414,24.7074709 C23.1282019,23.8278456 23.8328545,23.1226207 24.7117659,23.0659142 L27.2351791,22.9027144 C27.5287355,22.8838318 27.7930535,22.7188728 27.9398317,22.4646024 C28.0866099,22.2094525 28.0969224,21.8985343 27.9664334,21.6348226 L26.8454698,19.3679111 C26.4549402,18.5767761 26.7132815,17.6121205 27.4462936,17.123342 L29.6085915,15.7196947 C29.8532218,15.5564949 30,15.2815827 30,14.9878465 C30,14.6941103 29.8532218,14.4191981 29.6085915,14.2559983 L27.4464694,12.8522924 Z" id="Fill-1"></path>
                    <path d="M15.0000879,8.83041119 C18.3979594,8.83041119 21.1524677,11.5871567 21.1524677,14.9877879 C21.1524677,18.388419 18.3979594,21.1451646 15.0000879,21.1451646 C11.6022164,21.1451646 8.84770809,18.388419 8.84770809,14.9877879 C8.84770809,11.5871567 11.6022164,8.83041119 15.0000879,8.83041119" id="Fill-3"></path>
                </g>
            </g>
        </g>
    </g>
</svg>