<svg width="100%" height="100%" viewBox="0 0 24 24" fill="none" xmlns="http://www.w3.org/2000/svg">
<path d="M12.0978 5.17753C9.54151 5.17753 7.38779 6.43364 5.61851 8.49837C5.01291 9.20418 4.48334 9.95838 4.05312 10.7117C3.79222 11.1678 3.63325 11.5203 3.53995 11.738C3.44665 11.9549 3.44665 12.2227 3.53995 12.4395C3.63325 12.6572 3.79222 13.0097 4.05312 13.4658C4.48334 14.2191 5.01291 14.9733 5.61851 15.6792C7.38779 17.7439 9.54151 19 12.0978 19C14.6541 19 16.8078 17.7439 18.5771 15.6792C19.1827 14.9733 19.7123 14.2191 20.1425 13.4658C20.4034 13.0097 20.5624 12.6572 20.6557 12.4395C20.749 12.2227 20.749 11.9549 20.6557 11.738C20.5624 11.5203 20.4034 11.1678 20.1425 10.7117C19.7123 9.95838 19.1827 9.20418 18.5771 8.49837C16.8078 6.43364 14.6541 5.17753 12.0978 5.17753ZM12.0978 8.63315C14.0062 8.63315 15.5534 10.1804 15.5534 12.0888C15.5534 13.9971 14.0062 15.5444 12.0978 15.5444C10.1894 15.5444 8.64218 13.9971 8.64218 12.0888C8.64218 10.1804 10.1894 8.63315 12.0978 8.63315ZM12.0978 10.361C11.1432 10.361 10.37 11.1342 10.37 12.0888C10.37 13.0434 11.1432 13.8166 12.0978 13.8166C13.0524 13.8166 13.8256 13.0434 13.8256 12.0888C13.8256 11.1342 13.0524 10.361 12.0978 10.361Z"/>
</svg>
