<svg width="20" height="20" viewBox="0 0 20 20" fill="none" xmlns="http://www.w3.org/2000/svg">
<path d="M8.16456 3.03608C8.16518 2.51824 8.37116 2.02179 8.73733 1.65562C9.1035 1.28945 9.59996 1.08346 10.1178 1.08284H10.7936L10.5897 0.516008C10.5548 0.419314 10.5012 0.330459 10.4318 0.254537C10.3625 0.178614 10.2789 0.117116 10.1858 0.0735669C10.0927 0.0300181 9.99187 0.00527491 9.88917 0.000755429C9.78647 -0.00376405 9.68389 0.012029 9.5873 0.0472295L2.75681 2.53215C2.66023 2.56728 2.57154 2.62112 2.4958 2.69059C2.42007 2.76005 2.35878 2.84378 2.31545 2.93696C2.27212 3.03015 2.24761 3.13097 2.2433 3.23365C2.239 3.33633 2.25499 3.43884 2.29037 3.53533L2.65133 4.52055H8.16456V3.03608Z" fill="black"/>
<path d="M10.1178 2.25439C9.91059 2.25439 9.71186 2.33671 9.56534 2.48323C9.41882 2.62975 9.3365 2.82848 9.3365 3.03569V4.52016H16.1729V3.03569C16.1729 2.82848 16.0905 2.62975 15.944 2.48323C15.7975 2.33671 15.5988 2.25439 15.3916 2.25439H10.1178Z" fill="black"/>
<path d="M18.2433 15.7904H15.5088C14.7317 15.7904 13.9865 15.4817 13.437 14.9322C12.8876 14.3828 12.5789 13.6376 12.5789 12.8605C12.5789 12.0835 12.8876 11.3382 13.437 10.7888C13.9865 10.2393 14.7317 9.93064 15.5088 9.93064H18.2433V7.2547C18.2433 6.84027 18.0787 6.44282 17.7856 6.14978C17.4926 5.85673 17.0951 5.6921 16.6807 5.6921H1.56259C1.14817 5.6921 0.750717 5.85673 0.457673 6.14978C0.16463 6.44282 0 6.84027 0 7.2547V18.4374C0 18.8518 0.16463 19.2493 0.457673 19.5423C0.750717 19.8354 1.14817 20 1.56259 20H16.6807C17.0951 20 17.4926 19.8354 17.7856 19.5423C18.0787 19.2493 18.2433 18.8518 18.2433 18.4374V15.7904Z" fill="black"/>
<path d="M19.4152 11.1026H15.5088C15.0425 11.1026 14.5954 11.2878 14.2657 11.6175C13.936 11.9471 13.7508 12.3943 13.7508 12.8605C13.7508 13.3267 13.936 13.7739 14.2657 14.1035C14.5954 14.4332 15.0425 14.6184 15.5088 14.6184H19.4152C19.5706 14.6184 19.7197 14.5567 19.8296 14.4468C19.9395 14.3369 20.0012 14.1879 20.0012 14.0324V11.6886C20.0012 11.5331 19.9395 11.3841 19.8296 11.2742C19.7197 11.1643 19.5706 11.1026 19.4152 11.1026ZM15.5088 13.4465C15.3929 13.4465 15.2796 13.4121 15.1832 13.3477C15.0868 13.2833 15.0117 13.1918 14.9674 13.0847C14.923 12.9777 14.9114 12.8599 14.934 12.7462C14.9566 12.6325 15.0125 12.5281 15.0944 12.4462C15.1764 12.3642 15.2808 12.3084 15.3944 12.2858C15.5081 12.2632 15.6259 12.2748 15.733 12.3191C15.8401 12.3635 15.9316 12.4386 15.996 12.535C16.0604 12.6313 16.0947 12.7446 16.0947 12.8605C16.0947 13.0159 16.033 13.165 15.9231 13.2748C15.8132 13.3847 15.6642 13.4465 15.5088 13.4465Z" fill="black"/>
</svg>
