<svg viewBox="0 0 40 40" focusable="false"><path d="M40 20C40 8.9543 31.0457 0 20 0C8.9543 0 0 8.9543 0 20C0 31.0457 8.9543 40 20 40C31.0457 40 40 31.0457 40 20Z" fill="white"></path><path d="M32.7041 10.2721C30.2524 7.87643 26.8986 6.4 23.2 6.4C15.6889 6.4 9.6 12.4889 9.6 20C9.6 27.5111 15.6889 33.6 23.2 33.6C26.8986 33.6 30.2524 32.1236 32.7041 29.7279C29.7796 33.5413 25.1769 36 20 36C11.1634 36 4 28.8366 4 20C4 11.1634 11.1634 4 20 4C25.1769 4 29.7796 6.45869 32.7041 10.2721Z" fill="url(#paint0_linear_13610_53694)"></path><path d="M13.0366 27.7824C14.998 29.6989 17.681 30.88 20.6399 30.88C26.6488 30.88 31.5199 26.0089 31.5199 20C31.5199 13.9911 26.6488 9.12001 20.6399 9.12001C17.681 9.12001 14.998 10.3011 13.0366 12.2176C15.3762 9.16696 19.0583 7.20001 23.1999 7.20001C30.2691 7.20001 35.9999 12.9308 35.9999 20C35.9999 27.0692 30.2691 32.8 23.1999 32.8C19.0583 32.8 15.3762 30.833 13.0366 27.7824Z" fill="url(#paint1_linear_13610_53694)"></path><path fill-rule="evenodd" clip-rule="evenodd" d="M29.5999 20C29.5999 25.3019 25.3018 29.6 19.9999 29.6C14.698 29.6 10.3999 25.3019 10.3999 20C10.3999 14.6981 14.698 10.4 19.9999 10.4C25.3018 10.4 29.5999 14.6981 29.5999 20ZM26.3999 20C26.3999 23.5346 23.5345 26.4 19.9999 26.4C16.4653 26.4 13.5999 23.5346 13.5999 20C13.5999 16.4654 16.4653 13.6 19.9999 13.6C23.5345 13.6 26.3999 16.4654 26.3999 20Z" fill="url(#paint2_linear_13610_53694)"></path><defs><linearGradient id="paint0_linear_13610_53694" x1="4" y1="19.4483" x2="36" y2="19.4483" gradientUnits="userSpaceOnUse"><stop stop-color="#00E0FF"></stop><stop offset="1" stop-color="#562EC8"></stop></linearGradient><linearGradient id="paint1_linear_13610_53694" x1="3.99992" y1="19.4483" x2="35.9999" y2="19.4483" gradientUnits="userSpaceOnUse"><stop stop-color="#00E0FF"></stop><stop offset="1" stop-color="#562EC8"></stop></linearGradient><linearGradient id="paint2_linear_13610_53694" x1="3.9999" y1="19.4483" x2="35.9999" y2="19.4483" gradientUnits="userSpaceOnUse"><stop stop-color="#00E0FF"></stop><stop offset="1" stop-color="#562EC8"></stop></linearGradient></defs></svg>