<svg xmlns="http://www.w3.org/2000/svg" width="256" height="257" fill="none"><circle cx="128" cy="128" r="128" fill="url(#a)"/><path fill="#000" fill-rule="evenodd" d="M186.965 185.713a5.01 5.01 0 0 1-5.007 5.012h-24.454c-.032 0-.064-.016-.095-.02l-4.242.02a9.018 9.018 0 0 1-7.672-4.209l-27.889-44.222c-1.667-2.647.235-6.097 3.36-6.097h31.507l.024.04V38.441c0-1.848 1.91-3.148 3.585-2.373a66.863 66.863 0 0 1 19.296 13.481l4.253 4.257a25.072 25.072 0 0 1 7.334 17.725v114.182Zm-83.376-65.819v97.796c0 1.847-1.906 3.149-3.586 2.372a66.77 66.77 0 0 1-19.292-13.48l-4.253-4.256A25.08 25.08 0 0 1 69.12 184.6V70.418a5.014 5.014 0 0 1 5.011-5.015h24.45c.036 0 .064.02.1.02l4.236-.02a9.024 9.024 0 0 1 7.673 4.212l27.889 44.223c1.667 2.647-.231 6.096-3.36 6.096h-31.503l-.027-.04Z" clip-rule="evenodd"/><defs><linearGradient id="a" x1="232.039" x2="130.305" y1="186.613" y2="45.072" gradientUnits="userSpaceOnUse"><stop stop-color="#FDCC00"/><stop offset="1" stop-color="#FF9D39"/></linearGradient></defs></svg>