<svg width="256" height="257" viewBox="0 0 256 257" fill="none" xmlns="http://www.w3.org/2000/svg">
<ellipse cx="128" cy="128" rx="128" ry="128" fill="url(#paint0_linear_1179_1243)"/>
<path fill-rule="evenodd" clip-rule="evenodd" d="M186.965 185.713C186.965 188.483 184.722 190.725 181.958 190.725H157.504C157.472 190.725 157.44 190.709 157.409 190.705L153.167 190.725C150.058 190.74 147.155 189.151 145.495 186.516L117.606 142.294C115.939 139.647 117.841 136.197 120.966 136.197H152.473L152.497 136.237V38.4413C152.497 36.5932 154.407 35.2934 156.082 36.0685C163.167 39.3393 169.695 43.8621 175.378 49.5493L179.631 53.8058C184.329 58.5074 186.965 64.8822 186.965 71.5312V185.713ZM103.589 119.894V217.69C103.589 219.537 101.683 220.839 100.003 220.062C92.9182 216.792 86.3898 212.269 80.7113 206.582L76.4582 202.326C71.7603 197.624 69.1196 191.249 69.1196 184.6V70.4184C69.1196 67.6483 71.3632 65.4027 74.1311 65.4027H98.581C98.6168 65.4027 98.6447 65.4227 98.6803 65.4227L102.917 65.4027C106.031 65.391 108.93 66.9807 110.59 69.6155L138.479 113.838C140.146 116.485 138.248 119.934 135.119 119.934H103.616L103.589 119.894Z" fill="black"/>
<defs>
<linearGradient id="paint0_linear_1179_1243" x1="232.039" y1="186.613" x2="130.305" y2="45.0725" gradientUnits="userSpaceOnUse">
<stop stop-color="#FDCC00"/>
<stop offset="1" stop-color="#FF9D39"/>
</linearGradient>
</defs>
</svg>
