<svg width="825" height="823" viewBox="0 0 825 823" fill="none" xmlns="http://www.w3.org/2000/svg">
<g clip-path="url(#clip0_234_4166)">
<rect y="-2" width="825" height="825" fill="black"/>
<path d="M718.699 593.4H941.899C951.499 593.4 959.999 587.4 963.299 578.4L1057.1 317.4V-205H973.199L697.399 563C691.999 577.8 702.899 593.4 718.699 593.4Z" fill="#F9D762"/>
<path d="M513.2 488H290C280.4 488 271.9 494 268.6 503L61 1081H332.5L534.6 518.3C539.9 503.6 528.9 488 513.2 488Z" fill="#F9D762"/>
<path d="M116.2 149H-107C-116.6 149 -125.1 155 -128.4 164L-336 742H-64.5L137.6 179.3C142.9 164.6 131.9 149 116.2 149Z" fill="#F9D762"/>
<path d="M389.811 206.2H613.011C622.611 206.2 631.111 200.2 634.411 191.2L772.311 -193H500.811L368.311 175.8C363.111 190.6 374.011 206.2 389.811 206.2Z" fill="#F9D762"/>
<path d="M833.3 742H610.1C600.5 742 592 748 588.7 757L536 904H807.5L854.8 772.4C860 757.6 849 742 833.3 742Z" fill="#F9D762"/>
<path opacity="0.05" d="M-16.2528 24.3H206.947C216.547 24.3 225.047 18.3 228.347 9.3L316.047 -235H44.5472L-37.6528 -6.10001C-42.9528 8.7 -31.9528 24.3 -16.2528 24.3Z" fill="#4D4412"/>
</g>
<defs>
<clipPath id="clip0_234_4166">
<rect width="825" height="823" fill="white"/>
</clipPath>
</defs>
</svg>
