<svg width="20" height="20" viewBox="0 0 20 20" fill="none" xmlns="http://www.w3.org/2000/svg">
<path d="M17.5 7.8125C17.5004 7.93589 17.4642 8.05664 17.3961 8.15952C17.328 8.2624 17.2309 8.34281 17.1172 8.39063C17.0401 8.42124 16.9579 8.43714 16.875 8.4375C16.709 8.4368 16.5497 8.37249 16.4297 8.25782L14.5312 6.35157L11.6875 9.19532C11.5708 9.31021 11.4137 9.37473 11.25 9.375C11.084 9.3743 10.9247 9.30999 10.8047 9.19532C10.6878 9.07815 10.6222 8.91941 10.6222 8.75391C10.6222 8.58841 10.6878 8.42967 10.8047 8.3125L13.6484 5.46875L11.7422 3.57032C11.6574 3.47995 11.5999 3.36742 11.5764 3.24576C11.5529 3.12409 11.5643 2.99826 11.6094 2.88282C11.6572 2.76906 11.7376 2.67201 11.8405 2.60389C11.9434 2.53576 12.0641 2.49962 12.1875 2.5H16.875C17.0408 2.5 17.1997 2.56585 17.3169 2.68306C17.4342 2.80027 17.5 2.95924 17.5 3.125V7.8125ZM14.375 10.625C14.2092 10.625 14.0503 10.6909 13.9331 10.8081C13.8158 10.9253 13.75 11.0842 13.75 11.25V16.25H3.75V6.25H8.75C8.91576 6.25 9.07473 6.18415 9.19194 6.06694C9.30915 5.94973 9.375 5.79076 9.375 5.625C9.375 5.45924 9.30915 5.30027 9.19194 5.18306C9.07473 5.06585 8.91576 5 8.75 5H3.75C3.41848 5 3.10054 5.1317 2.86612 5.36612C2.6317 5.60054 2.5 5.91848 2.5 6.25V16.25C2.5 16.5815 2.6317 16.8995 2.86612 17.1339C3.10054 17.3683 3.41848 17.5 3.75 17.5H13.75C14.0815 17.5 14.3995 17.3683 14.6339 17.1339C14.8683 16.8995 15 16.5815 15 16.25V11.25C15 11.0842 14.9342 10.9253 14.8169 10.8081C14.6997 10.6909 14.5408 10.625 14.375 10.625Z" fill="#6F6F6F"/>
</svg>
