<svg width="100%" height="100%" viewBox="0 0 40 40" fill="none" xmlns="http://www.w3.org/2000/svg">
<path fill-rule="evenodd" clip-rule="evenodd" d="M16.969 8.02995C16.969 7.58792 16.969 6.85144 16.969 6.85144V6.36328L24.0907 6.36328C24.3654 6.36315 24.6359 6.43094 24.8782 6.56063C25.1204 6.69032 25.3268 6.87788 25.479 7.10661L27.7123 10.4549H32.274C33.4392 10.4549 34.5566 10.9178 35.3805 11.7417C36.2045 12.5656 36.6673 13.6831 36.6673 14.8483V29.8483C36.6675 30.4254 36.5541 30.9968 36.3334 31.5301C36.1127 32.0633 35.7891 32.5478 35.3811 32.9559C34.9732 33.3641 34.4888 33.6878 33.9556 33.9087C33.4225 34.1296 32.8511 34.2433 32.274 34.2433H7.72732C7.15024 34.2433 6.57881 34.1296 6.04568 33.9087C5.51255 33.6878 5.02815 33.3641 4.62017 32.9559C4.21219 32.5478 3.88862 32.0633 3.66793 31.5301C3.44724 30.9968 3.33377 30.4254 3.33398 29.8483L3.33398 18.94H3.82214C3.82214 18.94 4.55862 18.94 5.00065 18.94C5.44268 18.94 6.17916 18.94 6.17916 18.94H6.66732V29.8483C6.6671 29.9876 6.69436 30.1257 6.74753 30.2544C6.8007 30.3832 6.87874 30.5003 6.9772 30.5989C7.07565 30.6975 7.19258 30.7757 7.32129 30.8291C7.45 30.8825 7.58798 30.91 7.72732 30.91H32.274C32.4133 30.91 32.5513 30.8825 32.68 30.8291C32.8087 30.7757 32.9257 30.6975 33.0241 30.5989C33.1226 30.5003 33.2006 30.3832 33.2538 30.2544C33.307 30.1257 33.3342 29.9876 33.334 29.8483V14.8483C33.334 14.5672 33.2223 14.2975 33.0235 14.0988C32.8247 13.9 32.5551 13.7883 32.274 13.7883H26.8173C26.543 13.7883 26.2729 13.7207 26.031 13.5913C25.7891 13.4619 25.5829 13.2748 25.4307 13.0466L23.1973 9.69662H16.969V9.20846C16.969 9.20846 16.969 8.47198 16.969 8.02995Z" fill="white"/>
<path fill-rule="evenodd" clip-rule="evenodd" d="M20.0006 17.8783C19.5031 17.8783 19.0105 17.9762 18.5508 18.1666C18.0912 18.357 17.6736 18.6361 17.3218 18.9878C16.97 19.3396 16.691 19.7572 16.5006 20.2169C16.3102 20.6765 16.2122 21.1691 16.2122 21.6666C16.2122 22.1641 16.3102 22.6567 16.5006 23.1163C16.691 23.5759 16.97 23.9936 17.3218 24.3453C17.6736 24.6971 18.0912 24.9762 18.5508 25.1665C19.0105 25.3569 19.5031 25.4549 20.0006 25.4549C21.0053 25.4549 21.9689 25.0558 22.6793 24.3453C23.3898 23.6349 23.7889 22.6713 23.7889 21.6666C23.7889 20.6619 23.3898 19.6983 22.6793 18.9878C21.9689 18.2774 21.0053 17.8783 20.0006 17.8783ZM12.8789 21.6666C12.8789 19.7778 13.6292 17.9664 14.9648 16.6308C16.3004 15.2952 18.1118 14.5449 20.0006 14.5449C21.8894 14.5449 23.7008 15.2952 25.0363 16.6308C26.3719 17.9664 27.1222 19.7778 27.1222 21.6666C27.1222 23.5554 26.3719 25.3668 25.0363 26.7024C23.7008 28.0379 21.8894 28.7882 20.0006 28.7882C18.1118 28.7882 16.3004 28.0379 14.9648 26.7024C13.6292 25.3668 12.8789 23.5554 12.8789 21.6666Z" fill="white"/>
<rect x="6.66602" y="5" width="3.33333" height="11.6667" fill="white"/>
<rect x="14.166" y="9.16675" width="3.33333" height="11.6667" transform="rotate(90 14.166 9.16675)" fill="white"/>
</svg>
