<svg width="24" height="24" viewBox="0 0 24 24" fill="none" xmlns="http://www.w3.org/2000/svg">
<path d="M6.28583 4.85738V4.14291C6.28583 2.96161 5.32424 2 4.14291 2H2V3.4284H4.14291C4.53651 3.4284 4.85738 3.74925 4.85738 4.14286V14.8568C4.85738 16.4477 5.91014 17.7828 7.35003 18.2438C7.1328 18.614 7.00026 19.04 7.00026 19.4998C7.00026 20.8804 8.11929 22 9.50044 22C10.881 22 12.0006 20.881 12.0006 19.4998C12.0006 19.1147 11.9064 18.754 11.7505 18.4286H15.821C15.6656 18.754 15.5714 19.1147 15.5714 19.4998C15.5714 20.8804 16.6904 22 18.0716 22C19.4521 22 20.5718 20.881 20.5718 19.4998C20.5713 18.1193 19.4522 16.9997 18.0716 16.9997H8.4288C7.2475 16.9997 6.28589 16.0381 6.28589 14.8567V6.28574H20.5711V11.0909C20.5711 12.2722 19.6095 13.2338 18.4282 13.2338H9.14319V14.6622H18.4287C20.3978 14.6622 22 13.0599 22 11.0909L21.9995 4.85734L6.28583 4.85738ZM10.5716 19.4997C10.5716 20.0906 10.0909 20.5709 9.50046 20.5709C8.90956 20.5709 8.42878 20.0901 8.42878 19.4997C8.42878 18.9088 8.90956 18.4286 9.49996 18.4286C10.0909 18.4281 10.5716 18.9088 10.5716 19.4997ZM19.1427 19.4997C19.1427 20.0906 18.6619 20.5709 18.0715 20.5709C17.4806 20.5709 16.9998 20.0901 16.9998 19.4997C16.9998 18.9088 17.4806 18.4286 18.071 18.4286C18.6619 18.4281 19.1427 18.9088 19.1427 19.4997Z" fill="black" stroke="black" stroke-width="0.909091"/>
</svg>
