<svg width="684" height="1048" viewBox="0 0 684 1048" fill="none" xmlns="http://www.w3.org/2000/svg">
<path d="M393.64 0H273.667C272.937 0 272.282 0.449648 272.021 1.13096L0.921002 706.501C0.477046 707.657 1.32973 708.898 2.56724 708.898H119.168C119.896 708.898 120.548 708.451 120.812 707.774L395.284 2.40319C395.734 1.24701 394.881 0 393.64 0Z" fill="white"/>
<path d="M474.793 90.7009H354.82C354.09 90.7009 353.435 91.1506 353.174 91.8319L82.0741 797.202C81.6301 798.358 82.4828 799.599 83.7203 799.599H200.321C201.049 799.599 201.701 799.152 201.965 798.475L476.437 93.1041C476.887 91.9479 476.034 90.7009 474.793 90.7009Z" fill="white"/>
<path d="M817.64 339H697.667C696.937 339 696.282 339.45 696.021 340.131L424.921 1045.5C424.477 1046.66 425.33 1047.9 426.567 1047.9H543.168C543.896 1047.9 544.548 1047.45 544.812 1046.77L819.284 341.403C819.734 340.247 818.881 339 817.64 339Z" fill="white"/>
<path d="M543.64 120H423.667C422.937 120 422.282 120.45 422.021 121.131L150.921 826.501C150.477 827.657 151.33 828.898 152.567 828.898H269.168C269.896 828.898 270.548 828.451 270.812 827.774L545.284 122.403C545.734 121.247 544.881 120 543.64 120Z" fill="white"/>
<path d="M624.794 210.701H504.82C504.09 210.701 503.436 211.15 503.174 211.832L232.074 917.202C231.63 918.357 232.483 919.599 233.721 919.599H350.322C351.049 919.599 351.701 919.152 351.965 918.474L626.437 213.104C626.887 211.948 626.034 210.701 624.794 210.701Z" fill="white"/>
</svg>
