<svg width="287" height="386" viewBox="0 0 287 386" fill="none" xmlns="http://www.w3.org/2000/svg">
<g filter="url(#filter0_d_114_76)">
<path d="M167.421 0H119.359C118.63 0 117.975 0.449617 117.713 1.13093L4.921 294.604C4.47705 295.759 5.32974 297 6.56724 297H53.2259C53.9532 297 54.6058 296.554 54.8695 295.876L169.065 2.40319C169.515 1.24701 168.662 0 167.421 0Z" fill="black"/>
<path d="M188.421 66H140.359C139.63 66 138.975 66.4496 138.713 67.1309L25.921 360.604C25.477 361.759 26.3297 363 27.5672 363H74.2259C74.9532 363 75.6058 362.554 75.8695 361.876L190.065 68.4032C190.515 67.247 189.662 66 188.421 66Z" fill="black"/>
<path d="M246.421 43H198.359C197.63 43 196.975 43.4496 196.713 44.1309L83.921 337.604C83.477 338.759 84.3297 340 85.5672 340H132.226C132.953 340 133.606 339.554 133.87 338.876L248.065 45.4032C248.515 44.247 247.662 43 246.421 43Z" fill="black"/>
<path d="M280.421 81H232.359C231.63 81 230.975 81.4496 230.713 82.1309L117.921 375.604C117.477 376.759 118.33 378 119.567 378H166.226C166.953 378 167.606 377.554 167.87 376.876L282.065 83.4032C282.515 82.247 281.662 81 280.421 81Z" fill="black"/>
</g>
<defs>
<filter id="filter0_d_114_76" x="0.802002" y="0" width="285.385" height="386" filterUnits="userSpaceOnUse" color-interpolation-filters="sRGB">
<feFlood flood-opacity="0" result="BackgroundImageFix"/>
<feColorMatrix in="SourceAlpha" type="matrix" values="0 0 0 0 0 0 0 0 0 0 0 0 0 0 0 0 0 0 127 0" result="hardAlpha"/>
<feOffset dy="4"/>
<feGaussianBlur stdDeviation="2"/>
<feComposite in2="hardAlpha" operator="out"/>
<feColorMatrix type="matrix" values="0 0 0 0 0 0 0 0 0 0 0 0 0 0 0 0 0 0 0.25 0"/>
<feBlend mode="normal" in2="BackgroundImageFix" result="effect1_dropShadow_114_76"/>
<feBlend mode="normal" in="SourceGraphic" in2="effect1_dropShadow_114_76" result="shape"/>
</filter>
</defs>
</svg>
