<svg width="256" height="256" viewBox="0 0 256 256" fill="none" xmlns="http://www.w3.org/2000/svg">
<path d="M128 256C198.692 256 256 198.692 256 128C256 57.3076 198.692 0 128 0C57.3076 0 0 57.3076 0 128C0 198.692 57.3076 256 128 256Z" fill="url(#paint0_linear)"/>
<path fill-rule="evenodd" clip-rule="evenodd" d="M128.525 51C148.448 51 164.593 66.7774 164.593 86.2324C164.593 105.692 148.448 121.465 128.525 121.465C108.611 121.465 92.4663 105.692 92.4663 86.2324C92.4663 66.7774 108.611 51 128.525 51Z" fill="#171B27" fill-opacity="0.7"/>
<path fill-rule="evenodd" clip-rule="evenodd" d="M128.5 204.333C108.629 204.333 90.4301 197.263 76.3927 185.561C72.9732 182.712 71 178.534 71 174.149C71 154.418 87.3458 138.627 107.547 138.627H149.511C169.716 138.627 186 154.418 186 174.149C186 178.538 184.036 182.707 180.612 185.557C166.58 197.263 148.375 204.333 128.5 204.333Z" fill="#171B27" fill-opacity="0.7"/>
<defs>
<linearGradient id="paint0_linear" x1="128" y1="0" x2="128" y2="256" gradientUnits="userSpaceOnUse">
<stop stop-color="#FF278F"/>
<stop offset="1" stop-color="#009ECF"/>
</linearGradient>
</defs>
</svg>
