<svg width="24" height="24" viewBox="0 0 24 24" fill="none" xmlns="http://www.w3.org/2000/svg">
<path d="M20.9624 18.7313L14.9999 8.79375V3.75H15.7499C15.9488 3.75 16.1396 3.67098 16.2802 3.53033C16.4209 3.38968 16.4999 3.19891 16.4999 3C16.4999 2.80109 16.4209 2.61032 16.2802 2.46967C16.1396 2.32902 15.9488 2.25 15.7499 2.25H8.24991C8.051 2.25 7.86023 2.32902 7.71958 2.46967C7.57893 2.61032 7.49991 2.80109 7.49991 3C7.49991 3.19891 7.57893 3.38968 7.71958 3.53033C7.86023 3.67098 8.051 3.75 8.24991 3.75H8.99991V8.79375L5.23116 15.0656C5.23116 15.075 5.22179 15.0844 5.22179 15.0938L3.03741 18.7313C2.90168 18.9587 2.82858 19.218 2.82554 19.4828C2.8225 19.7476 2.88963 20.0085 3.0201 20.239C3.15057 20.4694 3.33974 20.6613 3.56837 20.7949C3.797 20.9286 4.05695 20.9994 4.32179 21H19.678C19.9429 20.9994 20.2028 20.9286 20.4315 20.7949C20.6601 20.6613 20.8493 20.4694 20.9797 20.239C21.1102 20.0085 21.1773 19.7476 21.1743 19.4828C21.1712 19.218 21.0981 18.9587 20.9624 18.7313ZM10.2843 9.5625C10.4247 9.33062 10.4993 9.06484 10.4999 8.79375V3.75H13.4999V8.79375C13.5005 9.06484 13.5751 9.33062 13.7155 9.5625L17.353 15.6375C16.1249 16.3031 14.4093 16.1156 12.3374 15.075C10.9968 14.4094 9.27179 13.8094 7.62179 14.0062L10.2843 9.5625Z" fill="#6F6F6F"/>
</svg>
