<svg width="16" height="20" viewBox="0 0 16 20" fill="none" xmlns="http://www.w3.org/2000/svg">
<path d="M9.25 0H13.625C14.6406 0 15.5 0.859375 15.5 1.875V10H0.5V1.875C0.5 0.859375 1.32031 0 2.375 0H3L4.25 2.5L5.5 0H6.75L8 2.5L9.25 0ZM15.5 11.25V12.5C15.5 13.9063 14.3672 15 13 15H10.5V17.5C10.5 18.9063 9.36719 20 8 20C6.59375 20 5.5 18.9063 5.5 17.5V15H3C1.59375 15 0.5 13.9063 0.5 12.5V11.25H15.5ZM8 18.125C8.3125 18.125 8.625 17.8516 8.625 17.5C8.625 17.1875 8.3125 16.875 8 16.875C7.64844 16.875 7.375 17.1875 7.375 17.5C7.375 17.8516 7.64844 18.125 8 18.125Z" fill="#F4F6FB" fill-opacity="0.7"/>
</svg>
