<svg width="34" height="34" viewBox="0 0 34 34" fill="none" xmlns="http://www.w3.org/2000/svg">
<circle cx="17" cy="17" r="17" fill="#C7CAD0"/>
<path d="M26.0416 12C26.0416 11.0714 25.2559 10.2857 24.3273 10.2857H21.1844L20.7201 9.14286C20.4701 8.46429 19.8273 8 19.113 8H14.6487C13.9344 8 13.2916 8.46429 13.0416 9.14286L12.613 10.2857H9.47015C8.50586 10.2857 7.75586 11.0714 7.75586 12V22.2857C7.75586 23.25 8.50586 24 9.47015 24H24.3273C25.2559 24 26.0416 23.25 26.0416 22.2857V12ZM21.1844 17.1429C21.1844 19.5357 19.2559 21.4286 16.8987 21.4286C14.5059 21.4286 12.613 19.5357 12.613 17.1429C12.613 14.7857 14.5059 12.8571 16.8987 12.8571C19.2559 12.8571 21.1844 14.7857 21.1844 17.1429ZM20.0416 17.1429C20.0416 15.4286 18.613 14 16.8987 14C15.1487 14 13.7559 15.4286 13.7559 17.1429C13.7559 18.8929 15.1487 20.2857 16.8987 20.2857C18.613 20.2857 20.0416 18.8929 20.0416 17.1429Z" fill="black" fill-opacity="0.5"/>
</svg>
