<svg width="20" height="20" viewBox="0 0 20 20" fill="none" xmlns="http://www.w3.org/2000/svg">
<path d="M8.57143 8.57143H5.71429V11.4286H8.57143V8.57143ZM17.1429 0H2.85714C1.25 0 0 1.29464 0 2.85714V17.1429C0 18.75 1.25 20 2.85714 20H17.1429C18.7054 20 20 18.75 20 17.1429V2.85714C20 1.29464 18.7054 0 17.1429 0ZM17.1429 5.71429H14.2857V8.57143H17.1429V11.4286H14.2857V14.2857H17.1429V17.1429H14.2857V14.2857H11.4286V17.1429H8.57143V14.2857H5.71429V17.1429H2.85714V14.2857H5.71429V11.4286H2.85714V8.57143H5.71429V5.71429H2.85714V2.85714H5.71429V5.71429H8.57143V2.85714H11.4286V5.71429H14.2857V2.85714H17.1429V5.71429ZM8.57143 11.4286V14.2857H11.4286V11.4286H8.57143ZM11.4286 8.57143V5.71429H8.57143V8.57143H11.4286ZM11.4286 11.4286H14.2857V8.57143H11.4286V11.4286Z" fill="#F4F6FB" fill-opacity="0.7"/>
</svg>
