<svg width="24" height="24" viewBox="0 0 24 24" fill="none" xmlns="http://www.w3.org/2000/svg">
<path d="M2.23442 2.22965C2.84797 1.61959 3.68019 1.27673 4.54839 1.27673H17.4007V5.9395V6.21623H17.6774H20.9491V10.8792V11.156L21.2258 11.156L22.7233 11.1561V16.9536H21.2258H20.9491V17.2303V21.8931H4.54839C3.68018 21.8931 2.84797 21.5502 2.23442 20.9402C1.62118 20.3304 1.27673 19.5034 1.27673 18.6415V4.5283C1.27673 3.66645 1.62116 2.83944 2.23442 2.22965ZM2.23442 2.22965L2.0393 2.03341M2.23442 2.22965L2.0393 2.03341M2.0393 2.03341C2.70487 1.37163 3.6073 1 4.54839 1H17.4007L2.0393 2.03341ZM20.8709 15.3899H21.1476V15.1131V12.9961V12.7193H20.8709H16.2579C15.7796 12.7193 15.3367 12.9732 15.0968 13.3866C14.8566 13.7999 14.8566 14.3095 15.0968 14.723C15.3367 15.136 15.7796 15.3899 16.2579 15.3899H20.8709ZM4.54829 2.84019H4.27156V2.86286C3.77617 2.94439 3.33641 3.24208 3.07988 3.68355L3.07983 3.68364C2.77649 4.20612 2.7765 4.8502 3.07982 5.37271L3.07987 5.37279C3.38329 5.89505 3.94325 6.21611 4.54828 6.21611L15.5483 6.21635L15.825 6.21636V5.93962V3.11692V2.84019H15.5483H4.54829ZM4.27156 20.3066V20.3295L4.54828 20.3295L19.0966 20.3297L19.3734 20.3297V20.0529V17.2302V16.9535H19.0966H16.2579C15.2153 16.9535 14.2522 16.4001 13.7315 15.5033C13.2111 14.6068 13.2111 13.5025 13.7315 12.6059C14.2521 11.7092 15.2151 11.156 16.2579 11.156H19.0966H19.3734V10.8793V8.05658V7.77985H19.0966H4.54825H4.54812C4.09784 7.78007 3.65218 7.68684 3.23982 7.50668L2.8523 7.33736V7.76026V18.6413C2.8523 19.0896 3.03136 19.519 3.34973 19.8355C3.60175 20.0861 3.92487 20.2495 4.27156 20.3066Z" fill="black" stroke="black" stroke-width="0.553459"/>
</svg>
