<svg width="100%" height="100%" viewBox="0 0 44 44" fill="none" xmlns="http://www.w3.org/2000/svg">
<path fill-rule="evenodd" clip-rule="evenodd" d="M31.3284 31.121C31.3267 31.3305 31.2428 31.531 31.0946 31.6792C30.9464 31.8274 30.7459 31.9113 30.5364 31.913H25.979C25.7362 31.9133 25.4971 31.8524 25.284 31.736C25.0708 31.6195 24.8905 31.4512 24.7595 31.2467L20.3594 24.2504C20.2998 24.1551 20.2669 24.0457 20.264 23.9334C20.2611 23.8211 20.2884 23.7101 20.3429 23.6119C20.3975 23.5138 20.4773 23.432 20.5742 23.3751C20.671 23.3183 20.7814 23.2884 20.8937 23.2886H25.8847V7.82512C25.8847 7.75786 25.9013 7.69163 25.9331 7.63233C25.9648 7.57302 26.0107 7.52247 26.0667 7.48516C26.1226 7.44784 26.187 7.42493 26.2539 7.41844C26.3209 7.41195 26.3884 7.42209 26.4505 7.44796C27.5857 7.97396 28.6197 8.69523 29.5055 9.57891L30.1718 10.2578C30.5404 10.6257 30.8329 11.0627 31.0325 11.5437C31.232 12.0248 31.3347 12.5405 31.3347 13.0613L31.3284 31.121ZM18.1278 20.7051V36.1686C18.1278 36.2359 18.1112 36.3021 18.0795 36.3614C18.0478 36.4207 18.0019 36.4713 17.9459 36.5086C17.8899 36.5459 17.8256 36.5688 17.7587 36.5753C17.6917 36.5818 17.6242 36.5716 17.5621 36.5458C16.4249 36.0232 15.3903 35.3016 14.5071 34.4148L13.8282 33.7485C13.086 33.0039 12.668 31.9963 12.6653 30.9449V12.8853C12.6653 12.6747 12.7486 12.4726 12.8969 12.323C13.0453 12.1735 13.2467 12.0887 13.4574 12.087H18.0147C18.2568 12.086 18.4952 12.1467 18.7075 12.2632C18.9197 12.3798 19.0988 12.5485 19.2279 12.7533L23.6281 19.7496C23.6949 19.8434 23.7346 19.9538 23.743 20.0687C23.7513 20.1835 23.7279 20.2985 23.6754 20.401C23.6228 20.5035 23.5432 20.5896 23.445 20.6498C23.3469 20.7101 23.2341 20.7423 23.1189 20.7428H18.1278V20.7051ZM39.739 11.7036L32.2964 4.26097C29.5644 1.53253 25.8611 0 22 0C18.1389 0 14.4356 1.53253 11.7036 4.26097L4.26097 11.7036C1.53253 14.4356 0 18.1389 0 22C0 25.8611 1.53253 29.5644 4.26097 32.2964L11.7036 39.739C14.4356 42.4675 18.1389 44 22 44C25.8611 44 29.5644 42.4675 32.2964 39.739L39.739 32.2964C42.4675 29.5644 44 25.8611 44 22C44 18.1389 42.4675 14.4356 39.739 11.7036Z" fill="white"/>
</svg>
