<svg width="100%" height="100%" viewBox="0 0 41 40" fill="none" xmlns="http://www.w3.org/2000/svg">
<path fill-rule="evenodd" clip-rule="evenodd" d="M28.6403 28.2888C28.6403 28.687 28.3156 29.0093 27.9156 29.0093H24.3768C24.3722 29.0093 24.3676 29.007 24.363 29.0065L23.7493 29.0093C23.2993 29.0116 22.8792 28.783 22.639 28.4042L18.6031 22.0459C18.3617 21.6654 18.637 21.1694 19.0892 21.1694H23.6487L23.6521 21.1751V21.1694V7.11397C23.6521 6.84826 23.9285 6.6614 24.1711 6.77283C25.1963 7.24312 26.141 7.8934 26.9634 8.71111L27.5789 9.32311C28.2587 9.99911 28.6403 10.9157 28.6403 11.8717V28.2888ZM16.5745 18.8254V18.8311V32.8865C16.5745 33.1522 16.2987 33.339 16.0556 33.2276C15.0304 32.7573 14.0856 32.107 13.2638 31.2893L12.6483 30.6773C11.9685 30.0013 11.5864 29.0848 11.5864 28.1288V11.7117C11.5864 11.3134 11.911 10.9905 12.3116 10.9905H15.8498C15.855 10.9905 15.859 10.9934 15.8642 10.9934L16.4774 10.9905C16.9279 10.9888 17.3474 11.2174 17.5876 11.5962L21.6235 17.9545C21.8649 18.3351 21.5902 18.8311 21.1374 18.8311H16.5785L16.5745 18.8254ZM36.3282 10.6408L29.5258 3.87684C24.3274 -1.29228 15.8993 -1.29228 10.7014 3.87684L3.89842 10.6408C-1.29947 15.8099 -1.29947 24.1905 3.89842 29.359L10.7014 36.1236C15.8993 41.2921 24.3274 41.2921 29.5258 36.1236L36.3282 29.359C41.5267 24.1905 41.5267 15.8099 36.3282 10.6408Z" fill="black"/>
</svg>
