<svg width="100%" height="100%" viewBox="0 0 22 22" fill="none" xmlns="http://www.w3.org/2000/svg">
<path d="M9.00722 18.9603C7.17789 20.7896 4.20141 20.7896 2.37199 18.9603C0.542668 17.131 0.542668 14.1545 2.37199 12.3251L5.68961 9.00748C7.51893 7.17815 10.4954 7.17815 12.3248 9.00748V9.00731C12.46 9.13871 12.5367 9.31872 12.5381 9.50708C12.5394 9.69543 12.4651 9.87658 12.3319 10.0098C12.1987 10.143 12.0177 10.2173 11.8292 10.2158C11.6408 10.2145 11.4608 10.1377 11.3296 10.0027C10.0344 8.70754 7.98003 8.70754 6.68462 10.0027L3.367 13.3204C2.0718 14.6156 2.0718 16.6699 3.367 17.9653C4.66221 19.2607 6.71654 19.2605 8.01195 17.9653L10.9979 14.9794H10.9977C11.1291 14.8444 11.3091 14.7676 11.4975 14.7663C11.6858 14.765 11.8668 14.8392 12 14.9724C12.1332 15.1056 12.2073 15.2866 12.2062 15.4749C12.2049 15.6634 12.1281 15.8432 11.993 15.9747L9.00706 18.9606L9.00722 18.9603ZM15.6424 12.3251C13.8131 14.1544 10.8366 14.1544 9.00722 12.3251C8.87222 12.1939 8.79547 12.0138 8.79433 11.8255C8.79302 11.6371 8.86715 11.4562 9.00035 11.323C9.13355 11.1898 9.31454 11.1156 9.50288 11.1169C9.69123 11.1181 9.87124 11.1948 10.0025 11.3298C11.2977 12.625 13.352 12.625 14.6474 11.3298L17.965 8.01221C19.2603 6.71701 19.2603 4.66268 17.965 3.36726C16.6698 2.07184 14.6155 2.07205 13.3201 3.36726L10.3342 6.35318H10.3343C10.2029 6.48818 10.0229 6.56509 9.83458 6.5664C9.64622 6.5677 9.46508 6.49341 9.33188 6.36021C9.19867 6.22701 9.12438 6.04602 9.12569 5.85751C9.12716 5.66916 9.20391 5.48916 9.33908 5.35791L12.325 2.37199C14.1543 0.542668 17.1308 0.542668 18.9602 2.37199C20.7895 4.20132 20.7895 7.17781 18.9602 9.00722L15.6424 12.3251Z" fill="black"/>
</svg>
