<svg width="33" height="18" viewBox="0 0 33 18" fill="none" xmlns="http://www.w3.org/2000/svg">
<path d="M32.4641 7.0116C32.4483 6.83919 32.3685 6.67896 32.2403 6.56257C32.1121 6.44618 31.945 6.38211 31.7719 6.38301H17.254C16.2973 2.71666 12.9675 0 9.00541 0C4.29925 0 0.471436 3.82782 0.471436 8.53397C0.471436 13.2412 4.29925 17.0679 9.00541 17.0679C13.215 17.0679 16.7122 14.0033 17.4062 9.99051H20.6393V14.5944H20.6444C20.657 14.7699 20.7355 14.9341 20.8642 15.0541C20.9929 15.174 21.1622 15.2408 21.3381 15.241C21.3477 15.241 21.3562 15.2388 21.3657 15.2384V15.2425H23.6094V15.2414C23.7854 15.2414 23.9548 15.1746 24.0835 15.0546C24.2122 14.9346 24.2907 14.7703 24.3031 14.5948H24.309V9.99087H26.1403V17.1091H26.1458C26.1586 17.2847 26.2372 17.4489 26.3659 17.5689C26.4946 17.6889 26.6639 17.7559 26.8399 17.7565L26.8476 17.7558H29.0957L29.1034 17.7565C29.2793 17.7558 29.4486 17.6888 29.5773 17.5688C29.7059 17.4488 29.7846 17.2846 29.7974 17.1091H29.803V9.99051H31.7726V9.98977C31.9579 9.98948 32.1355 9.91571 32.2666 9.78463C32.3976 9.65356 32.4712 9.47588 32.4714 9.29056H32.4711V7.01123H32.4641V7.0116ZM9.00541 13.4877C6.3064 13.4877 4.11057 11.2904 4.11057 8.59172C4.11057 5.89271 6.3064 3.69577 9.00541 3.69577C11.704 3.69577 13.8988 5.89271 13.8988 8.59172C13.8991 11.2907 11.704 13.4877 9.00541 13.4877Z" fill="white"/>
</svg>
