<svg width="100%" height="100%" viewBox="0 0 16 16" fill="none" xmlns="http://www.w3.org/2000/svg">
<path fill-rule="evenodd" clip-rule="evenodd" d="M14.7 14.7L14.7 12.5L12.5 12.5L12.5 14.7L14.7 14.7ZM15.2 16C15.6418 16 16 15.6418 16 15.2L16 12C16 11.5582 15.6418 11.2 15.2 11.2L12 11.2C11.5582 11.2 11.2 11.5582 11.2 12L11.2 15.2C11.2 15.6418 11.5582 16 12 16L15.2 16Z" fill="#121212"/>
<path fill-rule="evenodd" clip-rule="evenodd" d="M9.10002 14.7L9.10002 12.5L6.90002 12.5L6.90002 14.7L9.10002 14.7ZM9.60002 16C10.0419 16 10.4 15.6418 10.4 15.2L10.4 12C10.4 11.5582 10.0419 11.2 9.60003 11.2L6.40003 11.2C5.9582 11.2 5.60003 11.5582 5.60003 12L5.60002 15.2C5.60002 15.6418 5.9582 16 6.40002 16L9.60002 16Z" fill="#121212"/>
<path fill-rule="evenodd" clip-rule="evenodd" d="M3.49999 14.7L3.49999 12.5L1.29999 12.5L1.29999 14.7L3.49999 14.7ZM3.99999 16C4.44182 16 4.79999 15.6418 4.79999 15.2L4.79999 12C4.79999 11.5582 4.44182 11.2 3.99999 11.2L0.799988 11.2C0.358161 11.2 -1.15326e-05 11.5582 -1.15712e-05 12L-1.1851e-05 15.2C-1.18896e-05 15.6418 0.35816 16 0.799988 16L3.99999 16Z" fill="#121212"/>
<path fill-rule="evenodd" clip-rule="evenodd" d="M14.7 9.10001L14.7 6.90001L1.3 6.90001L1.3 9.10001L14.7 9.10001ZM15.2 10.4C15.6418 10.4 16 10.0418 16 9.60001L16 6.40001C16 5.95818 15.6418 5.60001 15.2 5.60001L0.800001 5.60001C0.358173 5.60001 3.88317e-07 5.95818 3.49691e-07 6.40001L6.99382e-08 9.60001C3.13124e-08 10.0418 0.358172 10.4 0.8 10.4L15.2 10.4Z" fill="#121212"/>
<path fill-rule="evenodd" clip-rule="evenodd" d="M14.7 3.5L14.7 1.3L1.3 1.3L1.3 3.5L14.7 3.5ZM15.2 4.8C15.6418 4.8 16 4.44183 16 4L16 0.800003C16 0.358176 15.6418 3.30655e-06 15.2 3.26792e-06L0.800001 2.00903e-06C0.358173 1.97041e-06 3.88317e-07 0.358174 3.49691e-07 0.800002L6.99382e-08 4C3.13124e-08 4.44183 0.358172 4.8 0.8 4.8L15.2 4.8Z" fill="#121212"/>
</svg>
