<svg width="17" height="17" viewBox="0 0 17 17" fill="none" xmlns="http://www.w3.org/2000/svg">
<path d="M8.4918 0.00390702C6.9094 0.00321207 5.36233 0.471813 4.04628 1.35044C2.73022 2.22907 1.7043 3.47826 1.09826 4.94C0.492218 6.40175 0.33329 8.01039 0.641574 9.56247C0.949859 11.1146 1.71151 12.5403 2.83019 13.6595C3.94887 14.7787 5.37432 15.541 6.92627 15.8499C8.47821 16.1589 10.0869 16.0007 11.5489 15.3953C13.011 14.7899 14.2606 13.7645 15.1398 12.4488C16.019 11.1332 16.4883 9.58631 16.4883 8.00391C16.4887 6.9535 16.2822 5.91329 15.8806 4.9427C15.4789 3.97212 14.89 3.09018 14.1474 2.34727C13.4048 1.60435 12.5231 1.01502 11.5527 0.612939C10.5823 0.210858 9.54221 0.00390692 8.4918 0.00390702ZM8.4918 2.39653C9.01504 2.39653 9.52654 2.55169 9.96161 2.84239C10.3967 3.13309 10.7358 3.54627 10.936 4.02969C11.1362 4.51311 11.1886 5.04505 11.0865 5.55824C10.9845 6.07144 10.7325 6.54283 10.3625 6.91283C9.99252 7.28282 9.52112 7.53479 9.00793 7.63687C8.49473 7.73895 7.96279 7.68655 7.47937 7.48632C6.99596 7.28608 6.58277 6.94699 6.29207 6.51192C6.00137 6.07686 5.84621 5.56536 5.84621 5.04211C5.84621 4.34046 6.12494 3.66755 6.62109 3.1714C7.11723 2.67526 7.79014 2.39653 8.4918 2.39653ZM8.4918 13.9099C7.09073 13.9126 5.7349 13.4141 4.66922 12.5046C4.54553 12.3984 4.44608 12.267 4.37759 12.1191C4.30909 11.9712 4.27316 11.8103 4.27221 11.6473C4.27267 11.2958 4.34254 10.9478 4.47781 10.6233C4.61309 10.2988 4.8111 10.0042 5.06049 9.75648C5.30989 9.50872 5.60575 9.31264 5.93111 9.1795C6.25646 9.04636 6.60491 8.97878 6.95644 8.98063H10.0342C10.3854 8.97878 10.7335 9.04641 11.0585 9.17963C11.3834 9.31286 11.6788 9.50905 11.9276 9.7569C12.1765 10.0048 12.3738 10.2994 12.5083 10.6238C12.6428 10.9482 12.7119 11.2961 12.7114 11.6473C12.7116 11.8105 12.6762 11.9717 12.6076 12.1198C12.539 12.2679 12.439 12.3992 12.3144 12.5046C11.2478 13.4149 9.89055 13.9134 8.48828 13.9099H8.4918Z" fill="white"/>
</svg>
