<svg width="100%" height="100%" viewBox="0 0 42 42" fill="none" xmlns="http://www.w3.org/2000/svg">
<g clip-path="url(#clip0_169_1889)">
<circle cx="21.5724" cy="21.5" r="21.5" fill="#1F2127"/>
<g clip-path="url(#clip1_169_1889)">
<path fill-rule="evenodd" clip-rule="evenodd" d="M31.5515 31.0652C31.5515 31.5351 31.1708 31.9155 30.7019 31.9155H26.5529C26.5475 31.9155 26.5421 31.9128 26.5367 31.9121L25.8171 31.9155C25.2896 31.9181 24.7971 31.6484 24.5155 31.2014L19.7837 23.6984C19.5007 23.2493 19.8234 22.664 20.3537 22.664H25.6992L25.7033 22.6708V6.07825C25.7033 5.76469 26.0274 5.54417 26.3117 5.67567C27.5136 6.23062 28.6213 6.99797 29.5855 7.96291L30.3071 8.68509C31.1041 9.48279 31.5515 10.5644 31.5515 11.6925V31.0652ZM17.4053 19.898V36.4906C17.4053 36.804 17.0819 37.0248 16.7969 36.893C15.5949 36.3382 14.4873 35.5709 13.5238 34.6059L12.8022 33.8837C12.0052 33.086 11.5571 32.0045 11.5571 30.8764V11.5037C11.5571 11.0337 11.9378 10.6527 12.4074 10.6527H16.5557C16.5618 10.6527 16.5665 10.6561 16.5725 10.6561L17.2914 10.6527C17.8197 10.6507 18.3115 10.9204 18.5931 11.3674L23.3249 18.8704C23.6079 19.3195 23.2858 19.9048 22.7549 19.9048H17.41L17.4053 19.898Z" fill="#F8F8F8"/>
</g>
</g>
<defs>
<clipPath id="clip0_169_1889">
<rect width="42" height="41.8591" fill="white"/>
</clipPath>
<clipPath id="clip1_169_1889">
<rect width="47.0539" height="47.0539" fill="white" transform="translate(-2.02698 -2.3165)"/>
</clipPath>
</defs>
</svg>
