<svg width="100%" height="100%" viewBox="0 0 42 42" fill="none" xmlns="http://www.w3.org/2000/svg">
<circle cx="21.0647" cy="21.2585" r="19.1908" fill="#F8F8F8"/>
<g clip-path="url(#clip0_172_1910)">
<path fill-rule="evenodd" clip-rule="evenodd" d="M29.9719 29.7963C29.9719 30.2158 29.6322 30.5553 29.2136 30.5553H25.5102C25.5054 30.5553 25.5006 30.5528 25.4958 30.5522L24.8535 30.5553C24.3826 30.5576 23.943 30.3169 23.6916 29.9179L19.468 23.2207C19.2155 22.8199 19.5035 22.2975 19.9768 22.2975H24.7482L24.7519 22.3035V7.4931C24.7519 7.21322 25.0411 7.01638 25.2949 7.13376C26.3678 7.6291 27.3565 8.31404 28.2171 9.17533L28.8612 9.81994C29.5726 10.532 29.9719 11.4974 29.9719 12.5043V29.7963ZM17.3451 19.8286V34.639C17.3451 34.9187 17.0565 35.1158 16.8021 34.9981C15.7292 34.503 14.7405 33.818 13.8805 32.9567L13.2365 32.3121C12.525 31.6001 12.1251 30.6347 12.1251 29.6277V12.3358C12.1251 11.9163 12.4649 11.5762 12.884 11.5762H16.5868C16.5922 11.5762 16.5964 11.5792 16.6018 11.5792L17.2435 11.5762C17.715 11.5744 18.154 11.8152 18.4054 12.2142L22.629 18.9113C22.8815 19.3122 22.5941 19.8346 22.1202 19.8346H17.3494L17.3451 19.8286Z" fill="#1F2127"/>
</g>
<defs>
<clipPath id="clip0_172_1910">
<rect width="42" height="42" fill="white"/>
</clipPath>
</defs>
</svg>
