<svg width="100%" height="100%" viewBox="0 0 28 28" fill="none" xmlns="http://www.w3.org/2000/svg">
<circle cx="14" cy="14" r="11.2" fill="#0CE466"/>
<path fill-rule="evenodd" clip-rule="evenodd" d="M14 15.1353C12.7989 15.1353 11.8243 14.1617 11.8243 12.9596C11.8243 11.7575 12.7989 10.7839 14 10.7839C15.2011 10.7839 16.1757 11.7575 16.1757 12.9596C16.1757 14.1617 15.2011 15.1353 14 15.1353ZM13.0541 12.9596C13.0541 13.4823 13.4778 13.9056 14 13.9056C14.5222 13.9056 14.946 13.4823 14.946 12.9596C14.946 12.437 14.5222 12.0137 14 12.0137C13.4778 12.0137 13.0541 12.437 13.0541 12.9596Z" fill="black"/>
<path fill-rule="evenodd" clip-rule="evenodd" d="M7 12.9624L11.1622 8.79736H16.8378L21 12.9624L14 19.9595L7 12.9624ZM17.2162 11.446C15.4477 9.66975 12.5523 9.66976 10.7838 11.446L9.27027 12.9595L10.7838 14.4731C12.5523 16.2493 15.4477 16.2493 17.2162 14.473L18.7297 12.9595L17.2162 11.446Z" fill="black"/>
</svg>
