<svg width="100%" height="100%" viewBox="0 0 334 312" fill="none" xmlns="http://www.w3.org/2000/svg">
<path d="M152.079 311.085C231.01 311.085 294.996 247.099 294.996 168.168C294.996 89.2371 231.01 25.251 152.079 25.251C73.1483 25.251 9.16223 89.2371 9.16223 168.168C9.16223 247.099 73.1483 311.085 152.079 311.085Z" fill="#FFF0CB"/>
<path d="M13.5792 115.25V80.75L36.4952 67.5V102L13.5792 115.25Z" stroke="black" stroke-width="1.66667" stroke-miterlimit="10" stroke-linecap="round" stroke-linejoin="round"/>
<path d="M12.1622 79.75L13.5792 80.75L36.4952 67.5L35.0792 66.5L12.1622 79.75Z" stroke="black" stroke-width="1.66667" stroke-miterlimit="10" stroke-linecap="round" stroke-linejoin="round"/>
<path d="M12.1622 114.25V79.75L13.5792 80.75V115.25L12.1622 114.25Z" stroke="black" stroke-width="1.66667" stroke-miterlimit="10" stroke-linecap="round" stroke-linejoin="round"/>
<path d="M141.912 212.584C141.912 212.584 135.329 199.834 140.829 174.834C140.829 174.834 161.829 180.751 170.245 190.751" stroke="black" stroke-width="1.66667" stroke-miterlimit="10" stroke-linecap="round" stroke-linejoin="round"/>
<path d="M204.995 209.918C204.995 209.918 215.662 195.252 212.162 177.835C212.162 177.835 198.828 177.835 190.412 187.918" stroke="black" stroke-width="1.66667" stroke-miterlimit="10" stroke-linecap="round" stroke-linejoin="round"/>
<path d="M167.162 187.75C171.078 186.667 175.495 186.167 180.495 186.584C202.578 188.25 200.828 201.667 207.245 215.334C216.912 236.25 201.495 246 182.162 246C159.412 246 143.828 236.917 136.995 227.167C136.995 227.167 138.078 220.417 141.662 212.5" stroke="black" stroke-width="1.66667" stroke-miterlimit="10" stroke-linecap="round" stroke-linejoin="round"/>
<path d="M161.495 214.168C161.495 214.168 168.412 222.001 172.745 214.168" stroke="black" stroke-width="1.66667" stroke-miterlimit="10" stroke-linecap="round" stroke-linejoin="round"/>
<path d="M196.162 214.168C196.162 214.168 200.079 220.668 203.995 213.668" stroke="black" stroke-width="1.66667" stroke-miterlimit="10" stroke-linecap="round" stroke-linejoin="round"/>
<path d="M189.328 213.168C187.995 209.668 183.162 209.501 181.578 212.835C179.162 218.085 175.578 222.918 169.912 225.835C159.245 231.335 161.912 246.168 183.995 245.918C206.078 245.668 204.912 231.835 198.245 225.835C194.328 222.335 191.495 218.751 189.328 213.168Z" stroke="black" stroke-width="1.66667" stroke-miterlimit="10" stroke-linecap="round" stroke-linejoin="round"/>
<path d="M203.078 204.168C204.245 202.751 208.328 196.834 207.912 183.501C207.912 183.501 200.328 186.668 195.662 191.668C199.495 194.751 201.328 199.168 203.078 204.168Z" fill="black" stroke="black" stroke-width="1.66667" stroke-miterlimit="10" stroke-linecap="round" stroke-linejoin="round"/>
<path d="M158.829 191.418C153.829 183.668 144.245 181.251 144.245 181.251C143.912 193.584 145.495 200.168 146.745 203.251C149.745 198.834 153.745 194.501 158.829 191.418Z" fill="black" stroke="black" stroke-width="1.66667" stroke-miterlimit="10" stroke-linecap="round" stroke-linejoin="round"/>
<path d="M178.662 227.335L185.495 232.585L193.079 227.168C193.079 227.168 185.579 224.168 178.662 227.335Z" fill="black" stroke="black" stroke-width="1.66667" stroke-miterlimit="10" stroke-linecap="round" stroke-linejoin="round"/>
<path d="M174.995 233.001C174.995 238.418 189.495 237.751 192.578 236.168" stroke="black" stroke-width="1.66667" stroke-miterlimit="10" stroke-linecap="round" stroke-linejoin="round"/>
<path d="M185.829 231.084V237.501" stroke="black" stroke-width="1.66667" stroke-miterlimit="10" stroke-linecap="round" stroke-linejoin="round"/>
<path d="M150.329 234.418L134.829 240.751" stroke="black" stroke-width="1.66667" stroke-miterlimit="10" stroke-linecap="round" stroke-linejoin="round"/>
<path d="M146.412 229.251L123.245 233.001" stroke="black" stroke-width="1.66667" stroke-miterlimit="10" stroke-linecap="round" stroke-linejoin="round"/>
<path d="M144.162 223.419L127.829 221.252" stroke="black" stroke-width="1.66667" stroke-miterlimit="10" stroke-linecap="round" stroke-linejoin="round"/>
<path d="M207.162 232.169L223.745 234.336" stroke="black" stroke-width="1.66667" stroke-miterlimit="10" stroke-linecap="round" stroke-linejoin="round"/>
<path d="M207.912 227.168L228.829 225.251" stroke="black" stroke-width="1.66667" stroke-miterlimit="10" stroke-linecap="round" stroke-linejoin="round"/>
<path d="M206.162 221.169L221.412 215.002" stroke="black" stroke-width="1.66667" stroke-miterlimit="10" stroke-linecap="round" stroke-linejoin="round"/>
<path d="M180.495 186.585C165.579 170.419 160.162 116.752 123.245 110.752C85.7453 104.669 61.0792 137.252 56.4952 163.752C51.9122 190.252 61.4123 253.335 69.5793 253.002C77.7453 252.669 75.6623 226.252 78.0793 221.169C80.4953 216.085 99.9953 204.502 95.1623 186.419C90.2453 168.252 78.9952 166.419 78.9952 166.419" stroke="black" stroke-width="1.66667" stroke-miterlimit="10" stroke-linecap="round" stroke-linejoin="round"/>
<path d="M55.3293 183.502C44.9953 196.835 18.9952 190.919 19.6622 218.169C20.3292 245.419 11.9953 248.752 6.57926 247.252C0.412256 245.585 -1.00475 222.169 4.16225 203.335C9.32925 184.502 24.9122 180.252 33.9952 177.919C43.0792 175.585 53.9953 166.085 58.8293 154.752" stroke="black" stroke-width="1.66667" stroke-miterlimit="10" stroke-linecap="round" stroke-linejoin="round"/>
<path d="M110.162 193.752C107.412 226.252 106.495 298.169 117.912 297.835C129.329 297.502 128.412 243.335 141.412 232.169" stroke="black" stroke-width="1.66667" stroke-miterlimit="10" stroke-linecap="round" stroke-linejoin="round"/>
<path d="M115.079 290.251C115.079 290.251 114.745 293.418 115.079 296.168" stroke="black" stroke-width="1.66667" stroke-miterlimit="10" stroke-linecap="round" stroke-linejoin="round"/>
<path d="M119.995 290.251C119.995 290.251 119.329 294.668 119.245 297.418" stroke="black" stroke-width="1.66667" stroke-miterlimit="10" stroke-linecap="round" stroke-linejoin="round"/>
<path d="M109.495 271.418C109.495 271.418 117.329 276.585 127.829 273.835" stroke="black" stroke-width="1.66667" stroke-miterlimit="10" stroke-linecap="round" stroke-linejoin="round"/>
<path d="M59.3292 224.918C59.3292 224.918 66.2452 232.335 76.8292 230.085" stroke="black" stroke-width="1.66667" stroke-miterlimit="10" stroke-linecap="round" stroke-linejoin="round"/>
<path d="M67.2452 246.001V251.501" stroke="black" stroke-width="1.66667" stroke-miterlimit="10" stroke-linecap="round" stroke-linejoin="round"/>
<path d="M71.5782 245.751V252.334" stroke="black" stroke-width="1.66667" stroke-miterlimit="10" stroke-linecap="round" stroke-linejoin="round"/>
<path d="M2.49524 210.502C7.74524 210.169 10.4952 219.502 19.6622 218.085" stroke="black" stroke-width="1.66667" stroke-miterlimit="10" stroke-linecap="round" stroke-linejoin="round"/>
<path d="M18.8292 183.584C18.9122 188.834 22.2452 196.001 28.7452 198.084L26.2452 200.001C26.2452 200.001 16.4952 195.167 16.7452 184.917L18.8292 183.584Z" fill="black" stroke="black" stroke-width="1.66667" stroke-miterlimit="10" stroke-linecap="round" stroke-linejoin="round"/>
<path d="M35.0792 177.584C35.0792 177.584 32.9122 187.251 39.9122 192.917L37.3292 193.751C37.3292 193.751 31.4122 189.334 33.0792 178.167L35.0792 177.584Z" fill="black" stroke="black" stroke-width="1.66667" stroke-miterlimit="10" stroke-linecap="round" stroke-linejoin="round"/>
<path d="M91.4122 206.001C91.4122 206.001 95.6623 218.917 108.329 225.001L109.412 203.334C109.412 203.334 102.912 199.417 100.745 192.334C98.0792 183.334 100.745 174.251 82.9952 168.167C82.9952 168.084 105.162 181.501 91.4122 206.001Z" fill="black" stroke="black" stroke-width="1.66667" stroke-miterlimit="10" stroke-linecap="round" stroke-linejoin="round"/>
<path d="M137.495 237.335C137.495 237.335 145.162 241.835 155.829 241.168C155.829 241.168 144.829 236.251 140.829 232.168L137.495 237.335Z" fill="black" stroke="black" stroke-width="1.66667" stroke-miterlimit="10" stroke-linecap="round" stroke-linejoin="round"/>
<path d="M91.4122 149.084C90.9122 150.251 109.245 123.834 148.578 126.084C148.578 126.084 143.412 118.418 135.995 115.251C135.995 115.251 106.328 117.584 91.4122 149.084Z" fill="black" stroke="black" stroke-width="1.66667" stroke-miterlimit="10" stroke-linecap="round" stroke-linejoin="round"/>
<path d="M95.9952 113.251C95.9952 113.251 77.0792 120.834 73.9952 142.584C73.9952 142.584 70.9122 138.418 73.9952 128.418C74.0792 128.501 82.5792 117.918 95.9952 113.251Z" fill="black" stroke="black" stroke-width="1.66667" stroke-miterlimit="10" stroke-linecap="round" stroke-linejoin="round"/>
<path d="M121.412 162.418C124.912 145.918 142.578 135.834 155.162 135.501L160.412 145.334C160.328 145.334 137.495 146.751 121.412 162.418Z" fill="black" stroke="black" stroke-width="1.66667" stroke-miterlimit="10" stroke-linecap="round" stroke-linejoin="round"/>
<path d="M170.162 168.084C170.162 168.084 156.995 168.668 148.579 173.501C148.579 173.501 154.829 163.001 166.662 159.751L170.162 168.084Z" fill="black" stroke="black" stroke-width="1.66667" stroke-miterlimit="10" stroke-linecap="round" stroke-linejoin="round"/>
<path d="M207.996 149.671L197.913 143.838V146.755L201.996 149.088C202.663 149.505 203.329 149.838 204.079 150.088L204.163 150.421C203.496 150.588 203.079 150.921 202.496 151.255L197.329 154.921V157.671L208.08 163.838V160.921L203.663 158.421C202.913 158.005 202.08 157.588 201.413 157.255L201.329 156.921C201.996 156.755 202.58 156.421 203.08 156.005L207.913 152.338L207.996 149.671Z" fill="black"/>
<path d="M158.828 242.335C154.912 249.668 152.412 256.085 175.078 253.001C197.662 250.001 212.912 243.918 218.745 235.168C224.578 226.418 218.995 210.251 206.162 208.168" stroke="black" stroke-width="1.66667" stroke-miterlimit="10" stroke-linecap="round" stroke-linejoin="round"/>
<path d="M161.495 245.751C161.495 245.751 158.495 247.668 156.412 250.501" stroke="black" stroke-width="1.66667" stroke-miterlimit="10" stroke-linecap="round" stroke-linejoin="round"/>
<path d="M160.329 253.335C160.329 253.335 162.245 250.835 164.912 249.085" stroke="black" stroke-width="1.66667" stroke-miterlimit="10" stroke-linecap="round" stroke-linejoin="round"/>
<path d="M178.162 245.668C178.162 245.668 180.162 248.918 179.745 252.335" stroke="black" stroke-width="1.66667" stroke-miterlimit="10" stroke-linecap="round" stroke-linejoin="round"/>
<path d="M169.495 166.502L169.745 167.085L196.578 182.669C196.745 182.585 196.828 182.502 196.995 182.419L169.495 166.502Z" fill="black" stroke="black" stroke-width="1.66667" stroke-miterlimit="10" stroke-linecap="round" stroke-linejoin="round"/>
<path d="M294.245 92.668L154.995 12.1681C151.578 10.1681 147.162 11.6681 145.662 15.4181L107.495 110.418C109.245 110.168 110.995 110.085 112.828 110.002L150.162 16.8347L294.245 100.168L249.162 212.585L212.328 191.252C212.328 191.418 212.245 191.502 212.245 191.668L253.078 215.252L297.912 103.418C299.578 99.502 297.995 94.835 294.245 92.668Z" fill="black" stroke="black" stroke-width="1.66667" stroke-miterlimit="10" stroke-linecap="round" stroke-linejoin="round"/>
<path d="M141.912 212.584C141.912 212.584 135.329 199.834 140.829 174.834C140.829 174.834 161.829 180.751 170.245 190.751" stroke="black" stroke-width="1.66667" stroke-miterlimit="10" stroke-linecap="round" stroke-linejoin="round"/>
<path d="M204.995 209.918C204.995 209.918 215.662 195.252 212.162 177.835C212.162 177.835 198.828 177.835 190.412 187.918" stroke="black" stroke-width="1.66667" stroke-miterlimit="10" stroke-linecap="round" stroke-linejoin="round"/>
<path d="M167.162 187.75C171.078 186.667 175.495 186.167 180.495 186.584C202.578 188.25 200.828 201.667 207.245 215.334C216.912 236.25 201.495 246 182.162 246C159.412 246 143.828 236.917 136.995 227.167C136.995 227.167 138.078 220.417 141.662 212.5" stroke="black" stroke-width="1.66667" stroke-miterlimit="10" stroke-linecap="round" stroke-linejoin="round"/>
<path d="M161.495 214.168C161.495 214.168 168.412 222.001 172.745 214.168" stroke="black" stroke-width="1.66667" stroke-miterlimit="10" stroke-linecap="round" stroke-linejoin="round"/>
<path d="M196.162 214.168C196.162 214.168 200.079 220.668 203.995 213.668" stroke="black" stroke-width="1.66667" stroke-miterlimit="10" stroke-linecap="round" stroke-linejoin="round"/>
<path d="M189.328 213.168C187.995 209.668 183.162 209.501 181.578 212.835C179.162 218.085 175.578 222.918 169.912 225.835C159.245 231.335 161.912 246.168 183.995 245.918C206.078 245.668 204.912 231.835 198.245 225.835C194.328 222.335 191.495 218.751 189.328 213.168Z" stroke="black" stroke-width="1.66667" stroke-miterlimit="10" stroke-linecap="round" stroke-linejoin="round"/>
<path d="M203.078 204.168C204.245 202.751 208.328 196.834 207.912 183.501C207.912 183.501 200.328 186.668 195.662 191.668C199.495 194.751 201.328 199.168 203.078 204.168Z" fill="black" stroke="black" stroke-width="1.66667" stroke-miterlimit="10" stroke-linecap="round" stroke-linejoin="round"/>
<path d="M158.829 191.418C153.829 183.668 144.245 181.251 144.245 181.251C143.912 193.584 145.495 200.168 146.745 203.251C149.745 198.834 153.745 194.501 158.829 191.418Z" fill="black" stroke="black" stroke-width="1.66667" stroke-miterlimit="10" stroke-linecap="round" stroke-linejoin="round"/>
<path d="M178.662 227.335L185.495 232.585L193.079 227.168C193.079 227.168 185.579 224.168 178.662 227.335Z" fill="black" stroke="black" stroke-width="1.66667" stroke-miterlimit="10" stroke-linecap="round" stroke-linejoin="round"/>
<path d="M174.995 233.001C174.995 238.418 189.495 237.751 192.578 236.168" stroke="black" stroke-width="1.66667" stroke-miterlimit="10" stroke-linecap="round" stroke-linejoin="round"/>
<path d="M185.829 231.084V237.501" stroke="black" stroke-width="1.66667" stroke-miterlimit="10" stroke-linecap="round" stroke-linejoin="round"/>
<path d="M150.329 234.418L134.829 240.751" stroke="black" stroke-width="1.66667" stroke-miterlimit="10" stroke-linecap="round" stroke-linejoin="round"/>
<path d="M146.412 229.251L123.245 233.001" stroke="black" stroke-width="1.66667" stroke-miterlimit="10" stroke-linecap="round" stroke-linejoin="round"/>
<path d="M144.162 223.419L127.829 221.252" stroke="black" stroke-width="1.66667" stroke-miterlimit="10" stroke-linecap="round" stroke-linejoin="round"/>
<path d="M207.162 232.169L223.745 234.336" stroke="black" stroke-width="1.66667" stroke-miterlimit="10" stroke-linecap="round" stroke-linejoin="round"/>
<path d="M207.912 227.168L228.829 225.251" stroke="black" stroke-width="1.66667" stroke-miterlimit="10" stroke-linecap="round" stroke-linejoin="round"/>
<path d="M206.162 221.169L221.412 215.002" stroke="black" stroke-width="1.66667" stroke-miterlimit="10" stroke-linecap="round" stroke-linejoin="round"/>
<path d="M180.495 186.585C165.579 170.419 160.162 116.752 123.245 110.752C85.7453 104.669 61.0792 137.252 56.4952 163.752C51.9122 190.252 61.4123 253.335 69.5793 253.002C77.7453 252.669 75.6623 226.252 78.0793 221.169C80.4953 216.085 99.9953 204.502 95.1623 186.419C90.2453 168.252 78.9952 166.419 78.9952 166.419" stroke="black" stroke-width="1.66667" stroke-miterlimit="10" stroke-linecap="round" stroke-linejoin="round"/>
<path d="M110.162 193.752C107.412 226.252 106.495 298.169 117.912 297.835C129.329 297.502 128.412 243.335 141.412 232.169" stroke="black" stroke-width="1.66667" stroke-miterlimit="10" stroke-linecap="round" stroke-linejoin="round"/>
<path d="M115.079 290.251C115.079 290.251 114.745 293.418 115.079 296.168" stroke="black" stroke-width="1.66667" stroke-miterlimit="10" stroke-linecap="round" stroke-linejoin="round"/>
<path d="M119.995 290.251C119.995 290.251 119.329 294.668 119.245 297.418" stroke="black" stroke-width="1.66667" stroke-miterlimit="10" stroke-linecap="round" stroke-linejoin="round"/>
<path d="M59.3292 224.918C59.3292 224.918 66.2452 232.335 76.8292 230.085" stroke="black" stroke-width="1.66667" stroke-miterlimit="10" stroke-linecap="round" stroke-linejoin="round"/>
<path d="M67.2452 246.001V251.501" stroke="black" stroke-width="1.66667" stroke-miterlimit="10" stroke-linecap="round" stroke-linejoin="round"/>
<path d="M71.5782 245.751V252.334" stroke="black" stroke-width="1.66667" stroke-miterlimit="10" stroke-linecap="round" stroke-linejoin="round"/>
<path d="M2.49524 210.502C7.74524 210.169 10.4952 219.502 19.6622 218.085" stroke="black" stroke-width="1.66667" stroke-miterlimit="10" stroke-linecap="round" stroke-linejoin="round"/>
<path d="M18.8292 183.584C18.9122 188.834 22.2452 196.001 28.7452 198.084L26.2452 200.001C26.2452 200.001 16.4952 195.167 16.7452 184.917L18.8292 183.584Z" fill="black" stroke="black" stroke-width="1.66667" stroke-miterlimit="10" stroke-linecap="round" stroke-linejoin="round"/>
<path d="M35.0792 177.584C35.0792 177.584 32.9122 187.251 39.9122 192.917L37.3292 193.751C37.3292 193.751 31.4122 189.334 33.0792 178.167L35.0792 177.584Z" fill="black" stroke="black" stroke-width="1.66667" stroke-miterlimit="10" stroke-linecap="round" stroke-linejoin="round"/>
<path d="M91.4122 206.001C91.4122 206.001 95.6623 218.917 108.329 225.001L109.412 203.334C109.412 203.334 102.912 199.417 100.745 192.334C98.0792 183.334 100.745 174.251 82.9952 168.167C82.9952 168.084 105.162 181.501 91.4122 206.001Z" fill="black" stroke="black" stroke-width="1.66667" stroke-miterlimit="10" stroke-linecap="round" stroke-linejoin="round"/>
<path d="M137.495 237.335C137.495 237.335 145.162 241.835 155.829 241.168C155.829 241.168 144.829 236.251 140.829 232.168L137.495 237.335Z" fill="black" stroke="black" stroke-width="1.66667" stroke-miterlimit="10" stroke-linecap="round" stroke-linejoin="round"/>
<path d="M91.4122 149.084C90.9122 150.251 109.245 123.834 148.578 126.084C148.578 126.084 143.412 118.418 135.995 115.251C135.995 115.251 106.328 117.584 91.4122 149.084Z" fill="black" stroke="black" stroke-width="1.66667" stroke-miterlimit="10" stroke-linecap="round" stroke-linejoin="round"/>
<path d="M95.9952 113.251C95.9952 113.251 77.0792 120.834 73.9952 142.584C73.9952 142.584 70.9122 138.418 73.9952 128.418C74.0792 128.501 82.5792 117.918 95.9952 113.251Z" fill="black" stroke="black" stroke-width="1.66667" stroke-miterlimit="10" stroke-linecap="round" stroke-linejoin="round"/>
<path d="M121.412 162.418C124.912 145.918 142.578 135.834 155.162 135.501L160.412 145.334C160.328 145.334 137.495 146.751 121.412 162.418Z" fill="black" stroke="black" stroke-width="1.66667" stroke-miterlimit="10" stroke-linecap="round" stroke-linejoin="round"/>
<path d="M170.162 168.084C170.162 168.084 156.995 168.668 148.579 173.501C148.579 173.501 154.829 163.001 166.662 159.751L170.162 168.084Z" fill="black" stroke="black" stroke-width="1.66667" stroke-miterlimit="10" stroke-linecap="round" stroke-linejoin="round"/>
<path d="M158.828 242.335C154.912 249.668 152.412 256.085 175.078 253.001C197.662 250.001 212.912 243.918 218.745 235.168C224.578 226.418 218.995 210.251 206.162 208.168" stroke="black" stroke-width="1.66667" stroke-miterlimit="10" stroke-linecap="round" stroke-linejoin="round"/>
<path d="M161.495 245.751C161.495 245.751 158.495 247.668 156.412 250.501" stroke="black" stroke-width="1.66667" stroke-miterlimit="10" stroke-linecap="round" stroke-linejoin="round"/>
<path d="M160.329 253.335C160.329 253.335 162.245 250.835 164.912 249.085" stroke="black" stroke-width="1.66667" stroke-miterlimit="10" stroke-linecap="round" stroke-linejoin="round"/>
<path d="M178.162 245.668C178.162 245.668 180.162 248.918 179.745 252.335" stroke="black" stroke-width="1.66667" stroke-miterlimit="10" stroke-linecap="round" stroke-linejoin="round"/>
<path d="M253.079 215.335L212.246 191.752C210.912 199.419 207.829 205.419 206.079 208.252C218.912 210.335 224.496 226.502 218.662 235.252L253.079 215.335Z" stroke="black" stroke-width="1.66667" stroke-miterlimit="10" stroke-linecap="round" stroke-linejoin="round"/>
<path d="M179.746 252.336C178.246 252.586 176.662 252.836 174.996 253.002C167.829 254.002 163.162 254.002 160.329 253.336C157.996 252.836 156.829 251.836 156.412 250.586C155.662 248.419 157.079 245.502 158.829 242.336C157.662 241.919 156.496 241.502 155.412 241.086C155.662 241.169 155.829 241.252 155.829 241.252C145.246 241.919 137.496 237.419 137.496 237.419C134.329 243.419 132.246 252.502 130.412 261.836L147.746 271.836C150.079 273.169 152.996 273.169 155.412 271.836L194.662 249.169C190.162 250.336 185.163 251.419 179.746 252.336Z" stroke="black" stroke-width="1.66667" stroke-miterlimit="10" stroke-linecap="round" stroke-linejoin="round"/>
<path d="M4.16224 188.669L9.57924 191.835C11.7452 189.002 14.2452 186.669 16.8292 184.919C17.4952 184.502 18.1622 184.085 18.7452 183.669C23.6622 180.752 28.8292 179.252 32.9122 178.252L34.4122 177.835C43.4122 175.335 53.9122 165.919 58.6622 154.835V154.919C59.0792 153.502 59.6622 152.169 60.1622 150.752L4.16224 183.002C1.99524 184.252 1.99524 187.419 4.16224 188.669Z" stroke="black" stroke-width="1.66667" stroke-miterlimit="10" stroke-linecap="round" stroke-linejoin="round"/>
<path d="M28.7462 198.169L26.4122 199.919C26.0792 200.252 25.6622 200.586 25.3292 200.919L58.4962 220.086C56.6622 208.336 55.4962 195.086 55.3292 183.419C51.5792 188.252 45.7462 190.586 39.9122 192.836C35.9962 194.419 32.0792 195.919 28.7462 198.169Z" stroke="black" stroke-width="1.66667" stroke-miterlimit="10" stroke-linecap="round" stroke-linejoin="round"/>
<path d="M78.1622 221.168C77.4122 222.752 77.0792 226.335 76.7452 230.585L108.412 248.918C108.245 237.418 108.412 225.418 108.829 214.585L108.329 224.918C95.5793 218.835 91.4122 205.918 91.4122 205.918C91.4122 205.918 91.4122 205.918 91.4122 205.835C86.6622 213.168 79.4952 218.252 78.1622 221.168Z" stroke="black" stroke-width="1.66667" stroke-miterlimit="10" stroke-linecap="round" stroke-linejoin="round"/>
<path d="M59.6622 226.835C59.5782 226.168 59.4122 225.585 59.3282 224.918C59.0782 223.335 58.7452 221.751 58.4952 220.085L25.3282 200.918C24.1622 202.168 23.0782 203.501 22.1622 205.168L59.6622 226.835Z" stroke="black" stroke-width="1.66667" stroke-miterlimit="10" stroke-linecap="round" stroke-linejoin="round"/>
<path d="M108.412 249.002L76.7452 230.669C76.5782 232.502 76.4952 234.502 76.2452 236.502L108.578 255.169C108.495 253.169 108.495 251.086 108.412 249.002Z" stroke="black" stroke-width="1.66667" stroke-miterlimit="10" stroke-linecap="round" stroke-linejoin="round"/>
<path d="M218.745 235.168C214.745 241.085 206.495 245.751 194.662 249.085L155.412 271.751C153.078 273.085 150.162 273.085 147.745 271.751L130.412 261.751C130.078 263.585 129.745 265.418 129.329 267.251L147.162 277.585C149.495 278.918 152.328 278.918 154.578 277.585L249.745 222.668L252.995 215.418L218.745 235.168Z" stroke="black" stroke-width="1.66667" stroke-miterlimit="10" stroke-linecap="round" stroke-linejoin="round"/>
<path d="M5.74521 193.918C5.74521 194.752 6.07822 195.585 6.82822 196.252C7.66222 194.668 8.57822 193.168 9.57822 191.835L4.16222 188.668C3.32822 188.168 2.82822 187.418 2.66222 186.585H2.57922L5.74521 193.918Z" stroke="black" stroke-width="1.66667" stroke-miterlimit="10" stroke-linecap="round" stroke-linejoin="round"/>
<path d="M268.995 120.667L152.662 53.334L156.829 44.584C157.912 42.334 160.662 41.417 162.912 42.667L269.745 104.001C272.495 105.584 273.745 109.001 272.495 112.001L268.995 120.667Z" fill="#F9D54C" stroke="black" stroke-width="1.66667" stroke-miterlimit="10" stroke-linecap="round" stroke-linejoin="round"/>
<path d="M193.663 115.336L178.579 106.586V111.003L184.663 114.503C185.663 115.086 186.663 115.586 187.746 116.086L187.913 116.586C186.996 116.836 186.329 117.253 185.496 117.836L177.829 123.336V127.419L193.913 136.753V132.336L187.329 128.503C186.163 127.836 184.996 127.169 183.913 126.753L183.829 126.336C184.829 126.086 185.663 125.669 186.496 125.003L193.746 119.419L193.663 115.336Z" fill="black"/>
<path d="M231.412 106.67L211.246 95.003V100.92L219.329 105.586C220.662 106.336 221.996 107.086 223.412 107.67L223.579 108.336C222.329 108.753 221.412 109.253 220.329 110.003L210.079 117.336V122.753L231.579 135.17V129.253L222.746 124.17C221.162 123.253 219.579 122.42 218.246 121.836L218.079 121.253C219.412 120.836 220.579 120.336 221.662 119.503L231.329 112.086L231.412 106.67Z" fill="black"/>
<path d="M152.662 53.335L268.995 120.668" stroke="black" stroke-width="1.66667" stroke-miterlimit="10" stroke-linecap="round" stroke-linejoin="round"/>
<path d="M41.5792 60.834V18.501L69.7462 2.25098V44.584L41.5792 60.834Z" fill="#F9D54C" stroke="black" stroke-width="1.66667" stroke-miterlimit="10" stroke-linecap="round" stroke-linejoin="round"/>
<path d="M39.8292 17.25L41.5792 18.5L69.7462 2.25L67.9962 1L39.8292 17.25Z" fill="black" stroke="black" stroke-width="1.66667" stroke-miterlimit="10" stroke-linecap="round" stroke-linejoin="round"/>
<path d="M39.8292 59.667V17.25L41.5792 18.5V60.833L39.8292 59.667Z" fill="black" stroke="black" stroke-width="1.66667" stroke-miterlimit="10" stroke-linecap="round" stroke-linejoin="round"/>
<path d="M269.579 104.084L162.579 42.668C160.246 41.334 157.329 42.334 156.329 44.834L129.329 112.251C131.662 113.084 133.912 114.084 135.996 115.251C143.412 118.501 148.579 126.084 148.579 126.084C150.996 129.001 153.162 132.168 155.162 135.501C157.079 138.668 158.746 141.918 160.329 145.335C160.662 146.085 160.996 146.751 161.329 147.501L240.162 192.751L272.412 112.251C273.579 109.168 272.412 105.668 269.579 104.084Z" stroke="black" stroke-width="1.66667" stroke-miterlimit="10" stroke-linecap="round" stroke-linejoin="round"/>
<path d="M132.745 113.584C132.745 113.584 132.662 113.584 132.662 113.501C132.662 113.584 132.745 113.584 132.745 113.584Z" stroke="black" stroke-width="1.66667" stroke-miterlimit="10" stroke-linecap="round" stroke-linejoin="round"/>
<path d="M150.162 16.834L112.829 110.001C116.162 109.917 119.662 110.167 123.245 110.751C125.412 111.084 127.412 111.584 129.329 112.251L156.329 44.834C157.329 42.334 160.245 41.334 162.579 42.667L269.579 104.084C272.412 105.667 273.579 109.167 272.412 112.167L240.162 192.668L161.329 147.417C163.245 151.501 164.995 155.667 166.662 159.667L169.495 166.417L196.995 182.334C204.412 177.834 212.245 177.834 212.245 177.834C213.162 182.584 213.079 187.084 212.412 191.251L249.245 212.584L294.329 100.167L150.162 16.834Z" stroke="black" stroke-width="1.66667" stroke-miterlimit="10" stroke-linecap="round" stroke-linejoin="round"/>
<path d="M134.412 114.417C134.329 114.417 134.245 114.334 134.162 114.334C134.245 114.334 134.329 114.334 134.412 114.417Z" stroke="black" stroke-width="1.66667" stroke-miterlimit="10" stroke-linecap="round" stroke-linejoin="round"/>
<path d="M309.662 249.918V205.085L279.829 187.918V232.751L309.662 249.918Z" fill="#F9D54C" stroke="black" stroke-width="1.66667" stroke-miterlimit="10" stroke-linecap="round" stroke-linejoin="round"/>
<path d="M311.412 203.835L309.662 205.085L279.829 187.918L281.662 186.668L311.412 203.835Z" fill="black" stroke="black" stroke-width="1.66667" stroke-miterlimit="10" stroke-linecap="round" stroke-linejoin="round"/>
<path d="M311.413 248.583V203.833L309.662 205.083V249.916L311.413 248.583Z" fill="black" stroke="black" stroke-width="1.66667" stroke-miterlimit="10" stroke-linecap="round" stroke-linejoin="round"/>
<path d="M331.162 215.251V184.251L310.495 172.334V203.334L331.162 215.251Z" fill="black" stroke="black" stroke-width="1.66667" stroke-miterlimit="10" stroke-linecap="round" stroke-linejoin="round"/>
<path d="M332.412 183.335L331.162 184.251L310.495 172.335L311.829 171.418L332.412 183.335Z" fill="black" stroke="black" stroke-width="1.66667" stroke-miterlimit="10" stroke-linecap="round" stroke-linejoin="round"/>
<path d="M332.412 214.335V183.335L331.162 184.252V215.252L332.412 214.335Z" fill="black" stroke="black" stroke-width="1.66667" stroke-miterlimit="10" stroke-linecap="round" stroke-linejoin="round"/>
<path d="M132.912 255.085C137.495 244.252 153.829 241.252 153.829 241.252L137.495 237.335C137.495 237.335 133.829 250.835 132.912 255.085Z" fill="black" stroke="black" stroke-width="1.66667" stroke-miterlimit="10" stroke-linecap="round" stroke-linejoin="round"/>
<path d="M26.9952 200.918C46.4952 195.918 55.3293 193.751 55.3293 193.751L54.7452 186.168C54.7452 186.168 37.3292 193.751 26.9952 200.918Z" fill="black" stroke="black" stroke-width="1.66667" stroke-miterlimit="10" stroke-linecap="round" stroke-linejoin="round"/>
<path d="M78.1622 226.835C78.1622 226.835 86.9952 216.085 97.4122 211.668L92.4952 205.918C92.4952 205.918 87.8292 213.251 82.5792 217.585C77.3292 222.001 78.1622 226.835 78.1622 226.835Z" fill="black" stroke="black" stroke-width="1.66667" stroke-miterlimit="10" stroke-linecap="round" stroke-linejoin="round"/>
</svg>
