<svg width="100%" height="100%" viewBox="0 0 40 40" fill="none" xmlns="http://www.w3.org/2000/svg">
<path d="M0 20C0 8.95431 8.95431 0 20 0C31.0457 0 40 8.95431 40 20C40 31.0457 31.0457 40 20 40C8.95431 40 0 31.0457 0 20Z" fill="#00A4FF"/>
<path d="M27.5 15.9923L24.0078 12.5001C23.8923 12.3835 23.7548 12.2908 23.6033 12.2276C23.4517 12.1644 23.2892 12.1318 23.125 12.1318C22.9608 12.1318 22.7983 12.1644 22.6467 12.2276C22.4952 12.2908 22.3577 12.3835 22.2422 12.5001L20.1797 14.5548L12.8672 21.8751C12.7507 21.9907 12.6583 22.1283 12.5953 22.2798C12.5322 22.4313 12.4999 22.5938 12.5 22.758V26.2501C12.5 26.5817 12.6317 26.8996 12.8661 27.134C13.1005 27.3684 13.4185 27.5001 13.75 27.5001H17.2422C17.4063 27.5003 17.5688 27.4679 17.7203 27.4049C17.8719 27.3419 18.0094 27.2494 18.125 27.133L27.5 17.758C27.7319 17.5226 27.8619 17.2055 27.8619 16.8751C27.8619 16.5448 27.7319 16.2277 27.5 15.9923ZM14.0078 22.5001L21.25 15.258L22.5547 16.5626L15.3125 23.8048L14.0078 22.5001ZM13.75 24.008L15.9922 26.2501H13.75V24.008ZM17.5 25.9923L16.1953 24.6876L23.4375 17.4455L24.7422 18.7501L17.5 25.9923Z" fill="#F3F3F3"/>
<path d="M20 39C9.50659 39 1 30.4934 1 20H-1C-1 31.598 8.40202 41 20 41V39ZM39 20C39 30.4934 30.4934 39 20 39V41C31.598 41 41 31.598 41 20H39ZM20 1C30.4934 1 39 9.50659 39 20H41C41 8.40202 31.598 -1 20 -1V1ZM20 -1C8.40202 -1 -1 8.40202 -1 20H1C1 9.50659 9.50659 1 20 1V-1Z" fill="#00A4FF"/>
</svg>
