<?xml version="1.0" encoding="UTF-8" standalone="no"?>
<svg
   width="18px"
   height="18px"
   viewBox="0 0 18 18"
   version="1.1"
   xmlns="http://www.w3.org/2000/svg"
   xmlns:svg="http://www.w3.org/2000/svg">
    <path d="m 6.6825553,12.011365 c -2.942944,0 -5.3290122,-2.3860281 -5.3290122,-5.3289225 0,-2.9428943 2.3860682,-5.3289222 5.3290122,-5.3289222 2.942944,0 5.3290127,2.3860279 5.3290127,5.3289222 -0.0033,2.9415622 -2.3874009,5.3255915 -5.3290127,5.3289225 m 9.1305967,2.859633 -3.97611,-3.976042 C 14.169149,8.0426528 13.74749,3.8387941 10.895139,1.5067268 8.0427885,-0.82534043 3.8388589,-0.40368894 1.5067522,2.4486138 c -2.33210656,2.8523028 -1.91044795,7.0561615 0.941903,9.3882292 2.4573382,2.009001 5.9891459,2.009001 8.4464838,0 l 3.97611,3.976042 c 0.264452,0.255788 0.68611,0.24846 0.941903,-0.01665 0.249131,-0.257787 0.249131,-0.666782 0,-0.925234"/>
</svg>
