<svg width="100%" height="100%" viewBox="0 0 18 18" fill="none" xmlns="http://www.w3.org/2000/svg">
<path d="M9.00377 6.35788C9.71696 6.35788 10.401 6.63624 10.9053 7.13169C11.4096 7.62715 11.693 8.29911 11.693 8.99974C11.693 9.70038 11.4096 10.3723 10.9053 10.8678C10.401 11.3632 9.71696 11.6416 9.00377 11.6416C8.29059 11.6416 7.60659 11.3632 7.10226 10.8678C6.59793 10.3723 6.31459 9.70038 6.31459 8.99974C6.30737 8.29698 6.58843 7.62087 7.09434 7.12388C7.60022 6.6269 8.28845 6.35077 9.0038 6.35785L9.00377 6.35788ZM9.00377 10.1885C9.32465 10.1885 9.63246 10.0633 9.85936 9.84035C10.0863 9.61744 10.2138 9.31508 10.2138 8.99982C10.2138 8.68456 10.0863 8.3822 9.85936 8.15929C9.63246 7.93638 9.32468 7.8111 9.00377 7.8111C8.68287 7.8111 8.37509 7.93639 8.14819 8.15929C7.92129 8.38219 7.79376 8.68456 7.79376 8.99982C7.79056 9.31609 7.91706 9.62017 8.14468 9.84377C8.37229 10.0674 8.68183 10.1917 9.00375 10.1885L9.00377 10.1885Z" fill="black"/>
<path d="M2.67783 8.02497C2.46889 7.87434 2.32412 7.65296 2.27171 7.40361C2.21919 7.15425 2.26273 6.89456 2.39388 6.6749L3.66012 4.53438H3.66002C3.78786 4.31908 3.98988 4.15567 4.22957 4.07378C4.48814 3.98995 4.77064 4.0158 5.0091 4.14494L6.06525 4.62155C6.22498 4.51978 6.38769 4.42683 6.5564 4.34106L6.66443 3.16978L6.66432 3.16988C6.6669 3.14404 6.67082 3.11829 6.67609 3.09285C6.72107 2.85849 6.84716 2.64664 7.03289 2.49308C7.21851 2.33941 7.45264 2.25365 7.69531 2.25H10.2204C10.4818 2.24929 10.734 2.34579 10.9261 2.52024C11.1181 2.69469 11.236 2.934 11.2558 3.19025L11.3622 4.33821C11.5337 4.42254 11.7007 4.51559 11.8622 4.61727L12.9375 4.13193L12.9716 4.11744V4.11734C13.2055 4.02053 13.4674 4.01141 13.7076 4.09179C13.9479 4.17208 14.1497 4.33639 14.2748 4.5533L15.5113 6.66616C15.645 6.88531 15.6909 7.14532 15.6403 7.39588C15.5898 7.64636 15.4462 7.86957 15.2377 8.02202L14.3428 8.69193C14.3503 8.78934 14.3561 8.89101 14.3561 8.99997C14.3561 9.10894 14.3561 9.19906 14.3443 9.29058L15.3073 9.96345L15.322 9.97511V9.97501C15.5307 10.1258 15.6753 10.3471 15.728 10.5963C15.7808 10.8455 15.7378 11.105 15.6075 11.3251L14.3162 13.4656C14.1888 13.6927 13.9751 13.8609 13.7219 13.9339C13.4686 14.0069 13.1963 13.9785 12.9642 13.855L11.9081 13.3784C11.7483 13.4802 11.5856 13.5732 11.4155 13.6589L11.3075 14.8302V14.8301C11.3049 14.8559 11.301 14.8817 11.2957 14.9071C11.2504 15.1414 11.1243 15.3532 10.9387 15.5066C10.7531 15.6602 10.5191 15.7461 10.2765 15.75H7.75597C7.49441 15.7507 7.24224 15.6542 7.05011 15.4798C6.85809 15.3053 6.74027 15.066 6.72053 14.8097L6.61405 13.6618H6.61395C6.44246 13.5776 6.27553 13.4844 6.11403 13.3827L5.04457 13.8682L5.00908 13.8827C4.77517 13.9795 4.51328 13.9886 4.2731 13.9082C4.03279 13.8279 3.83098 13.6636 3.7059 13.4467L2.45741 11.3338C2.32379 11.1138 2.27829 10.8529 2.32967 10.6018C2.38105 10.3506 2.52571 10.1272 2.73547 9.97505L2.75023 9.96339L3.71321 9.29063C3.71321 9.19758 3.70135 9.10168 3.70135 9.00002C3.70135 8.89825 3.70135 8.80824 3.71321 8.71813L2.70443 8.04386L2.67783 8.02497ZM4.91591 7.76478C5.03054 7.84161 5.12093 7.94855 5.17665 8.07352C5.23237 8.1984 5.25114 8.33616 5.23092 8.47107C5.2011 8.64592 5.18429 8.82271 5.18067 8.99999C5.1847 9.1783 5.20203 9.3561 5.23247 9.53186C5.25156 9.66383 5.2335 9.79843 5.17995 9.92089C5.1265 10.0434 5.03973 10.1492 4.92922 10.2265L3.92786 10.9255L4.79023 12.3787L5.89654 11.8845C6.02252 11.8275 6.16224 11.8063 6.29988 11.8235C6.43742 11.8407 6.56733 11.8956 6.67465 11.9818C6.96077 12.2002 7.27639 12.3782 7.61246 12.5109C7.73473 12.5627 7.84049 12.6458 7.9186 12.7517C7.99661 12.8576 8.04417 12.9822 8.05624 13.1125L8.16572 14.2954L9.87274 14.2953L9.98221 13.1124L9.98211 13.1125C9.99418 12.9822 10.0417 12.8576 10.1199 12.7517C10.198 12.6458 10.3037 12.5627 10.4259 12.5109C10.7685 12.3676 11.0919 12.1837 11.3889 11.963C11.4956 11.8846 11.6218 11.8358 11.7543 11.8219C11.8868 11.8081 12.0208 11.8298 12.1418 11.8846L13.2482 12.3845L14.1358 10.9226L13.1373 10.2251V10.225C13.0268 10.1478 12.94 10.042 12.8866 9.91951C12.833 9.79695 12.8149 9.66245 12.834 9.53047C12.8634 9.35501 12.8798 9.17771 12.8828 9.00004C12.8787 8.82224 12.8614 8.64495 12.8312 8.46961C12.8126 8.34168 12.8292 8.21123 12.8791 8.09173C12.9291 7.97222 13.0105 7.86792 13.1151 7.78955L14.0544 7.08619L13.1861 5.61852L12.0826 6.11693H12.0827C11.9567 6.17399 11.817 6.19518 11.6794 6.17795C11.5418 6.16072 11.4119 6.10588 11.3046 6.01962C11.0185 5.80138 10.7028 5.62337 10.3668 5.49069C10.2445 5.43889 10.1388 5.35567 10.0606 5.24974C9.98253 5.14392 9.93496 5.01924 9.923 4.88899L9.81352 3.70606L8.10362 3.70616L7.99415 4.88909V4.88899C7.98207 5.01925 7.93451 5.14393 7.8564 5.24974C7.7783 5.35567 7.67264 5.43889 7.55037 5.49069C7.20769 5.63381 6.88433 5.81778 6.58738 6.03846C6.48079 6.11701 6.3545 6.16577 6.22191 6.17955C6.08943 6.19334 5.9555 6.17175 5.83447 6.11691L4.73096 5.6185L3.87303 7.07167L4.91591 7.76478Z" fill="black"/>
</svg>
