<svg width="22" height="22" viewBox="0 0 22 22" fill="none" xmlns="http://www.w3.org/2000/svg">
<path d="M5.28485 3.8564V3.14194C5.28485 1.96064 4.32326 0.999023 3.14193 0.999023H0.999023V2.42742H3.14193C3.53553 2.42742 3.8564 2.74827 3.8564 3.14188V13.8558C3.8564 15.4467 4.90916 16.7819 6.34905 17.2428C6.13182 17.613 5.99929 18.039 5.99929 18.4988C5.99929 19.8794 7.11831 20.999 8.49946 20.999C9.88002 20.999 10.9996 19.88 10.9996 18.4988C10.9996 18.1137 10.9055 17.753 10.7495 17.4277H14.82C14.6646 17.753 14.5704 18.1137 14.5704 18.4988C14.5704 19.8794 15.6895 20.999 17.0706 20.999C18.4512 20.999 19.5708 19.88 19.5708 18.4988C19.5703 17.1183 18.4513 15.9987 17.0706 15.9987H7.42782C6.24652 15.9987 5.28491 15.0371 5.28491 13.8558V5.28476H19.5701V10.0899C19.5701 11.2712 18.6086 12.2328 17.4272 12.2328H8.14221V13.6612H17.4277C19.3968 13.6612 20.999 12.059 20.999 10.0899L20.9985 3.85636L5.28485 3.8564ZM9.57067 18.4988C9.57067 19.0897 9.08988 19.5699 8.49948 19.5699C7.90858 19.5699 7.4278 19.0892 7.4278 18.4988C7.4278 17.9079 7.90858 17.4276 8.49898 17.4276C9.08988 17.4271 9.57067 17.9079 9.57067 18.4988ZM18.1417 18.4988C18.1417 19.0897 17.6609 19.5699 17.0705 19.5699C16.4796 19.5699 15.9988 19.0892 15.9988 18.4988C15.9988 17.9079 16.4796 17.4276 17.07 17.4276C17.6609 17.4271 18.1417 17.9079 18.1417 18.4988Z" fill="#121212" stroke="#121212"/>
</svg>
