<svg width="18" height="18" viewBox="0 0 18 18" fill="none" xmlns="http://www.w3.org/2000/svg">
<path d="M1.14968 6.16967H14.1385L12.1375 8.20575C11.6811 8.62701 11.6811 9.36421 12.1375 9.78547C12.3481 9.9961 12.629 10.1014 12.9449 10.1014C13.2257 10.1014 13.5066 9.9961 13.7172 9.78547L17.649 5.85373C18.1053 5.43247 18.1053 4.69527 17.649 4.27401L13.7172 0.342272C13.296 -0.114091 12.5588 -0.114091 12.1375 0.342272C11.6811 0.76353 11.6811 1.50073 12.1375 1.92199L14.1385 3.92296H1.14968C0.517796 3.92296 0.0263286 4.44954 0.0263286 5.04632C0.0263286 5.67821 0.517796 6.16967 1.14968 6.16967ZM16.8766 11.7864H3.85275L5.85373 9.78547C6.31009 9.36421 6.31009 8.62701 5.85373 8.20575C5.43247 7.74939 4.69527 7.74939 4.27401 8.20575L0.342272 12.1375C-0.114091 12.5588 -0.114091 13.296 0.342272 13.7172L4.27401 17.649C4.48464 17.8596 4.76548 17.9649 5.08142 17.9649C5.36226 17.9649 5.6431 17.8596 5.85373 17.649C6.31009 17.2277 6.31009 16.4905 5.85373 16.0692L3.85275 14.0332H16.8766C17.4734 14.0332 18 13.5417 18 12.9098C18 12.313 17.4734 11.7864 16.8766 11.7864Z" fill="#F4F6FB" fill-opacity="0.5"/>
</svg>
