<svg width="36" height="29" viewBox="0 0 36 29" fill="none" xmlns="http://www.w3.org/2000/svg">
<path d="M32.3946 7.12239C32.3946 7.37761 32.3946 7.62986 32.3946 8.1403C32.3946 17.806 24.9378 29 11.3111 29C7.1988 29 3.34144 27.7269 0 25.694C0.512914 25.694 1.28679 25.694 1.7997 25.694C5.14114 25.694 8.48559 24.4209 11.0562 22.6403C7.71471 22.6403 5.14414 20.3522 4.11531 17.5537C4.62823 17.5537 5.14414 17.8089 5.4021 17.8089C6.17297 17.8089 6.68888 17.8089 7.45976 17.5537C4.11831 16.791 1.54774 13.9925 1.54774 10.4313C2.57657 10.9388 3.6054 11.194 4.88918 11.4492C2.83153 9.66865 1.54774 7.63283 1.54774 5.08954C1.54774 3.81641 1.8057 2.54625 2.57657 1.52835C6.17597 5.85223 11.5751 8.90596 17.745 9.15821C17.745 8.65074 17.4871 8.1403 17.4871 7.37761C17.4871 3.30894 20.8285 0 24.9438 0C27.0015 0 29.0562 0.762689 30.3429 2.28807C32.1426 2.03285 33.6844 1.27016 34.9712 0.50747C34.4583 2.28807 33.1715 3.5612 31.6297 4.57614C33.1715 4.32092 34.4583 4.06867 36 3.30301C34.9652 4.83432 33.6814 6.10448 32.3946 7.12239Z" fill="#171B27"/>
</svg>
