<svg width="38" height="32" viewBox="0 0 38 32" xmlns="http://www.w3.org/2000/svg">
<path d="M11.9279 31.2856C7.53757 31.2856 3.44579 30.0099 0 27.8059C2.92464 27.9959 8.08586 27.5412 11.2969 24.4795C6.46679 24.2583 4.28857 20.5533 4.00493 18.9709C4.41479 19.1297 6.37179 19.3197 7.4765 18.8759C1.92171 17.4834 1.06943 12.6072 1.25807 11.1198C2.30036 11.8486 4.06736 12.101 4.76221 12.0372C-0.413929 8.33358 1.44807 2.76251 2.36414 1.56008C6.07864 6.70636 11.647 9.59708 18.5331 9.75722C18.401 9.17614 18.3345 8.58206 18.335 7.98615C18.335 3.61343 21.8676 0.0712915 26.2268 0.0712915C27.3096 0.0704471 28.3809 0.293397 29.3734 0.726151C30.366 1.15891 31.2584 1.79212 31.9946 2.58608C33.5174 2.22915 35.8082 1.39451 36.9265 0.672506C36.3619 2.69872 34.6058 4.38836 33.5431 5.01536C33.5513 5.03708 33.5336 4.99365 33.5431 5.01536C34.4769 4.87422 37.0025 4.38836 38 3.71251C37.506 4.84979 35.644 6.74301 34.1159 7.80158C34.4009 20.3443 24.8031 31.2856 11.9266 31.2856H11.9279Z"/>
</svg>
