<svg width="17" height="17" viewBox="0 0 17 17" fill="none" xmlns="http://www.w3.org/2000/svg">
<path d="M8.125 0.375C6.51803 0.375 4.94714 0.851523 3.611 1.74431C2.27485 2.6371 1.23344 3.90605 0.618482 5.3907C0.00352044 6.87535 -0.157382 8.50901 0.156123 10.0851C0.469628 11.6612 1.24346 13.1089 2.37976 14.2452C3.51606 15.3815 4.9638 16.1554 6.5399 16.4689C8.11599 16.7824 9.74966 16.6215 11.2343 16.0065C12.719 15.3916 13.9879 14.3502 14.8807 13.014C15.7735 11.6779 16.25 10.107 16.25 8.5C16.2459 6.34638 15.3885 4.28216 13.8657 2.75932C12.3428 1.23648 10.2786 0.37913 8.125 0.375ZM11.8281 8.74219C11.7941 8.81792 11.7464 8.88676 11.6875 8.94531L9.03907 11.5938C8.98234 11.6521 8.91424 11.6981 8.83898 11.729C8.76372 11.7599 8.68291 11.7751 8.60157 11.7734C8.51904 11.7752 8.43701 11.7602 8.36046 11.7293C8.28392 11.6984 8.21444 11.6523 8.15625 11.5938C8.03937 11.4766 7.97373 11.3178 7.97373 11.1523C7.97373 10.9868 8.03937 10.8281 8.15625 10.7109L9.74219 9.125H5C4.83424 9.125 4.67527 9.05915 4.55806 8.94194C4.44085 8.82473 4.375 8.66576 4.375 8.5C4.375 8.33424 4.44085 8.17527 4.55806 8.05806C4.67527 7.94085 4.83424 7.875 5 7.875H9.74219L8.15625 6.28906C8.04853 6.17017 7.99065 6.01441 7.9946 5.85402C7.99855 5.69363 8.06402 5.54091 8.17747 5.42746C8.29091 5.31402 8.44364 5.24854 8.60403 5.24459C8.76441 5.24065 8.92018 5.29853 9.03907 5.40625L11.6875 8.05469C11.7464 8.11324 11.7941 8.18208 11.8281 8.25781C11.8907 8.41321 11.8907 8.58679 11.8281 8.74219Z" fill="#F3F3F3"/>
</svg>
