<svg width="22" height="21" viewBox="0 0 22 21" fill="none" xmlns="http://www.w3.org/2000/svg">
<path fill-rule="evenodd" clip-rule="evenodd" d="M14.7695 2.2498H15.9843C16.7225 2.25078 17.4302 2.54456 17.9522 3.06666C18.4741 3.58876 18.7677 4.29659 18.7685 5.03481V6.24962C18.7676 6.61039 18.9109 6.95634 19.1667 7.21063L20.2047 8.2477C20.7261 8.77062 21.0191 9.47893 21.0191 10.2173C21.0191 10.9557 20.7262 11.664 20.2047 12.1869L19.1676 13.224C18.9119 13.4783 18.7685 13.8243 18.7693 14.185V15.3989C18.7686 16.1373 18.4749 16.8453 17.9528 17.3674C17.4307 17.8895 16.7227 18.1832 15.9843 18.184H14.7695C14.4087 18.1831 14.0628 18.3265 13.8085 18.5822L12.7714 19.6202C12.2486 20.142 11.5403 20.435 10.8018 20.435C10.0633 20.435 9.35493 20.142 8.83218 19.6202L7.79511 18.5831C7.54082 18.3274 7.19485 18.184 6.8341 18.1848H5.62022C4.88184 18.1842 4.17385 17.8904 3.65175 17.3683C3.12963 16.8462 2.83587 16.1382 2.83507 15.3998V14.185C2.83603 13.8242 2.69265 13.4783 2.43692 13.224L1.39891 12.1869C0.877437 11.664 0.584473 10.9557 0.584473 10.2173C0.584473 9.47894 0.877421 8.77062 1.39891 8.24771L2.43692 7.21064C2.69233 6.95618 2.83539 6.61022 2.83428 6.24962V5.03575C2.83493 4.29737 3.12869 3.58938 3.65079 3.06728C4.17289 2.54516 4.88088 2.25139 5.61926 2.2506H6.83407C7.19485 2.25156 7.54079 2.10817 7.79509 1.85245L8.83216 0.814438C9.35508 0.292965 10.0634 0 10.8018 0C11.5402 0 12.2485 0.292948 12.7714 0.814438L13.8085 1.85245C14.0629 2.10786 14.4089 2.25092 14.7695 2.2498ZM9.85134 11.1097L13.1497 7.81211C13.3318 7.64263 13.5889 7.58009 13.8284 7.6474C14.0677 7.71454 14.2549 7.90169 14.3222 8.14119C14.3893 8.38069 14.3268 8.63784 14.1573 8.81973V8.81988L10.3551 12.6221C10.2216 12.7559 10.0404 12.8313 9.85133 12.8313C9.66213 12.8313 9.48088 12.7559 9.34753 12.6221L7.44636 10.7209C7.27688 10.5388 7.21434 10.2817 7.28149 10.0422C7.34879 9.80286 7.53594 9.61572 7.77528 9.5484C8.01478 9.48125 8.27193 9.54379 8.45398 9.71327L9.85134 11.1097Z" fill="url(#paint0_linear_958_1254)"/>
<defs>
<linearGradient id="paint0_linear_958_1254" x1="0.584473" y1="10.145" x2="21.0191" y2="10.145" gradientUnits="userSpaceOnUse">
<stop stop-color="#FAC213"/>
<stop offset="1" stop-color="#FF9B37"/>
</linearGradient>
</defs>
</svg>
