<svg width="64" height="64" viewBox="0 0 64 64" fill="none" xmlns="http://www.w3.org/2000/svg">
<path d="M54.4695 14.4045L55.2094 15.2019L54.5626 16.0765C33.5828 44.4427 21.4971 57.2862 16.3692 55.5636C13.2459 54.5144 10.1136 51.3589 6.98118 46.7769C5.88016 45.1664 4.84627 43.4704 3.90594 41.7827C3.27977 40.6589 2.74977 39.6339 2.47459 39.0566C2.12356 38.3201 1.97535 37.8664 1.85777 37.2706C1.8506 37.2341 1.8506 37.2341 1.84378 37.199C1.7947 36.9461 1.77772 36.8661 1.74104 36.7279C1.10975 34.3486 0.786865 31.8835 0.786865 29.377C0.786865 13.5871 13.5871 0.786865 29.377 0.786865C34.3238 0.786865 39.0909 2.04584 43.3156 4.40914L43.4246 4.47739C46.8836 6.88556 50.5628 10.1946 54.4695 14.4045ZM41.979 6.66703C38.157 4.54138 33.8507 3.40982 29.377 3.40982C15.0357 3.40982 3.40982 15.0357 3.40982 29.377C3.40982 31.656 3.70309 33.8949 4.27627 36.0552C4.33295 36.2688 4.35858 36.3895 4.41871 36.6994C4.42502 36.7319 4.42502 36.7319 4.43109 36.7628C4.50698 37.1473 4.58704 37.3924 4.84232 37.928C5.09335 38.4546 5.59784 39.4303 6.19725 40.5061C7.10102 42.1282 8.09419 43.7573 9.14651 45.2967C11.9766 49.4364 14.7833 52.2639 17.2045 53.0772C20.4338 54.1621 32.5907 41.293 51.803 15.3953C48.315 11.7136 45.0384 8.80417 41.979 6.66703Z" fill="black"/>
<path d="M41.979 6.66712C38.157 4.54147 33.8506 3.40991 29.377 3.40991C15.0357 3.40991 3.40979 15.0358 3.40979 29.3771C3.40979 31.656 3.70306 33.895 4.27624 36.0553C4.33292 36.2689 4.35856 36.3896 4.41869 36.6995C4.425 36.732 4.425 36.732 4.43107 36.7629C4.50695 37.1474 4.58701 37.3925 4.84229 37.9281C5.09333 38.4547 5.59782 39.4304 6.19722 40.5062C7.10099 42.1283 8.09416 43.7574 9.14649 45.2967C11.9765 49.4365 14.7832 52.264 17.2045 53.0773C20.4338 54.1621 32.5907 41.2931 51.803 15.3954C48.315 11.7137 45.0384 8.80427 41.979 6.66712Z" fill="#EC1C79"/>
<path d="M34.6229 63.213C18.833 63.213 6.03271 50.4128 6.03271 34.6229C6.03271 18.833 18.833 6.03271 34.6229 6.03271C50.4128 6.03271 63.213 18.833 63.213 34.6229C63.213 50.4128 50.4128 63.213 34.6229 63.213ZM34.6229 60.5901C48.9642 60.5901 60.5901 48.9642 60.5901 34.6229C60.5901 20.2816 48.9642 8.65567 34.6229 8.65567C20.2816 8.65567 8.65567 20.2816 8.65567 34.6229C8.65567 48.9642 20.2816 60.5901 34.6229 60.5901Z" fill="black"/>
<path d="M34.623 60.5902C48.9643 60.5902 60.5902 48.9643 60.5902 34.623C60.5902 20.2817 48.9643 8.65576 34.623 8.65576C20.2817 8.65576 8.65576 20.2817 8.65576 34.623C8.65576 48.9643 20.2817 60.5902 34.623 60.5902Z" fill="white"/>
<path fill-rule="evenodd" clip-rule="evenodd" d="M15.1983 39.9422L11.7612 29.5868H14.7724L16.5644 35.5356L18.5473 29.5574H21.0003L22.9833 35.5356L24.7753 29.5868H27.7277L24.2905 39.9422H21.8082L19.7371 34.0227L17.6807 39.9422H15.1983ZM28.8587 39.8687V29.5868H37.1283V32.0104H31.6789V33.5673H36.6142V35.8147H31.6789V37.4451H37.2018V39.8687H28.8587ZM41.1677 39.8687V32.0838H38.0831V29.5868H47.1018V32.0838H44.0172V39.8687H41.1677ZM48.3503 39.8687V29.5868H51.1999V33.4351H54.8574V29.5868H57.7069V39.8687H54.8574V35.9616H51.1999V39.8687H48.3503Z" fill="black"/>
<path d="M2.49063 26.4941C1.76505 26.1313 1.47095 25.249 1.83374 24.5235C2.19653 23.7979 3.07883 23.5038 3.80441 23.8666L8.00113 25.9649C8.72671 26.3277 9.02081 27.21 8.65802 27.9356C8.29523 28.6612 7.41293 28.9553 6.68735 28.5925L2.49063 26.4941Z" fill="black"/>
<path d="M2.00739 33.4528C1.27082 33.1128 0.949287 32.2402 1.28922 31.5036C1.62916 30.767 2.50183 30.4455 3.2384 30.7854L7.43512 32.7223C8.17169 33.0622 8.49322 33.9349 8.15329 34.6715C7.81335 35.408 6.94068 35.7296 6.20411 35.3896L2.00739 33.4528Z" fill="black"/>
</svg>
