<svg width="100%" height="100%" viewBox="0 0 25 25" fill="none" xmlns="http://www.w3.org/2000/svg">
<path d="M25 12.5C25 19.4032 19.4032 25 12.5 25C5.59683 25 0 19.4032 0 12.5C0 5.59683 5.59683 0 12.5 0C19.4046 0 25 5.59683 25 12.5Z" fill="#969696"/>
<path d="M18.455 7.94003C17.3058 6.81708 15.7337 6.125 14 6.125C10.4792 6.125 7.625 8.97919 7.625 12.5C7.625 16.0208 10.4792 18.875 14 18.875C15.7337 18.875 17.3058 18.1829 18.455 17.06C17.0842 18.8475 14.9267 20 12.5 20C8.35786 20 5 16.6421 5 12.5C5 8.35786 8.35786 5 12.5 5C14.9267 5 17.0842 6.15251 18.455 7.94003Z" fill="white"/>
<path d="M9.23584 16.148C10.1552 17.0463 11.4129 17.6 12.7999 17.6C15.6165 17.6 17.8999 15.3167 17.8999 12.5C17.8999 9.68334 15.6165 7.4 12.7999 7.4C11.4129 7.4 10.1552 7.95365 9.23584 8.85201C10.3325 7.42201 12.0585 6.5 13.9999 6.5C17.3136 6.5 19.9999 9.18629 19.9999 12.5C19.9999 15.8137 17.3136 18.5 13.9999 18.5C12.0585 18.5 10.3325 17.578 9.23584 16.148Z" fill="white"/>
<path fill-rule="evenodd" clip-rule="evenodd" d="M17 12.5C17 14.9853 14.9853 17 12.5 17C10.0147 17 8 14.9853 8 12.5C8 10.0147 10.0147 8 12.5 8C14.9853 8 17 10.0147 17 12.5ZM15.5 12.5C15.5 14.1569 14.1569 15.5 12.5 15.5C10.8431 15.5 9.5 14.1569 9.5 12.5C9.5 10.8431 10.8431 9.5 12.5 9.5C14.1569 9.5 15.5 10.8431 15.5 12.5Z" fill="white"/>
</svg>
