<svg width="100%" height="100%" viewBox="0 0 28 28" fill="none" xmlns="http://www.w3.org/2000/svg">
<path d="M24.6228 5.38029C22.5197 3.32525 19.6428 2.05875 16.47 2.05875C10.0269 2.05875 4.80376 7.28188 4.80376 13.725C4.80376 20.1681 10.0269 25.3912 16.47 25.3912C19.6428 25.3912 22.5197 24.1248 24.6228 22.0697C22.1141 25.3409 18.1659 27.45 13.725 27.45C6.14487 27.45 0 21.3051 0 13.725C0 6.14485 6.14487 0 13.725 0C18.1659 0 22.1141 2.1091 24.6228 5.38029Z" fill="#6F6F6F"/>
<path d="M7.75195 20.4C9.43447 22.044 11.736 23.0571 14.2742 23.0571C19.4287 23.0571 23.6072 18.8786 23.6072 13.7241C23.6072 8.56962 19.4287 4.39114 14.2742 4.39114C11.736 4.39114 9.43447 5.40429 7.75195 7.04829C9.7589 4.43141 12.9175 2.74414 16.4702 2.74414C22.5342 2.74414 27.4502 7.66008 27.4502 13.7241C27.4502 19.7882 22.5342 24.7041 16.4702 24.7041C12.9175 24.7041 9.7589 23.0168 7.75195 20.4Z" fill="#6F6F6F"/>
<path fill-rule="evenodd" clip-rule="evenodd" d="M21.9598 13.7252C21.9598 18.2733 18.2728 21.9602 13.7248 21.9602C9.17672 21.9602 5.48975 18.2733 5.48975 13.7252C5.48975 9.1772 9.17672 5.49023 13.7248 5.49023C18.2728 5.49023 21.9598 9.1772 21.9598 13.7252ZM19.2148 13.7252C19.2148 16.7573 16.7568 19.2152 13.7248 19.2152C10.6927 19.2152 8.23475 16.7573 8.23475 13.7252C8.23475 10.6932 10.6927 8.23524 13.7248 8.23524C16.7568 8.23524 19.2148 10.6932 19.2148 13.7252Z" fill="#6F6F6F"/>
</svg>
